<?xml version="1.0" encoding="UTF-8" standalone="no"?>
<!-- Created with Inkscape (http://www.inkscape.org/) -->

<svg
   version="1.1"
   id="svg2"
   xml:space="preserve"
   width="666.66669"
   height="666.66669"
   viewBox="0 0 666.66669 666.66669"
   sodipodi:docname="paradigma.svg"
   inkscape:version="1.1.1 (1:1.1+202109281949+c3084ef5ed)"
   xmlns:inkscape="http://www.inkscape.org/namespaces/inkscape"
   xmlns:sodipodi="http://sodipodi.sourceforge.net/DTD/sodipodi-0.dtd"
   xmlns="http://www.w3.org/2000/svg"
   xmlns:svg="http://www.w3.org/2000/svg"><defs
     id="defs6"><radialGradient
       fx="0"
       fy="0"
       cx="0"
       cy="0"
       r="1"
       gradientUnits="userSpaceOnUse"
       gradientTransform="matrix(401.6698,0,0,-401.6698,259.00098,246.99902)"
       spreadMethod="pad"
       id="radialGradient28"><stop
         style="stop-opacity:1;stop-color:#ffffff"
         offset="0"
         id="stop22" /><stop
         style="stop-opacity:1;stop-color:#ffffff"
         offset="0.51179265"
         id="stop24" /><stop
         style="stop-opacity:1;stop-color:#939598"
         offset="1"
         id="stop26" /></radialGradient><clipPath
       clipPathUnits="userSpaceOnUse"
       id="clipPath38"><path
         d="M 0,500 H 500 V 0 H 0 Z"
         id="path36" /></clipPath><clipPath
       clipPathUnits="userSpaceOnUse"
       id="clipPath58"><path
         d="M 28.3042,400.363 H 458.692 V 38.3477 H 28.3042 Z"
         id="path56" /></clipPath><clipPath
       clipPathUnits="userSpaceOnUse"
       id="clipPath314"><path
         d="m 212.417,42.418 h 77.164 V 8.52344 h -77.164 z"
         id="path312" /></clipPath></defs><sodipodi:namedview
     id="namedview4"
     pagecolor="#ffffff"
     bordercolor="#ffffff"
     borderopacity="1"
     inkscape:pageshadow="2"
     inkscape:pageopacity="0.0"
     inkscape:pagecheckerboard="0"
     showgrid="false"
     inkscape:zoom="7.3821946"
     inkscape:cx="416.74599"
     inkscape:cy="329.10268"
     inkscape:window-width="1848"
     inkscape:window-height="1016"
     inkscape:window-x="72"
     inkscape:window-y="27"
     inkscape:window-maximized="1"
     inkscape:current-layer="g8" /><g
     id="g8"
     inkscape:groupmode="layer"
     inkscape:label="work3"
     transform="matrix(1.3333333,0,0,-1.3333333,0,666.66667)"><path
       d="m 101.3916,346.4829 c 3.434,-4.611 2.479,-11.133 -2.133,-14.567 -4.613,-3.436 -11.135,-2.48 -14.568,2.131 -3.435,4.613 -2.48,11.134 2.133,14.569 4.612,3.434 11.133,2.479 14.568,-2.133 m -13.222,6.265 c -0.661,-0.258 -1.311,-0.561 -1.936,-0.93 l -0.054,0.063 -2.504,2.076 -2.547,-2.169 1.638,-2.92 c -0.467,-0.557 -0.892,-1.141 -1.257,-1.755 l -0.059,0.023 -3.195,0.617 -1.19,-3.126 2.833,-1.768 c -0.14,-0.709 -0.229,-1.426 -0.253,-2.149 l -0.06,-0.009 -3.097,-0.994 0.461,-3.314 3.335,-0.205 c 0.217,-0.684 0.29,-1.083 0.837,-2.028 l -0.047,-0.035 -2.201,-2.275 1.997,-2.683 2.973,1.41 c 0.694,-0.66 1.426,-1.251 2.224,-1.738 l -0.029,-0.06 -0.675,-3.189 3.106,-1.241 1.814,2.806 c 1.064,-0.222 2.15,-0.325 3.24,-0.286 l 0.014,-0.072 1.196,-3.027 3.277,0.678 -0.034,3.358 v 0.004 c 0.66,0.261 1.309,0.563 1.934,0.936 l 0.054,-0.063 2.506,-2.079 2.546,2.17 -1.643,2.927 -0.016,0.016 c 0.461,0.555 0.885,1.135 1.243,1.744 l 0.093,-0.035 3.196,-0.617 1.189,3.127 -2.848,1.776 -0.038,0.013 c 0.136,0.698 0.22,1.406 0.244,2.118 l 0.122,0.018 3.098,0.995 -0.461,3.314 -3.352,0.188 -0.181,0.183 c -0.214,0.671 -0.406,1.219 -0.955,2.162 l 0.106,0.078 2.193,1.734 -1.998,2.683 -2.864,-1.324 0.051,0.035 c -0.684,0.652 -1.381,1.254 -2.166,1.737 l 0.065,0.129 0.681,3.191 -3.103,1.245 -1.82,-2.817 -0.008,-0.029 c -1.056,0.226 -2.135,0.329 -3.217,0.297 l -0.02,0.104 -1.196,3.025 -3.276,-0.677 0.031,-3.356 z"
       style="fill:#c49a6c;fill-opacity:1;fill-rule:nonzero;stroke:none"
       id="path42" /><path
       d="m 89.3296,310.8008 c -3.65,0 -7.333,-1.133 -10.486,-3.481 -7.79,-5.8 -9.401,-16.813 -3.604,-24.601 3.451,-4.634 8.749,-7.082 14.115,-7.082 3.651,0 7.332,1.133 10.487,3.48 7.789,5.801 9.401,16.813 3.601,24.601 -3.45,4.635 -8.747,7.083 -14.113,7.083 m 0,-2.573 c 4.797,0 9.189,-2.204 12.049,-6.047 2.395,-3.215 3.393,-7.17 2.813,-11.136 -0.581,-3.966 -2.672,-7.469 -5.887,-9.863 -2.611,-1.944 -5.706,-2.972 -8.95,-2.972 -4.798,0 -9.19,2.204 -12.05,6.046 -2.394,3.215 -3.392,7.17 -2.812,11.136 0.581,3.966 2.671,7.469 5.888,9.864 2.611,1.944 5.705,2.972 8.949,2.972"
       style="fill:#02cbc9;fill-opacity:1;fill-rule:nonzero;stroke:none"
       id="path46" /><path
       d="m 105.4756,305.2314 c 6.635,-8.91 4.79,-21.51 -4.122,-28.146 -8.911,-6.636 -21.51,-4.79 -28.144,4.12 -6.635,8.911 -4.792,21.51 4.12,28.146 8.912,6.634 21.511,4.79 28.146,-4.12 m -24.945,10.567 c -1.196,-0.467 -2.37,-1.014 -3.503,-1.682 l -0.097,0.114 -4.528,3.756 -4.609,-3.924 2.965,-5.282 c -0.847,-1.008 -1.616,-2.064 -2.276,-3.175 l -0.106,0.042 -5.779,1.116 -2.153,-5.656 5.125,-3.197 c -0.255,-1.283 -0.414,-2.58 -0.458,-3.888 l -0.108,-0.016 -5.604,-1.798 0.835,-5.996 6.032,-0.37 c 0.393,-1.238 0.526,-1.96 1.516,-3.668 l -0.086,-0.064 -3.983,-4.115 3.614,-4.854 5.377,2.552 c 1.256,-1.195 2.581,-2.264 4.023,-3.145 l -0.051,-0.109 -1.222,-5.768 5.618,-2.246 3.281,5.077 c 1.926,-0.402 3.892,-0.588 5.862,-0.518 l 0.025,-0.129 2.165,-5.477 5.926,1.226 -0.06,6.075 v 0.008 c 1.192,0.472 2.367,1.018 3.497,1.692 l 0.099,-0.113 4.533,-3.762 4.605,3.927 -2.971,5.295 -0.029,0.028 c 0.833,1.005 1.6,2.054 2.249,3.156 l 0.168,-0.063 5.781,-1.117 2.149,5.656 -5.15,3.214 -0.068,0.021 c 0.244,1.264 0.397,2.545 0.439,3.834 l 0.221,0.031 5.605,1.8 -0.833,5.995 -6.065,0.34 -0.328,0.33 c -0.386,1.215 -0.733,2.207 -1.725,3.913 l 0.19,0.141 3.967,3.137 -3.614,4.852 -5.181,-2.394 0.093,0.062 c -1.239,1.18 -2.498,2.27 -3.919,3.144 l 0.118,0.231 1.23,5.774 -5.611,2.251 -3.291,-5.095 -0.016,-0.052 c -1.91,0.409 -3.862,0.595 -5.818,0.537 l -0.038,0.188 -2.163,5.472 -5.928,-1.224 0.058,-6.072 z"
       style="fill:#02cbc9;fill-opacity:1;fill-rule:nonzero;stroke:none"
       id="path50" /><g
       id="g52"><g
         id="g54" /><g
         id="g78"><g
           clip-path="url(#clipPath58)"
           opacity="0.199997"
           id="g76"><g
             transform="translate(66.4326,331.2759)"
             id="g62"><path
               d="m 0,0 c -7.967,0 -14.448,-6.481 -14.448,-14.448 0,-4.579 2.121,-8.792 5.821,-11.559 2.062,-1.543 3.034,-4.145 2.49,-6.661 -0.543,-2.517 -2.503,-4.486 -5.018,-5.04 -8.001,-1.762 -13.807,-8.991 -13.807,-17.189 0,-9.714 7.902,-17.617 17.616,-17.617 h 77.32 c 2.859,0 5.391,-1.846 6.267,-4.567 0.875,-2.722 -0.107,-5.698 -2.429,-7.365 -3.789,-2.719 -6.05,-7.104 -6.05,-11.733 0,-7.967 6.481,-14.447 14.447,-14.447 h 31.346 c 2.807,0 5.306,-1.782 6.222,-4.436 2.879,-8.34 9.586,-13.728 17.088,-13.728 h 74.653 c 10.195,0 18.49,9.913 18.49,22.096 0,10.423 -6.208,19.52 -14.762,21.628 -3.011,0.743 -5.096,3.486 -5.005,6.585 0.092,3.099 2.332,5.715 5.381,6.28 8.303,1.539 14.351,8.789 14.381,17.239 -0.031,8.606 -6.197,15.945 -14.66,17.402 -2.573,0.443 -4.64,2.363 -5.272,4.896 -0.631,2.533 0.294,5.199 2.358,6.797 3.578,2.77 5.63,6.932 5.63,11.419 0,7.967 -6.481,14.448 -14.447,14.448 h -9.948 c -2.448,0 -4.695,1.359 -5.831,3.528 -1.136,2.168 -0.976,4.788 0.418,6.801 1.678,2.424 2.564,5.261 2.564,8.203 0,7.966 -6.481,14.447 -14.447,14.447 h -21.605 c -1.848,0 -3.613,0.778 -4.86,2.143 -1.247,1.364 -1.862,3.191 -1.696,5.032 0.048,0.528 0.07,0.948 0.07,1.32 0,7.966 -6.481,14.447 -14.448,14.447 H 71.216 c -7.966,0 -14.447,-6.481 -14.447,-14.447 0,-0.372 0.022,-0.792 0.069,-1.32 0.166,-1.842 -0.45,-3.668 -1.697,-5.033 -1.247,-1.364 -3.01,-2.142 -4.859,-2.142 H 24.854 c -7.967,0 -14.448,-6.481 -14.448,-14.447 0,-2.942 0.886,-5.779 2.564,-8.203 C 14.363,8.316 14.524,5.696 13.388,3.528 12.252,1.359 10.005,0 7.557,0 Z m 211.518,-141.956 h -74.653 c -11.719,0 -22.172,6.991 -27.684,18.164 H 82.209 c -15.226,0 -27.613,12.386 -27.613,27.613 0,3.643 0.729,7.206 2.09,10.499 H -7.346 c -16.974,0 -30.782,13.809 -30.782,30.783 0,10.769 5.735,20.582 14.523,26.102 -2.602,4.252 -4.009,9.176 -4.009,14.347 0,14.479 11.202,26.392 25.395,27.526 -0.358,1.782 -0.541,3.608 -0.541,5.454 0,15.226 12.387,27.613 27.614,27.613 h 19.144 c 2.226,13.009 13.583,22.942 27.218,22.942 h 62.613 c 13.634,0 24.993,-9.933 27.219,-22.942 h 15.32 c 15.226,0 27.613,-12.387 27.613,-27.613 0,-1.816 -0.176,-3.612 -0.523,-5.366 h 0.154 c 15.226,0 27.613,-12.387 27.613,-27.614 0,-4.905 -1.276,-9.603 -3.64,-13.715 9.384,-5.341 15.543,-15.419 15.584,-26.799 -0.035,-9.716 -4.594,-18.512 -11.822,-24.174 7.317,-6.494 11.827,-16.47 11.827,-27.558 0,-19.443 -14.201,-35.262 -31.656,-35.262"
               style="fill:#939598;fill-opacity:1;fill-rule:nonzero;stroke:none"
               id="path60" /></g><g
             transform="translate(303.0234,269.6191)"
             id="g66"><path
               d="m 0,0 c -3.537,0 -6.421,2.788 -6.576,6.286 -0.007,0.131 -0.012,0.268 -0.012,0.385 0,0.118 0.005,0.257 0.012,0.388 0.156,3.497 3.04,6.283 6.576,6.283 3.636,0 6.583,-2.947 6.583,-6.583 V 6.583 C 6.583,2.947 3.636,0 0,0"
               style="fill:#939598;fill-opacity:1;fill-rule:nonzero;stroke:none"
               id="path64" /></g><g
             transform="translate(435.5479,313.3672)"
             id="g70"><path
               d="m 0,0 c -0.025,-0.038 -0.063,-0.063 -0.1,-0.1 -0.088,-0.075 -0.187,-0.162 -0.275,-0.25 -0.037,-0.037 -0.162,-0.162 -0.35,-0.362 -0.012,-0.025 -0.037,-0.05 -0.075,-0.087 -1.573,-1.737 -7.044,-8.257 -9.979,-18.274 -1.137,-3.885 -1.886,-8.281 -1.886,-13.14 0,-0.287 0.024,-0.562 0.062,-0.837 0,0 -0.087,-0.337 -0.25,-0.537 -0.317,-0.376 -1.096,-0.767 -2.424,-0.986 h -32.86 c -1.286,0.211 -2.069,0.585 -2.399,0.949 -0.213,0.225 -0.263,0.524 -0.263,0.687 0.075,0.312 0.038,0.325 0.038,0.724 0,4.734 -0.724,9.043 -1.811,12.853 -2.211,7.732 -5.946,13.415 -8.319,16.475 -0.656,0.849 -1.33,1.694 -2.086,2.458 -1.618,1.635 -3.419,3.017 -4.911,4.791 -1.5,1.783 -2.74,3.761 -3.812,5.826 -2.171,4.184 -3.939,8.71 -4.767,13.364 -0.481,2.705 -0.736,5.535 -0.736,8.284 0,24.906 20.271,45.165 45.178,45.165 24.906,0 45.177,-20.259 45.177,-45.165 C 13.152,19.435 8.119,8.169 0,0 m -27.333,-70.439 h -9.385 c -2.581,0 -4.91,1.085 -6.567,2.818 h 22.519 c -1.658,-1.733 -3.986,-2.818 -6.567,-2.818 m -18.484,14.372 h 27.584 v -1.457 h -27.584 z m 26.746,11.397 c 0.27,-0.08 0.55,-0.139 0.838,-0.172 v -1.129 h -27.584 v 1.094 c 0.017,0 0.034,-10e-4 0.052,-10e-4 0.49,0 0.962,0.075 1.41,0.208 z M -32.025,86.996 c -30.414,0 -55.17,-24.744 -55.17,-55.158 0,-16.5 7.281,-31.326 18.785,-41.431 2.673,-3.584 7.569,-11.615 7.656,-22.32 -0.225,-2.248 0.313,-5.545 2.561,-8.219 0.906,-1.087 2.003,-1.985 3.276,-2.7 v -18.507 c 0,-10.035 8.164,-18.2 18.199,-18.2 h 0.507 8.371 0.507 c 10.034,0 18.199,8.165 18.199,18.2 v 18.178 c 1.544,0.761 2.85,1.768 3.901,3.029 2.248,2.674 2.785,5.971 2.56,8.219 0.125,14.626 9.193,24.219 9.38,24.406 0.163,0.175 0.313,0.35 0.45,0.537 9.88,9.98 15.988,23.695 15.988,38.808 0,30.414 -24.756,55.158 -55.17,55.158"
               style="fill:#939598;fill-opacity:1;fill-rule:nonzero;stroke:none"
               id="path68" /></g><g
             transform="translate(330.5811,38.3477)"
             id="g74"><path
               d="m 0,0 h -5.957 c -43.394,0 -78.697,35.303 -78.697,78.696 v 78.964 h 11.001 V 78.696 C -73.653,41.368 -43.286,11 -5.957,11 H 0 c 37.327,0 67.696,30.368 67.696,67.696 V 199.66 h 11 V 78.696 C 78.696,35.303 43.394,0 0,0"
               style="fill:#939598;fill-opacity:1;fill-rule:nonzero;stroke:none"
               id="path72" /></g></g></g></g><path
       d="m 202.3535,233.2559 c 2.923,-3.924 2.11,-9.474 -1.815,-12.396 -3.925,-2.923 -9.475,-2.11 -12.396,1.814 -2.922,3.925 -2.11,9.475 1.815,12.397 3.925,2.922 9.474,2.11 12.396,-1.815 m -10.986,4.655 c -0.528,-0.206 -1.045,-0.447 -1.543,-0.741 l -0.044,0.05 -1.994,1.654 -2.029,-1.728 1.304,-2.327 c -0.372,-0.443 -0.71,-0.909 -1.001,-1.398 l -0.047,0.019 -2.546,0.491 -0.947,-2.49 2.257,-1.409 c -0.112,-0.565 -0.183,-1.136 -0.202,-1.713 l -0.048,-0.006 -2.468,-0.792 0.368,-2.641 2.656,-0.163 c 0.174,-0.545 0.232,-0.863 0.668,-1.615 l -0.037,-0.029 -1.755,-1.813 1.592,-2.137 2.369,1.123 c 0.553,-0.526 1.136,-0.997 1.772,-1.385 l -0.024,-0.047 -0.537,-2.54 2.474,-0.99 1.446,2.236 c 0.847,-0.177 1.713,-0.259 2.581,-0.229 l 0.011,-0.056 0.953,-2.413 2.611,0.54 -0.027,2.676 v 0.003 c 0.526,0.209 1.043,0.449 1.541,0.746 l 0.043,-0.05 1.997,-1.657 2.028,1.73 -1.309,2.332 -0.013,0.012 c 0.367,0.443 0.705,0.905 0.99,1.39 l 0.075,-0.027 2.546,-0.492 0.947,2.491 -2.269,1.416 -0.03,0.01 c 0.108,0.555 0.175,1.12 0.194,1.687 l 0.098,0.014 2.468,0.793 -0.367,2.64 -2.671,0.15 -0.144,0.145 c -0.171,0.535 -0.323,0.973 -0.761,1.724 l 0.084,0.062 1.747,1.381 -1.591,2.138 -2.282,-1.055 0.04,0.028 c -0.544,0.519 -1.1,1 -1.725,1.384 l 0.052,0.102 0.542,2.543 -2.472,0.992 -1.45,-2.244 -0.007,-0.024 c -0.841,0.181 -1.701,0.263 -2.563,0.237 l -0.016,0.084 -0.953,2.409 -2.61,-0.539 0.025,-2.674 z"
       style="fill:#c49a6c;fill-opacity:1;fill-rule:nonzero;stroke:none"
       id="path82" /><path
       d="m 154.2324,245.457 c 2.941,-3.949 2.124,-9.534 -1.826,-12.475 -3.95,-2.942 -9.535,-2.123 -12.475,1.826 -2.941,3.95 -2.124,9.534 1.826,12.475 3.95,2.941 9.534,2.123 12.475,-1.826 m -11.056,4.684 c -0.53,-0.207 -1.051,-0.45 -1.553,-0.746 l -0.043,0.051 -2.007,1.665 -2.042,-1.74 1.313,-2.341 c -0.375,-0.447 -0.716,-0.915 -1.008,-1.407 l -0.048,0.019 -2.561,0.494 -0.954,-2.507 2.271,-1.416 c -0.112,-0.569 -0.184,-1.145 -0.203,-1.724 l -0.047,-0.008 -2.484,-0.796 0.369,-2.658 2.674,-0.164 c 0.174,-0.549 0.233,-0.869 0.672,-1.626 l -0.038,-0.028 -1.765,-1.824 1.602,-2.152 2.383,1.131 c 0.557,-0.529 1.144,-1.003 1.784,-1.393 l -0.024,-0.048 -0.541,-2.557 2.49,-0.996 1.455,2.251 c 0.853,-0.179 1.723,-0.262 2.598,-0.23 l 0.011,-0.057 0.959,-2.428 2.627,0.544 -0.027,2.693 v 0.002 c 0.528,0.21 1.049,0.452 1.55,0.75 l 0.044,-0.049 2.009,-1.667 2.041,1.739 -1.317,2.348 -0.012,0.012 c 0.369,0.446 0.709,0.91 0.996,1.399 l 0.075,-0.028 2.562,-0.495 0.953,2.507 -2.283,1.425 -0.03,0.009 c 0.108,0.56 0.176,1.128 0.195,1.699 l 0.098,0.015 2.484,0.796 -0.369,2.658 -2.689,0.15 -0.145,0.148 c -0.171,0.538 -0.325,0.977 -0.765,1.733 l 0.085,0.062 1.758,1.391 -1.602,2.151 -2.297,-1.061 0.042,0.027 c -0.549,0.524 -1.107,1.006 -1.737,1.394 l 0.052,0.102 0.546,2.559 -2.488,0.998 -1.459,-2.258 -0.006,-0.023 c -0.847,0.181 -1.712,0.263 -2.579,0.238 l -0.017,0.083 -0.959,2.426 -2.627,-0.543 0.025,-2.691 z"
       style="fill:#c49a6c;fill-opacity:1;fill-rule:nonzero;stroke:none"
       id="path86" /><path
       d="m 255.0732,301.1929 h -0.003 c -5.801,-0.001 -10.502,-4.705 -10.502,-10.505 0.002,-5.8 4.704,-10.501 10.504,-10.501 h 0.001 c 5.803,0.001 10.504,4.705 10.503,10.505 -0.003,5.799 -4.703,10.501 -10.503,10.501"
       style="fill:#fe335a;fill-opacity:1;fill-rule:nonzero;stroke:none"
       id="path90" /><path
       d="m 267.0898,290.6919 c 10e-4,-6.637 -5.378,-12.018 -12.016,-12.019 -6.637,-0.002 -12.018,5.378 -12.019,12.014 -0.001,6.637 5.377,12.018 12.014,12.02 6.638,10e-4 12.019,-5.378 12.021,-12.015 m -8.186,13.962 c -0.739,0.203 -1.499,0.361 -2.279,0.444 l -0.007,0.089 -0.829,3.416 -3.608,-0.237 -0.464,-3.59 c -0.766,-0.18 -1.51,-0.412 -2.223,-0.708 l -0.037,0.056 -2.37,2.597 -3.05,-1.942 1.316,-3.36 c -0.579,-0.525 -1.12,-1.089 -1.606,-1.7 l -0.058,0.031 -3.327,1.136 -1.739,-3.17 2.759,-2.318 c -0.254,-0.733 -0.448,-1.252 -0.581,-2.287 h -0.065 l -3.493,-0.576 0.001,-3.615 3.546,-0.694 c 0.175,-1.023 0.457,-2.007 0.835,-2.942 l -0.05,-0.034 -2.635,-2.329 1.896,-3.081 3.385,1.264 c 0.779,-0.88 1.655,-1.67 2.624,-2.34 l -0.033,-0.071 -0.916,-3.397 3.278,-1.526 2.138,2.933 0.002,0.002 c 0.741,-0.198 1.498,-0.356 2.281,-0.435 l 0.006,-0.09 0.831,-3.419 3.608,0.239 0.464,3.597 -0.003,0.024 c 0.757,0.185 1.499,0.413 2.204,0.711 l 0.057,-0.091 2.373,-2.598 3.047,1.944 -1.323,3.379 -0.025,0.034 c 0.569,0.518 1.099,1.077 1.58,1.681 l 0.117,-0.065 3.329,-1.137 1.737,3.171 -2.784,2.326 -0.04,0.205 c 0.247,0.72 0.437,1.386 0.568,2.42 h 0.143 l 3.035,0.229 -10e-4,3.615 -3.346,0.7 0.064,-0.003 c -0.173,1.008 -0.39,1.979 -0.757,2.904 l 0.137,0.069 2.647,2.328 -1.885,3.082 -3.396,-1.268 -0.026,-0.02 c -0.769,0.877 -1.637,1.663 -2.596,2.332 l 0.048,0.105 0.917,3.393 -3.279,1.528 -2.137,-2.93 z"
       style="fill:#fe335a;fill-opacity:1;fill-rule:nonzero;stroke:none"
       id="path94" /><path
       d="m 215.2432,294.3325 h -0.002 c -5.432,-10e-4 -9.833,-4.404 -9.833,-9.835 0.002,-5.431 4.403,-9.833 9.835,-9.833 v 0 c 5.433,0.001 9.834,4.406 9.833,9.835 -0.001,5.431 -4.403,9.833 -9.833,9.833 m 0,-2.421 c 4.086,0 7.411,-3.325 7.413,-7.412 10e-4,-4.087 -3.325,-7.414 -7.413,-7.415 -4.087,0 -7.414,3.326 -7.415,7.413 0,4.087 3.326,7.414 7.413,7.414 h 0.002"
       style="fill:#00a79d;fill-opacity:1;fill-rule:nonzero;stroke:none"
       id="path98" /><path
       d="m 226.4941,284.5005 c 0.001,-6.214 -5.035,-11.252 -11.25,-11.253 -6.215,-0.002 -11.252,5.036 -11.253,11.248 -10e-4,6.215 5.034,11.253 11.249,11.255 6.215,0 11.253,-5.035 11.254,-11.25 m -7.664,13.073 c -0.692,0.189 -1.403,0.337 -2.133,0.415 l -0.007,0.084 -0.777,3.198 -3.378,-0.222 -0.434,-3.36 c -0.717,-0.17 -1.414,-0.387 -2.082,-0.664 l -0.034,0.053 -2.22,2.431 -2.855,-1.818 1.232,-3.147 c -0.542,-0.491 -1.048,-1.019 -1.504,-1.591 l -0.054,0.028 -3.115,1.065 -1.628,-2.968 2.584,-2.17 c -0.239,-0.687 -0.42,-1.173 -0.545,-2.142 h -0.06 l -3.271,-0.539 10e-4,-3.385 3.32,-0.65 c 0.163,-0.957 0.428,-1.879 0.782,-2.754 l -0.047,-0.032 -2.467,-2.181 1.774,-2.884 3.17,1.183 c 0.729,-0.824 1.55,-1.564 2.457,-2.19 l -0.031,-0.067 -0.857,-3.181 3.069,-1.428 2.002,2.745 10e-4,0.002 c 0.694,-0.185 1.402,-0.333 2.136,-0.406 l 0.006,-0.085 0.777,-3.202 3.379,0.224 0.435,3.369 -0.003,0.022 c 0.708,0.173 1.403,0.387 2.063,0.666 l 0.053,-0.086 2.222,-2.433 2.853,1.821 -1.239,3.163 -0.023,0.032 c 0.533,0.485 1.029,1.009 1.48,1.574 l 0.109,-0.06 3.116,-1.066 1.627,2.97 -2.607,2.177 -0.037,0.193 c 0.231,0.674 0.409,1.297 0.531,2.265 h 0.134 l 2.842,0.214 -0.001,3.386 -3.133,0.655 0.06,-0.003 c -0.161,0.943 -0.364,1.853 -0.709,2.719 l 0.129,0.065 2.479,2.18 -1.765,2.885 -3.18,-1.187 -0.024,-0.019 c -0.721,0.821 -1.534,1.558 -2.432,2.184 l 0.046,0.097 0.858,3.178 -3.07,1.431 -2.001,-2.744 z"
       style="fill:#00a79d;fill-opacity:1;fill-rule:nonzero;stroke:none"
       id="path102" /><path
       d="m 135.5576,287.439 h -0.002 c -4.915,0 -8.897,-3.985 -8.897,-8.899 10e-4,-4.914 3.984,-8.897 8.899,-8.897 v 0 c 4.916,0.001 8.898,3.986 8.897,8.9 -0.001,4.913 -3.984,8.896 -8.897,8.896 m 0,-2.19 c 3.697,0 6.706,-3.009 6.707,-6.707 0.001,-3.698 -3.008,-6.708 -6.707,-6.708 -3.698,0 -6.708,3.008 -6.709,6.706 0,3.698 3.009,6.708 6.707,6.709 h 0.002"
       style="fill:#a674c3;fill-opacity:1;fill-rule:nonzero;stroke:none"
       id="path106" /><path
       d="m 145.7373,278.543 c 0.001,-5.623 -4.555,-10.181 -10.179,-10.182 -5.623,-0.002 -10.181,4.556 -10.182,10.178 -0.001,5.623 4.555,10.181 10.178,10.183 5.624,0 10.182,-4.556 10.183,-10.179 m -6.934,11.828 c -0.626,0.172 -1.27,0.306 -1.931,0.377 l -0.006,0.075 -0.702,2.893 -3.057,-0.2 -0.393,-3.041 c -0.648,-0.153 -1.28,-0.349 -1.884,-0.6 l -0.031,0.047 -2.008,2.2 -2.584,-1.645 1.116,-2.847 c -0.491,-0.444 -0.949,-0.921 -1.361,-1.44 l -0.049,0.026 -2.819,0.963 -1.473,-2.686 2.338,-1.963 c -0.216,-0.621 -0.38,-1.061 -0.493,-1.938 h -0.054 l -2.96,-0.488 0.001,-3.062 3.004,-0.588 c 0.148,-0.867 0.387,-1.7 0.707,-2.493 l -0.042,-0.028 -2.233,-1.974 1.607,-2.609 2.867,1.07 c 0.66,-0.746 1.402,-1.415 2.224,-1.982 l -0.029,-0.06 -0.776,-2.878 2.777,-1.292 1.812,2.484 0.002,0.002 c 0.627,-0.168 1.268,-0.302 1.932,-0.369 l 0.005,-0.076 0.704,-2.897 3.056,0.203 0.394,3.048 -0.002,0.02 c 0.641,0.156 1.269,0.35 1.866,0.602 l 0.048,-0.078 2.01,-2.201 2.582,1.648 -1.121,2.862 -0.021,0.029 c 0.483,0.439 0.932,0.912 1.339,1.424 l 0.099,-0.054 2.819,-0.964 1.473,2.687 -2.359,1.97 -0.034,0.173 c 0.209,0.611 0.37,1.174 0.481,2.051 h 0.121 l 2.572,0.193 -0.001,3.063 -2.835,0.593 0.054,-0.002 c -0.146,0.853 -0.33,1.676 -0.641,2.46 l 0.116,0.058 2.243,1.973 -1.598,2.611 -2.876,-1.075 -0.022,-0.017 c -0.652,0.744 -1.388,1.41 -2.2,1.976 l 0.041,0.088 0.777,2.876 -2.778,1.294 -1.81,-2.483 z"
       style="fill:#a674c3;fill-opacity:1;fill-rule:nonzero;stroke:none"
       id="path110" /><path
       d="m 157.7324,366.7739 c -2.333,0 -4.704,-0.293 -7.067,-0.906 -15.009,-3.892 -24.015,-19.213 -20.122,-34.217 3.279,-12.643 14.668,-21.031 27.149,-21.031 2.334,0 4.705,0.293 7.07,0.906 15.007,3.894 24.012,19.216 20.122,34.22 -3.281,12.642 -14.673,21.028 -27.152,21.028 m 0,-3.427 c 11.212,0 21.014,-7.592 23.835,-18.461 3.411,-13.154 -4.514,-26.631 -17.666,-30.042 -2.038,-0.529 -4.127,-0.797 -6.209,-0.797 -11.212,0 -21.012,7.593 -23.832,18.464 -1.653,6.371 -0.726,13.005 2.61,18.679 3.336,5.673 8.683,9.708 15.055,11.361 2.037,0.528 4.125,0.796 6.207,0.796"
       style="fill:#834296;fill-opacity:1;fill-rule:nonzero;stroke:none"
       id="path114" /><path
       d="m 188.7993,346.7607 c 4.453,-17.167 -5.851,-34.694 -23.022,-39.149 -17.171,-4.453 -34.696,5.854 -39.151,23.021 -4.451,17.17 5.851,34.694 23.023,39.151 17.171,4.453 34.695,-5.854 39.15,-23.023 m -30.538,30.631 c -2.049,0.03 -4.116,-0.073 -6.192,-0.38 l -0.077,0.226 -4.437,8.28 -9.175,-3.033 1.206,-9.594 c -1.858,-0.982 -3.631,-2.079 -5.274,-3.325 l -0.134,0.121 -7.873,5.129 -6.584,-7.071 5.653,-7.809 c -1.147,-1.747 -2.165,-3.569 -3.015,-5.477 l -0.17,0.043 -9.37,0.709 -2.371,-9.368 8.699,-4.176 c -0.165,-2.067 -0.402,-3.215 0.038,-6.336 l -0.167,-0.045 -8.364,-3.692 2.426,-9.352 9.486,0.542 c 1.139,-2.524 2.455,-4.901 4.059,-7.07 l -0.143,-0.13 -5.276,-7.8 6.961,-6.696 7.907,5.534 c 2.602,-1.754 5.399,-3.211 8.355,-4.292 l -0.039,-0.206 -0.093,-9.403 9.503,-1.751 3.565,9.019 0.002,0.012 c 2.049,-0.016 4.115,0.084 6.192,0.403 l 0.078,-0.23 4.442,-8.288 9.172,3.039 -1.211,9.619 -0.026,0.059 c 1.84,0.985 3.601,2.074 5.225,3.315 l 0.213,-0.195 7.878,-5.13 6.582,7.073 -5.688,7.852 -0.087,0.069 c 1.122,1.725 2.119,3.527 2.954,5.409 l 0.348,-0.088 9.371,-0.709 2.37,9.366 -8.761,4.152 -0.285,0.688 c 0.155,2.026 0.244,3.702 -0.202,6.821 l 0.368,0.095 7.752,2.253 -2.423,9.353 -9.108,-0.427 0.178,0.036 c -1.124,2.491 -2.332,4.861 -3.905,7.009 l 0.313,0.271 5.29,7.796 -6.944,6.707 -7.933,-5.557 -0.053,-0.067 c -2.581,1.753 -5.355,3.204 -8.282,4.291 l 0.058,0.304 0.092,9.393 -9.504,1.756 -3.565,-9.016 z"
       style="fill:#834296;fill-opacity:1;fill-rule:nonzero;stroke:none"
       id="path118" /><path
       d="m 178.8726,280.1523 c -3.104,0 -6.234,-0.963 -8.915,-2.96 -6.622,-4.93 -7.991,-14.292 -3.063,-20.913 2.933,-3.939 7.437,-6.02 11.999,-6.02 3.104,0 6.233,0.963 8.915,2.959 6.621,4.931 7.992,14.292 3.061,20.913 -2.933,3.94 -7.436,6.021 -11.997,6.021"
       style="fill:#02a8ee;fill-opacity:1;fill-rule:nonzero;stroke:none"
       id="path122" /><path
       d="m 192.5977,275.418 c 5.64,-7.575 4.072,-18.286 -3.503,-23.926 -7.577,-5.642 -18.287,-4.073 -23.926,3.501 -5.64,7.575 -4.073,18.286 3.503,23.927 7.575,5.64 18.285,4.072 23.926,-3.502 m -21.206,8.982 c -1.016,-0.396 -2.015,-0.861 -2.977,-1.429 l -0.083,0.097 -3.849,3.193 -3.918,-3.337 2.52,-4.489 c -0.719,-0.857 -1.373,-1.754 -1.934,-2.7 l -0.091,0.036 -4.912,0.949 -1.83,-4.808 4.356,-2.717 c -0.216,-1.091 -0.352,-2.194 -0.389,-3.306 l -0.092,-0.013 -4.764,-1.529 0.71,-5.096 5.127,-0.315 c 0.334,-1.053 0.448,-1.666 1.29,-3.119 l -0.074,-0.054 -3.386,-3.499 3.072,-4.125 4.572,2.169 c 1.068,-1.017 2.193,-1.925 3.42,-2.673 l -0.044,-0.093 -1.038,-4.904 4.775,-1.908 2.79,4.315 c 1.637,-0.343 3.308,-0.501 4.983,-0.44 l 0.021,-0.111 1.841,-4.655 5.038,1.042 -0.052,5.164 v 0.007 c 1.014,0.401 2.012,0.865 2.974,1.438 l 0.083,-0.095 3.854,-3.199 3.914,3.338 -2.526,4.502 -0.024,0.024 c 0.708,0.854 1.36,1.746 1.912,2.683 l 0.143,-0.054 4.914,-0.949 1.827,4.808 -4.379,2.732 -0.057,0.017 c 0.208,1.076 0.338,2.164 0.374,3.26 l 0.187,0.027 4.765,1.529 -0.709,5.097 -5.155,0.289 -0.279,0.28 c -0.328,1.033 -0.623,1.876 -1.466,3.326 l 0.161,0.121 3.373,2.666 -3.073,4.126 -4.404,-2.037 0.079,0.054 c -1.053,1.003 -2.123,1.929 -3.331,2.672 l 0.1,0.197 1.046,4.908 -4.771,1.914 -2.798,-4.331 -0.013,-0.045 c -1.623,0.349 -3.283,0.506 -4.946,0.457 l -0.032,0.16 -1.839,4.652 -5.039,-1.041 0.05,-5.161 z"
       style="fill:#02a8ee;fill-opacity:1;fill-rule:nonzero;stroke:none"
       id="path126" /><path
       d="m 245.1772,325.6143 c 0.001,-8.881 -7.195,-16.081 -16.077,-16.082 -8.881,-0.002 -16.08,7.195 -16.082,16.076 -0.001,8.88 7.194,16.08 16.076,16.082 8.883,0.001 16.081,-7.196 16.083,-16.076 m -10.952,18.681 c -0.99,0.272 -2.004,0.482 -3.049,0.594 l -0.01,0.119 -1.109,4.57 -4.828,-0.317 -0.62,-4.801 c -1.025,-0.243 -2.022,-0.552 -2.976,-0.949 l -0.049,0.076 -3.172,3.474 -4.079,-2.599 1.76,-4.496 c -0.775,-0.702 -1.498,-1.456 -2.15,-2.275 l -0.077,0.042 -4.451,1.521 -2.327,-4.243 3.692,-3.101 c -0.34,-0.981 -0.599,-1.675 -0.777,-3.061 h -0.087 l -4.674,-0.769 0.001,-4.837 4.744,-0.93 c 0.234,-1.366 0.612,-2.683 1.118,-3.936 l -0.067,-0.045 -3.526,-3.117 2.536,-4.121 4.53,1.689 c 1.042,-1.177 2.214,-2.233 3.511,-3.13 l -0.043,-0.095 -1.226,-4.545 4.385,-2.042 2.861,3.924 0.003,0.005 c 0.991,-0.266 2.004,-0.477 3.052,-0.583 l 0.009,-0.12 1.111,-4.576 4.827,0.32 0.622,4.814 -0.006,0.031 c 1.014,0.247 2.006,0.554 2.95,0.951 l 0.077,-0.122 3.174,-3.476 4.078,2.602 -1.77,4.52 -0.033,0.046 c 0.761,0.694 1.47,1.442 2.113,2.248 l 0.155,-0.085 4.455,-1.522 2.325,4.243 -3.726,3.112 -0.052,0.275 c 0.33,0.963 0.583,1.853 0.759,3.238 h 0.192 l 4.059,0.306 v 4.837 l -4.476,0.937 0.084,-0.005 c -0.23,1.349 -0.521,2.649 -1.014,3.887 l 0.185,0.092 3.543,3.115 -2.524,4.123 -4.543,-1.697 -0.034,-0.026 c -1.03,1.173 -2.192,2.225 -3.476,3.121 l 0.066,0.139 1.225,4.541 -4.385,2.045 -2.86,-3.922 z"
       style="fill:#c49a6c;fill-opacity:1;fill-rule:nonzero;stroke:none"
       id="path130" /><path
       d="m 258.3105,252.6079 c 6.641,-8.918 4.796,-21.531 -4.124,-28.171 -8.92,-6.643 -21.532,-4.795 -28.172,4.123 -6.642,8.919 -4.796,21.531 4.124,28.173 8.92,6.642 21.531,4.794 28.172,-4.125 m -25.794,12.693 c -1.309,-0.511 -2.595,-1.109 -3.834,-1.84 l -0.108,0.124 -4.955,4.113 -5.045,-4.297 3.244,-5.78 c -0.926,-1.105 -1.768,-2.261 -2.49,-3.476 l -0.117,0.044 -6.326,1.223 -2.356,-6.192 5.609,-3.499 c -0.278,-1.405 -0.453,-2.824 -0.501,-4.257 l -0.118,-0.017 -6.134,-1.968 0.913,-6.563 6.603,-0.405 c 0.43,-1.356 0.576,-2.147 1.661,-4.016 l -0.094,-0.07 -4.361,-4.505 3.956,-5.313 5.887,2.793 c 1.374,-1.309 2.825,-2.479 4.403,-3.442 l -0.057,-0.119 -1.336,-6.315 6.149,-2.458 3.594,5.558 c 2.107,-0.441 4.257,-0.645 6.416,-0.568 l 0.027,-0.142 2.37,-5.994 6.486,1.343 -0.065,6.648 -0.001,0.008 c 1.306,0.518 2.592,1.115 3.829,1.854 l 0.108,-0.124 4.962,-4.119 5.04,4.299 -3.252,5.797 -0.03,0.03 c 0.911,1.101 1.75,2.247 2.461,3.454 l 0.185,-0.068 6.327,-1.224 2.353,6.193 -5.638,3.518 -0.075,0.023 c 0.269,1.385 0.435,2.787 0.482,4.197 l 0.242,0.034 6.136,1.971 -0.913,6.561 -6.639,0.373 -0.358,0.361 c -0.425,1.33 -0.803,2.416 -1.889,4.283 l 0.208,0.155 4.343,3.434 -3.958,5.312 -5.671,-2.622 0.101,0.068 c -1.355,1.293 -2.733,2.485 -4.29,3.442 l 0.131,0.254 1.346,6.319 -6.143,2.465 -3.602,-5.577 -0.017,-0.057 c -2.092,0.448 -4.228,0.651 -6.37,0.587 l -0.041,0.206 -2.368,5.99 -6.489,-1.339 0.064,-6.647 z"
       style="fill:#fe335a;fill-opacity:1;fill-rule:nonzero;stroke:none"
       id="path134" /><path
       d="m 62.3193,335.3896 c -7.967,0 -14.448,-6.481 -14.448,-14.448 0,-4.579 2.121,-8.793 5.821,-11.56 2.061,-1.543 3.034,-4.144 2.49,-6.66 -0.543,-2.517 -2.503,-4.486 -5.018,-5.04 -8.001,-1.762 -13.808,-8.992 -13.808,-17.19 0,-9.714 7.903,-17.617 17.617,-17.617 h 77.32 c 2.859,0 5.391,-1.845 6.267,-4.567 0.875,-2.722 -0.107,-5.697 -2.429,-7.364 -3.789,-2.718 -6.051,-7.105 -6.051,-11.734 0,-7.966 6.482,-14.447 14.448,-14.447 h 31.346 c 2.807,0 5.306,-1.781 6.222,-4.435 2.879,-8.339 9.586,-13.728 17.088,-13.728 h 74.653 c 10.195,0 18.49,9.912 18.49,22.096 0,10.423 -6.208,19.519 -14.762,21.628 -3.011,0.743 -5.096,3.485 -5.005,6.585 0.091,3.099 2.332,5.715 5.381,6.28 8.303,1.539 14.351,8.789 14.381,17.239 -0.031,8.606 -6.197,15.944 -14.661,17.402 -2.572,0.443 -4.64,2.363 -5.271,4.896 -0.631,2.533 0.294,5.199 2.358,6.797 3.578,2.77 5.63,6.932 5.63,11.419 0,7.967 -6.481,14.448 -14.448,14.448 h -9.947 c -2.448,0 -4.695,1.359 -5.831,3.527 -1.136,2.169 -0.975,4.789 0.418,6.802 1.678,2.423 2.564,5.26 2.564,8.203 0,7.966 -6.481,14.447 -14.447,14.447 h -21.605 c -1.848,0 -3.613,0.778 -4.86,2.143 -1.247,1.364 -1.862,3.191 -1.696,5.032 0.047,0.527 0.07,0.947 0.07,1.32 0,7.966 -6.481,14.447 -14.448,14.447 h -62.614 c -7.965,0 -14.446,-6.481 -14.446,-14.447 0,-0.373 0.022,-0.793 0.069,-1.321 0.166,-1.841 -0.45,-3.667 -1.697,-5.032 -1.247,-1.364 -3.01,-2.142 -4.859,-2.142 h -25.428 c -7.967,0 -14.448,-6.481 -14.448,-14.447 0,-2.943 0.886,-5.78 2.564,-8.203 1.393,-2.013 1.554,-4.633 0.418,-6.802 -1.136,-2.168 -3.383,-3.527 -5.831,-3.527 z m 211.518,-141.956 h -74.653 c -11.719,0 -22.172,6.99 -27.685,18.163 h -26.971 c -15.227,0 -27.613,12.387 -27.613,27.613 0,3.644 0.729,7.206 2.09,10.5 h -64.032 c -16.974,0 -30.782,13.808 -30.782,30.782 0,10.77 5.734,20.583 14.523,26.102 -2.602,4.252 -4.009,9.176 -4.009,14.348 0,14.479 11.202,26.391 25.395,27.526 -0.358,1.782 -0.541,3.607 -0.541,5.454 0,15.226 12.387,27.613 27.614,27.613 h 19.144 c 2.226,13.008 13.583,22.942 27.217,22.942 h 62.614 c 13.634,0 24.992,-9.934 27.219,-22.942 h 15.32 c 15.226,0 27.613,-12.387 27.613,-27.613 0,-1.817 -0.176,-3.612 -0.524,-5.366 h 0.154 c 15.227,0 27.614,-12.387 27.614,-27.614 0,-4.905 -1.276,-9.604 -3.64,-13.715 9.384,-5.341 15.543,-15.419 15.584,-26.799 -0.035,-9.717 -4.594,-18.512 -11.822,-24.175 7.316,-6.494 11.827,-16.469 11.827,-27.557 0,-19.444 -14.201,-35.262 -31.656,-35.262"
       style="fill:#59b8a9;fill-opacity:1;fill-rule:nonzero;stroke:none"
       id="path138" /><g
       id="g144"
       transform="translate(431.4346,317.4805)"><path
         d="m 0,0 c -0.025,-0.037 -0.063,-0.063 -0.1,-0.1 -0.088,-0.075 -0.187,-0.162 -0.275,-0.25 -0.037,-0.037 -0.162,-0.162 -0.35,-0.362 -0.012,-0.025 -0.037,-0.05 -0.075,-0.087 -1.573,-1.736 -7.044,-8.256 -9.979,-18.274 -1.137,-3.884 -1.886,-8.281 -1.886,-13.139 0,-0.288 0.024,-0.562 0.061,-0.837 0,0 -0.086,-0.338 -0.249,-0.537 -0.318,-0.376 -1.096,-0.768 -2.424,-0.987 h -32.86 c -1.286,0.212 -2.069,0.585 -2.399,0.949 -0.213,0.225 -0.263,0.524 -0.263,0.687 0.075,0.312 0.037,0.325 0.037,0.725 0,4.733 -0.723,9.043 -1.81,12.852 -2.211,7.732 -5.946,13.415 -8.319,16.475 -0.657,0.85 -1.33,1.695 -2.086,2.458 -1.618,1.635 -3.419,3.017 -4.911,4.791 -1.5,1.783 -2.74,3.761 -3.812,5.826 -2.171,4.184 -3.939,8.711 -4.767,13.364 -0.481,2.705 -0.736,5.535 -0.736,8.284 0,24.906 20.271,45.165 45.178,45.165 24.905,0 45.177,-20.259 45.177,-45.165 C 13.152,19.435 8.118,8.169 0,0 m -27.334,-70.439 h -9.384 c -2.581,0 -4.91,1.085 -6.567,2.818 h 22.519 c -1.658,-1.733 -3.986,-2.818 -6.568,-2.818 m -18.483,14.372 h 27.584 v -1.457 h -27.584 z m 26.746,11.397 c 0.27,-0.08 0.55,-0.139 0.838,-0.172 v -1.129 h -27.584 v 1.094 c 0.017,0 0.034,-10e-4 0.052,-10e-4 0.49,0 0.962,0.075 1.41,0.208 z M -32.025,86.996 c -30.414,0 -55.17,-24.744 -55.17,-55.158 0,-16.5 7.281,-31.326 18.785,-41.43 2.673,-3.585 7.569,-11.616 7.656,-22.321 -0.225,-2.248 0.313,-5.545 2.561,-8.218 0.906,-1.088 2.003,-1.986 3.276,-2.701 v -18.507 c 0,-10.035 8.164,-18.2 18.199,-18.2 h 0.507 8.37 0.507 c 10.035,0 18.2,8.165 18.2,18.2 v 18.178 c 1.544,0.761 2.85,1.768 3.901,3.03 2.248,2.673 2.785,5.97 2.56,8.218 0.125,14.626 9.193,24.219 9.38,24.407 0.162,0.174 0.313,0.349 0.45,0.536 9.88,9.98 15.988,23.695 15.988,38.808 0,30.414 -24.756,55.158 -55.17,55.158"
         style="fill:#59b8a9;fill-opacity:1;fill-rule:nonzero;stroke:none"
         id="path146" /></g><g
       id="g148"
       transform="translate(326.4668,42.4609)"><path
         d="m 0,0 h -5.957 c -43.394,0 -78.696,35.303 -78.696,78.696 v 78.964 h 11 V 78.696 C -73.653,41.368 -43.285,11 -5.957,11 H 0 c 37.328,0 67.696,30.368 67.696,67.696 V 199.66 h 11 V 78.696 C 78.696,35.303 43.394,0 0,0"
         style="fill:#59b8a9;fill-opacity:1;fill-rule:nonzero;stroke:none"
         id="path150" /></g><path
       d="m 407.5,280.1909 -3,-0.14 c -0.04,0.77 -0.72,17.13 5.771,34.49 0.799,-0.53 1.7,-0.99 2.729,-1.31 -6.17,-16.76 -5.51,-32.85 -5.5,-33.04"
       style="fill:#59b8a9;fill-opacity:1;fill-rule:nonzero;stroke:none"
       id="path154" /><path
       d="m 381.0205,334.9912 0.05,-0.25 c -0.04,0.07 -0.071,0.15 -0.111,0.22 z"
       style="fill:#834296;fill-opacity:1;fill-rule:nonzero;stroke:none"
       id="path158" /><path
       d="m 395.46,280.0508 -3,0.14 c 0.011,0.25 0.9,21.65 -7.14,44.31 0.92,-0.59 2.09,-1.04 3.58,-1.17 7.441,-22.44 6.571,-43.04 6.56,-43.28"
       style="fill:#59b8a9;fill-opacity:1;fill-rule:nonzero;stroke:none"
       id="path162" /><path
       d="m 372.7969,341.5 c -2.769,0.135 -5.49,-0.788 -8.115,-2.742 2.004,-5.123 7.088,-9.616 16.01,-7.462 0.056,1.485 0.339,3.668 1.362,5.73 -0.588,0.614 -4.265,4.235 -9.257,4.474"
       style="fill:#fb5700;fill-opacity:1;fill-rule:nonzero;stroke:none"
       id="path166" /><path
       d="m 372.9072,343.3745 c 5.108,-0.254 8.877,-3.457 10.158,-4.704 0.071,0.095 0.145,0.188 0.221,0.281 1.699,2.081 4.136,3.282 7.243,3.569 0,0 1.17,0.178 2.103,0.178 v -0.006 c 0.046,0.006 0.093,0.009 0.141,0.007 0.028,-10e-4 2.693,-0.069 5.505,0.787 3.593,1.095 5.742,3.128 6.39,6.042 0.55,2.472 0.003,4.384 -1.624,5.683 -2.397,1.912 -6.364,1.918 -8.666,0.829 -0.466,-0.22 -1.023,-0.024 -1.246,0.439 -0.01,0.019 -0.986,2.006 -2.991,4.145 -2.341,2.497 -5.036,4.149 -8.025,4.926 -2.016,-0.067 -5.674,-0.658 -8.89,-3.701 -4.733,-4.477 -3.965,-7.227 -3.965,-7.227 0,0 -4.669,-2.495 -5.501,-9.275 -0.176,-1.431 -0.075,-3.063 0.327,-4.706 2.827,1.966 5.783,2.883 8.82,2.733"
       style="fill:#02a8ee;fill-opacity:1;fill-rule:nonzero;stroke:none"
       id="path170" /><path
       d="m 424.1162,338.7354 c -2.009,0.155 -3.67,-0.518 -4.677,-1.895 -0.879,-1.2 -1.092,-2.767 -0.556,-4.086 0.193,-0.481 -0.038,-1.028 -0.518,-1.223 -0.115,-0.046 -0.235,-0.067 -0.352,-0.067 -0.371,0 -0.722,0.221 -0.87,0.585 -0.776,1.918 -0.476,4.178 0.783,5.899 0.821,1.124 1.969,1.921 3.319,2.342 -0.177,1.481 -0.931,5.487 -4.04,7.873 -2.534,1.944 -6.105,2.426 -10.61,1.436 -0.029,-0.157 -0.059,-0.316 -0.095,-0.478 -0.797,-3.586 -3.469,-6.16 -7.724,-7.444 -2.608,-0.786 -5.032,-0.856 -5.807,-0.856 -0.148,0 -0.235,0.003 -0.253,0.004 -0.008,0 -0.015,10e-4 -0.022,10e-4 l -1.993,-0.174 c -2.587,-0.239 -4.593,-1.209 -5.963,-2.888 -1.619,-1.983 -2.059,-4.557 -2.156,-6.259 0.913,-1.706 6.147,-10.403 15.484,-5.155 0,0 2.73,-2.303 7.506,-0.598 0,0 0.212,-9.509 12.622,-12.579 l 2.431,1.663 c 0,0 -5.374,1.791 -3.582,7.036 0,0 13.988,2.87 12.952,13.926 -1.075,1.147 -3.043,2.72 -5.879,2.937"
       style="fill:#834296;fill-opacity:1;fill-rule:nonzero;stroke:none"
       id="path174" /><path
       d="m 423.2666,360.1265 c 0.086,-1.11 -0.025,-2.394 -0.636,-3.586 -0.877,-1.722 -2.562,-2.861 -5.008,-3.384 -1.317,-0.439 -1.851,-1.33 -2.068,-1.969 1.022,-0.379 1.957,-0.894 2.805,-1.546 3.608,-2.778 4.514,-7.186 4.739,-9.022 0.379,0.021 0.767,0.018 1.161,-0.013 2.671,-0.206 4.68,-1.36 6.055,-2.517 1.364,3.553 4.462,14.752 -7.048,22.037"
       style="fill:#12b5c4;fill-opacity:1;fill-rule:nonzero;stroke:none"
       id="path178" /><path
       d="m 413.3789,353.1362 c 0.847,1.747 3.596,1.883 4.019,1.894 1.773,0.411 2.972,1.204 3.563,2.362 0.812,1.589 0.341,3.567 0.056,4.453 -1.091,2.29 -6.018,10.553 -19.134,7.233 0,0 -4.094,2.623 -10.618,1.408 -3.31,-0.736 -5.496,-2.567 -6.644,-3.794 2.549,-1.021 4.904,-2.657 6.935,-4.834 1.413,-1.517 2.347,-2.946 2.842,-3.789 2.897,1.003 7.086,0.786 9.816,-1.391 1.588,-1.266 2.448,-3.042 2.523,-5.131 2.292,0.453 4.377,0.547 6.245,0.283 0,0.28 0.1,0.694 0.397,1.306"
       style="fill:#c49a6c;fill-opacity:1;fill-rule:nonzero;stroke:none"
       id="path182" /><path
       d="m 402.334,412.918 c 0,-1.36 -1.493,-2.464 -3.334,-2.464 -1.841,0 -3.333,1.104 -3.333,2.464 v 17.739 c 0,1.361 1.492,2.464 3.333,2.464 1.841,0 3.334,-1.103 3.334,-2.464 z"
       style="fill:#edf6f5;fill-opacity:1;fill-rule:nonzero;stroke:none"
       id="path186" /><path
       d="m 423.6563,408.6763 c -0.403,-1.3 -2.156,-1.911 -3.914,-1.366 -1.758,0.546 -2.857,2.042 -2.453,3.341 l 5.256,16.943 c 0.403,1.299 2.155,1.911 3.914,1.365 1.758,-0.545 2.856,-2.041 2.453,-3.341 z"
       style="fill:#edf6f5;fill-opacity:1;fill-rule:nonzero;stroke:none"
       id="path190" /><path
       d="m 442.7637,398.3066 c -0.771,-1.122 -2.625,-1.187 -4.143,-0.145 -1.517,1.042 -2.124,2.797 -1.353,3.918 l 10.04,14.624 c 0.77,1.123 2.625,1.187 4.143,0.145 1.517,-1.042 2.124,-2.796 1.353,-3.918 z"
       style="fill:#edf6f5;fill-opacity:1;fill-rule:nonzero;stroke:none"
       id="path194" /><path
       d="m 455.1045,380.3418 c -1.068,-0.843 -2.858,-0.355 -3.999,1.09 -1.141,1.445 -1.2,3.3 -0.132,4.142 l 13.923,10.993 c 1.067,0.843 2.858,0.355 3.999,-1.09 1.141,-1.445 1.2,-3.3 0.132,-4.142 z"
       style="fill:#edf6f5;fill-opacity:1;fill-rule:nonzero;stroke:none"
       id="path198" /><path
       d="m 463.1572,361.3774 c -1.271,-0.489 -2.836,0.508 -3.497,2.226 -0.661,1.718 -0.168,3.507 1.101,3.996 l 16.555,6.373 c 1.27,0.488 2.836,-0.508 3.497,-2.226 0.661,-1.718 0.168,-3.507 -1.101,-3.996 z"
       style="fill:#edf6f5;fill-opacity:1;fill-rule:nonzero;stroke:none"
       id="path202" /><path
       d="m 463.8584,341.2886 c -1.357,-0.091 -2.558,1.325 -2.68,3.162 -0.123,1.837 0.878,3.399 2.236,3.49 l 17.7,1.181 c 1.357,0.091 2.557,-1.325 2.681,-3.162 0.122,-1.837 -0.879,-3.399 -2.237,-3.49 z"
       style="fill:#edf6f5;fill-opacity:1;fill-rule:nonzero;stroke:none"
       id="path206" /><path
       d="m 458.2656,322.6035 c -1.323,0.315 -2.05,2.023 -1.623,3.814 0.428,1.79 1.847,2.986 3.171,2.67 l 17.255,-4.115 c 1.323,-0.316 2.05,-2.024 1.623,-3.815 -0.428,-1.79 -1.847,-2.986 -3.17,-2.67 z"
       style="fill:#edf6f5;fill-opacity:1;fill-rule:nonzero;stroke:none"
       id="path210" /><path
       d="m 448.9727,306.9751 c -1.171,0.694 -1.358,2.54 -0.42,4.124 0.939,1.584 2.649,2.305 3.818,1.611 l 15.261,-9.044 c 1.171,-0.693 1.359,-2.54 0.42,-4.124 -0.938,-1.583 -2.648,-2.305 -3.818,-1.611 z"
       style="fill:#edf6f5;fill-opacity:1;fill-rule:nonzero;stroke:none"
       id="path214" /><path
       d="m 437.1191,293.4619 c -0.912,1.009 -0.545,2.829 0.82,4.063 1.367,1.234 3.213,1.416 4.125,0.407 l 11.896,-13.159 c 0.912,-1.01 0.545,-2.829 -0.82,-4.063 -1.367,-1.235 -3.213,-1.417 -4.125,-0.408 z"
       style="fill:#edf6f5;fill-opacity:1;fill-rule:nonzero;stroke:none"
       id="path218" /><path
       d="m 374.3164,408.6763 c 0.402,-1.3 2.155,-1.911 3.913,-1.366 1.759,0.546 2.857,2.042 2.454,3.341 l -5.257,16.943 c -0.403,1.299 -2.155,1.911 -3.913,1.365 -1.759,-0.545 -2.857,-2.041 -2.454,-3.341 z"
       style="fill:#edf6f5;fill-opacity:1;fill-rule:nonzero;stroke:none"
       id="path222" /><path
       d="m 355.208,398.3066 c 0.771,-1.122 2.625,-1.187 4.143,-0.145 1.517,1.042 2.124,2.797 1.353,3.918 l -10.04,14.624 c -0.77,1.123 -2.625,1.187 -4.143,0.145 -1.517,-1.042 -2.124,-2.796 -1.353,-3.918 z"
       style="fill:#edf6f5;fill-opacity:1;fill-rule:nonzero;stroke:none"
       id="path226" /><path
       d="m 342.8672,380.3418 c 1.068,-0.843 2.858,-0.355 3.999,1.09 1.142,1.445 1.2,3.3 0.132,4.142 l -13.923,10.993 c -1.067,0.843 -2.858,0.355 -3.999,-1.09 -1.141,-1.445 -1.199,-3.3 -0.132,-4.142 z"
       style="fill:#edf6f5;fill-opacity:1;fill-rule:nonzero;stroke:none"
       id="path230" /><path
       d="m 334.8145,361.3774 c 1.271,-0.489 2.836,0.508 3.497,2.226 0.661,1.718 0.168,3.507 -1.101,3.996 l -16.555,6.373 c -1.27,0.488 -2.836,-0.508 -3.497,-2.226 -0.661,-1.718 -0.168,-3.507 1.101,-3.996 z"
       style="fill:#edf6f5;fill-opacity:1;fill-rule:nonzero;stroke:none"
       id="path234" /><path
       d="m 334.1133,341.2886 c 1.357,-0.091 2.558,1.325 2.681,3.162 0.122,1.837 -0.879,3.399 -2.237,3.49 l -17.7,1.181 c -1.357,0.091 -2.557,-1.325 -2.681,-3.162 -0.122,-1.837 0.879,-3.399 2.237,-3.49 z"
       style="fill:#edf6f5;fill-opacity:1;fill-rule:nonzero;stroke:none"
       id="path238" /><path
       d="m 339.7061,322.6035 c 1.323,0.315 2.05,2.023 1.623,3.814 -0.428,1.79 -1.847,2.986 -3.17,2.67 l -17.256,-4.115 c -1.323,-0.316 -2.05,-2.024 -1.622,-3.815 0.427,-1.79 1.846,-2.986 3.17,-2.67 z"
       style="fill:#edf6f5;fill-opacity:1;fill-rule:nonzero;stroke:none"
       id="path242" /><path
       d="m 348.999,306.9751 c 1.171,0.694 1.358,2.54 0.42,4.124 -0.939,1.584 -2.649,2.305 -3.818,1.611 l -15.261,-9.044 c -1.171,-0.693 -1.359,-2.54 -0.42,-4.124 0.938,-1.583 2.648,-2.305 3.819,-1.611 z"
       style="fill:#edf6f5;fill-opacity:1;fill-rule:nonzero;stroke:none"
       id="path246" /><path
       d="m 360.8525,293.4619 c 0.912,1.009 0.545,2.829 -0.82,4.063 -1.367,1.234 -3.213,1.416 -4.125,0.407 l -11.896,-13.159 c -0.912,-1.01 -0.545,-2.829 0.82,-4.063 1.367,-1.235 3.213,-1.417 4.125,-0.408 z"
       style="fill:#edf6f5;fill-opacity:1;fill-rule:nonzero;stroke:none"
       id="path250" /></g></svg>
