<?xml version="1.0" encoding="UTF-8" standalone="no"?>
<!-- Created with Inkscape (http://www.inkscape.org/) -->

<svg
   version="1.1"
   id="svg2"
   xml:space="preserve"
   width="1268.5493"
   height="1117.6414"
   viewBox="0 0 1268.5493 1117.6414"
   sodipodi:docname="radar-tecnologico.svg"
   inkscape:version="1.1.1 (1:1.1+202109281949+c3084ef5ed)"
   xmlns:inkscape="http://www.inkscape.org/namespaces/inkscape"
   xmlns:sodipodi="http://sodipodi.sourceforge.net/DTD/sodipodi-0.dtd"
   xmlns="http://www.w3.org/2000/svg"
   xmlns:svg="http://www.w3.org/2000/svg"><defs
     id="defs6"><clipPath
       clipPathUnits="userSpaceOnUse"
       id="clipPath18"><path
         d="M 0,873.481 H 951.412 V 0 H 0 Z"
         id="path16" /></clipPath><clipPath
       clipPathUnits="userSpaceOnUse"
       id="clipPath586"><path
         d="M 23.8037,140.647 H 336.411 V 105.269 H 23.8037 Z"
         id="path584" /></clipPath><clipPath
       clipPathUnits="userSpaceOnUse"
       id="clipPath602"><path
         d="M 567.422,236.001 H 880.028 V 200.626 H 567.422 Z"
         id="path600" /></clipPath></defs><sodipodi:namedview
     id="namedview4"
     pagecolor="#ffffff"
     bordercolor="#666666"
     borderopacity="1.0"
     inkscape:pageshadow="2"
     inkscape:pageopacity="0.0"
     inkscape:pagecheckerboard="0"
     showgrid="false"
     height="1117.6414px"
     inkscape:zoom="0.37350554"
     inkscape:cx="145.91484"
     inkscape:cy="333.32839"
     inkscape:window-width="1848"
     inkscape:window-height="1016"
     inkscape:window-x="72"
     inkscape:window-y="27"
     inkscape:window-maximized="1"
     inkscape:current-layer="g8" /><g
     id="g8"
     inkscape:groupmode="layer"
     inkscape:label="Mobile Concept 03"
     transform="matrix(1.3333333,0,0,-1.3333333,0,1164.6413)"><g
       id="g136"
       transform="translate(291.9941,202.0283)"><path
         d="m 0,0 -135.325,-59.409 c -11.792,-5.179 -25.548,0.184 -30.726,11.978 l -111.708,254.439 c -5.178,11.795 0.186,25.551 11.98,30.727 l 135.324,59.413 c 11.796,5.179 25.549,-0.185 30.727,-11.977 L 11.98,30.732 C 17.156,18.938 11.792,5.182 0,0"
         style="fill:#3945b3;fill-opacity:1;fill-rule:nonzero;stroke:none"
         id="path138" /></g><g
       id="g140"
       transform="translate(289.165,206.6182)"><path
         d="m 0,0 -133.956,-58.811 c -10.332,-4.538 -22.379,0.166 -26.917,10.495 l -110.563,251.837 c -4.535,10.33 0.162,22.379 10.491,26.914 l 133.958,58.811 c 10.329,4.535 22.383,-0.162 26.915,-10.49 L 10.49,26.917 C 15.028,16.589 10.33,4.532 0,0"
         style="fill:#ffffff;fill-opacity:1;fill-rule:nonzero;stroke:none"
         id="path142" /></g><g
       id="g144"
       transform="translate(181.3359,482.668)"><path
         d="m 0,0 110.412,-251.492 c 3.069,-6.999 -0.111,-15.155 -7.105,-18.228 l -131.028,-57.523 c -6.999,-3.073 -15.158,0.104 -18.229,7.105 l -110.412,251.49 c -3.073,6.995 0.109,15.157 7.105,18.227 l 21.848,9.592 c 1.214,0.531 2.623,0.335 3.641,-0.511 l 4.353,-3.614 c 1.998,-1.673 4.769,-2.054 7.139,-1.011 l 65.734,28.86 c 2.375,1.042 3.969,3.339 4.088,5.939 l 0.287,5.651 c 0.068,1.325 0.878,2.494 2.088,3.027 l 21.85,9.593 C -11.233,10.177 -3.072,6.993 0,0"
         style="fill:#d7dcf5;fill-opacity:1;fill-rule:nonzero;stroke:none"
         id="path146" /></g><g
       id="g148"
       transform="translate(127.1353,468.6621)"><path
         d="m 0,0 -52.94,-23.243 c -1.232,-0.543 -2.67,0.019 -3.211,1.248 -0.539,1.233 0.022,2.67 1.255,3.209 L -1.958,4.459 C -0.726,4.998 0.712,4.439 1.251,3.208 1.793,1.977 1.231,0.538 0,0"
         style="fill:#d7dcf5;fill-opacity:1;fill-rule:nonzero;stroke:none"
         id="path150" /></g><g
       id="g152"
       transform="translate(269.2266,243.9219)"><path
         d="m 0,0 -120.703,-52.992 c -3.981,-1.749 -8.621,0.059 -10.366,4.038 l -22.35,50.913 c -1.749,3.977 0.062,8.618 4.041,10.366 l 120.704,52.989 c 3.979,1.749 8.618,-0.061 10.366,-4.038 L 4.042,10.366 C 5.788,6.388 3.978,1.748 0,0"
         style="fill:#4b5a94;fill-opacity:1;fill-rule:nonzero;stroke:none"
         id="path154" /></g><g
       id="g156"
       transform="translate(243.1572,308.1045)"><path
         d="m 0,0 22.362,-50.938 c 1.746,-3.974 -0.061,-8.593 -4.036,-10.339 l -120.19,-52.766 c -3.973,-1.745 -8.6,0.052 -10.344,4.023 l -22.364,50.939 c -1.743,3.974 0.062,8.604 4.033,10.346 L -10.347,4.035 C -6.378,5.782 -1.743,3.972 0,0"
         style="fill:#7f8eed;fill-opacity:1;fill-rule:nonzero;stroke:none"
         id="path158" /></g><g
       id="g160"
       transform="translate(178.2588,216.625)"><path
         d="m 0,0 -35.408,-15.553 c -2.687,-1.176 -5.817,0.048 -6.996,2.73 l -15.544,35.411 c -1.181,2.683 0.039,5.813 2.724,6.994 l 35.411,15.549 c 2.684,1.178 5.816,-0.044 6.996,-2.727 L 2.726,6.993 C 3.905,4.306 2.686,1.175 0,0"
         style="fill:#ffffff;fill-opacity:1;fill-rule:nonzero;stroke:none"
         id="path162" /></g><g
       id="g164"
       transform="translate(202.915,274.4668)"><path
         d="m 0,0 -31.183,-13.688 c -0.849,-0.374 -1.837,0.01 -2.21,0.861 -0.373,0.842 0.012,1.837 0.865,2.21 L -1.345,3.073 C -0.498,3.444 0.491,3.058 0.863,2.213 1.235,1.36 0.848,0.372 0,0"
         style="fill:#abbaf2;fill-opacity:1;fill-rule:nonzero;stroke:none"
         id="path166" /></g><g
       id="g168"
       transform="translate(191.3984,262.0967)"><path
         d="m 0,0 -16.977,-7.45 c -0.845,-0.373 -1.837,0.012 -2.208,0.861 -0.373,0.849 0.016,1.832 0.861,2.207 L -1.35,3.072 C -0.501,3.441 0.486,3.061 0.861,2.207 1.232,1.363 0.849,0.369 0,0"
         style="fill:#abbaf2;fill-opacity:1;fill-rule:nonzero;stroke:none"
         id="path170" /></g><g
       id="g172"
       transform="translate(243.5752,285.0049)"><path
         d="m 0,0 -45.93,-20.161 c -0.847,-0.376 -1.841,0.01 -2.211,0.856 -0.371,0.849 0.014,1.836 0.863,2.21 L -1.35,3.072 C -0.5,3.439 0.489,3.055 0.861,2.207 1.231,1.363 0.846,0.372 0,0"
         style="fill:#abbaf2;fill-opacity:1;fill-rule:nonzero;stroke:none"
         id="path174" /></g><g
       id="g176"
       transform="translate(203.3779,260.0459)"><path
         d="m 0,0 -26.264,-11.529 c -0.846,-0.376 -1.838,0.014 -2.21,0.859 -0.37,0.849 0.016,1.837 0.864,2.21 L -1.349,3.073 C -0.502,3.444 0.489,3.062 0.859,2.21 1.232,1.36 0.847,0.372 0,0"
         style="fill:#abbaf2;fill-opacity:1;fill-rule:nonzero;stroke:none"
         id="path178" /></g><g
       id="g180"
       transform="translate(225.6699,269.835)"><path
         d="m 0,0 -16.51,-7.25 c -0.846,-0.371 -1.836,0.013 -2.211,0.859 -0.369,0.848 0.015,1.841 0.863,2.206 L -1.349,3.07 C -0.502,3.443 0.487,3.058 0.861,2.205 1.232,1.358 0.848,0.37 0,0"
         style="fill:#abbaf2;fill-opacity:1;fill-rule:nonzero;stroke:none"
         id="path182" /></g><g
       id="g184"
       transform="translate(246.2666,278.8779)"><path
         d="m 0,0 -15.204,-6.679 c -0.847,-0.372 -1.838,0.014 -2.21,0.866 -0.373,0.84 0.015,1.834 0.861,2.208 L -1.351,3.066 C -0.502,3.439 0.489,3.056 0.856,2.208 1.234,1.36 0.848,0.37 0,0"
         style="fill:#abbaf2;fill-opacity:1;fill-rule:nonzero;stroke:none"
         id="path186" /></g><g
       id="g188"
       transform="translate(248.957,272.7461)"><path
         d="m 0,0 -69.149,-30.359 c -0.849,-0.376 -1.842,0.01 -2.211,0.862 -0.373,0.846 0.011,1.836 0.861,2.21 L -1.349,3.07 C -0.499,3.439 0.486,3.057 0.863,2.209 1.231,1.363 0.847,0.367 0,0"
         style="fill:#abbaf2;fill-opacity:1;fill-rule:nonzero;stroke:none"
         id="path190" /></g><g
       id="g192"
       transform="translate(220.5566,252.9648)"><path
         d="m 0,0 -38.058,-16.71 c -0.849,-0.37 -1.838,0.012 -2.213,0.858 -0.371,0.855 0.018,1.839 0.865,2.214 L -1.349,3.071 C -0.5,3.439 0.489,3.057 0.861,2.207 1.234,1.36 0.848,0.372 0,0"
         style="fill:#abbaf2;fill-opacity:1;fill-rule:nonzero;stroke:none"
         id="path194" /></g><g
       id="g196"
       transform="translate(251.6484,266.6133)"><path
         d="m 0,0 -24.958,-10.956 c -0.846,-0.373 -1.835,0.01 -2.206,0.861 -0.373,0.852 0.012,1.837 0.858,2.207 L -1.347,3.073 C -0.499,3.441 0.489,3.058 0.861,2.211 1.234,1.359 0.848,0.373 0,0"
         style="fill:#abbaf2;fill-opacity:1;fill-rule:nonzero;stroke:none"
         id="path198" /></g><g
       id="g200"
       transform="translate(207.5508,239.9463)"><path
         d="m 0,0 -22.361,-9.818 c -0.848,-0.374 -1.836,0.009 -2.208,0.859 -0.375,0.848 0.013,1.833 0.861,2.208 L -1.349,3.066 C -0.502,3.437 0.491,3.052 0.861,2.204 1.234,1.357 0.849,0.366 0,0"
         style="fill:#abbaf2;fill-opacity:1;fill-rule:nonzero;stroke:none"
         id="path202" /></g><g
       id="g204"
       transform="translate(235.9629,252.418)"><path
         d="m 0,0 -22.362,-9.82 c -0.845,-0.37 -1.835,0.012 -2.208,0.864 -0.37,0.85 0.014,1.836 0.861,2.208 L -1.345,3.069 C -0.5,3.439 0.491,3.057 0.863,2.208 1.233,1.361 0.849,0.368 0,0"
         style="fill:#abbaf2;fill-opacity:1;fill-rule:nonzero;stroke:none"
         id="path206" /></g><g
       id="g208"
       transform="translate(254.3408,260.4844)"><path
         d="m 0,0 -12.977,-5.697 c -0.849,-0.37 -1.836,0.013 -2.207,0.865 -0.373,0.846 0.012,1.831 0.862,2.204 l 12.971,5.7 C -0.502,3.448 0.488,3.058 0.861,2.211 1.231,1.358 0.847,0.372 0,0"
         style="fill:#abbaf2;fill-opacity:1;fill-rule:nonzero;stroke:none"
         id="path210" /></g><g
       id="g212"
       transform="translate(219.0645,237.6875)"><path
         d="m 0,0 -31.184,-13.691 c -0.849,-0.375 -1.835,0.011 -2.21,0.862 -0.373,0.845 0.012,1.835 0.862,2.207 L -1.347,3.072 C -0.5,3.44 0.491,3.052 0.863,2.209 1.234,1.358 0.847,0.373 0,0"
         style="fill:#abbaf2;fill-opacity:1;fill-rule:nonzero;stroke:none"
         id="path214" /></g><g
       id="g216"
       transform="translate(240.8818,291.1338)"><path
         d="m 0,0 -31.186,-13.689 c -0.844,-0.375 -1.835,0.015 -2.208,0.859 -0.37,0.85 0.016,1.84 0.863,2.208 L -1.345,3.073 C -0.501,3.443 0.492,3.06 0.862,2.208 1.235,1.364 0.85,0.373 0,0"
         style="fill:#abbaf2;fill-opacity:1;fill-rule:nonzero;stroke:none"
         id="path218" /></g><g
       id="g220"
       transform="translate(243.1572,308.1045)"><path
         d="m 0,0 0.938,-2.139 -134.571,-59.081 -0.939,2.139 c -1.743,3.974 0.062,8.604 4.033,10.346 L -10.347,4.035 C -6.378,5.782 -1.743,3.972 0,0"
         style="fill:#3052c7;fill-opacity:1;fill-rule:nonzero;stroke:none"
         id="path222" /></g><g
       id="g224"
       transform="translate(216.7568,299.3271)"><path
         d="m 0,0 c 0.406,-0.921 -0.015,-1.999 -0.934,-2.399 -0.919,-0.402 -1.994,0.012 -2.398,0.934 -0.405,0.924 0.015,1.994 0.936,2.4 C -1.479,1.341 -0.404,0.917 0,0"
         style="fill:#d7dcf5;fill-opacity:1;fill-rule:nonzero;stroke:none"
         id="path226" /></g><g
       id="g228"
       transform="translate(225.2891,303.0684)"><path
         d="m 0,0 c 0.404,-0.917 -0.016,-1.989 -0.937,-2.395 -0.922,-0.408 -1.995,0.015 -2.4,0.936 -0.401,0.916 0.016,1.992 0.938,2.396 C -1.479,1.34 -0.403,0.926 0,0"
         style="fill:#d7dcf5;fill-opacity:1;fill-rule:nonzero;stroke:none"
         id="path230" /></g><g
       id="g232"
       transform="translate(233.8164,306.8174)"><path
         d="m 0,0 c 0.405,-0.92 -0.015,-1.996 -0.934,-2.401 -0.921,-0.4 -1.994,0.015 -2.401,0.938 -0.402,0.922 0.014,1.992 0.936,2.398 C -1.48,1.342 -0.404,0.917 0,0"
         style="fill:#d7dcf5;fill-opacity:1;fill-rule:nonzero;stroke:none"
         id="path234" /></g><g
       id="g236"
       transform="translate(176.1631,460.7041)"><path
         d="m 0,0 36.565,-83.288 c 1.983,-4.517 -0.069,-9.787 -4.591,-11.773 l -118.208,-51.896 c -4.511,-1.98 -9.788,0.069 -11.773,4.59 l -36.565,83.285 c -1.987,4.523 0.079,9.794 4.59,11.774 l 118.21,51.9 C -7.252,6.576 -1.986,4.523 0,0"
         style="fill:#abbaf2;fill-opacity:1;fill-rule:nonzero;stroke:none"
         id="path238" /></g><g
       id="g240"
       transform="translate(176.373,439.1689)"><path
         d="m 0,0 c 4.728,-10.771 -0.172,-23.338 -10.941,-28.064 -10.772,-4.734 -23.336,0.167 -28.067,10.939 -4.726,10.771 0.171,23.335 10.94,28.066 C -17.294,15.669 -4.729,10.771 0,0"
         style="fill:#e9edff;fill-opacity:1;fill-rule:nonzero;stroke:none"
         id="path242" /></g><g
       id="g244"
       transform="translate(160.8521,344.8809)"><path
         d="m 0,0 -70.923,-31.134 c -4.511,-1.979 -9.788,0.07 -11.773,4.59 l -5.756,13.113 7.431,67.387 c 0.387,3.519 4.447,5.302 7.304,3.203 L -32.465,26.86 -1.829,4.354 C -0.355,3.283 0.234,1.588 0,0"
         style="fill:#ffffff;fill-opacity:1;fill-rule:nonzero;stroke:none"
         id="path246" /></g><g
       id="g248"
       transform="translate(191.4365,358.3145)"><path
         d="m 0,0 -67.823,-29.778 4.773,43.205 2.566,23.277 c 0.347,3.178 4.001,4.779 6.571,2.887 z"
         style="fill:#e9edff;fill-opacity:1;fill-rule:nonzero;stroke:none"
         id="path250" /></g><g
       id="g252"
       transform="translate(232.8604,206.3076)"><path
         d="m 0,0 c 2,-4.555 -0.072,-9.872 -4.629,-11.874 l -22.812,-10.013 c -4.557,-2.005 -9.873,0.073 -11.876,4.626 -1.999,4.563 0.075,9.878 4.63,11.877 L -11.877,4.63 C -7.317,6.631 -2.002,4.558 0,0"
         style="fill:#ffffff;fill-opacity:1;fill-rule:nonzero;stroke:none"
         id="path254" /></g><g
       id="g256"
       transform="translate(763.0225,261.3584)"><path
         d="m 0,0 -182.728,71.232 c -15.928,6.206 -23.803,24.15 -17.596,40.073 l 133.93,343.572 c 6.212,15.926 24.152,23.801 40.074,17.592 l 182.729,-71.232 c 15.929,-6.209 23.804,-24.145 17.597,-40.074 L 40.074,17.594 C 33.869,1.669 15.924,-6.208 0,0"
         style="fill:#3945b3;fill-opacity:1;fill-rule:nonzero;stroke:none"
         id="path258" /></g><g
       id="g260"
       transform="translate(764.6738,268.3174)"><path
         d="m 0,0 -180.886,70.509 c -13.949,5.44 -20.843,21.16 -15.408,35.104 l 132.563,340.064 c 5.438,13.944 21.15,20.845 35.099,15.41 l 180.885,-70.516 c 13.947,-5.436 20.849,-21.151 15.41,-35.1 L 35.101,15.408 C 29.663,1.46 13.945,-5.437 0,0"
         style="fill:#ffffff;fill-opacity:1;fill-rule:nonzero;stroke:none"
         id="path262" /></g><g
       id="g264"
       transform="translate(922.5166,628.5264)"><path
         d="m 0,0 -132.381,-339.593 c -3.681,-9.446 -14.322,-14.117 -23.767,-10.433 l -176.93,68.968 c -9.45,3.687 -14.121,14.329 -10.438,23.776 l 132.378,339.59 c 3.684,9.445 14.326,14.119 23.771,10.434 l 29.504,-11.499 c 1.639,-0.636 2.775,-2.146 2.936,-3.893 l 0.695,-7.477 c 0.303,-3.445 2.546,-6.4 5.75,-7.649 L -59.72,27.62 c 3.204,-1.247 6.856,-0.589 9.41,1.738 l 5.572,5.038 c 1.303,1.176 3.162,1.516 4.798,0.881 L -10.437,23.772 C -0.99,20.092 3.681,9.447 0,0"
         style="fill:#d7dcf5;fill-opacity:1;fill-rule:nonzero;stroke:none"
         id="path266" /></g><g
       id="g268"
       transform="translate(858.5186,666.2441)"><path
         d="m 0,0 -71.49,27.868 c -1.664,0.648 -2.481,2.52 -1.838,4.185 0.65,1.661 2.525,2.484 4.186,1.835 L 2.346,6.021 C 4.011,5.371 4.832,3.502 4.182,1.838 3.533,0.175 1.662,-0.648 0,0"
         style="fill:#d7dcf5;fill-opacity:1;fill-rule:nonzero;stroke:none"
         id="path270" /></g><g
       id="g272"
       transform="translate(780.9678,322.0322)"><path
         d="m 0,0 -162.985,63.537 c -5.372,2.093 -8.033,8.143 -5.937,13.516 l 26.801,68.744 c 2.088,5.37 8.142,8.028 13.51,5.933 L 34.379,88.193 c 5.372,-2.095 8.029,-8.145 5.935,-13.517 L 13.514,5.931 C 11.422,0.557 5.371,-2.099 0,0"
         style="fill:#4b5a94;fill-opacity:1;fill-rule:nonzero;stroke:none"
         id="path274" /></g><g
       id="g276"
       transform="translate(816.7324,406.7178)"><path
         d="m 0,0 -26.814,-68.786 c -2.09,-5.36 -8.127,-7.998 -13.493,-5.91 L -202.6,-11.428 c -5.365,2.091 -8.017,8.122 -5.93,13.484 l 26.814,68.784 c 2.088,5.361 8.134,8.017 13.496,5.924 L -5.926,13.497 C -0.562,11.407 2.088,5.363 0,0"
         style="fill:#7f8eed;fill-opacity:1;fill-rule:nonzero;stroke:none"
         id="path278" /></g><g
       id="g280"
       transform="translate(669.9902,381.7715)"><path
         d="m 0,0 -47.815,18.637 c -3.622,1.416 -5.415,5.502 -4.002,9.128 l 18.636,47.813 c 1.413,3.626 5.499,5.419 9.12,4.004 L 23.755,60.944 c 3.627,-1.413 5.42,-5.498 4.01,-9.122 L 9.122,4.009 C 7.709,0.383 3.626,-1.41 0,0"
         style="fill:#ffffff;fill-opacity:1;fill-rule:nonzero;stroke:none"
         id="path282" /></g><g
       id="g284"
       transform="translate(747.4092,412.917)"><path
         d="m 0,0 -42.112,16.414 c -1.142,0.445 -1.711,1.737 -1.268,2.88 0.45,1.145 1.739,1.714 2.885,1.267 L 1.619,4.145 C 2.758,3.699 3.324,2.409 2.883,1.262 2.436,0.118 1.143,-0.446 0,0"
         style="fill:#abbaf2;fill-opacity:1;fill-rule:nonzero;stroke:none"
         id="path286" /></g><g
       id="g288"
       transform="translate(724.9893,412.1191)"><path
         d="m 0,0 -22.918,8.932 c -1.145,0.448 -1.712,1.737 -1.265,2.881 0.445,1.148 1.737,1.712 2.881,1.265 L 1.616,4.143 C 2.764,3.699 3.328,2.409 2.884,1.265 2.434,0.117 1.147,-0.447 0,0"
         style="fill:#abbaf2;fill-opacity:1;fill-rule:nonzero;stroke:none"
         id="path290" /></g><g
       id="g292"
       transform="translate(795.4453,384.6523)"><path
         d="m 0,0 -62.017,24.175 c -1.148,0.448 -1.716,1.737 -1.267,2.882 0.445,1.147 1.736,1.712 2.879,1.266 L 1.617,4.146 C 2.765,3.701 3.328,2.413 2.884,1.262 2.435,0.123 1.147,-0.448 0,0"
         style="fill:#abbaf2;fill-opacity:1;fill-rule:nonzero;stroke:none"
         id="path294" /></g><g
       id="g296"
       transform="translate(734.3086,398.9512)"><path
         d="m 0,0 -35.464,13.821 c -1.144,0.449 -1.712,1.74 -1.266,2.884 0.445,1.144 1.735,1.713 2.882,1.267 L 1.615,4.145 C 2.76,3.7 3.327,2.409 2.881,1.264 2.433,0.119 1.145,-0.447 0,0"
         style="fill:#abbaf2;fill-opacity:1;fill-rule:nonzero;stroke:none"
         id="path298" /></g><g
       id="g300"
       transform="translate(764.4102,387.2139)"><path
         d="m 0,0 -22.294,8.692 c -1.147,0.448 -1.714,1.737 -1.268,2.881 0.448,1.145 1.738,1.711 2.882,1.267 L 1.615,4.147 C 2.76,3.702 3.326,2.413 2.879,1.267 2.435,0.124 1.143,-0.442 0,0"
         style="fill:#abbaf2;fill-opacity:1;fill-rule:nonzero;stroke:none"
         id="path302" /></g><g
       id="g304"
       transform="translate(792.2168,376.375)"><path
         d="m 0,0 -20.526,8.002 c -1.148,0.444 -1.711,1.738 -1.265,2.881 0.442,1.145 1.737,1.711 2.88,1.263 L 1.619,4.148 C 2.765,3.7 3.333,2.41 2.881,1.265 2.437,0.118 1.146,-0.447 0,0"
         style="fill:#abbaf2;fill-opacity:1;fill-rule:nonzero;stroke:none"
         id="path306" /></g><g
       id="g308"
       transform="translate(788.9912,368.0947)"><path
         d="m 0,0 -93.378,36.402 c -1.143,0.444 -1.706,1.739 -1.261,2.879 0.448,1.149 1.736,1.713 2.881,1.268 L 1.615,4.15 C 2.761,3.703 3.33,2.412 2.883,1.268 2.436,0.123 1.145,-0.445 0,0"
         style="fill:#abbaf2;fill-opacity:1;fill-rule:nonzero;stroke:none"
         id="path310" /></g><g
       id="g312"
       transform="translate(743.7832,376.1865)"><path
         d="m 0,0 -51.392,20.033 c -1.149,0.446 -1.712,1.736 -1.267,2.881 0.448,1.145 1.736,1.711 2.886,1.264 L 1.612,4.145 C 2.761,3.697 3.328,2.409 2.88,1.261 2.436,0.117 1.145,-0.445 0,0"
         style="fill:#abbaf2;fill-opacity:1;fill-rule:nonzero;stroke:none"
         id="path314" /></g><g
       id="g316"
       transform="translate(785.7666,359.8164)"><path
         d="m 0,0 -33.696,13.14 c -1.148,0.446 -1.713,1.733 -1.268,2.878 0.447,1.149 1.734,1.712 2.876,1.265 L 1.617,4.146 C 2.759,3.701 3.326,2.415 2.879,1.268 2.435,0.123 1.146,-0.44 0,0"
         style="fill:#abbaf2;fill-opacity:1;fill-rule:nonzero;stroke:none"
         id="path318" /></g><g
       id="g320"
       transform="translate(719.3584,376.168)"><path
         d="m 0,0 -30.197,11.774 c -1.143,0.443 -1.708,1.735 -1.264,2.879 0.446,1.147 1.738,1.712 2.886,1.265 L 1.615,4.147 C 2.76,3.705 3.328,2.413 2.881,1.266 2.436,0.12 1.143,-0.443 0,0"
         style="fill:#abbaf2;fill-opacity:1;fill-rule:nonzero;stroke:none"
         id="path322" /></g><g
       id="g324"
       transform="translate(757.7246,361.2178)"><path
         d="m 0,0 -30.197,11.768 c -1.143,0.447 -1.708,1.735 -1.264,2.882 0.448,1.143 1.74,1.707 2.883,1.263 L 1.615,4.142 C 2.76,3.695 3.326,2.406 2.882,1.262 2.435,0.116 1.145,-0.449 0,0"
         style="fill:#abbaf2;fill-opacity:1;fill-rule:nonzero;stroke:none"
         id="path326" /></g><g
       id="g328"
       transform="translate(782.5381,351.5361)"><path
         d="m 0,0 -17.521,6.833 c -1.143,0.45 -1.71,1.738 -1.262,2.883 0.445,1.145 1.736,1.712 2.878,1.265 L 1.617,4.151 C 2.76,3.703 3.328,2.415 2.884,1.268 2.435,0.128 1.146,-0.441 0,0"
         style="fill:#abbaf2;fill-opacity:1;fill-rule:nonzero;stroke:none"
         id="path330" /></g><g
       id="g332"
       transform="translate(728.0459,363.25)"><path
         d="m 0,0 -42.107,16.417 c -1.148,0.446 -1.715,1.732 -1.268,2.877 0.447,1.145 1.735,1.712 2.884,1.264 L 1.614,4.145 C 2.762,3.697 3.325,2.409 2.882,1.262 2.435,0.119 1.146,-0.447 0,0"
         style="fill:#abbaf2;fill-opacity:1;fill-rule:nonzero;stroke:none"
         id="path334" /></g><g
       id="g336"
       transform="translate(798.6709,392.9307)"><path
         d="m 0,0 -42.108,16.417 c -1.142,0.445 -1.714,1.734 -1.267,2.882 0.447,1.144 1.738,1.708 2.884,1.263 L 1.617,4.146 C 2.763,3.7 3.331,2.41 2.885,1.264 2.439,0.119 1.147,-0.448 0,0"
         style="fill:#abbaf2;fill-opacity:1;fill-rule:nonzero;stroke:none"
         id="path338" /></g><g
       id="g340"
       transform="translate(816.7324,406.7178)"><path
         d="m 0,0 -1.128,-2.887 -181.715,70.836 1.127,2.891 c 2.088,5.361 8.134,8.017 13.496,5.924 L -5.926,13.497 C -0.562,11.407 2.088,5.363 0,0"
         style="fill:#3052c7;fill-opacity:1;fill-rule:nonzero;stroke:none"
         id="path342" /></g><g
       id="g344"
       transform="translate(783.7236,423.2549)"><path
         d="M 0,0 C -0.486,-1.243 -1.888,-1.857 -3.133,-1.374 -4.371,-0.889 -4.988,0.512 -4.5,1.754 -4.019,2.998 -2.618,3.613 -1.374,3.129 -0.137,2.644 0.481,1.244 0,0"
         style="fill:#d7dcf5;fill-opacity:1;fill-rule:nonzero;stroke:none"
         id="path346" /></g><g
       id="g348"
       transform="translate(795.2393,418.7637)"><path
         d="m 0,0 c -0.484,-1.241 -1.885,-1.857 -3.129,-1.373 -1.244,0.485 -1.858,1.887 -1.373,3.13 0.483,1.245 1.884,1.857 3.129,1.374 C -0.13,2.644 0.484,1.244 0,0"
         style="fill:#d7dcf5;fill-opacity:1;fill-rule:nonzero;stroke:none"
         id="path350" /></g><g
       id="g352"
       transform="translate(806.7559,414.2764)"><path
         d="m 0,0 c -0.483,-1.245 -1.886,-1.86 -3.13,-1.375 -1.241,0.484 -1.857,1.887 -1.375,3.13 0.486,1.244 1.887,1.855 3.131,1.371 C -0.129,2.642 0.483,1.24 0,0"
         style="fill:#d7dcf5;fill-opacity:1;fill-rule:nonzero;stroke:none"
         id="path354" /></g><g
       id="g356"
       transform="translate(897.0557,612.7705)"><path
         d="m 0,0 -43.838,-112.46 c -2.382,-6.102 -9.248,-9.118 -15.355,-6.737 l -159.619,62.222 c -6.095,2.374 -9.121,9.249 -6.743,15.352 l 43.839,112.463 c 2.38,6.104 9.264,9.117 15.357,6.742 L -6.74,15.356 C -0.636,12.977 2.379,6.109 0,0"
         style="fill:#abbaf2;fill-opacity:1;fill-rule:nonzero;stroke:none"
         id="path358" /></g><g
       id="g360"
       transform="translate(877.043,592.3682)"><path
         d="m 0,0 c -5.67,-14.544 -22.054,-21.738 -36.603,-16.07 -14.543,5.669 -21.736,22.058 -16.068,36.604 5.672,14.543 22.057,21.737 36.604,16.069 C -1.525,30.933 5.669,14.547 0,0"
         style="fill:#e9edff;fill-opacity:1;fill-rule:nonzero;stroke:none"
         id="path362" /></g><g
       id="g364"
       transform="translate(774.0078,518.4648)"><path
         d="m 0,0 -95.764,37.331 c -6.095,2.374 -9.121,9.249 -6.743,15.352 l 6.903,17.709 70.205,56.255 c 3.668,2.941 9.148,0.803 9.861,-3.842 L -5.261,55.664 2.371,5.796 C 2.746,3.409 1.708,1.264 0,0"
         style="fill:#ffffff;fill-opacity:1;fill-rule:nonzero;stroke:none"
         id="path366" /></g><g
       id="g368"
       transform="translate(815.3105,502.3652)"><path
         d="m 0,0 -91.585,35.7 45.022,36.064 24.249,19.433 c 3.309,2.652 8.239,0.728 8.879,-3.457 z"
         style="fill:#e9edff;fill-opacity:1;fill-rule:nonzero;stroke:none"
         id="path370" /></g><g
       id="g372"
       transform="translate(711.5488,320.8584)"><path
         d="M 0,0 C -2.399,-6.15 -9.331,-9.196 -15.488,-6.796 L -46.287,5.212 c -6.153,2.397 -9.201,9.329 -6.8,15.482 2.399,6.153 9.333,9.198 15.486,6.804 L -6.802,15.484 C -0.644,13.093 2.4,6.155 0,0"
         style="fill:#ffffff;fill-opacity:1;fill-rule:nonzero;stroke:none"
         id="path374" /></g><g
       id="g376"
       transform="translate(314.0762,433.627)"><path
         d="m 0,0 c 27.637,24.445 30.225,66.669 5.779,94.309 -24.443,27.638 -66.669,30.229 -94.305,5.783 C -116.172,75.645 -118.758,33.423 -94.313,5.781 -69.866,-21.854 -27.648,-24.449 0,0"
         style="fill:#abbaf2;fill-opacity:1;fill-rule:nonzero;stroke:none"
         id="path378" /></g><g
       id="g380"
       transform="translate(284.7354,497.8379)"><path
         d="m 0,0 h -30.338 v 6.824 c 0,8.362 6.811,15.169 15.167,15.169 C -6.806,21.993 0,15.186 0,6.824 Z m -11.597,-18.97 c -0.487,-0.271 -0.762,-0.801 -0.618,-1.339 l 1.143,-4.213 c 0.682,-2.532 -1.223,-5.021 -3.845,-5.021 -2.62,0 -4.525,2.489 -3.84,5.021 l 1.15,4.26 c 0.144,0.529 -0.123,1.051 -0.598,1.327 -2.337,1.372 -3.771,4.123 -3.137,7.144 0.522,2.507 2.606,4.563 5.115,5.064 4.255,0.849 7.991,-2.384 7.991,-6.492 0,-2.47 -1.357,-4.612 -3.361,-5.751 M 5.766,0 H 5.141 v 6.824 c 0,11.202 -9.107,20.315 -20.312,20.315 -11.2,0 -20.309,-9.113 -20.309,-20.315 V 0 h -0.137 c -3.147,0 -5.699,-2.554 -5.699,-5.699 v -25.72 c 0,-3.146 2.552,-5.7 5.699,-5.7 H 5.766 c 3.147,0 5.7,2.554 5.7,5.7 v 25.72 C 11.466,-2.554 8.913,0 5.766,0"
         style="fill:#ffffff;fill-opacity:1;fill-rule:nonzero;stroke:none"
         id="path382" /></g><g
       id="g384"
       transform="translate(293.7539,456.5879)"><path
         d="m 0,0 h -47.892 c -1.353,0 -2.443,-1.094 -2.443,-2.442 0,-1.351 1.09,-2.445 2.443,-2.445 H 0 c 1.349,0 2.447,1.094 2.447,2.445 C 2.447,-1.094 1.349,0 0,0"
         style="fill:#ffffff;fill-opacity:1;fill-rule:nonzero;stroke:none"
         id="path386" /></g><g
       id="g388"
       transform="translate(293.7539,448.3066)"><path
         d="m 0,0 h -47.892 c -1.353,0 -2.443,-1.098 -2.443,-2.445 0,-1.351 1.09,-2.446 2.443,-2.446 H 0 c 1.349,0 2.447,1.095 2.447,2.446 C 2.447,-1.098 1.349,0 0,0"
         style="fill:#ffffff;fill-opacity:1;fill-rule:nonzero;stroke:none"
         id="path390" /></g><g
       id="g392"
       transform="translate(392.3984,635.8662)"><path
         d="m 0,0 c 1.641,35.035 -25.428,64.762 -60.466,66.403 -35.032,1.64 -64.759,-25.427 -66.401,-60.464 -1.639,-35.034 25.429,-64.757 60.463,-66.399 C -31.372,-62.101 -1.641,-35.033 0,0"
         style="fill:#d33c47;fill-opacity:1;fill-rule:nonzero;stroke:none"
         id="path394" /></g><g
       id="g396"
       transform="translate(328.9697,667.6357)"><path
         d="m 0,0 c -15.88,0 -28.799,-12.92 -28.799,-28.8 0,-15.878 12.919,-28.798 28.799,-28.798 15.877,0 28.795,12.92 28.795,28.798 C 28.795,-12.92 15.877,0 0,0 m 0,-59.918 c -17.162,0 -31.122,13.959 -31.122,31.118 0,17.161 13.96,31.124 31.122,31.124 17.157,0 31.119,-13.963 31.119,-31.124 0,-17.159 -13.962,-31.118 -31.119,-31.118"
         style="fill:#ffffff;fill-opacity:1;fill-rule:nonzero;stroke:none"
         id="path398" /></g><g
       id="g400"
       transform="translate(328.9697,667.6357)"><path
         d="m 0,0 c -10.505,0 -19.046,-12.92 -19.046,-28.8 0,-15.878 8.541,-28.798 19.046,-28.798 10.503,0 19.046,12.92 19.046,28.798 C 19.046,-12.92 10.503,0 0,0 m 0,-59.918 c -11.784,0 -21.372,13.959 -21.372,31.118 0,17.161 9.588,31.124 21.372,31.124 11.782,0 21.371,-13.963 21.371,-31.124 0,-17.159 -9.589,-31.118 -21.371,-31.118"
         style="fill:#ffffff;fill-opacity:1;fill-rule:nonzero;stroke:none"
         id="path402" /></g><g
       id="g404"
       transform="translate(358.9268,637.6748)"><path
         d="m 0,0 h -59.922 c -0.641,0 -1.16,0.521 -1.16,1.161 0,0.643 0.519,1.163 1.16,1.163 H 0 c 0.641,0 1.162,-0.52 1.162,-1.163 C 1.162,0.521 0.641,0 0,0"
         style="fill:#ffffff;fill-opacity:1;fill-rule:nonzero;stroke:none"
         id="path406" /></g><g
       id="g408"
       transform="translate(328.9697,667.6357)"><path
         d="m 0,0 c -2.678,0 -6.566,-11.22 -6.566,-28.8 0,-17.579 3.888,-28.798 6.566,-28.798 2.675,0 6.564,11.219 6.564,28.798 C 6.564,-11.22 2.675,0 0,0 m 0,-59.918 c -5.837,0 -8.89,15.655 -8.89,31.118 0,15.467 3.053,31.124 8.89,31.124 5.833,0 8.886,-15.657 8.886,-31.124 0,-15.463 -3.053,-31.118 -8.886,-31.118"
         style="fill:#ffffff;fill-opacity:1;fill-rule:nonzero;stroke:none"
         id="path410" /></g><g
       id="g412"
       transform="translate(464.0361,407.2354)"><path
         d="M 0,0 C 16.448,14.546 17.987,39.664 3.444,56.106 -11.102,72.551 -36.219,74.092 -52.661,59.547 -69.104,45.006 -70.643,19.889 -56.1,3.447 -41.555,-12.999 -16.438,-14.543 0,0"
         style="fill:#009f51;fill-opacity:1;fill-rule:nonzero;stroke:none"
         id="path414" /></g><g
       id="g416"
       transform="translate(430.7363,416.876)"><path
         d="m 0,0 c -4.947,-0.233 -9.147,3.583 -9.384,8.528 -0.234,4.946 3.582,9.146 8.528,9.381 C 4.09,18.145 8.29,14.327 8.525,9.382 8.762,4.437 4.945,0.236 0,0 m -5.43,26.519 c -0.342,-0.413 -0.165,-1.796 0.111,-3.121 -1.109,-0.374 -2.152,-0.869 -3.125,-1.472 -0.825,1.035 -1.766,2.027 -2.358,2.056 -1.238,0.06 -5.689,-5.037 -5.58,-6.146 0.047,-0.532 1.151,-1.387 2.28,-2.129 -0.504,-1.024 -0.902,-2.111 -1.169,-3.247 -1.312,0.147 -2.678,0.183 -3.118,-0.214 -0.921,-0.835 -0.459,-7.583 0.396,-8.292 0.415,-0.343 1.795,-0.165 3.121,0.11 0.372,-1.107 0.872,-2.157 1.476,-3.13 -1.056,-0.848 -2.072,-1.801 -2.072,-2.339 0.003,-1.112 4.912,-5.763 6.142,-5.583 0.589,0.083 1.426,1.162 2.153,2.269 1.024,-0.507 2.111,-0.901 3.248,-1.169 -0.148,-1.344 -0.191,-2.74 0.187,-3.116 0.785,-0.787 7.551,-0.6 8.294,0.395 0.354,0.474 0.187,1.832 -0.085,3.123 1.106,0.375 2.151,0.872 3.123,1.473 0.845,-1.054 1.802,-2.071 2.336,-2.071 1.112,0 5.763,4.911 5.588,6.145 -0.088,0.584 -1.164,1.425 -2.271,2.148 0.507,1.025 0.901,2.112 1.168,3.248 1.344,-0.145 2.736,-0.188 3.113,0.189 0.788,0.788 0.605,7.549 -0.394,8.293 -0.472,0.355 -1.825,0.188 -3.122,-0.082 -0.375,1.1 -0.868,2.143 -1.468,3.115 1.033,0.824 2.024,1.763 2.054,2.352 0.059,1.244 -5.036,5.692 -6.145,5.587 -0.531,-0.05 -1.385,-1.155 -2.131,-2.285 -1.022,0.507 -2.11,0.902 -3.246,1.17 0.15,1.316 0.183,2.681 -0.216,3.116 -0.834,0.924 -7.579,0.463 -8.29,-0.393"
         style="fill:#ffffff;fill-opacity:1;fill-rule:nonzero;stroke:none"
         id="path418" /></g><g
       id="g420"
       transform="translate(445.7822,448.2178)"><path
         d="m 0,0 c -4.054,-0.19 -7.499,2.937 -7.689,6.99 -0.197,4.057 2.934,7.499 6.988,7.692 C 3.353,14.873 6.796,11.745 6.988,7.691 7.182,3.635 4.052,0.193 0,0 m -3.86,19.664 c -0.239,-0.289 -0.114,-1.261 0.077,-2.189 -0.775,-0.263 -1.511,-0.612 -2.19,-1.032 -0.579,0.725 -1.24,1.42 -1.652,1.44 -0.874,0.043 -3.993,-3.534 -3.922,-4.311 0.038,-0.373 0.811,-0.973 1.606,-1.494 -0.359,-0.718 -0.634,-1.48 -0.824,-2.278 -0.921,0.102 -1.878,0.129 -2.184,-0.15 -0.647,-0.586 -0.324,-5.322 0.277,-5.818 0.288,-0.238 1.259,-0.118 2.188,0.077 0.261,-0.778 0.614,-1.513 1.036,-2.197 -0.74,-0.593 -1.452,-1.266 -1.452,-1.641 0,-0.779 3.446,-4.043 4.307,-3.917 0.411,0.062 1.001,0.815 1.508,1.592 0.72,-0.354 1.486,-0.633 2.283,-0.818 -0.107,-0.944 -0.136,-1.922 0.132,-2.187 0.55,-0.55 5.295,-0.423 5.816,0.277 0.249,0.333 0.134,1.284 -0.059,2.19 0.774,0.264 1.51,0.612 2.191,1.033 0.595,-0.738 1.264,-1.453 1.639,-1.45 0.781,0 4.045,3.446 3.921,4.309 -0.063,0.409 -0.815,1.002 -1.596,1.51 0.359,0.715 0.635,1.48 0.821,2.277 0.943,-0.104 1.921,-0.134 2.188,0.132 0.552,0.552 0.42,5.296 -0.278,5.819 -0.333,0.248 -1.287,0.132 -2.191,-0.057 -0.262,0.771 -0.611,1.502 -1.03,2.183 0.723,0.579 1.42,1.239 1.44,1.653 0.042,0.871 -3.532,3.99 -4.311,3.919 C 5.508,18.5 4.909,17.727 4.389,16.933 3.668,17.288 2.904,17.566 2.107,17.755 2.212,18.676 2.235,19.634 1.96,19.94 1.371,20.586 -3.363,20.265 -3.86,19.664"
         style="fill:#ffffff;fill-opacity:1;fill-rule:nonzero;stroke:none"
         id="path422" /></g><g
       id="g424"
       transform="translate(627.0098,470.2559)"><path
         d="m 0,0 c -0.857,38.195 -32.515,68.466 -70.712,67.605 -38.2,-0.856 -68.47,-32.517 -67.611,-70.713 0.861,-38.198 32.521,-68.465 70.716,-67.609 C -29.407,-69.857 0.86,-38.198 0,0"
         style="fill:#ffcd28;fill-opacity:1;fill-rule:nonzero;stroke:none"
         id="path426" /></g><g
       id="g428"
       transform="translate(586.001,463.8359)"><path
         d="m 0,0 c 0,-2.036 -1.687,-3.688 -3.772,-3.688 h -47.76 c -2.081,0 -3.767,1.652 -3.767,3.688 v 32.111 c 0,2.035 1.686,3.687 3.767,3.687 h 47.76 C -1.687,35.798 0,34.146 0,32.111 Z m 0.021,39.449 h -55.342 c -2.414,0 -4.37,-1.956 -4.37,-4.37 V -2.97 c 0,-2.413 1.956,-4.368 4.37,-4.368 H 0.021 c 2.414,0 4.37,1.955 4.37,4.368 v 38.049 c 0,2.414 -1.956,4.37 -4.37,4.37"
         style="fill:#ffffff;fill-opacity:1;fill-rule:nonzero;stroke:none"
         id="path430" /></g><g
       id="g432"
       transform="translate(596.4004,444.4385)"><path
         d="M 0,0 C 0,-2.414 -1.958,-4.371 -4.369,-4.371 H -71.73 c -2.412,0 -4.37,1.957 -4.37,4.371 v 4.21 c 0,2.411 1.958,4.367 4.37,4.367 H -4.369 C -1.958,8.577 0,6.621 0,4.21 Z"
         style="fill:#ffffff;fill-opacity:1;fill-rule:nonzero;stroke:none"
         id="path434" /></g><g
       id="g436"
       transform="translate(207.4111,352.4639)"><path
         d="M 0,0 C 0.298,25.404 22.002,45.744 48.474,45.429 74.952,45.116 96.164,24.271 95.866,-1.134 95.565,-26.54 73.864,-46.878 47.387,-46.563 20.914,-46.247 -0.301,-25.409 0,0"
         style="fill:#eb3a82;fill-opacity:1;fill-rule:nonzero;stroke:none"
         id="path438" /></g><g
       id="g440"
       transform="translate(260.1875,346.918)"><path
         d="m 0,0 1.38,10.009 c -1.409,2.152 -3.74,3.452 -6.259,3.478 -3.879,0.05 -7.932,-3.343 -8.001,-9.093 -0.055,-4.571 2.496,-7.553 6.501,-7.599 C -3.745,-3.236 -1.319,-1.522 0,0 M 5.359,0.009 C 5.25,-0.753 5.186,-1.307 5.183,-1.761 5.163,-3.648 5.873,-4.5 7.508,-4.514 10.702,-4.553 14.205,0.395 14.3,8.451 14.414,17.876 7.09,24.811 -3.114,24.93 -16.491,25.086 -23.835,14.216 -23.959,3.9 c -0.132,-11.167 7.358,-18.752 18.64,-18.888 5.796,-0.068 9.995,1.492 13.34,3.024 l 0.462,0.214 1.853,-4.811 -0.365,-0.183 c -4.282,-2.137 -10.148,-3.373 -15.681,-3.306 -14.854,0.171 -24.349,9.544 -24.178,23.864 0.18,15.105 11.854,26.358 27.159,26.179 C 10.721,29.832 20.378,20.856 20.231,8.64 20.111,-1.52 14.554,-8.835 7.018,-8.743 c -3.4,0.039 -5.856,1.742 -6.619,4.502 -1.821,-1.847 -4.594,-3.744 -8.3,-3.699 -5.328,0.062 -10.678,4.108 -10.592,11.722 0.097,8.086 5.863,14.348 13.126,14.26 3.151,-0.037 5.8,-1.18 7.58,-3.242 l 0.416,2.778 5.231,-0.061 z"
         style="fill:#ffffff;fill-opacity:1;fill-rule:nonzero;stroke:none"
         id="path442" /></g><g
       id="g444"
       transform="translate(503.1973,560.2266)"><path
         d="m 0,0 c 0.039,28.118 -22.728,50.948 -50.851,50.985 -28.123,0.039 -50.944,-22.729 -50.98,-50.852 -0.043,-28.121 22.724,-50.947 50.845,-50.986 C -22.861,-50.888 -0.036,-28.124 0,0"
         style="fill:#27a28c;fill-opacity:1;fill-rule:nonzero;stroke:none"
         id="path446" /></g><g
       id="g448"
       transform="translate(471.999,576.3506)"><path
         d="m 0,0 c -2.821,0 -5.46,-0.776 -7.72,-2.118 -0.904,8.083 -7.76,14.363 -16.086,14.363 -8.94,0 -16.188,-7.247 -16.188,-16.187 0,-0.601 0.035,-1.193 0.098,-1.776 -0.744,0.144 -1.505,0.217 -2.291,0.217 -6.829,0 -12.363,-5.536 -12.363,-12.361 0,-6.828 5.534,-12.363 12.363,-12.363 H 0 c 8.348,0 15.111,6.767 15.111,15.112 C 15.111,-6.766 8.348,0 0,0"
         style="fill:#ffffff;fill-opacity:1;fill-rule:nonzero;stroke:none"
         id="path450" /></g><g
       id="g452"
       transform="translate(567.8037,676.8369)"><path
         d="M 0,0 C 18.588,16.437 20.329,44.831 3.89,63.418 -12.546,82.002 -40.94,83.744 -59.525,67.305 -78.115,50.866 -79.854,22.474 -63.416,3.888 -46.979,-14.698 -18.586,-16.44 0,0"
         style="fill:#2ac2f4;fill-opacity:1;fill-rule:nonzero;stroke:none"
         id="path454" /></g><g
       id="g456"
       transform="translate(533.0742,711.9771)"><path
         d="m 0,0 c 0.062,-1.654 0.705,-3.178 1.741,-4.349 1.04,-1.175 2.473,-2.001 4.105,-2.265 l 0.833,-0.133 0.6,-24.752 c -1.067,0.297 -2.059,0.891 -2.844,1.779 L -23.114,1.432 c -0.788,0.887 -1.26,1.945 -1.421,3.044 L -0.032,0.859 Z"
         style="fill:#ffffff;fill-opacity:1;fill-rule:nonzero;stroke:none"
         id="path458" /></g><g
       id="g460"
       transform="translate(566.1279,707.5659)"><path
         d="m 0,0 c 0.778,-0.879 1.244,-1.932 1.41,-3.023 l -24.139,3.86 -2.055,0.336 -0.462,0.072 c -2.323,0.37 -4.062,2.341 -4.148,4.687 l -0.021,0.486 -0.072,2.08 -0.897,24.428 c 1.061,-0.299 2.048,-0.889 2.83,-1.774 z"
         style="fill:#ffffff;fill-opacity:1;fill-rule:nonzero;stroke:none"
         id="path462" /></g><g
       id="g464"
       transform="translate(567.4102,700.957)"><path
         d="M 0,0 C -0.245,-1.238 -0.872,-2.416 -1.898,-3.323 L -19.975,-19.31 c -1.006,-0.891 -2.235,-1.371 -3.482,-1.466 l -0.602,24.628 z"
         style="fill:#ffffff;fill-opacity:1;fill-rule:nonzero;stroke:none"
         id="path466" /></g><g
       id="g468"
       transform="translate(532.1719,740.8003)"><path
         d="m 0,0 0.887,-24.337 -24.37,3.596 c 0.24,1.226 0.866,2.388 1.877,3.283 L -3.534,-1.472 C -2.508,-0.565 -1.263,-0.088 0,0"
         style="fill:#ffffff;fill-opacity:1;fill-rule:nonzero;stroke:none"
         id="path470" /></g><g
       id="g472"
       transform="translate(383.8145,472.2656)"><path
         d="M 0,0 C 18.462,16.327 20.191,44.522 3.864,62.983 -12.463,81.44 -40.656,83.172 -59.119,66.846 -77.577,50.521 -79.303,22.325 -62.979,3.864 -46.651,-14.596 -18.456,-16.325 0,0"
         style="fill:#174f78;fill-opacity:1;fill-rule:nonzero;stroke:none"
         id="path474" /></g><g
       id="g476"
       transform="translate(353.7461,501.0293)"><path
         d="m 0,0 c -6.989,0.629 -12.141,6.8 -11.517,13.785 0.628,6.985 6.8,12.144 13.784,11.519 C 9.254,24.677 14.408,18.497 13.781,11.514 13.155,4.528 6.986,-0.626 0,0 m -2.835,-5.374 -0.305,-3.409 4.666,-0.42 0.309,3.408 c 9.159,0.337 16.853,7.436 17.689,16.792 0.913,10.161 -6.585,19.132 -16.738,20.045 -10.165,0.909 -19.138,-6.586 -20.045,-16.744 -0.84,-9.361 5.471,-17.712 14.424,-19.672"
         style="fill:#ffffff;fill-opacity:1;fill-rule:nonzero;stroke:none"
         id="path478" /></g><g
       id="g480"
       transform="translate(346.0068,479.2021)"><path
         d="m 0,0 c -0.151,-1.617 2.568,-3.178 6.074,-3.485 3.507,-0.305 6.47,0.757 6.622,2.376 l 1.478,17.47 c 0.156,1.618 -2.569,3.177 -6.07,3.483 C 4.597,20.148 1.629,19.09 1.48,17.473 Z"
         style="fill:#ffffff;fill-opacity:1;fill-rule:nonzero;stroke:none"
         id="path482" /></g><g
       id="g484"
       transform="translate(675.7178,594.374)"><path
         d="M 0,0 C 0.221,24.646 -19.575,44.797 -44.22,45.02 -68.859,45.24 -89.016,25.445 -89.236,0.801 -89.46,-23.839 -69.659,-43.991 -45.02,-44.213 -20.378,-44.434 -0.221,-24.642 0,0"
         style="fill:#d33c47;fill-opacity:1;fill-rule:nonzero;stroke:none"
         id="path486" /></g><g
       id="g488"
       transform="translate(616.708,601.0039)"><path
         d="m 0,0 c 0.07,7.967 6.614,14.387 14.576,14.316 l 0.075,-0.002 c 0.645,-0.004 1.279,-0.058 1.9,-0.155 0.645,-0.093 1.274,-0.226 1.891,-0.408 C 24.52,12 28.953,6.364 28.895,-0.259 28.834,-6.88 24.299,-12.438 18.192,-14.076 c -0.622,-0.174 -1.254,-0.293 -1.898,-0.377 -0.62,-0.08 -1.256,-0.128 -1.901,-0.124 H 14.315 C 6.353,-14.503 -0.073,-7.964 0,0 m -6.875,0.062 c -0.059,-6.873 7.705,-19.086 14.557,-28.367 0.443,-0.588 0.864,-1.148 1.279,-1.693 0.435,-0.59 0.861,-1.148 1.288,-1.695 0.011,-0.013 0.019,-0.025 0.031,-0.036 0.923,-1.2 2.357,-1.903 3.871,-1.914 1.513,-0.011 2.953,0.668 3.9,1.852 0.18,0.219 0.357,0.444 0.536,0.667 0.423,0.541 0.869,1.092 1.305,1.671 0.42,0.542 0.856,1.105 1.293,1.673 6.91,9.065 14.522,20.735 14.582,27.46 0.09,10.433 -7.36,19.21 -17.257,21.125 -0.621,0.117 -1.251,0.211 -1.9,0.267 -0.62,0.068 -1.25,0.113 -1.9,0.118 l -0.072,0.002 C 2.889,21.298 -6.768,11.811 -6.875,0.062"
         style="fill:#ffffff;fill-opacity:1;fill-rule:nonzero;stroke:none"
         id="path490" /></g><g
       id="g492"
       transform="translate(453.4326,703.9761)"><path
         d="M 0,0 C 13.477,11.918 14.741,32.496 2.825,45.97 -9.091,59.443 -29.673,60.705 -43.146,48.788 -56.614,36.875 -57.879,16.293 -45.963,2.82 -34.047,-10.652 -13.467,-11.913 0,0"
         style="fill:#ffcd28;fill-opacity:1;fill-rule:nonzero;stroke:none"
         id="path494" /></g><g
       id="g496"
       transform="translate(450.8652,734.103)"><path
         d="m 0,0 c 0.88,0.852 0.396,2.342 -0.815,2.519 l -10.46,1.52 c -0.48,0.068 -0.899,0.373 -1.11,0.808 l -4.679,9.476 c -0.541,1.097 -2.108,1.097 -2.651,0 l -4.676,-9.476 c -0.215,-0.435 -0.63,-0.74 -1.112,-0.808 L -35.962,2.519 C -37.173,2.342 -37.661,0.852 -36.782,0 l 7.571,-7.378 c 0.345,-0.338 0.507,-0.828 0.425,-1.309 l -1.786,-10.417 c -0.208,-1.204 1.054,-2.126 2.14,-1.556 l 9.356,4.918 c 0.43,0.226 0.946,0.226 1.376,0 l 9.352,-4.918 c 1.086,-0.57 2.353,0.352 2.144,1.556 l -1.785,10.417 c -0.08,0.481 0.077,0.971 0.425,1.309 z"
         style="fill:#ffffff;fill-opacity:1;fill-rule:nonzero;stroke:none"
         id="path498" /></g><g
       id="g500"
       transform="translate(578.9912,614.9492)"><path
         d="M 0,0 C -0.016,18.707 -15.186,33.864 -33.894,33.851 -52.603,33.837 -67.753,18.657 -67.74,-0.05 -67.728,-18.752 -52.551,-33.902 -33.848,-33.888 -15.134,-33.875 0.012,-18.704 0,0"
         style="fill:#abbaf2;fill-opacity:1;fill-rule:nonzero;stroke:none"
         id="path502" /></g><g
       id="g504"
       transform="translate(545.1094,628.873)"><path
         d="m 0,0 c 1.033,0 2.007,-0.406 2.737,-1.132 l 11.176,-11.165 c 1.038,-1.032 1.621,-2.436 1.621,-3.899 l 0.006,-10.101 c 0.003,-1.987 -1.615,-3.597 -3.594,-3.602 H 9.693 c -1.276,0 -2.314,1.034 -2.314,2.31 l -0.005,8.337 c -0.003,2.709 -2.203,4.913 -4.91,4.911 l -4.898,-0.005 c -2.705,-0.002 -4.91,-2.209 -4.91,-4.916 l 0.005,-8.337 c 0.002,-1.278 -1.03,-2.314 -2.304,-2.314 h -2.251 c -1.987,-0.003 -3.601,1.606 -3.603,3.591 l -0.008,10.104 c 0,1.467 0.581,2.867 1.617,3.905 L -2.72,-1.134 C -2,-0.406 -1.023,-0.004 0,0"
         style="fill:#ffffff;fill-opacity:1;fill-rule:nonzero;stroke:none"
         id="path506" /></g><g
       id="g508"
       transform="translate(524.7373,619.0986)"><path
         d="m 0,0 14.322,14.34 c 1.616,1.623 3.757,2.514 6.046,2.515 2.281,0.001 4.432,-0.886 6.056,-2.506 L 40.757,0.029 c 0.789,-0.791 0.792,-2.078 0.003,-2.868 l -0.052,-0.056 c -0.77,-0.767 -2.104,-0.767 -2.871,-0.002 l -0.18,0.173 -0.876,0.88 -1.298,1.294 -11.137,11.12 c -0.494,0.496 -1.066,0.882 -1.681,1.16 l -0.01,0.003 -0.006,0.005 -0.004,0.007 -0.005,0.005 -0.01,0.005 c -0.536,0.211 -1.078,0.364 -1.67,0.424 -0.189,0.025 -0.39,0.033 -0.588,0.033 -0.202,0 -0.402,-0.01 -0.596,-0.033 -0.586,-0.065 -1.165,-0.215 -1.697,-0.46 -0.615,-0.269 -1.176,-0.657 -1.676,-1.154 L 5.284,-0.571 3.988,-1.867 3.107,-2.749 2.987,-2.865 C 2.188,-3.665 0.797,-3.668 0,-2.87 -0.373,-2.495 -0.589,-1.967 -0.589,-1.433 -0.592,-0.891 -0.384,-0.38 0,0"
         style="fill:#ffffff;fill-opacity:1;fill-rule:nonzero;stroke:none"
         id="path510" /></g><g
       id="g512"
       transform="translate(543.0879,611.9082)"><path
         d="m 0,0 4.073,0.003 c 1.443,0 2.623,-1.327 2.623,-2.956 l 0.008,-7.818 c 0,-1.196 -0.863,-2.167 -1.923,-2.167 l -5.469,-0.004 c -1.061,-10e-4 -1.924,0.969 -1.924,2.164 L -2.617,-2.96 C -2.617,-1.33 -1.442,0 0,0"
         style="fill:#ffffff;fill-opacity:1;fill-rule:nonzero;stroke:none"
         id="path514" /></g><g
       id="g516"
       transform="translate(264.4463,563.7256)"><path
         d="M 0,0 C 10.625,9.396 11.623,25.622 2.226,36.247 -7.173,46.87 -23.396,47.865 -34.024,38.469 -44.644,29.074 -45.638,12.848 -36.24,2.228 -26.842,-8.398 -10.619,-9.396 0,0"
         style="fill:#abbaf2;fill-opacity:1;fill-rule:nonzero;stroke:none"
         id="path518" /></g><g
       id="g520"
       transform="translate(252.3145,576.2549)"><path
         d="m 0,0 h -15.447 c -0.872,0 -1.636,0.584 -1.861,1.426 l -2.97,10.972 c -0.332,1.225 0.589,2.429 1.86,2.429 H 2.97 c 1.269,0 2.188,-1.204 1.86,-2.429 L 1.86,1.426 C 1.631,0.584 0.869,0 0,0"
         style="fill:#ffffff;fill-opacity:1;fill-rule:nonzero;stroke:none"
         id="path522" /></g><g
       id="g524"
       transform="translate(255.0332,573.7871)"><path
         d="m 0,0 h -18.604 c -0.208,0 -0.385,0.174 -0.385,0.386 0,0.21 0.177,0.383 0.385,0.383 h 18.316 l 6.47,22.576 c 0.047,0.163 0.2,0.278 0.37,0.278 h 4.049 c 0.211,0 0.382,-0.173 0.382,-0.383 0,-0.214 -0.171,-0.384 -0.382,-0.384 H 6.843 L 0.368,0.277 C 0.323,0.116 0.169,0 0,0"
         style="fill:#ffffff;fill-opacity:1;fill-rule:nonzero;stroke:none"
         id="path526" /></g><g
       id="g528"
       transform="translate(255.0332,573.377)"><path
         d="m 0,0 h -18.604 c -0.439,0 -0.794,0.357 -0.794,0.796 0,0.436 0.355,0.794 0.794,0.794 h 18.006 l 6.387,22.276 c 0.1,0.34 0.413,0.577 0.763,0.577 h 4.049 c 0.437,0 0.792,-0.355 0.792,-0.793 0,-0.439 -0.355,-0.794 -0.792,-0.794 H 7.151 L 0.764,0.575 C 0.668,0.238 0.353,0 0,0"
         style="fill:#ffffff;fill-opacity:1;fill-rule:nonzero;stroke:none"
         id="path530" /></g><g
       id="g532"
       transform="translate(239.2773,570.7617)"><path
         d="m 0,0 c 0,-1.242 -1.008,-2.249 -2.249,-2.249 -1.242,0 -2.248,1.007 -2.248,2.249 0,1.243 1.006,2.25 2.248,2.25 C -1.008,2.25 0,1.243 0,0"
         style="fill:#ffffff;fill-opacity:1;fill-rule:nonzero;stroke:none"
         id="path534" /></g><g
       id="g536"
       transform="translate(255.6348,570.7617)"><path
         d="m 0,0 c 0,-1.242 -1.006,-2.249 -2.25,-2.249 -1.243,0 -2.248,1.007 -2.248,2.249 0,1.243 1.005,2.25 2.248,2.25 C -1.006,2.25 0,1.243 0,0"
         style="fill:#ffffff;fill-opacity:1;fill-rule:nonzero;stroke:none"
         id="path538" /></g><g
       id="g540"
       transform="translate(486.6719,641.2871)"><path
         d="m 0,0 c 8.577,7.59 9.388,20.696 1.795,29.279 -7.59,8.58 -20.696,9.38 -29.276,1.79 C -36.058,23.485 -36.864,10.381 -29.275,1.798 -21.683,-6.785 -8.576,-7.584 0,0"
         style="fill:#eb3a82;fill-opacity:1;fill-rule:nonzero;stroke:none"
         id="path542" /></g><g
       id="g544"
       transform="translate(460.5635,656.5039)"><path
         d="m 0,0 c 1.292,-3.408 12.373,-12.356 12.373,-12.356 0,0 3.614,2.935 6.957,6.095 2.506,2.339 4.847,4.806 5.399,6.261 1.314,3.386 -0.08,8.23 -4.922,9.05 -4.826,0.821 -7.434,-4.228 -7.434,-4.228 0,0 -2.604,5.049 -7.45,4.228 C 4.084,8.907 3.344,8.641 2.708,8.27 -0.307,6.587 -1.07,2.789 0,0"
         style="fill:#ffffff;fill-opacity:1;fill-rule:nonzero;stroke:none"
         id="path546" /></g><g
       id="g548"
       transform="translate(423.4902,629.2529)"><path
         d="M 0,0 C 12.018,10.631 13.147,28.988 2.515,41.007 -8.112,53.021 -26.472,54.146 -38.491,43.516 -50.502,32.891 -51.624,14.535 -40.997,2.519 -30.368,-9.501 -12.015,-10.623 0,0"
         style="fill:#009f51;fill-opacity:1;fill-rule:nonzero;stroke:none"
         id="path550" /></g><g
       id="g552"
       transform="translate(400.9111,645.1562)"><path
         d="M 0,0 11.346,-0.044 M -0.117,14.72 -3.84,5.792"
         style="fill:none;stroke:#ffffff;stroke-width:2.126;stroke-linecap:round;stroke-linejoin:round;stroke-miterlimit:2.613;stroke-dasharray:none;stroke-opacity:1"
         id="path554" /></g><g
       id="g556"
       transform="translate(408.1484,669.4639)"><path
         d="m 0,0 c 2.11,-2.733 1.604,-6.658 -1.128,-8.768 -2.729,-2.108 -6.655,-1.603 -8.765,1.128 -2.108,2.734 -1.604,6.656 1.128,8.767 C -6.032,3.236 -2.109,2.731 0,0 Z"
         style="fill:none;stroke:#ffffff;stroke-width:2.126;stroke-linecap:round;stroke-linejoin:round;stroke-miterlimit:2.613;stroke-dasharray:none;stroke-opacity:1"
         id="path558" /></g><g
       id="g560"
       transform="translate(423.4541,648.9043)"><path
         d="m 0,0 c 2.109,-2.732 1.605,-6.655 -1.127,-8.765 -2.734,-2.108 -6.656,-1.605 -8.768,1.127 -2.108,2.733 -1.604,6.657 1.125,8.767 C -6.032,3.236 -2.111,2.734 0,0 Z"
         style="fill:none;stroke:#ffffff;stroke-width:2.126;stroke-linecap:round;stroke-linejoin:round;stroke-miterlimit:2.613;stroke-dasharray:none;stroke-opacity:1"
         id="path562" /></g><g
       id="g564"
       transform="translate(399.6123,649.002)"><path
         d="m 0,0 c 2.106,-2.732 1.602,-6.657 -1.131,-8.768 -2.73,-2.109 -6.657,-1.603 -8.764,1.128 -2.108,2.731 -1.604,6.658 1.127,8.768 C -6.035,3.236 -2.111,2.73 0,0 Z"
         style="fill:none;stroke:#ffffff;stroke-width:2.126;stroke-linecap:round;stroke-linejoin:round;stroke-miterlimit:2.613;stroke-dasharray:none;stroke-opacity:1"
         id="path566" /></g><g
       id="g568"
       transform="translate(673.3135,691.1611)"><path
         d="m 0,0 c 0,-17.527 -14.215,-31.736 -31.743,-31.736 -17.528,0 -31.737,14.209 -31.737,31.736 0,17.533 14.209,31.741 31.737,31.741 C -14.215,31.741 0,17.533 0,0"
         style="fill:#27a28c;fill-opacity:1;fill-rule:nonzero;stroke:none"
         id="path570" /></g><g
       id="g572"
       transform="translate(650.4346,704.0234)"><path
         d="m 0,0 c 0,-4.898 -3.969,-8.868 -8.864,-8.868 -4.898,0 -8.866,3.97 -8.866,8.868 0,4.896 3.968,8.866 8.866,8.866 C -3.969,8.866 0,4.896 0,0"
         style="fill:#ffffff;fill-opacity:1;fill-rule:nonzero;stroke:none"
         id="path574" /></g><g
       id="g576"
       transform="translate(656.4248,670.6084)"><path
         d="m 0,0 h -28.432 v 7.829 c 0,7.851 6.363,14.217 14.218,14.217 C -6.363,22.046 0,15.68 0,7.829 Z"
         style="fill:#ffffff;fill-opacity:1;fill-rule:nonzero;stroke:none"
         id="path578" /></g><g
       id="g580"><g
         id="g582" /><g
         id="g594"><g
           clip-path="url(#clipPath586)"
           id="g592"><g
             transform="translate(336.4111,122.957)"
             id="g590"><path
               d="m 0,0 c 0,-9.769 -69.98,-17.688 -156.306,-17.688 -86.322,0 -156.301,7.919 -156.301,17.688 0,9.771 69.979,17.69 156.301,17.69 C -69.98,17.69 0,9.771 0,0"
               style="fill:#1bb594;fill-opacity:1;fill-rule:nonzero;stroke:none"
               id="path588" /></g></g></g></g><g
       id="g596"><g
         id="g598" /><g
         id="g610"><g
           clip-path="url(#clipPath602)"
           id="g608"><g
             transform="translate(880.0283,218.3135)"
             id="g606"><path
               d="m 0,0 c 0,-9.771 -69.979,-17.687 -156.303,-17.687 -86.324,0 -156.303,7.916 -156.303,17.687 0,9.769 69.979,17.687 156.303,17.687 C -69.979,17.687 0,9.769 0,0"
               style="fill:#1bb594;fill-opacity:1;fill-rule:nonzero;stroke:none"
               id="path604" /></g></g></g></g></g></svg>
