<svg version="1.1" xmlns="http://www.w3.org/2000/svg" viewBox="0 0 1310.788929714192 906.0605968128557" width="1310.788929714192" height="906.0605968128557">
  <!-- svg-source:excalidraw -->
  
  <defs>
    <style>
      @font-face {
        font-family: "Virgil";
        src: url("https://excalidraw.com/Virgil.woff2");
      }
      @font-face {
        font-family: "Cascadia";
        src: url("https://excalidraw.com/Cascadia.woff2");
      }
    </style>
  </defs>
  <g stroke-linecap="round" transform="translate(10 10) rotate(0 645.394464857096 443.03029840642785)"><path d="M0 0 L1290.79 0 L1290.79 886.06 L0 886.06" stroke="none" stroke-width="0" fill="#edf6f5"></path><path d="M0 0 C282.68 0, 565.35 0, 1290.79 0 M0 0 C262.88 0, 525.76 0, 1290.79 0 M1290.79 0 C1290.79 229.04, 1290.79 458.08, 1290.79 886.06 M1290.79 0 C1290.79 250.56, 1290.79 501.13, 1290.79 886.06 M1290.79 886.06 C853.11 886.06, 415.43 886.06, 0 886.06 M1290.79 886.06 C794.98 886.06, 299.17 886.06, 0 886.06 M0 886.06 C0 549.02, 0 211.98, 0 0 M0 886.06 C0 702.03, 0 518, 0 0" stroke="#edf6f5" stroke-width="1" fill="none"></path></g><g stroke-linecap="round"><g transform="translate(768.6753279972836 468.93065237589053) rotate(0 0 60.0269873351308)" fill-rule="evenodd"><path d="M0 0 L60.09 30.01 L60.09 90.04 L0 120.05 L-60.09 90.04 L-60.09 30.01 L0 0" stroke="none" stroke-width="0" fill="#0aa8a7" fill-rule="evenodd"></path><path d="M0 0 C20.02 10, 40.04 20, 60.09 30.01 M0 0 C13.72 6.85, 27.43 13.7, 60.09 30.01 M60.09 30.01 C60.09 42.56, 60.09 55.11, 60.09 90.04 M60.09 30.01 C60.09 44.76, 60.09 59.51, 60.09 90.04 M60.09 90.04 C40.6 99.78, 21.11 109.51, 0 120.05 M60.09 90.04 C36.76 101.69, 13.43 113.35, 0 120.05 M0 120.05 C-14.03 113.04, -28.07 106.03, -60.09 90.04 M0 120.05 C-21.97 109.08, -43.95 98.1, -60.09 90.04 M-60.09 90.04 C-60.09 70.92, -60.09 51.81, -60.09 30.01 M-60.09 90.04 C-60.09 77.33, -60.09 64.63, -60.09 30.01 M-60.09 30.01 C-38.42 19.19, -16.76 8.37, 0 0 M-60.09 30.01 C-38.35 19.15, -16.61 8.3, 0 0 M0 0 C0 0, 0 0, 0 0 M0 0 C0 0, 0 0, 0 0" stroke="#0aa8a7" stroke-width="4" fill="none"></path></g></g><g transform="translate(710.5662466381036 507.399661775411) rotate(0 56.89422837197526 19.275640213456427)"><text x="56.894228371975714" y="15.27564021345626" font-family="Helvetica, Segoe UI Emoji" font-size="16.646138698205608px" fill="#fff" text-anchor="middle" style="white-space: pre;" direction="ltr">Automatización</text><text x="56.894228371975714" y="34.55128042691252" font-family="Helvetica, Segoe UI Emoji" font-size="16.646138698205608px" fill="#fff" text-anchor="middle" style="white-space: pre;" direction="ltr">despliegues</text></g><g stroke-linecap="round"><g transform="translate(630.350720667433 468.93065237589053) rotate(0 0 60.0269873351308)"><path d="M0 0 C20.63 10.3, 41.26 20.61, 60.09 30.01 M0 0 C22.92 11.45, 45.84 22.9, 60.09 30.01 M60.09 30.01 C60.09 52.12, 60.09 74.23, 60.09 90.04 M60.09 30.01 C60.09 45.18, 60.09 60.34, 60.09 90.04 M60.09 90.04 C38.24 100.95, 16.39 111.86, 0 120.05 M60.09 90.04 C44.56 97.79, 29.04 105.55, 0 120.05 M0 120.05 C-14 113.06, -28 106.07, -60.09 90.04 M0 120.05 C-12.32 113.9, -24.63 107.75, -60.09 90.04 M-60.09 90.04 C-60.09 74.03, -60.09 58.02, -60.09 30.01 M-60.09 90.04 C-60.09 75.86, -60.09 61.69, -60.09 30.01 M-60.09 30.01 C-46.89 23.42, -33.69 16.83, 0 0 M-60.09 30.01 C-41.81 20.88, -23.53 11.75, 0 0" stroke="#0aa8a7" stroke-width="4" fill="none"></path></g></g><g stroke-linecap="round"><g transform="translate(1045.3245426569629 468.93065237589053) rotate(0 0 60.0269873351308)" fill-rule="evenodd"><path d="M0 0 L60.09 30.01 L60.09 90.04 L0 120.05 L-60.09 90.04 L-60.09 30.01 L0 0" stroke="none" stroke-width="0" fill="#0aa8a7" fill-rule="evenodd"></path><path d="M0 0 C23.75 11.86, 47.49 23.72, 60.09 30.01 M0 0 C21.52 10.75, 43.05 21.5, 60.09 30.01 M60.09 30.01 C60.09 43.69, 60.09 57.36, 60.09 90.04 M60.09 30.01 C60.09 50.63, 60.09 71.25, 60.09 90.04 M60.09 90.04 C38.5 100.83, 16.9 111.61, 0 120.05 M60.09 90.04 C46.29 96.93, 32.5 103.82, 0 120.05 M0 120.05 C-16.93 111.6, -33.86 103.14, -60.09 90.04 M0 120.05 C-20.91 109.61, -41.82 99.17, -60.09 90.04 M-60.09 90.04 C-60.09 75.28, -60.09 60.53, -60.09 30.01 M-60.09 90.04 C-60.09 70.67, -60.09 51.3, -60.09 30.01 M-60.09 30.01 C-46.07 23.01, -32.05 16.01, 0 0 M-60.09 30.01 C-39.14 19.55, -18.2 9.09, 0 0 M0 0 C0 0, 0 0, 0 0 M0 0 C0 0, 0 0, 0 0" stroke="#0aa8a7" stroke-width="4" fill="none"></path></g></g><g transform="translate(867.0329086902857 504.33057695835396) rotate(0 42.48541510845098 20.748691099476673)"><text x="42.48541510845178" y="16.748691099476456" font-family="Helvetica, Segoe UI Emoji" font-size="17.620134795823173px" fill="#0aa8a7" text-anchor="middle" style="white-space: pre;" direction="ltr">Historias</text><text x="42.48541510845178" y="37.49738219895291" font-family="Helvetica, Segoe UI Emoji" font-size="17.620134795823173px" fill="#0aa8a7" text-anchor="middle" style="white-space: pre;" direction="ltr">de Usuario</text></g><g stroke-linecap="round"><g transform="translate(909.9640340556143 466.9545865568916) rotate(0 0 60.0269873351308)"><path d="M0 0 C18.98 9.48, 37.96 18.96, 60.09 30.01 M0 0 C20.68 10.33, 41.36 20.66, 60.09 30.01 M60.09 30.01 C60.09 51.84, 60.09 73.66, 60.09 90.04 M60.09 30.01 C60.09 43.54, 60.09 57.07, 60.09 90.04 M60.09 90.04 C38.09 101.03, 16.09 112.02, 0 120.05 M60.09 90.04 C38.14 101, 16.19 111.97, 0 120.05 M0 120.05 C-18.3 110.91, -36.6 101.77, -60.09 90.04 M0 120.05 C-21.67 109.23, -43.34 98.4, -60.09 90.04 M-60.09 90.04 C-60.09 75.96, -60.09 61.88, -60.09 30.01 M-60.09 90.04 C-60.09 69.9, -60.09 49.76, -60.09 30.01 M-60.09 30.01 C-38.57 19.26, -17.05 8.51, 0 0 M-60.09 30.01 C-40.92 20.44, -21.76 10.87, 0 0" stroke="#0aa8a7" stroke-width="4" fill="none"></path></g></g><g transform="translate(1018.7359522038059 510.93314608373566) rotate(0 29.14697083021747 15.80852655198214)"><text x="29.14697083021692" y="24.61705310396412" font-family="Helvetica, Segoe UI Emoji" font-size="27.49650003356226px" fill="#fff" text-anchor="middle" style="white-space: pre;" direction="ltr">Chat</text></g><g transform="translate(577.5841776025009 504.2802742490685) rotate(0 53.6948447893501 21.841970761769517)"><text x="53.69484478934961" y="16.84197076176933" font-family="Helvetica, Segoe UI Emoji" font-size="19.067407143563372px" fill="#0aa8a7" text-anchor="middle" style="white-space: pre;" direction="ltr">Repositorio</text><text x="53.69484478934961" y="38.68394152353866" font-family="Helvetica, Segoe UI Emoji" font-size="19.067407143563372px" fill="#0aa8a7" text-anchor="middle" style="white-space: pre;" direction="ltr">Documentos</text></g><g transform="translate(864.1423243151803 658.7107190675533) rotate(0 42.48541510845098 11.856394913986605)"><text x="42.48541510845178" y="17.712789827973094" font-family="Helvetica, Segoe UI Emoji" font-size="20.70057794194597px" fill="#0aa8a7" text-anchor="middle" style="white-space: pre;" direction="ltr">Prácticas</text></g><g stroke-linecap="round"><g transform="translate(906.9999353271196 609.2313255247291) rotate(0 0 60.0269873351308)"><path d="M0 0 C12.24 6.11, 24.47 12.23, 60.09 30.01 M0 0 C15.53 7.76, 31.06 15.52, 60.09 30.01 M60.09 30.01 C60.09 46.99, 60.09 63.96, 60.09 90.04 M60.09 30.01 C60.09 50.37, 60.09 70.72, 60.09 90.04 M60.09 90.04 C37.01 101.57, 13.93 113.1, 0 120.05 M60.09 90.04 C37.23 101.46, 14.37 112.87, 0 120.05 M0 120.05 C-12.48 113.82, -24.96 107.59, -60.09 90.04 M0 120.05 C-19.21 110.46, -38.42 100.86, -60.09 90.04 M-60.09 90.04 C-60.09 74.47, -60.09 58.91, -60.09 30.01 M-60.09 90.04 C-60.09 66.62, -60.09 43.2, -60.09 30.01 M-60.09 30.01 C-40.71 20.33, -21.33 10.66, 0 0 M-60.09 30.01 C-42.13 21.05, -24.18 12.08, 0 0" stroke="#0aa8a7" stroke-width="4" fill="none"></path></g></g><g stroke-linecap="round"><g transform="translate(630.350720667433 609.2313255247291) rotate(0 0 60.0269873351308)"><path d="M0 0 C13.72 6.85, 27.43 13.7, 60.09 30.01 M0 0 C12.56 6.27, 25.12 12.55, 60.09 30.01 M60.09 30.01 C60.09 44.76, 60.09 59.51, 60.09 90.04 M60.09 30.01 C60.09 49.48, 60.09 68.96, 60.09 90.04 M60.09 90.04 C36.76 101.69, 13.43 113.35, 0 120.05 M60.09 90.04 C46.05 97.05, 32.02 104.06, 0 120.05 M0 120.05 C-21.97 109.08, -43.95 98.1, -60.09 90.04 M0 120.05 C-19.14 110.5, -38.27 100.94, -60.09 90.04 M-60.09 90.04 C-60.09 77.33, -60.09 64.63, -60.09 30.01 M-60.09 90.04 C-60.09 68.4, -60.09 46.76, -60.09 30.01 M-60.09 30.01 C-38.35 19.15, -16.61 8.3, 0 0 M-60.09 30.01 C-47.32 23.64, -34.56 17.26, 0 0" stroke="#0aa8a7" stroke-width="4" fill="none"></path></g></g><g transform="translate(585.9094278896664 655.3395279680126) rotate(0 44.95549738219961 11.856394913986605)"><text x="44.95549738219899" y="17.712789827973094" font-family="Helvetica, Segoe UI Emoji" font-size="20.70057794194597px" fill="#0aa8a7" text-anchor="middle" style="white-space: pre;" direction="ltr">Tutoriales</text></g><g transform="translate(724.0886593937175 654.8409235053487) rotate(0 45.82002617800936 13.091436050860011)"><text x="45.82002617801027" y="19.182872101720154" font-family="Helvetica, Segoe UI Emoji" font-size="22.856888144231892px" fill="#0aa8a7" text-anchor="middle" style="white-space: pre;" direction="ltr">Medallas</text></g><g stroke-linecap="round"><g transform="translate(768.6753279972836 609.2313255247291) rotate(0 0 60.0269873351308)"><path d="M0 0 C22.92 11.45, 45.84 22.9, 60.09 30.01 M60.09 30.01 C60.09 52.12, 60.09 74.23, 60.09 90.04 M60.09 90.04 C44.91 97.62, 29.73 105.2, 0 120.05 M0 120.05 C-21.85 109.14, -43.69 98.23, -60.09 90.04 M-60.09 90.04 C-60.09 74.53, -60.09 59.03, -60.09 30.01 M-60.09 30.01 C-46.09 23.02, -32.09 16.03, 0 0" stroke="#0aa8a7" stroke-width="4.5" fill="none" stroke-dasharray="8 12"></path></g></g><g transform="translate(1013.3200391402133 652.2029155568989) rotate(0 34.58115183246082 15.80852655198214)"><text x="34.581151832460755" y="24.61705310396412" font-family="Helvetica, Segoe UI Emoji" font-size="27.07448057364861px" fill="#0aa8a7" text-anchor="middle" style="white-space: pre;" direction="ltr">Foros</text></g><g stroke-linecap="round"><g transform="translate(1045.3245426569629 609.2313255247291) rotate(0 0 60.0269873351308)"><path d="M0 0 C21.63 10.81, 43.26 21.61, 60.09 30.01 M0 0 C22.69 11.34, 45.39 22.67, 60.09 30.01 M60.09 30.01 C60.09 49.77, 60.09 69.53, 60.09 90.04 M60.09 30.01 C60.09 52.14, 60.09 74.27, 60.09 90.04 M60.09 90.04 C46.88 96.64, 33.67 103.23, 0 120.05 M60.09 90.04 C43.22 98.46, 26.36 106.89, 0 120.05 M0 120.05 C-15.74 112.19, -31.49 104.32, -60.09 90.04 M0 120.05 C-23.13 108.5, -46.26 96.95, -60.09 90.04 M-60.09 90.04 C-60.09 75.72, -60.09 61.41, -60.09 30.01 M-60.09 90.04 C-60.09 68.91, -60.09 47.78, -60.09 30.01 M-60.09 30.01 C-44.68 22.32, -29.27 14.62, 0 0 M-60.09 30.01 C-40.31 20.14, -20.53 10.26, 0 0" stroke="#0aa8a7" stroke-width="4" fill="none"></path></g></g><g stroke-linecap="round"><g transform="translate(494.9902120660918 468.93065237589053) rotate(0 0 60.0269873351308)" fill-rule="evenodd"><path d="M0 0 L60.09 30.01 L60.09 90.04 L0 120.05 L-60.09 90.04 L-60.09 30.01 L0 0" stroke="none" stroke-width="0" fill="#fff" fill-rule="evenodd"></path><path d="M0 0 C20.68 10.33, 41.36 20.66, 60.09 30.01 M0 0 C21.84 10.91, 43.69 21.82, 60.09 30.01 M60.09 30.01 C60.09 43.54, 60.09 57.07, 60.09 90.04 M60.09 30.01 C60.09 51.99, 60.09 73.96, 60.09 90.04 M60.09 90.04 C38.14 101, 16.19 111.97, 0 120.05 M60.09 90.04 C41.79 99.18, 23.49 108.32, 0 120.05 M0 120.05 C-21.67 109.23, -43.34 98.4, -60.09 90.04 M0 120.05 C-14.09 113.01, -28.19 105.97, -60.09 90.04 M-60.09 90.04 C-60.09 69.9, -60.09 49.76, -60.09 30.01 M-60.09 90.04 C-60.09 68.54, -60.09 47.04, -60.09 30.01 M-60.09 30.01 C-40.92 20.44, -21.76 10.87, 0 0 M-60.09 30.01 C-36.32 18.14, -12.55 6.27, 0 0 M0 0 C0 0, 0 0, 0 0 M0 0 C0 0, 0 0, 0 0" stroke="#fff" stroke-width="4" fill="none"></path></g></g><g transform="translate(434.5537137073479 502.5791846875836) rotate(0 57.79992520568521 26.67688855646975)"><text x="57.79992520568441" y="19.676888556469727" font-family="Helvetica, Segoe UI Emoji" font-size="22.793954359526072px" fill="#0aa8a7" text-anchor="middle" style="white-space: pre;" direction="ltr">Repositorio</text><text x="57.79992520568441" y="46.353777112939454" font-family="Helvetica, Segoe UI Emoji" font-size="22.793954359526072px" fill="#0aa8a7" text-anchor="middle" style="white-space: pre;" direction="ltr">de código</text></g><g transform="translate(453.0190015620683 655.3395279680126) rotate(0 45.94353029169724 11.856394913986605)"><text x="45.94353029169786" y="17.712789827973094" font-family="Helvetica, Segoe UI Emoji" font-size="20.700577941945966px" fill="#0aa8a7" text-anchor="middle" style="white-space: pre;" direction="ltr">Proyectos</text></g><g stroke-linecap="round"><g transform="translate(494.9902120660918 609.2313255247291) rotate(0 0 60.0269873351308)"><path d="M0 0 C24.03 12, 48.06 24.01, 60.09 30.01 M0 0 C20.07 10.03, 40.14 20.05, 60.09 30.01 M60.09 30.01 C60.09 44.63, 60.09 59.24, 60.09 90.04 M60.09 30.01 C60.09 46.77, 60.09 63.53, 60.09 90.04 M60.09 90.04 C45.22 97.47, 30.35 104.89, 0 120.05 M60.09 90.04 C38.07 101.04, 16.05 112.03, 0 120.05 M0 120.05 C-19.82 110.16, -39.63 100.26, -60.09 90.04 M0 120.05 C-20.35 109.89, -40.7 99.72, -60.09 90.04 M-60.09 90.04 C-60.09 72.51, -60.09 54.98, -60.09 30.01 M-60.09 90.04 C-60.09 71.63, -60.09 53.21, -60.09 30.01 M-60.09 30.01 C-36.55 18.26, -13.02 6.5, 0 0 M-60.09 30.01 C-46.43 23.19, -32.78 16.37, 0 0" stroke="#0aa8a7" stroke-width="4" fill="none"></path></g></g><g stroke-linecap="round" transform="translate(40.67993399786246 823.6344668859865) rotate(0 604.8407876379215 25.935863874345614)"><path d="M0 0 C312.7 0, 625.39 0, 1209.68 0 M0 0 C342.08 0, 684.16 0, 1209.68 0 M1209.68 0 C1209.68 17.59, 1209.68 35.18, 1209.68 51.87 M1209.68 0 C1209.68 19.92, 1209.68 39.85, 1209.68 51.87 M1209.68 51.87 C749.54 51.87, 289.4 51.87, 0 51.87 M1209.68 51.87 C958.43 51.87, 707.19 51.87, 0 51.87 M0 51.87 C0 35.29, 0 18.7, 0 0 M0 51.87 C0 38.42, 0 24.97, 0 0" stroke="#0aa8a7" stroke-width="4" fill="none"></path></g><g transform="translate(53.86567321502116 832.7029927256381) rotate(0 115.10583395661979 16.302543006731412)"><text x="0" y="25.605086013463" font-family="Helvetica, Segoe UI Emoji" font-size="27.897399797615407px" fill="#0aa8a7" text-anchor="start" style="white-space: pre;" direction="ltr">Radar Tecnológico</text></g><g stroke-linecap="round"><g transform="translate(768.6753279972836 190.30537189720326) rotate(0 0 60.0269873351308)" fill-rule="evenodd"><path d="M0 0 L60.09 30.01 L60.09 90.04 L0 120.05 L-60.09 90.04 L-60.09 30.01 L0 0" stroke="none" stroke-width="0" fill="#fff" fill-rule="evenodd"></path><path d="M0 0 C22.52 11.25, 45.05 22.5, 60.09 30.01 M0 0 C15.13 7.56, 30.26 15.12, 60.09 30.01 M60.09 30.01 C60.09 43, 60.09 55.99, 60.09 90.04 M60.09 30.01 C60.09 50.36, 60.09 70.71, 60.09 90.04 M60.09 90.04 C43.16 98.5, 26.23 106.95, 0 120.05 M60.09 90.04 C37.8 101.17, 15.52 112.3, 0 120.05 M0 120.05 C-23.02 108.56, -46.04 97.06, -60.09 90.04 M0 120.05 C-17.95 111.09, -35.9 102.12, -60.09 90.04 M-60.09 90.04 C-60.09 68.26, -60.09 46.47, -60.09 30.01 M-60.09 90.04 C-60.09 74.01, -60.09 57.98, -60.09 30.01 M-60.09 30.01 C-37.75 18.86, -15.41 7.7, 0 0 M-60.09 30.01 C-42.94 21.45, -25.79 12.88, 0 0 M0 0 C0 0, 0 0, 0 0 M0 0 C0 0, 0 0, 0 0" stroke="#fff" stroke-width="4" fill="none"></path></g></g><g transform="translate(711.1332925364295 227.26013436013181) rotate(0 56.97935443742972 21.154011827070008)"><text x="56.9793544374299" y="17.154011827069784" font-family="Helvetica, Segoe UI Emoji" font-size="18.26827078101733px" fill="#0aa8a7" text-anchor="middle" style="white-space: pre;" direction="ltr">Repositorio</text><text x="56.9793544374299" y="38.30802365413957" font-family="Helvetica, Segoe UI Emoji" font-size="18.26827078101733px" fill="#0aa8a7" text-anchor="middle" style="white-space: pre;" direction="ltr">Componentes</text></g><g transform="translate(712.9732891618551 374.75604895581364) rotate(0 55.32984293193658 20.119942884340617)"><text x="55.32984293193721" y="16.119942884340798" font-family="Helvetica, Segoe UI Emoji" font-size="17.56412673862082px" fill="#0aa8a7" text-anchor="middle" style="white-space: pre;" direction="ltr">Repositorio</text><text x="55.32984293193721" y="36.239885768681596" font-family="Helvetica, Segoe UI Emoji" font-size="17.56412673862082px" fill="#0aa8a7" text-anchor="middle" style="white-space: pre;" direction="ltr">Contenedores</text></g><g stroke-linecap="round"><g transform="translate(768.6753279972836 335.54620959353906) rotate(0 0 60.0269873351308)"><path d="M0 0 C13.69 6.84, 27.37 13.67, 60.09 30.01 M0 0 C20.64 10.31, 41.27 20.62, 60.09 30.01 M60.09 30.01 C60.09 51.58, 60.09 73.15, 60.09 90.04 M60.09 30.01 C60.09 43.79, 60.09 57.58, 60.09 90.04 M60.09 90.04 C43.16 98.5, 26.23 106.95, 0 120.05 M60.09 90.04 C39.18 100.48, 18.27 110.93, 0 120.05 M0 120.05 C-14.77 112.68, -29.54 105.3, -60.09 90.04 M0 120.05 C-19.39 110.37, -38.78 100.68, -60.09 90.04 M-60.09 90.04 C-60.09 76.04, -60.09 62.04, -60.09 30.01 M-60.09 90.04 C-60.09 69.12, -60.09 48.2, -60.09 30.01 M-60.09 30.01 C-46.37 23.16, -32.66 16.31, 0 0 M-60.09 30.01 C-37.9 18.93, -15.71 7.85, 0 0" stroke="#0aa8a7" stroke-width="4" fill="none"></path></g></g><g transform="translate(996.3547657106537 363.54047536267626) rotate(0 47.42557965594642 15.80852655198214)"><text x="47.42557965594619" y="24.61705310396412" font-family="Helvetica, Segoe UI Emoji" font-size="27.074480573648614px" fill="#0aa8a7" text-anchor="middle" style="white-space: pre;" direction="ltr">Chatbot</text></g><g stroke-linecap="round"><g transform="translate(1045.3245426569629 335.54620959353906) rotate(0 0 60.0269873351308)"><path d="M0 0 C21.84 10.91, 43.69 21.82, 60.09 30.01 M0 0 C13.54 6.76, 27.09 13.53, 60.09 30.01 M60.09 30.01 C60.09 51.99, 60.09 73.96, 60.09 90.04 M60.09 30.01 C60.09 51.94, 60.09 73.87, 60.09 90.04 M60.09 90.04 C41.79 99.18, 23.49 108.32, 0 120.05 M60.09 90.04 C38.41 100.87, 16.74 111.69, 0 120.05 M0 120.05 C-14.09 113.01, -28.19 105.97, -60.09 90.04 M0 120.05 C-20.16 109.98, -40.32 99.91, -60.09 90.04 M-60.09 90.04 C-60.09 68.54, -60.09 47.04, -60.09 30.01 M-60.09 90.04 C-60.09 70.89, -60.09 51.75, -60.09 30.01 M-60.09 30.01 C-36.32 18.14, -12.55 6.27, 0 0 M-60.09 30.01 C-40.66 20.31, -21.23 10.6, 0 0" stroke="#0aa8a7" stroke-width="4" fill="none"></path></g></g><g stroke-linecap="round"><g transform="translate(494.9902120660918 190.30537189720326) rotate(0 0 60.0269873351308)" fill-rule="evenodd"><path d="M0 0 L60.09 30.01 L60.09 90.04 L0 120.05 L-60.09 90.04 L-60.09 30.01 L0 0" stroke="none" stroke-width="0" fill="#fff" fill-rule="evenodd"></path><path d="M0 0 C21.15 10.56, 42.29 21.13, 60.09 30.01 M0 0 C21.86 10.92, 43.72 21.84, 60.09 30.01 M60.09 30.01 C60.09 45.48, 60.09 60.96, 60.09 90.04 M60.09 30.01 C60.09 45.71, 60.09 61.41, 60.09 90.04 M60.09 90.04 C45.82 97.16, 31.56 104.29, 0 120.05 M60.09 90.04 C43.49 98.33, 26.89 106.62, 0 120.05 M0 120.05 C-20.82 109.65, -41.64 99.25, -60.09 90.04 M0 120.05 C-22.64 108.74, -45.29 97.43, -60.09 90.04 M-60.09 90.04 C-60.09 73.59, -60.09 57.13, -60.09 30.01 M-60.09 90.04 C-60.09 73.7, -60.09 57.37, -60.09 30.01 M-60.09 30.01 C-40.82 20.39, -21.56 10.77, 0 0 M-60.09 30.01 C-37.08 18.52, -14.07 7.03, 0 0 M0 0 C0 0, 0 0, 0 0 M0 0 C0 0, 0 0, 0 0" stroke="#fff" stroke-width="4" fill="none"></path></g></g><g transform="translate(435.31738692621 227.85969182135432) rotate(0 54.90361510110051 26.5939385645961)"><text x="54.90361510110131" y="19.593938564595952" font-family="Helvetica, Segoe UI Emoji" font-size="22.96610566370633px" fill="#0aa8a7" text-anchor="middle" style="white-space: pre;" direction="ltr">Calidad de</text><text x="54.90361510110131" y="46.187877129191904" font-family="Helvetica, Segoe UI Emoji" font-size="22.96610566370633px" fill="#0aa8a7" text-anchor="middle" style="white-space: pre;" direction="ltr">Código</text></g><g transform="translate(438.1985079195874 373.1855585268322) rotate(0 55.33866465434403 21.59557645047562)"><text x="55.33866465434349" y="16.595576450475505" font-family="Helvetica, Segoe UI Emoji" font-size="18.852312054272236px" fill="#0aa8a7" text-anchor="middle" style="white-space: pre;" direction="ltr">Repositorio</text><text x="55.33866465434349" y="38.19115290095101" font-family="Helvetica, Segoe UI Emoji" font-size="18.852312054272236px" fill="#0aa8a7" text-anchor="middle" style="white-space: pre;" direction="ltr">Open Source</text></g><g stroke-linecap="round"><g transform="translate(494.9902120660918 335.54620959353906) rotate(0 0 60.0269873351308)"><path d="M0 0 C16.99 8.49, 33.98 16.97, 60.09 30.01 M0 0 C20.37 10.18, 40.75 20.35, 60.09 30.01 M60.09 30.01 C60.09 53.07, 60.09 76.13, 60.09 90.04 M60.09 30.01 C60.09 52.85, 60.09 75.68, 60.09 90.04 M60.09 90.04 C47.61 96.27, 35.13 102.51, 0 120.05 M60.09 90.04 C40.88 99.64, 21.67 109.23, 0 120.05 M0 120.05 C-15.58 112.27, -31.16 104.49, -60.09 90.04 M0 120.05 C-23.44 108.34, -46.89 96.63, -60.09 90.04 M-60.09 90.04 C-60.09 70.68, -60.09 51.32, -60.09 30.01 M-60.09 90.04 C-60.09 72.1, -60.09 54.17, -60.09 30.01 M-60.09 30.01 C-46.26 23.11, -32.43 16.2, 0 0 M-60.09 30.01 C-41.78 20.87, -23.47 11.72, 0 0" stroke="#0aa8a7" stroke-width="4" fill="none"></path></g></g><g stroke-linecap="round" transform="translate(350.9323248919045 46.05256711036873) rotate(0 30.640515500256697 382.9565721361505)"><path d="M0 0 C15.05 0, 30.11 0, 61.28 0 M0 0 C19.88 0, 39.76 0, 61.28 0 M61.28 0 C61.28 297.36, 61.28 594.72, 61.28 765.91 M61.28 0 C61.28 178.89, 61.28 357.78, 61.28 765.91 M61.28 765.91 C38.87 765.91, 16.46 765.91, 0 765.91 M61.28 765.91 C41.76 765.91, 22.25 765.91, 0 765.91 M0 765.91 C0 603.77, 0 441.63, 0 0 M0 765.91 C0 489.81, 0 213.7, 0 0" stroke="#0aa8a7" stroke-width="4" fill="none"></path></g><g transform="translate(314.82314236553975 706.305592441805) rotate(270.2613886201089 71.08317395222093 18.18406775521953)"><text x="0" y="28.368135510438634" font-family="Helvetica, Segoe UI Emoji" font-size="31.117121292353886px" fill="#0aa8a7" text-anchor="start" style="white-space: pre;" direction="ltr">Seguridad</text></g><g transform="translate(717.2001818876015 93.5594588723061) rotate(0 55.32984293193658 19.760658189977676)"><text x="55.329842931937215" y="15.760658189977576" font-family="Helvetica, Segoe UI Emoji" font-size="16.84634346804795px" fill="#0aa8a7" text-anchor="middle" style="white-space: pre;" direction="ltr">Administración</text><text x="55.329842931937215" y="35.52131637995515" font-family="Helvetica, Segoe UI Emoji" font-size="16.84634346804795px" fill="#0aa8a7" text-anchor="middle" style="white-space: pre;" direction="ltr">de APIs</text></g><g stroke-linecap="round"><g transform="translate(771.6394267257783 51.9807645673618) rotate(0 0 60.0269873351308)"><path d="M0 0 C15.18 7.58, 30.36 15.16, 60.09 30.01 M0 0 C21.85 10.91, 43.69 21.82, 60.09 30.01 M60.09 30.01 C60.09 45.52, 60.09 61.03, 60.09 90.04 M60.09 30.01 C60.09 44, 60.09 57.98, 60.09 90.04 M60.09 90.04 C47.77 96.19, 35.45 102.35, 0 120.05 M60.09 90.04 C44.06 98.05, 28.03 106.05, 0 120.05 M0 120.05 C-14.19 112.97, -28.38 105.88, -60.09 90.04 M0 120.05 C-13.2 113.46, -26.39 106.87, -60.09 90.04 M-60.09 90.04 C-60.09 71.78, -60.09 53.52, -60.09 30.01 M-60.09 90.04 C-60.09 72.69, -60.09 55.33, -60.09 30.01 M-60.09 30.01 C-39.52 19.74, -18.96 9.47, 0 0 M-60.09 30.01 C-36.44 18.2, -12.8 6.39, 0 0" stroke="#0aa8a7" stroke-width="4" fill="none"></path></g></g><g transform="translate(1146.994497519605 642.5421493306903) rotate(0 41.28952110122373 28.1120143667913)"><text x="41.28952110122444" y="21.112014366791104" font-family="Helvetica, Segoe UI Emoji" font-size="24.07302743734798px" fill="#0aa8a7" text-anchor="middle" style="white-space: pre;" direction="ltr">Gestión</text><text x="41.28952110122444" y="49.22402873358221" font-family="Helvetica, Segoe UI Emoji" font-size="24.07302743734798px" fill="#0aa8a7" text-anchor="middle" style="white-space: pre;" direction="ltr">Talento</text></g><g stroke-linecap="round"><g transform="translate(1186.6132487153009 612.1954242532256) rotate(0 0 60.0269873351308)"><path d="M0 0 C19.78 9.88, 39.55 19.76, 60.09 30.01 M60.09 30.01 C60.09 52.14, 60.09 74.27, 60.09 90.04 M60.09 90.04 C46.88 96.64, 33.67 103.23, 0 120.05 M0 120.05 C-16.86 111.63, -33.72 103.21, -60.09 90.04 M-60.09 90.04 C-60.09 74.31, -60.09 58.58, -60.09 30.01 M-60.09 30.01 C-36.95 18.46, -13.82 6.91, 0 0" stroke="#0aa8a7" stroke-width="4.5" fill="none" stroke-dasharray="8 12"></path></g></g><g stroke-linecap="round" transform="translate(275.81142540172914 45.064534200869275) rotate(0 30.640515500256697 383.1949892077155)"><path d="M0 0 C18.21 0, 36.42 0, 61.28 0 M61.28 0 C61.28 238.36, 61.28 476.73, 61.28 766.39 M61.28 766.39 C45.1 766.39, 28.92 766.39, 0 766.39 M0 766.39 C0 551.56, 0 336.73, 0 0" stroke="#0aa8a7" stroke-width="4.5" fill="none" stroke-dasharray="8 12"></path></g><g transform="translate(146.5332376573224 617.7565969593097) rotate(270.2613886201089 159.91109535522173 17.60818802787844)"><text x="0" y="27.216376055756754" font-family="Helvetica, Segoe UI Emoji" font-size="31.117121292353858px" fill="#0aa8a7" text-anchor="start" style="white-space: pre;" direction="ltr">Ludificación (Criptopía)</text></g><g stroke-linecap="round" transform="translate(201.72929824618222 45.064534200869275) rotate(0 30.640515500256697 382.936615288947)"><path d="M0 0 C20.78 0, 41.56 0, 61.28 0 M61.28 0 C61.28 294.18, 61.28 588.37, 61.28 765.87 M61.28 765.87 C37.97 765.87, 14.66 765.87, 0 765.87 M0 765.87 C0 606.8, 0 447.73, 0 0" stroke="#0aa8a7" stroke-width="4.5" fill="none" stroke-dasharray="8 12"></path></g><g transform="translate(136.0965019318046 683.4410622748446) rotate(270.2613886201089 94.35714285714312 18.278608825729407)"><text x="0" y="28.557217651458515" font-family="Helvetica, Segoe UI Emoji" font-size="31.117121292353833px" fill="#0aa8a7" text-anchor="start" style="white-space: pre;" direction="ltr">Practicopedia</text></g><g transform="translate(1013.2458198897803 395.4585392585732) rotate(0 29.88799551234115 10.868362004487608)"><text x="29.887995512341238" y="17.736724008975443" font-family="Helvetica, Segoe UI Emoji" font-size="18.61370539438352px" fill="#0aa8a7" text-anchor="middle" style="white-space: pre;" direction="ltr">Cripbot</text></g><g stroke-linecap="round" transform="translate(434.2773133266819 756.1904707679469) rotate(0 408.0575916230373 26.519004555653737)"><path d="M0 0 C276.63 0, 553.25 0, 816.12 0 M0 0 C229.94 0, 459.88 0, 816.12 0 M816.12 0 C816.12 19.67, 816.12 39.34, 816.12 53.04 M816.12 0 C816.12 20.32, 816.12 40.64, 816.12 53.04 M816.12 53.04 C572.33 53.04, 328.54 53.04, 0 53.04 M816.12 53.04 C519.95 53.04, 223.79 53.04, 0 53.04 M0 53.04 C0 38.88, 0 24.71, 0 0 M0 53.04 C0 33.32, 0 13.6, 0 0" stroke="#0aa8a7" stroke-width="4" fill="none"></path></g><g transform="translate(461.2835461863215 767.6483520165939) rotate(0 85.4648466716535 16.302543006731412)"><text x="0" y="25.605086013463" font-family="Helvetica, Segoe UI Emoji" font-size="27.897399797615407px" fill="#0aa8a7" text-anchor="start" style="white-space: pre;" direction="ltr">Portal SALSA</text></g><g stroke-linecap="round" transform="translate(121.25150321992442 45.06453420086564) rotate(0 30.640515500256697 382.15793370678875)"><path d="M0 0 C15.83 0, 31.66 0, 61.28 0 M61.28 0 C61.28 178.07, 61.28 356.13, 61.28 764.32 M61.28 764.32 C48.72 764.32, 36.16 764.32, 0 764.32 M0 764.32 C0 560.45, 0 356.59, 0 0" stroke="#0aa8a7" stroke-width="4.5" fill="none" stroke-dasharray="8 12"></path></g><g transform="translate(-105.18770058140035 520.3419994801961) rotate(270.2613886201089 255.90052356020988 18.278608825729407)"><text x="0" y="28.557217651458515" font-family="Helvetica, Segoe UI Emoji" font-size="31.11712129235383px" fill="#0aa8a7" text-anchor="start" style="white-space: pre;" direction="ltr">Administración de la Mejora contínua</text></g><g stroke-linecap="round" transform="translate(42.71978983073677 46.40137043098457) rotate(0 30.640515500256697 382.15793370678875)"><path d="M0 0 C13.47 0, 26.94 0, 61.28 0 M61.28 0 C61.28 214.48, 61.28 428.97, 61.28 764.32 M61.28 764.32 C45.22 764.32, 29.16 764.32, 0 764.32 M0 764.32 C0 470.08, 0 175.85, 0 0" stroke="#0aa8a7" stroke-width="4.5" fill="none" stroke-dasharray="8 12"></path></g><g transform="translate(-147.8229844463949 558.7274356495482) rotate(270.2613886201089 219.34330590875106 17.78459237097968)"><text x="0" y="27.56918474195964" font-family="Helvetica, Segoe UI Emoji" font-size="31.117121292353833px" fill="#0aa8a7" text-anchor="start" style="white-space: pre;" direction="ltr">Administracion de la Innovación</text></g></svg>