<svg version="1.1" xmlns="http://www.w3.org/2000/svg" viewBox="0 0 1582.4271678210007 2147.218104441343" width="4747.281503463002" height="6441.654313324028">
  <!-- svg-source:excalidraw -->
  
  <defs>
    <style>
      @font-face {
        font-family: "Virgil";
        src: url("https://excalidraw.com/Virgil.woff2");
      }
      @font-face {
        font-family: "Cascadia";
        src: url("https://excalidraw.com/Cascadia.woff2");
      }
    </style>
  </defs>
  <g stroke-linecap="round" transform="translate(10 10) rotate(0 781.2087726668697 577.3017629311203)"><path d="M0 0 L1562.42 0 L1562.42 1154.6 L0 1154.6" stroke="none" stroke-width="0" fill="#0aa8a7"></path><path d="M0 0 C475.53 0, 951.06 0, 1562.42 0 M0 0 C327.18 0, 654.36 0, 1562.42 0 M1562.42 0 C1562.42 393.14, 1562.42 786.29, 1562.42 1154.6 M1562.42 0 C1562.42 323.96, 1562.42 647.92, 1562.42 1154.6 M1562.42 1154.6 C1220.26 1154.6, 878.09 1154.6, 0 1154.6 M1562.42 1154.6 C1244.22 1154.6, 926.02 1154.6, 0 1154.6 M0 1154.6 C0 856.14, 0 557.69, 0 0 M0 1154.6 C0 828.1, 0 501.6, 0 0" stroke="#0aa8a7" stroke-width="1" fill="none"></path></g><g transform="translate(644.834196312162 51.3825312690351) rotate(0 244.06253392210056 26.186967159023425)"><text x="244.06253392209982" y="41.37393431804716" font-family="Helvetica, Segoe UI Emoji" font-size="46.49109787086448px" fill="#ffff" text-anchor="middle" style="white-space: pre;" direction="ltr">Modelo de Aplicaciones</text></g><g stroke-linecap="round"><g transform="translate(508.0002421996742 451.00140549313255) rotate(0 0 57.029938717606456)"><path d="M0 0 C16.16 8.07, 32.32 16.14, 57.09 28.51 M0 0 C19.2 9.59, 38.39 19.18, 57.09 28.51 M57.09 28.51 C57.09 45.43, 57.09 62.34, 57.09 85.54 M57.09 28.51 C57.09 48.02, 57.09 67.52, 57.09 85.54 M57.09 85.54 C34.42 96.87, 11.76 108.19, 0 114.06 M57.09 85.54 C35.42 96.37, 13.75 107.19, 0 114.06 M0 114.06 C-21.4 103.37, -42.8 92.68, -57.09 85.54 M0 114.06 C-14.37 106.88, -28.75 99.7, -57.09 85.54 M-57.09 85.54 C-57.09 73.2, -57.09 60.86, -57.09 28.51 M-57.09 85.54 C-57.09 66.21, -57.09 46.88, -57.09 28.51 M-57.09 28.51 C-41 20.48, -24.92 12.45, 0 0 M-57.09 28.51 C-35.92 17.94, -14.75 7.37, 0 0" stroke="#fff" stroke-width="4" fill="none"></path></g></g><g transform="translate(481.16211363404545 493.76449904358924) rotate(0 26.387957727474713 14.393431487713315)"><text x="26.387957727474596" y="21.786862975426835" font-family="Helvetica, Segoe UI Emoji" font-size="25.130096671458514px" fill="#fff" text-anchor="middle" style="white-space: pre;" direction="ltr">CVU</text></g><g transform="translate(601.5334438918999 492.35872996643775) rotate(0 42.70267596093254 14.234225320310543)"><text x="42.702675960932005" y="21.468450640621345" font-family="Helvetica, Segoe UI Emoji" font-size="25.384677620222323px" fill="#fff" text-anchor="middle" style="white-space: pre;" direction="ltr">Fondos</text></g><g stroke-linecap="round"><g transform="translate(639.4185296961787 451.00140549313255) rotate(0 0 57.029938717606456)"><path d="M0 0 C18.4 9.19, 36.8 18.38, 57.09 28.51 M0 0 C14.83 7.41, 29.66 14.82, 57.09 28.51 M57.09 28.51 C57.09 43.15, 57.09 57.79, 57.09 85.54 M57.09 28.51 C57.09 43.18, 57.09 57.85, 57.09 85.54 M57.09 85.54 C34.52 96.81, 11.96 108.08, 0 114.06 M57.09 85.54 C36.64 95.76, 16.18 105.98, 0 114.06 M0 114.06 C-13 107.56, -26.01 101.07, -57.09 85.54 M0 114.06 C-19.61 104.27, -39.21 94.47, -57.09 85.54 M-57.09 85.54 C-57.09 65.05, -57.09 44.56, -57.09 28.51 M-57.09 85.54 C-57.09 72.45, -57.09 59.36, -57.09 28.51 M-57.09 28.51 C-41 20.48, -24.92 12.45, 0 0 M-57.09 28.51 C-37.22 18.59, -17.36 8.67, 0 0" stroke="#fff" stroke-width="4" fill="none"></path></g></g><g stroke-linecap="round"><g transform="translate(773.4396020738841 300.80907692568326) rotate(0 0 57.029938717606456)"><path d="M0 0 C20.56 10.27, 41.12 20.54, 57.09 28.51 M0 0 C17.02 8.5, 34.05 17.01, 57.09 28.51 M57.09 28.51 C57.09 45.57, 57.09 62.63, 57.09 85.54 M57.09 28.51 C57.09 49.23, 57.09 69.94, 57.09 85.54 M57.09 85.54 C42.4 92.88, 27.72 100.21, 0 114.06 M57.09 85.54 C36.53 95.81, 15.98 106.08, 0 114.06 M0 114.06 C-21.56 103.29, -43.12 92.52, -57.09 85.54 M0 114.06 C-18.79 104.67, -37.58 95.29, -57.09 85.54 M-57.09 85.54 C-57.09 64.52, -57.09 43.49, -57.09 28.51 M-57.09 85.54 C-57.09 73.01, -57.09 60.47, -57.09 28.51 M-57.09 28.51 C-41.07 20.51, -25.05 12.51, 0 0 M-57.09 28.51 C-42.13 21.04, -27.17 13.57, 0 0" stroke="#fff" stroke-width="4" fill="none"></path></g></g><g transform="translate(741.5472765533832 345.4079655655114) rotate(0 36.04442051905062 14.914932628572842)"><text x="36.044420519051414" y="22.829865257145997" font-family="Helvetica, Segoe UI Emoji" font-size="26.123645071638794px" fill="#fff" text-anchor="middle" style="white-space: pre;" direction="ltr">PNPC</text></g><g transform="translate(854.0919435738888 494.55729185124073) rotate(0 49.75120883796626 11.264424642558424)"><text x="49.75120883796649" y="18.528849285116898" font-family="Helvetica, Segoe UI Emoji" font-size="19.729745928230383px" fill="#fff" text-anchor="middle" style="white-space: pre;" direction="ltr">RENIECYT</text></g><g stroke-linecap="round"><g transform="translate(902.2551046892022 451.00140549313255) rotate(0 0 57.029938717606456)"><path d="M0 0 C17.72 8.85, 35.45 17.71, 57.09 28.51 M0 0 C18.58 9.28, 37.16 18.56, 57.09 28.51 M57.09 28.51 C57.09 48.48, 57.09 68.44, 57.09 85.54 M57.09 28.51 C57.09 40.35, 57.09 52.18, 57.09 85.54 M57.09 85.54 C36.88 95.64, 16.68 105.73, 0 114.06 M57.09 85.54 C39.63 94.26, 22.18 102.98, 0 114.06 M0 114.06 C-15.67 106.23, -31.35 98.4, -57.09 85.54 M0 114.06 C-16.96 105.59, -33.93 97.11, -57.09 85.54 M-57.09 85.54 C-57.09 67.81, -57.09 50.07, -57.09 28.51 M-57.09 85.54 C-57.09 70.49, -57.09 55.43, -57.09 28.51 M-57.09 28.51 C-41.08 20.52, -25.08 12.53, 0 0 M-57.09 28.51 C-35.85 17.91, -14.62 7.3, 0 0" stroke="#fff" stroke-width="4" fill="none"></path></g></g><g stroke-linecap="round"><g transform="translate(1033.6733921857212 451.00140549313255) rotate(0 0 57.029938717606456)"><path d="M0 0 C22.52 11.25, 45.03 22.49, 57.09 28.51 M0 0 C12.11 6.05, 24.22 12.1, 57.09 28.51 M57.09 28.51 C57.09 49.45, 57.09 70.38, 57.09 85.54 M57.09 28.51 C57.09 40.57, 57.09 52.63, 57.09 85.54 M57.09 85.54 C35.54 96.31, 14 107.07, 0 114.06 M57.09 85.54 C34.25 96.95, 11.42 108.35, 0 114.06 M0 114.06 C-19.07 104.53, -38.14 95.01, -57.09 85.54 M0 114.06 C-13.9 107.12, -27.79 100.18, -57.09 85.54 M-57.09 85.54 C-57.09 69.62, -57.09 53.7, -57.09 28.51 M-57.09 85.54 C-57.09 71.43, -57.09 57.32, -57.09 28.51 M-57.09 28.51 C-36.17 18.07, -15.25 7.62, 0 0 M-57.09 28.51 C-38.26 19.11, -19.43 9.71, 0 0" stroke="#fff" stroke-width="4" fill="none"></path></g></g><g transform="translate(1008.0390803555329 494.55729185124073) rotate(0 27.22235955285032 11.264424642558424)"><text x="27.222359552849582" y="18.528849285116898" font-family="Helvetica, Segoe UI Emoji" font-size="19.729745928230383px" fill="#fff" text-anchor="middle" style="white-space: pre;" direction="ltr">RCEA</text></g><g transform="translate(1135.95858938516 494.55729185124073) rotate(0 33.32392290090138 11.264424642558424)"><text x="33.32392290090209" y="18.528849285116898" font-family="Helvetica, Segoe UI Emoji" font-size="19.72974592823039px" fill="#fff" text-anchor="middle" style="white-space: pre;" direction="ltr">BECAS</text></g><g stroke-linecap="round"><g transform="translate(1167.6944645634194 451.00140549313255) rotate(0 0 57.029938717606456)"><path d="M0 0 C19.2 9.59, 38.39 19.18, 57.09 28.51 M0 0 C16.93 8.46, 33.85 16.91, 57.09 28.51 M57.09 28.51 C57.09 48.02, 57.09 67.52, 57.09 85.54 M57.09 28.51 C57.09 51.16, 57.09 73.8, 57.09 85.54 M57.09 85.54 C35.42 96.37, 13.75 107.19, 0 114.06 M57.09 85.54 C35.69 96.23, 14.29 106.92, 0 114.06 M0 114.06 C-14.37 106.88, -28.75 99.7, -57.09 85.54 M0 114.06 C-12.35 107.89, -24.71 101.72, -57.09 85.54 M-57.09 85.54 C-57.09 66.21, -57.09 46.88, -57.09 28.51 M-57.09 85.54 C-57.09 69.48, -57.09 53.41, -57.09 28.51 M-57.09 28.51 C-35.92 17.94, -14.75 7.37, 0 0 M-57.09 28.51 C-35.21 17.59, -13.34 6.67, 0 0" stroke="#fff" stroke-width="4" fill="none"></path></g></g><g transform="translate(1284.2735138455373 494.55729185124073) rotate(0 16.42728593706488 11.264424642558424)"><text x="16.4272859370644" y="18.528849285116898" font-family="Helvetica, Segoe UI Emoji" font-size="19.72974592823038px" fill="#fff" text-anchor="middle" style="white-space: pre;" direction="ltr">SNI</text></g><g stroke-linecap="round"><g transform="translate(1299.1127520599457 451.00140549313255) rotate(0 0 57.029938717606456)"><path d="M0 0 C21.14 10.56, 42.28 21.12, 57.09 28.51 M0 0 C22.44 11.21, 44.88 22.42, 57.09 28.51 M57.09 28.51 C57.09 40.11, 57.09 51.71, 57.09 85.54 M57.09 28.51 C57.09 48.09, 57.09 67.67, 57.09 85.54 M57.09 85.54 C35.31 96.42, 13.54 107.3, 0 114.06 M57.09 85.54 C36.06 96.05, 15.04 106.55, 0 114.06 M0 114.06 C-14.42 106.86, -28.84 99.65, -57.09 85.54 M0 114.06 C-20.75 103.69, -41.51 93.33, -57.09 85.54 M-57.09 85.54 C-57.09 70.81, -57.09 56.08, -57.09 28.51 M-57.09 85.54 C-57.09 72.26, -57.09 58.97, -57.09 28.51 M-57.09 28.51 C-45.38 22.67, -33.68 16.82, 0 0 M-57.09 28.51 C-41.86 20.91, -26.63 13.3, 0 0" stroke="#fff" stroke-width="4" fill="none"></path></g></g><g stroke-linecap="round"><g transform="translate(1430.5310395564575 300.80907692568326) rotate(0 0 57.029938717606456)"><path d="M0 0 C14.83 7.41, 29.66 14.82, 57.09 28.51 M0 0 C14.65 7.32, 29.3 14.64, 57.09 28.51 M57.09 28.51 C57.09 43.18, 57.09 57.85, 57.09 85.54 M57.09 28.51 C57.09 51.05, 57.09 73.59, 57.09 85.54 M57.09 85.54 C36.64 95.76, 16.18 105.98, 0 114.06 M57.09 85.54 C44.08 92.04, 31.08 98.54, 0 114.06 M0 114.06 C-19.61 104.27, -39.21 94.47, -57.09 85.54 M0 114.06 C-20.51 103.81, -41.02 93.57, -57.09 85.54 M-57.09 85.54 C-57.09 72.45, -57.09 59.36, -57.09 28.51 M-57.09 85.54 C-57.09 69.48, -57.09 53.41, -57.09 28.51 M-57.09 28.51 C-37.22 18.59, -17.36 8.67, 0 0 M-57.09 28.51 C-43.05 21.5, -29.02 14.49, 0 0" stroke="#fff" stroke-width="4" fill="none"></path></g></g><g transform="translate(1402.772989915973 376.2102225229519) rotate(0 27.765818636482436 6.64815375803073)"><text x="27.76581863648157" y="10.296307516061596" font-family="Helvetica, Segoe UI Emoji" font-size="11.83488486039057px" fill="#fff" text-anchor="middle" style="white-space: pre;" direction="ltr">(Cátedras)</text></g><g transform="translate(1376.0735906468817 333.1805318980405) rotate(0 51.95442323035968 7.640356357405835)"><text x="51.95442323036011" y="12.280712714811793" font-family="Helvetica, Segoe UI Emoji" font-size="13.485059511149183px" fill="#fff" text-anchor="middle" style="white-space: pre;" direction="ltr">Investigadora(e)s</text></g><g transform="translate(1395.1236349399023 350.00069136615457) rotate(0 33.36728020562077 7.851124754263765)"><text x="33.36728020562092" y="12.702249508527489" font-family="Helvetica, Segoe UI Emoji" font-size="13.699547589045412px" fill="#fff" text-anchor="middle" style="white-space: pre;" direction="ltr">por México</text></g><g stroke-linecap="round"><g transform="translate(376.5819547031497 451.00140549313255) rotate(0 0 57.029938717606456)"><path d="M0 0 C18.58 9.28, 37.16 18.56, 57.09 28.51 M0 0 C19.98 9.98, 39.96 19.96, 57.09 28.51 M57.09 28.51 C57.09 40.35, 57.09 52.18, 57.09 85.54 M57.09 28.51 C57.09 48.7, 57.09 68.88, 57.09 85.54 M57.09 85.54 C39.63 94.26, 22.18 102.98, 0 114.06 M57.09 85.54 C41.41 93.37, 25.74 101.2, 0 114.06 M0 114.06 C-16.96 105.59, -33.93 97.11, -57.09 85.54 M0 114.06 C-17.75 105.19, -35.51 96.32, -57.09 85.54 M-57.09 85.54 C-57.09 70.49, -57.09 55.43, -57.09 28.51 M-57.09 85.54 C-57.09 69.56, -57.09 53.57, -57.09 28.51 M-57.09 28.51 C-35.85 17.91, -14.62 7.3, 0 0 M-57.09 28.51 C-40.55 20.25, -24.01 11.99, 0 0" stroke="#fff" stroke-width="4" fill="none"></path></g></g><g transform="translate(338.2708010386086 488.54948763499306) rotate(0 38.95613522218173 22.52884928511685)"><text x="38.956135222181295" y="17.528849285116898" font-family="Helvetica, Segoe UI Emoji" font-size="19.667032177663398px" fill="#ffffff" text-anchor="middle" style="white-space: pre;" direction="ltr">Registro</text><text x="38.956135222181295" y="40.057698570233796" font-family="Helvetica, Segoe UI Emoji" font-size="19.667032177663398px" fill="#ffffff" text-anchor="middle" style="white-space: pre;" direction="ltr">Usuarios</text></g><g transform="translate(928.44117916082 751.4599288629233) rotate(0 40.83353932927457 22.52884928511685)"><text x="40.83353932927439" y="17.528849285116898" font-family="Helvetica, Segoe UI Emoji" font-size="19.667032177663398px" fill="#fff" text-anchor="middle" style="white-space: pre;" direction="ltr">Foro de</text><text x="40.83353932927439" y="40.057698570233796" font-family="Helvetica, Segoe UI Emoji" font-size="19.667032177663398px" fill="#fff" text-anchor="middle" style="white-space: pre;" direction="ltr">discusión</text></g><g stroke-linecap="round"><g transform="translate(969.6283312651121 714.7766825397102) rotate(0 0 57.029938717606456)"><path d="M0 0 C17.04 8.51, 34.09 17.03, 57.09 28.51 M57.09 28.51 C57.09 49.75, 57.09 70.98, 57.09 85.54 M57.09 85.54 C38.06 95.05, 19.04 104.55, 0 114.06 M0 114.06 C-13.03 107.55, -26.06 101.04, -57.09 85.54 M-57.09 85.54 C-57.09 73.63, -57.09 61.71, -57.09 28.51 M-57.09 28.51 C-43.06 21.51, -29.04 14.51, 0 0" stroke="#fff" stroke-width="4.5" fill="none" stroke-dasharray="8 12"></path></g></g><g transform="translate(264.7648585228526 758.7348697779034) rotate(0 51.711136202513444 9.885952509303934)"><text x="51.71113620251364" y="14.771905018608159" font-family="Helvetica, Segoe UI Emoji" font-size="16.790631752519673px" fill="#fff" text-anchor="middle" style="white-space: pre;" direction="ltr">Publicaciones</text></g><g stroke-linecap="round"><g transform="translate(317.23040405025677 713.8379804861561) rotate(0 0 57.029938717606456)"><path d="M0 0 C17.75 8.86, 35.49 17.73, 57.09 28.51 M57.09 28.51 C57.09 48.02, 57.09 67.53, 57.09 85.54 M57.09 85.54 C42.72 92.72, 28.36 99.89, 0 114.06 M0 114.06 C-11.69 108.22, -23.37 102.39, -57.09 85.54 M-57.09 85.54 C-57.09 67.21, -57.09 48.88, -57.09 28.51 M-57.09 28.51 C-35.88 17.92, -14.68 7.33, 0 0" stroke="#fff" stroke-width="4.5" fill="none" stroke-dasharray="8 12"></path></g></g><g transform="translate(1062.0161998872263 746.9607529470177) rotate(0 41.30289035604801 22.52884928511685)"><text x="41.30289035604765" y="17.528849285116898" font-family="Helvetica, Segoe UI Emoji" font-size="19.729745928230383px" fill="#fff" text-anchor="middle" style="white-space: pre;" direction="ltr">Atlas</text><text x="41.30289035604765" y="40.057698570233796" font-family="Helvetica, Segoe UI Emoji" font-size="19.729745928230383px" fill="#fff" text-anchor="middle" style="white-space: pre;" direction="ltr">Científico</text></g><g stroke-linecap="round"><g transform="translate(1101.0466187616094 714.7766825397102) rotate(0 0 57.029938717606456)"><path d="M0 0 C14.65 7.32, 29.3 14.64, 57.09 28.51 M57.09 28.51 C57.09 43.18, 57.09 57.85, 57.09 85.54 M57.09 85.54 C34.52 96.81, 11.96 108.08, 0 114.06 M0 114.06 C-20.45 103.84, -40.9 93.63, -57.09 85.54 M-57.09 85.54 C-57.09 72.55, -57.09 59.56, -57.09 28.51 M-57.09 28.51 C-37.48 18.72, -17.87 8.93, 0 0" stroke="#fff" stroke-width="4.5" fill="none" stroke-dasharray="8 12"></path></g></g><g transform="translate(668.9543177457581 750.8229524694452) rotate(0 38.48678419540738 22.52884928511685)"><text x="38.48678419540805" y="17.528849285116898" font-family="Helvetica, Segoe UI Emoji" font-size="19.72974592823039px" fill="#fff" text-anchor="middle" style="white-space: pre;" direction="ltr">Bolsa de</text><text x="38.48678419540805" y="40.057698570233796" font-family="Helvetica, Segoe UI Emoji" font-size="19.72974592823039px" fill="#fff" text-anchor="middle" style="white-space: pre;" direction="ltr">Trabajo</text></g><g stroke-linecap="round"><g transform="translate(707.73045832561 714.7766825397102) rotate(0 0 57.029938717606456)"><path d="M0 0 C19.67 9.83, 39.34 19.65, 57.09 28.51 M57.09 28.51 C57.09 49.82, 57.09 71.13, 57.09 85.54 M57.09 85.54 C39.05 94.55, 21.02 103.56, 0 114.06 M0 114.06 C-19.65 104.25, -39.29 94.43, -57.09 85.54 M-57.09 85.54 C-57.09 64.81, -57.09 44.08, -57.09 28.51 M-57.09 28.51 C-44.22 22.09, -31.35 15.66, 0 0" stroke="#fff" stroke-width="4.5" fill="none" stroke-dasharray="8 12"></path></g></g><g stroke-linecap="round"><g transform="translate(578.1895749362066 714.3296679204414) rotate(0 0 57.029938717606456)"><path d="M0 0 C19.24 9.61, 38.47 19.22, 57.09 28.51 M57.09 28.51 C57.09 40.76, 57.09 53, 57.09 85.54 M57.09 85.54 C44.56 91.8, 32.03 98.06, 0 114.06 M0 114.06 C-16.15 105.99, -32.3 97.93, -57.09 85.54 M-57.09 85.54 C-57.09 65.47, -57.09 45.4, -57.09 28.51 M-57.09 28.51 C-36.32 18.14, -15.55 7.76, 0 0" stroke="#fff" stroke-width="4.5" fill="none" stroke-dasharray="8 12"></path></g></g><g transform="translate(546.1364349619744 758.1357637526107) rotate(0 30.977167767036008 11.264424642558424)"><text x="30.97716776703573" y="18.528849285116898" font-family="Helvetica, Segoe UI Emoji" font-size="19.66703217766339px" fill="#fff" text-anchor="middle" style="white-space: pre;" direction="ltr">Cursos</text></g><g transform="translate(471.50660036312 644.4478947586158) rotate(0 36.14002906154201 22.52884928511685)"><text x="36.14002906154169" y="17.528849285116898" font-family="Helvetica, Segoe UI Emoji" font-size="19.667032177663398px" fill="#fff" text-anchor="middle" style="white-space: pre;" direction="ltr">Perfil de</text><text x="36.14002906154169" y="40.057698570233796" font-family="Helvetica, Segoe UI Emoji" font-size="19.667032177663398px" fill="#fff" text-anchor="middle" style="white-space: pre;" direction="ltr">Usuario</text></g><g stroke-linecap="round"><g transform="translate(508.0002421996742 607.7646484354063) rotate(0 0 57.029938717606456)"><path d="M0 0 C16.02 8, 32.03 16, 57.09 28.51 M57.09 28.51 C57.09 41, 57.09 53.49, 57.09 85.54 M57.09 85.54 C45.46 91.35, 33.83 97.16, 0 114.06 M0 114.06 C-14.76 106.69, -29.51 99.32, -57.09 85.54 M-57.09 85.54 C-57.09 69.42, -57.09 53.29, -57.09 28.51 M-57.09 28.51 C-37.73 18.85, -18.37 9.18, 0 0" stroke="#fff" stroke-width="4.5" fill="none" stroke-dasharray="8 12"></path></g></g><g transform="translate(743.9986886270617 652.6137465492884) rotate(0 26.604123207220255 15.099637495990464)"><text x="26.604123207220955" y="23.199274991980545" font-family="Helvetica, Segoe UI Emoji" font-size="25.722696348323037px" fill="#fff" text-anchor="middle" style="white-space: pre;" direction="ltr">SNP</text></g><g stroke-linecap="round"><g transform="translate(770.8368171926977 607.7646484354063) rotate(0 0 57.029938717606456)"><path d="M0 0 C19.52 9.75, 39.04 19.5, 57.09 28.51 M57.09 28.51 C57.09 51.16, 57.09 73.8, 57.09 85.54 M57.09 85.54 C35.42 96.37, 13.75 107.19, 0 114.06 M0 114.06 C-21.4 103.37, -42.8 92.68, -57.09 85.54 M-57.09 85.54 C-57.09 71.18, -57.09 56.82, -57.09 28.51 M-57.09 28.51 C-44.73 22.34, -32.38 16.17, 0 0" stroke="#fff" stroke-width="4.5" fill="none" stroke-dasharray="8 12"></path></g></g><g stroke-linecap="round"><g transform="translate(247.97977336727854 451.00140549313255) rotate(0 0 57.029938717606456)"><path d="M0 0 C19.53 9.75, 39.06 19.51, 57.09 28.51 M0 0 C14.36 7.17, 28.72 14.35, 57.09 28.51 M57.09 28.51 C57.09 40.19, 57.09 51.86, 57.09 85.54 M57.09 28.51 C57.09 46.85, 57.09 65.18, 57.09 85.54 M57.09 85.54 C35.88 96.14, 14.68 106.73, 0 114.06 M57.09 85.54 C34.33 96.91, 11.57 108.28, 0 114.06 M0 114.06 C-13.19 107.47, -26.39 100.88, -57.09 85.54 M0 114.06 C-19.01 104.57, -38.01 95.07, -57.09 85.54 M-57.09 85.54 C-57.09 71.14, -57.09 56.73, -57.09 28.51 M-57.09 85.54 C-57.09 67.45, -57.09 49.36, -57.09 28.51 M-57.09 28.51 C-42.06 21.01, -27.03 13.5, 0 0 M-57.09 28.51 C-36.56 18.26, -16.04 8.01, 0 0" stroke="#fff" stroke-width="4" fill="none"></path></g></g><g transform="translate(207.16541422661976 493.7644990435929) rotate(0 40.364188302501134 14.549881829971127)"><text x="40.36418830250112" y="22.09976365994266" font-family="Helvetica, Segoe UI Emoji" font-size="25.130096671458514px" fill="#fff" text-anchor="middle" style="white-space: pre;" direction="ltr">SIICYT</text></g><g transform="translate(216.17964179844785 644.4478947586158) rotate(0 31.446518793809446 22.52884928511685)"><text x="31.44651879380901" y="17.528849285116898" font-family="Helvetica, Segoe UI Emoji" font-size="19.6670321776634px" fill="#fff" text-anchor="middle" style="white-space: pre;" direction="ltr">SIICYT</text><text x="31.44651879380901" y="40.057698570233796" font-family="Helvetica, Segoe UI Emoji" font-size="19.6670321776634px" fill="#fff" text-anchor="middle" style="white-space: pre;" direction="ltr">2.0</text></g><g stroke-linecap="round"><g transform="translate(247.97977336727854 607.7646484354063) rotate(0 0 57.029938717606456)"><path d="M0 0 C20.73 10.36, 41.46 20.71, 57.09 28.51 M57.09 28.51 C57.09 43.18, 57.09 57.85, 57.09 85.54 M57.09 85.54 C36.53 95.81, 15.98 106.08, 0 114.06 M0 114.06 C-21.56 103.29, -43.12 92.52, -57.09 85.54 M-57.09 85.54 C-57.09 66.77, -57.09 48, -57.09 28.51 M-57.09 28.51 C-36.04 18, -14.99 7.49, 0 0" stroke="#fff" stroke-width="4.5" fill="none" stroke-dasharray="8 12"></path></g></g><g transform="translate(994.4235364676406 653.7610490591887) rotate(0 41.30289035604801 11.264424642558424)"><text x="41.30289035604765" y="18.528849285116898" font-family="Helvetica, Segoe UI Emoji" font-size="19.729745928230383px" fill="#fff" text-anchor="middle" style="white-space: pre;" direction="ltr">SINECyT</text></g><g stroke-linecap="round"><g transform="translate(1036.4894983463655 607.7646484354063) rotate(0 0 57.029938717606456)"><path d="M0 0 C12.25 6.12, 24.5 12.24, 57.09 28.51 M57.09 28.51 C57.09 41.03, 57.09 53.55, 57.09 85.54 M57.09 85.54 C40.94 93.61, 24.79 101.68, 0 114.06 M0 114.06 C-20.09 104.02, -40.18 93.99, -57.09 85.54 M-57.09 85.54 C-57.09 64.79, -57.09 44.04, -57.09 28.51 M-57.09 28.51 C-42.37 21.17, -27.66 13.82, 0 0" stroke="#fff" stroke-width="4.5" fill="none" stroke-dasharray="8 12"></path></g></g><g stroke-linecap="round" transform="translate(57.600470098488586 1086.3529264024055) rotate(0 718.707846455819 28.370046570624254)"><path d="M0 0 C298.25 0, 596.5 0, 1437.42 0 M1437.42 0 C1437.42 20.08, 1437.42 40.16, 1437.42 56.74 M1437.42 56.74 C997.99 56.74, 558.56 56.74, 0 56.74 M0 56.74 C0 41.16, 0 25.58, 0 0" stroke="#ffffff" stroke-width="2.5" fill="none" stroke-dasharray="8 10"></path></g><g transform="translate(77.18931177822014 1095.1341312933164) rotate(0 174.4757864093408 15.60352561384343)"><text x="0" y="24.207051227686925" font-family="Helvetica, Segoe UI Emoji" font-size="26.701220301764206px" fill="#ffffff" text-anchor="start" style="white-space: pre;" direction="ltr">Recomendador de Contenido</text></g><g stroke-linecap="round" transform="translate(11.335170812773868 1177.2181044413428) rotate(0 780.5459985041134 480)"><path d="M0 0 L1561.09 0 L1561.09 960 L0 960" stroke="none" stroke-width="0" fill="#0aa8a7"></path><path d="M0 0 C341.87 0, 683.74 0, 1561.09 0 M0 0 C317.93 0, 635.86 0, 1561.09 0 M1561.09 0 C1561.09 248.16, 1561.09 496.31, 1561.09 960 M1561.09 0 C1561.09 271.47, 1561.09 542.94, 1561.09 960 M1561.09 960 C1031.76 960, 502.42 960, 0 960 M1561.09 960 C961.45 960, 361.82 960, 0 960 M0 960 C0 594.83, 0 229.67, 0 0 M0 960 C0 760.61, 0 561.22, 0 0" stroke="#0aa8a7" stroke-width="1" fill="none"></path></g><g stroke-linecap="round"><g transform="translate(785.7681115586365 1690.572981670748) rotate(0 0 60.0269873351308)" fill-rule="evenodd"><path d="M0 0 L60.09 30.01 L60.09 90.04 L0 120.05 L-60.09 90.04 L-60.09 30.01 L0 0" stroke="none" stroke-width="0" fill="#fff" fill-rule="evenodd"></path><path d="M0 0 C20.02 10, 40.04 20, 60.09 30.01 M0 0 C13.72 6.85, 27.43 13.7, 60.09 30.01 M60.09 30.01 C60.09 42.56, 60.09 55.11, 60.09 90.04 M60.09 30.01 C60.09 44.76, 60.09 59.51, 60.09 90.04 M60.09 90.04 C40.6 99.78, 21.11 109.51, 0 120.05 M60.09 90.04 C36.76 101.69, 13.43 113.35, 0 120.05 M0 120.05 C-14.03 113.04, -28.07 106.03, -60.09 90.04 M0 120.05 C-21.97 109.08, -43.95 98.1, -60.09 90.04 M-60.09 90.04 C-60.09 70.92, -60.09 51.81, -60.09 30.01 M-60.09 90.04 C-60.09 77.33, -60.09 64.63, -60.09 30.01 M-60.09 30.01 C-38.42 19.19, -16.76 8.37, 0 0 M-60.09 30.01 C-38.35 19.15, -16.61 8.3, 0 0 M0 0 C0 0, 0 0, 0 0 M0 0 C0 0, 0 0, 0 0" stroke="#fff" stroke-width="4" fill="none"></path></g></g><g transform="translate(465.83030918225813 1209.400954744795) rotate(0 350.7516828721018 24.700822737471753)"><text x="350.751682872102" y="38.40164547494394" font-family="Helvetica, Segoe UI Emoji" font-size="43.852667642078444px" fill="#ffff" text-anchor="middle" style="white-space: pre;" direction="ltr">Modelo de Aplicaciones (Desarrollo)</text></g><g transform="translate(727.6590301994565 1730.254093786888) rotate(0 56.89422837197526 19.275640213456427)"><text x="56.894228371975714" y="15.27564021345626" font-family="Helvetica, Segoe UI Emoji" font-size="16.646138698205608px" fill="#0aa8a7" text-anchor="middle" style="white-space: pre;" direction="ltr">Automatización</text><text x="56.894228371975714" y="34.55128042691252" font-family="Helvetica, Segoe UI Emoji" font-size="16.646138698205608px" fill="#0aa8a7" text-anchor="middle" style="white-space: pre;" direction="ltr">despliegues</text></g><g stroke-linecap="round"><g transform="translate(647.443504228786 1690.572981670748) rotate(0 0 60.0269873351308)"><path d="M0 0 C20.63 10.3, 41.26 20.61, 60.09 30.01 M0 0 C22.92 11.45, 45.84 22.9, 60.09 30.01 M60.09 30.01 C60.09 52.12, 60.09 74.23, 60.09 90.04 M60.09 30.01 C60.09 45.18, 60.09 60.34, 60.09 90.04 M60.09 90.04 C38.24 100.95, 16.39 111.86, 0 120.05 M60.09 90.04 C44.56 97.79, 29.04 105.55, 0 120.05 M0 120.05 C-14 113.06, -28 106.07, -60.09 90.04 M0 120.05 C-12.32 113.9, -24.63 107.75, -60.09 90.04 M-60.09 90.04 C-60.09 74.03, -60.09 58.02, -60.09 30.01 M-60.09 90.04 C-60.09 75.86, -60.09 61.69, -60.09 30.01 M-60.09 30.01 C-46.89 23.42, -33.69 16.83, 0 0 M-60.09 30.01 C-41.81 20.88, -23.53 11.75, 0 0" stroke="#fff" stroke-width="4" fill="none"></path></g></g><g stroke-linecap="round"><g transform="translate(1062.4173262183158 1690.572981670748) rotate(0 0 60.0269873351308)" fill-rule="evenodd"><path d="M0 0 L60.09 30.01 L60.09 90.04 L0 120.05 L-60.09 90.04 L-60.09 30.01 L0 0" stroke="none" stroke-width="0" fill="#ffffff" fill-rule="evenodd"></path><path d="M0 0 C23.75 11.86, 47.49 23.72, 60.09 30.01 M0 0 C21.52 10.75, 43.05 21.5, 60.09 30.01 M60.09 30.01 C60.09 43.69, 60.09 57.36, 60.09 90.04 M60.09 30.01 C60.09 50.63, 60.09 71.25, 60.09 90.04 M60.09 90.04 C38.5 100.83, 16.9 111.61, 0 120.05 M60.09 90.04 C46.29 96.93, 32.5 103.82, 0 120.05 M0 120.05 C-16.93 111.6, -33.86 103.14, -60.09 90.04 M0 120.05 C-20.91 109.61, -41.82 99.17, -60.09 90.04 M-60.09 90.04 C-60.09 75.28, -60.09 60.53, -60.09 30.01 M-60.09 90.04 C-60.09 70.67, -60.09 51.3, -60.09 30.01 M-60.09 30.01 C-46.07 23.01, -32.05 16.01, 0 0 M-60.09 30.01 C-39.14 19.55, -18.2 9.09, 0 0 M0 0 C0 0, 0 0, 0 0 M0 0 C0 0, 0 0, 0 0" stroke="#fff" stroke-width="4" fill="none"></path></g></g><g transform="translate(884.1256922516386 1725.9729062532115) rotate(0 42.48541510845098 20.748691099476673)"><text x="42.48541510845178" y="16.748691099476456" font-family="Helvetica, Segoe UI Emoji" font-size="17.620134795823173px" fill="#fff" text-anchor="middle" style="white-space: pre;" direction="ltr">Historias</text><text x="42.48541510845178" y="37.49738219895291" font-family="Helvetica, Segoe UI Emoji" font-size="17.620134795823173px" fill="#fff" text-anchor="middle" style="white-space: pre;" direction="ltr">de Usuario</text></g><g stroke-linecap="round"><g transform="translate(927.0568176169672 1688.5969158517491) rotate(0 0 60.0269873351308)"><path d="M0 0 C18.98 9.48, 37.96 18.96, 60.09 30.01 M0 0 C20.68 10.33, 41.36 20.66, 60.09 30.01 M60.09 30.01 C60.09 51.84, 60.09 73.66, 60.09 90.04 M60.09 30.01 C60.09 43.54, 60.09 57.07, 60.09 90.04 M60.09 90.04 C38.09 101.03, 16.09 112.02, 0 120.05 M60.09 90.04 C38.14 101, 16.19 111.97, 0 120.05 M0 120.05 C-18.3 110.91, -36.6 101.77, -60.09 90.04 M0 120.05 C-21.67 109.23, -43.34 98.4, -60.09 90.04 M-60.09 90.04 C-60.09 75.96, -60.09 61.88, -60.09 30.01 M-60.09 90.04 C-60.09 69.9, -60.09 49.76, -60.09 30.01 M-60.09 30.01 C-38.57 19.26, -17.05 8.51, 0 0 M-60.09 30.01 C-40.92 20.44, -21.76 10.87, 0 0" stroke="#fff" stroke-width="4" fill="none"></path></g></g><g transform="translate(1035.8287357651589 1732.5754753785932) rotate(0 29.14697083021747 15.80852655198214)"><text x="29.14697083021692" y="24.61705310396412" font-family="Helvetica, Segoe UI Emoji" font-size="27.49650003356226px" fill="#0aa8a7" text-anchor="middle" style="white-space: pre;" direction="ltr">Chat</text></g><g transform="translate(589.8284393243648 1725.922603543926) rotate(0 56.67466550320023 23.054101221641304)"><text x="56.674665503201055" y="19.054101221641105" font-family="Helvetica, Segoe UI Emoji" font-size="20.125561888003553px" fill="#ffffff" text-anchor="middle" style="white-space: pre;" direction="ltr">Repositorio</text><text x="56.674665503201055" y="42.10820244328221" font-family="Helvetica, Segoe UI Emoji" font-size="20.125561888003553px" fill="#ffffff" text-anchor="middle" style="white-space: pre;" direction="ltr">Documentos</text></g><g transform="translate(881.2351078765332 1880.3530483624108) rotate(0 42.48541510845098 11.856394913986605)"><text x="42.48541510845178" y="17.712789827973094" font-family="Helvetica, Segoe UI Emoji" font-size="20.70057794194597px" fill="#fff" text-anchor="middle" style="white-space: pre;" direction="ltr">Prácticas</text></g><g stroke-linecap="round"><g transform="translate(924.0927188884725 1830.8736548195866) rotate(0 0 60.0269873351308)"><path d="M0 0 C12.24 6.11, 24.47 12.23, 60.09 30.01 M0 0 C15.53 7.76, 31.06 15.52, 60.09 30.01 M60.09 30.01 C60.09 46.99, 60.09 63.96, 60.09 90.04 M60.09 30.01 C60.09 50.37, 60.09 70.72, 60.09 90.04 M60.09 90.04 C37.01 101.57, 13.93 113.1, 0 120.05 M60.09 90.04 C37.23 101.46, 14.37 112.87, 0 120.05 M0 120.05 C-12.48 113.82, -24.96 107.59, -60.09 90.04 M0 120.05 C-19.21 110.46, -38.42 100.86, -60.09 90.04 M-60.09 90.04 C-60.09 74.47, -60.09 58.91, -60.09 30.01 M-60.09 90.04 C-60.09 66.62, -60.09 43.2, -60.09 30.01 M-60.09 30.01 C-40.71 20.33, -21.33 10.66, 0 0 M-60.09 30.01 C-42.13 21.05, -24.18 12.08, 0 0" stroke="#fff" stroke-width="4" fill="none"></path></g></g><g stroke-linecap="round"><g transform="translate(647.443504228786 1830.8736548195866) rotate(0 0 60.0269873351308)"><path d="M0 0 C13.72 6.85, 27.43 13.7, 60.09 30.01 M0 0 C12.56 6.27, 25.12 12.55, 60.09 30.01 M60.09 30.01 C60.09 44.76, 60.09 59.51, 60.09 90.04 M60.09 30.01 C60.09 49.48, 60.09 68.96, 60.09 90.04 M60.09 90.04 C36.76 101.69, 13.43 113.35, 0 120.05 M60.09 90.04 C46.05 97.05, 32.02 104.06, 0 120.05 M0 120.05 C-21.97 109.08, -43.95 98.1, -60.09 90.04 M0 120.05 C-19.14 110.5, -38.27 100.94, -60.09 90.04 M-60.09 90.04 C-60.09 77.33, -60.09 64.63, -60.09 30.01 M-60.09 90.04 C-60.09 68.4, -60.09 46.76, -60.09 30.01 M-60.09 30.01 C-38.35 19.15, -16.61 8.3, 0 0 M-60.09 30.01 C-47.32 23.64, -34.56 17.26, 0 0" stroke="#fff" stroke-width="4" fill="none"></path></g></g><g transform="translate(603.0022114510193 1876.98185726287) rotate(0 44.95549738219961 11.856394913986605)"><text x="44.95549738219899" y="17.712789827973094" font-family="Helvetica, Segoe UI Emoji" font-size="20.70057794194597px" fill="#fff" text-anchor="middle" style="white-space: pre;" direction="ltr">Tutoriales</text></g><g transform="translate(741.1814429550705 1876.4832528002062) rotate(0 45.82002617800936 13.091436050860011)"><text x="45.82002617801027" y="19.182872101720154" font-family="Helvetica, Segoe UI Emoji" font-size="22.856888144231892px" fill="#fff" text-anchor="middle" style="white-space: pre;" direction="ltr">Medallas</text></g><g stroke-linecap="round"><g transform="translate(785.7681115586365 1830.8736548195866) rotate(0 0 60.0269873351308)"><path d="M0 0 C22.92 11.45, 45.84 22.9, 60.09 30.01 M60.09 30.01 C60.09 52.12, 60.09 74.23, 60.09 90.04 M60.09 90.04 C44.91 97.62, 29.73 105.2, 0 120.05 M0 120.05 C-21.85 109.14, -43.69 98.23, -60.09 90.04 M-60.09 90.04 C-60.09 74.53, -60.09 59.03, -60.09 30.01 M-60.09 30.01 C-46.09 23.02, -32.09 16.03, 0 0" stroke="#fff" stroke-width="4.5" fill="none" stroke-dasharray="8 12"></path></g></g><g transform="translate(1030.4128227015663 1873.8452448517564) rotate(0 34.58115183246082 15.80852655198214)"><text x="34.581151832460755" y="24.61705310396412" font-family="Helvetica, Segoe UI Emoji" font-size="27.07448057364861px" fill="#fff" text-anchor="middle" style="white-space: pre;" direction="ltr">Foros</text></g><g stroke-linecap="round"><g transform="translate(1062.4173262183158 1830.8736548195866) rotate(0 0 60.0269873351308)"><path d="M0 0 C21.63 10.81, 43.26 21.61, 60.09 30.01 M0 0 C22.69 11.34, 45.39 22.67, 60.09 30.01 M60.09 30.01 C60.09 49.77, 60.09 69.53, 60.09 90.04 M60.09 30.01 C60.09 52.14, 60.09 74.27, 60.09 90.04 M60.09 90.04 C46.88 96.64, 33.67 103.23, 0 120.05 M60.09 90.04 C43.22 98.46, 26.36 106.89, 0 120.05 M0 120.05 C-15.74 112.19, -31.49 104.32, -60.09 90.04 M0 120.05 C-23.13 108.5, -46.26 96.95, -60.09 90.04 M-60.09 90.04 C-60.09 75.72, -60.09 61.41, -60.09 30.01 M-60.09 90.04 C-60.09 68.91, -60.09 47.78, -60.09 30.01 M-60.09 30.01 C-44.68 22.32, -29.27 14.62, 0 0 M-60.09 30.01 C-40.31 20.14, -20.53 10.26, 0 0" stroke="#fff" stroke-width="4" fill="none"></path></g></g><g stroke-linecap="round"><g transform="translate(512.0829956274447 1690.572981670748) rotate(0 0 60.0269873351308)" fill-rule="evenodd"><path d="M0 0 L60.09 30.01 L60.09 90.04 L0 120.05 L-60.09 90.04 L-60.09 30.01 L0 0" stroke="none" stroke-width="0" fill="#fff" fill-rule="evenodd"></path><path d="M0 0 C20.68 10.33, 41.36 20.66, 60.09 30.01 M0 0 C21.84 10.91, 43.69 21.82, 60.09 30.01 M60.09 30.01 C60.09 43.54, 60.09 57.07, 60.09 90.04 M60.09 30.01 C60.09 51.99, 60.09 73.96, 60.09 90.04 M60.09 90.04 C38.14 101, 16.19 111.97, 0 120.05 M60.09 90.04 C41.79 99.18, 23.49 108.32, 0 120.05 M0 120.05 C-21.67 109.23, -43.34 98.4, -60.09 90.04 M0 120.05 C-14.09 113.01, -28.19 105.97, -60.09 90.04 M-60.09 90.04 C-60.09 69.9, -60.09 49.76, -60.09 30.01 M-60.09 90.04 C-60.09 68.54, -60.09 47.04, -60.09 30.01 M-60.09 30.01 C-40.92 20.44, -21.76 10.87, 0 0 M-60.09 30.01 C-36.32 18.14, -12.55 6.27, 0 0 M0 0 C0 0, 0 0, 0 0 M0 0 C0 0, 0 0, 0 0" stroke="#fff" stroke-width="4" fill="none"></path></g></g><g transform="translate(451.64649726870084 1724.2215139824411) rotate(0 57.79992520568521 26.67688855646975)"><text x="57.79992520568441" y="19.676888556469727" font-family="Helvetica, Segoe UI Emoji" font-size="22.793954359526072px" fill="#0aa8a7" text-anchor="middle" style="white-space: pre;" direction="ltr">Repositorio</text><text x="57.79992520568441" y="46.353777112939454" font-family="Helvetica, Segoe UI Emoji" font-size="22.793954359526072px" fill="#0aa8a7" text-anchor="middle" style="white-space: pre;" direction="ltr">de código</text></g><g transform="translate(470.1117851234212 1876.98185726287) rotate(0 45.94353029169724 11.856394913986605)"><text x="45.94353029169786" y="17.712789827973094" font-family="Helvetica, Segoe UI Emoji" font-size="20.700577941945966px" fill="#fff" text-anchor="middle" style="white-space: pre;" direction="ltr">Proyectos</text></g><g stroke-linecap="round"><g transform="translate(512.0829956274447 1830.8736548195866) rotate(0 0 60.0269873351308)"><path d="M0 0 C24.03 12, 48.06 24.01, 60.09 30.01 M0 0 C20.07 10.03, 40.14 20.05, 60.09 30.01 M60.09 30.01 C60.09 44.63, 60.09 59.24, 60.09 90.04 M60.09 30.01 C60.09 46.77, 60.09 63.53, 60.09 90.04 M60.09 90.04 C45.22 97.47, 30.35 104.89, 0 120.05 M60.09 90.04 C38.07 101.04, 16.05 112.03, 0 120.05 M0 120.05 C-19.82 110.16, -39.63 100.26, -60.09 90.04 M0 120.05 C-20.35 109.89, -40.7 99.72, -60.09 90.04 M-60.09 90.04 C-60.09 72.51, -60.09 54.98, -60.09 30.01 M-60.09 90.04 C-60.09 71.63, -60.09 53.21, -60.09 30.01 M-60.09 30.01 C-36.55 18.26, -13.02 6.5, 0 0 M-60.09 30.01 C-46.43 23.19, -32.78 16.37, 0 0" stroke="#fff" stroke-width="4" fill="none"></path></g></g><g stroke-linecap="round" transform="translate(57.77271755921538 2045.276796180844) rotate(0 604.8407876379215 25.935863874345614)"><path d="M0 0 C312.7 0, 625.39 0, 1209.68 0 M0 0 C342.08 0, 684.16 0, 1209.68 0 M1209.68 0 C1209.68 17.59, 1209.68 35.18, 1209.68 51.87 M1209.68 0 C1209.68 19.92, 1209.68 39.85, 1209.68 51.87 M1209.68 51.87 C749.54 51.87, 289.4 51.87, 0 51.87 M1209.68 51.87 C958.43 51.87, 707.19 51.87, 0 51.87 M0 51.87 C0 35.29, 0 18.7, 0 0 M0 51.87 C0 38.42, 0 24.97, 0 0" stroke="#ffffff" stroke-width="4" fill="none"></path></g><g transform="translate(69.95845677637408 2055.3453220204956) rotate(0 115.10583395661979 16.302543006731412)"><text x="0" y="25.605086013463" font-family="Helvetica, Segoe UI Emoji" font-size="27.897399797615407px" fill="#ffffff" text-anchor="start" style="white-space: pre;" direction="ltr">Radar Tecnológico</text></g><g stroke-linecap="round"><g transform="translate(785.7681115586365 1411.9477011920608) rotate(0 0 60.0269873351308)" fill-rule="evenodd"><path d="M0 0 L60.09 30.01 L60.09 90.04 L0 120.05 L-60.09 90.04 L-60.09 30.01 L0 0" stroke="none" stroke-width="0" fill="#fff" fill-rule="evenodd"></path><path d="M0 0 C22.52 11.25, 45.05 22.5, 60.09 30.01 M0 0 C15.13 7.56, 30.26 15.12, 60.09 30.01 M60.09 30.01 C60.09 43, 60.09 55.99, 60.09 90.04 M60.09 30.01 C60.09 50.36, 60.09 70.71, 60.09 90.04 M60.09 90.04 C43.16 98.5, 26.23 106.95, 0 120.05 M60.09 90.04 C37.8 101.17, 15.52 112.3, 0 120.05 M0 120.05 C-23.02 108.56, -46.04 97.06, -60.09 90.04 M0 120.05 C-17.95 111.09, -35.9 102.12, -60.09 90.04 M-60.09 90.04 C-60.09 68.26, -60.09 46.47, -60.09 30.01 M-60.09 90.04 C-60.09 74.01, -60.09 57.98, -60.09 30.01 M-60.09 30.01 C-37.75 18.86, -15.41 7.7, 0 0 M-60.09 30.01 C-42.94 21.45, -25.79 12.88, 0 0 M0 0 C0 0, 0 0, 0 0 M0 0 C0 0, 0 0, 0 0" stroke="#fff" stroke-width="4" fill="none"></path></g></g><g transform="translate(723.3775542582935 1445.7524276120184) rotate(0 61.22174168885067 22.729029848555456)"><text x="61.221741688851566" y="17.729029848555676" font-family="Helvetica, Segoe UI Emoji" font-size="19.628431488910433px" fill="#0aa8a7" text-anchor="middle" style="white-space: pre;" direction="ltr">Repositorio</text><text x="61.221741688851566" y="40.45805969711135" font-family="Helvetica, Segoe UI Emoji" font-size="19.628431488910433px" fill="#0aa8a7" text-anchor="middle" style="white-space: pre;" direction="ltr">Componentes</text></g><g transform="translate(730.066072723208 1596.3983782506712) rotate(0 55.32984293193658 20.119942884340617)"><text x="55.32984293193721" y="16.119942884340798" font-family="Helvetica, Segoe UI Emoji" font-size="17.56412673862082px" fill="#fff" text-anchor="middle" style="white-space: pre;" direction="ltr">Repositorio</text><text x="55.32984293193721" y="36.239885768681596" font-family="Helvetica, Segoe UI Emoji" font-size="17.56412673862082px" fill="#fff" text-anchor="middle" style="white-space: pre;" direction="ltr">Contenedores</text></g><g stroke-linecap="round"><g transform="translate(785.7681115586365 1557.1885388883966) rotate(0 0 60.0269873351308)"><path d="M0 0 C13.69 6.84, 27.37 13.67, 60.09 30.01 M0 0 C20.64 10.31, 41.27 20.62, 60.09 30.01 M60.09 30.01 C60.09 51.58, 60.09 73.15, 60.09 90.04 M60.09 30.01 C60.09 43.79, 60.09 57.58, 60.09 90.04 M60.09 90.04 C43.16 98.5, 26.23 106.95, 0 120.05 M60.09 90.04 C39.18 100.48, 18.27 110.93, 0 120.05 M0 120.05 C-14.77 112.68, -29.54 105.3, -60.09 90.04 M0 120.05 C-19.39 110.37, -38.78 100.68, -60.09 90.04 M-60.09 90.04 C-60.09 76.04, -60.09 62.04, -60.09 30.01 M-60.09 90.04 C-60.09 69.12, -60.09 48.2, -60.09 30.01 M-60.09 30.01 C-46.37 23.16, -32.66 16.31, 0 0 M-60.09 30.01 C-37.9 18.93, -15.71 7.85, 0 0" stroke="#fff" stroke-width="4" fill="none"></path></g></g><g transform="translate(1013.4475492720067 1585.1828046575338) rotate(0 47.42557965594642 15.80852655198214)"><text x="47.42557965594619" y="24.61705310396412" font-family="Helvetica, Segoe UI Emoji" font-size="27.074480573648614px" fill="#fff" text-anchor="middle" style="white-space: pre;" direction="ltr">Chatbot</text></g><g stroke-linecap="round"><g transform="translate(1062.4173262183158 1557.1885388883966) rotate(0 0 60.0269873351308)"><path d="M0 0 C21.84 10.91, 43.69 21.82, 60.09 30.01 M0 0 C13.54 6.76, 27.09 13.53, 60.09 30.01 M60.09 30.01 C60.09 51.99, 60.09 73.96, 60.09 90.04 M60.09 30.01 C60.09 51.94, 60.09 73.87, 60.09 90.04 M60.09 90.04 C41.79 99.18, 23.49 108.32, 0 120.05 M60.09 90.04 C38.41 100.87, 16.74 111.69, 0 120.05 M0 120.05 C-14.09 113.01, -28.19 105.97, -60.09 90.04 M0 120.05 C-20.16 109.98, -40.32 99.91, -60.09 90.04 M-60.09 90.04 C-60.09 68.54, -60.09 47.04, -60.09 30.01 M-60.09 90.04 C-60.09 70.89, -60.09 51.75, -60.09 30.01 M-60.09 30.01 C-36.32 18.14, -12.55 6.27, 0 0 M-60.09 30.01 C-40.66 20.31, -21.23 10.6, 0 0" stroke="#fff" stroke-width="4" fill="none"></path></g></g><g stroke-linecap="round"><g transform="translate(512.0829956274447 1411.9477011920608) rotate(0 0 60.0269873351308)" fill-rule="evenodd"><path d="M0 0 L60.09 30.01 L60.09 90.04 L0 120.05 L-60.09 90.04 L-60.09 30.01 L0 0" stroke="none" stroke-width="0" fill="#fff" fill-rule="evenodd"></path><path d="M0 0 C21.15 10.56, 42.29 21.13, 60.09 30.01 M0 0 C21.86 10.92, 43.72 21.84, 60.09 30.01 M60.09 30.01 C60.09 45.48, 60.09 60.96, 60.09 90.04 M60.09 30.01 C60.09 45.71, 60.09 61.41, 60.09 90.04 M60.09 90.04 C45.82 97.16, 31.56 104.29, 0 120.05 M60.09 90.04 C43.49 98.33, 26.89 106.62, 0 120.05 M0 120.05 C-20.82 109.65, -41.64 99.25, -60.09 90.04 M0 120.05 C-22.64 108.74, -45.29 97.43, -60.09 90.04 M-60.09 90.04 C-60.09 73.59, -60.09 57.13, -60.09 30.01 M-60.09 90.04 C-60.09 73.7, -60.09 57.37, -60.09 30.01 M-60.09 30.01 C-40.82 20.39, -21.56 10.77, 0 0 M-60.09 30.01 C-37.08 18.52, -14.07 7.03, 0 0 M0 0 C0 0, 0 0, 0 0 M0 0 C0 0, 0 0, 0 0" stroke="#fff" stroke-width="4" fill="none"></path></g></g><g transform="translate(451.19801228443794 1447.0777601964674) rotate(0 57.40607798599922 27.806069024468343)"><text x="57.406077985998834" y="20.80606902446819" font-family="Helvetica, Segoe UI Emoji" font-size="24.012882400142164px" fill="#0aa8a7" text-anchor="middle" style="white-space: pre;" direction="ltr">Calidad de</text><text x="57.406077985998834" y="48.61213804893638" font-family="Helvetica, Segoe UI Emoji" font-size="24.012882400142164px" fill="#0aa8a7" text-anchor="middle" style="white-space: pre;" direction="ltr">Código</text></g><g transform="translate(455.29129148094034 1594.8278878216897) rotate(0 55.33866465434403 21.59557645047562)"><text x="55.33866465434349" y="16.595576450475505" font-family="Helvetica, Segoe UI Emoji" font-size="18.852312054272236px" fill="#fff" text-anchor="middle" style="white-space: pre;" direction="ltr">Repositorio</text><text x="55.33866465434349" y="38.19115290095101" font-family="Helvetica, Segoe UI Emoji" font-size="18.852312054272236px" fill="#fff" text-anchor="middle" style="white-space: pre;" direction="ltr">Open Source</text></g><g stroke-linecap="round"><g transform="translate(512.0829956274447 1557.1885388883966) rotate(0 0 60.0269873351308)"><path d="M0 0 C16.99 8.49, 33.98 16.97, 60.09 30.01 M0 0 C20.37 10.18, 40.75 20.35, 60.09 30.01 M60.09 30.01 C60.09 53.07, 60.09 76.13, 60.09 90.04 M60.09 30.01 C60.09 52.85, 60.09 75.68, 60.09 90.04 M60.09 90.04 C47.61 96.27, 35.13 102.51, 0 120.05 M60.09 90.04 C40.88 99.64, 21.67 109.23, 0 120.05 M0 120.05 C-15.58 112.27, -31.16 104.49, -60.09 90.04 M0 120.05 C-23.44 108.34, -46.89 96.63, -60.09 90.04 M-60.09 90.04 C-60.09 70.68, -60.09 51.32, -60.09 30.01 M-60.09 90.04 C-60.09 72.1, -60.09 54.17, -60.09 30.01 M-60.09 30.01 C-46.26 23.11, -32.43 16.2, 0 0 M-60.09 30.01 C-41.78 20.87, -23.47 11.72, 0 0" stroke="#fff" stroke-width="4" fill="none"></path></g></g><g stroke-linecap="round" transform="translate(368.0251084532574 1267.6948964052262) rotate(0 30.640515500256697 382.9565721361505)"><path d="M0 0 C15.05 0, 30.11 0, 61.28 0 M0 0 C19.88 0, 39.76 0, 61.28 0 M61.28 0 C61.28 297.36, 61.28 594.72, 61.28 765.91 M61.28 0 C61.28 178.89, 61.28 357.78, 61.28 765.91 M61.28 765.91 C38.87 765.91, 16.46 765.91, 0 765.91 M61.28 765.91 C41.76 765.91, 22.25 765.91, 0 765.91 M0 765.91 C0 603.77, 0 441.63, 0 0 M0 765.91 C0 489.81, 0 213.7, 0 0" stroke="#ffffff" stroke-width="4" fill="none"></path></g><g transform="translate(331.91592592689267 1927.9479217366625) rotate(270.2613886201089 71.08317395222093 18.18406775521953)"><text x="0" y="28.368135510438634" font-family="Helvetica, Segoe UI Emoji" font-size="31.117121292353886px" fill="#ffffff" text-anchor="start" style="white-space: pre;" direction="ltr">Seguridad</text></g><g transform="translate(734.2929654489544 1320.2017881671636) rotate(0 55.32984293193658 19.760658189977676)"><text x="55.329842931937215" y="15.760658189977576" font-family="Helvetica, Segoe UI Emoji" font-size="16.84634346804795px" fill="#fff" text-anchor="middle" style="white-space: pre;" direction="ltr">Administración</text><text x="55.329842931937215" y="35.52131637995515" font-family="Helvetica, Segoe UI Emoji" font-size="16.84634346804795px" fill="#fff" text-anchor="middle" style="white-space: pre;" direction="ltr">de APIs</text></g><g stroke-linecap="round"><g transform="translate(788.7322102871312 1273.6230938622193) rotate(0 0 60.0269873351308)"><path d="M0 0 C15.18 7.58, 30.36 15.16, 60.09 30.01 M0 0 C21.85 10.91, 43.69 21.82, 60.09 30.01 M60.09 30.01 C60.09 45.52, 60.09 61.03, 60.09 90.04 M60.09 30.01 C60.09 44, 60.09 57.98, 60.09 90.04 M60.09 90.04 C47.77 96.19, 35.45 102.35, 0 120.05 M60.09 90.04 C44.06 98.05, 28.03 106.05, 0 120.05 M0 120.05 C-14.19 112.97, -28.38 105.88, -60.09 90.04 M0 120.05 C-13.2 113.46, -26.39 106.87, -60.09 90.04 M-60.09 90.04 C-60.09 71.78, -60.09 53.52, -60.09 30.01 M-60.09 90.04 C-60.09 72.69, -60.09 55.33, -60.09 30.01 M-60.09 30.01 C-39.52 19.74, -18.96 9.47, 0 0 M-60.09 30.01 C-36.44 18.2, -12.8 6.39, 0 0" stroke="#fff" stroke-width="4" fill="none"></path></g></g><g transform="translate(1164.0872810809578 1864.1844786255479) rotate(0 41.28952110122373 28.1120143667913)"><text x="41.28952110122444" y="21.112014366791104" font-family="Helvetica, Segoe UI Emoji" font-size="24.07302743734798px" fill="#fff" text-anchor="middle" style="white-space: pre;" direction="ltr">Gestión</text><text x="41.28952110122444" y="49.22402873358221" font-family="Helvetica, Segoe UI Emoji" font-size="24.07302743734798px" fill="#fff" text-anchor="middle" style="white-space: pre;" direction="ltr">Talento</text></g><g stroke-linecap="round"><g transform="translate(1203.7060322766538 1833.8377535480831) rotate(0 0 60.0269873351308)"><path d="M0 0 C19.78 9.88, 39.55 19.76, 60.09 30.01 M60.09 30.01 C60.09 52.14, 60.09 74.27, 60.09 90.04 M60.09 90.04 C46.88 96.64, 33.67 103.23, 0 120.05 M0 120.05 C-16.86 111.63, -33.72 103.21, -60.09 90.04 M-60.09 90.04 C-60.09 74.31, -60.09 58.58, -60.09 30.01 M-60.09 30.01 C-36.95 18.46, -13.82 6.91, 0 0" stroke="#fff" stroke-width="4.5" fill="none" stroke-dasharray="8 12"></path></g></g><g transform="translate(1154.7207435617584 1737.129628329194) rotate(0 51.37771129394241 13.832460732984146)"><text x="51.377711293941694" y="20.664921465968607" font-family="Helvetica, Segoe UI Emoji" font-size="24.073027437347978px" fill="#fff" text-anchor="middle" style="white-space: pre;" direction="ltr"> Medallas</text></g><g stroke-linecap="round"><g transform="translate(1207.3917836786695 1692.950442518746) rotate(0 0 60.0269873351308)"><path d="M0 0 C21.86 10.92, 43.72 21.84, 60.09 30.01 M60.09 30.01 C60.09 45.48, 60.09 60.96, 60.09 90.04 M60.09 90.04 C44.37 97.89, 28.66 105.74, 0 120.05 M0 120.05 C-14.26 112.93, -28.53 105.81, -60.09 90.04 M-60.09 90.04 C-60.09 73.46, -60.09 56.88, -60.09 30.01 M-60.09 30.01 C-39.26 19.61, -18.44 9.21, 0 0" stroke="#fff" stroke-width="4.5" fill="none" stroke-dasharray="8 12"></path></g></g><g stroke-linecap="round" transform="translate(292.90420896308206 1266.7068634957268) rotate(0 30.640515500256697 383.1949892077155)"><path d="M0 0 C18.21 0, 36.42 0, 61.28 0 M61.28 0 C61.28 238.36, 61.28 476.73, 61.28 766.39 M61.28 766.39 C45.1 766.39, 28.92 766.39, 0 766.39 M0 766.39 C0 551.56, 0 336.73, 0 0" stroke="#ffffff" stroke-width="4.5" fill="none" stroke-dasharray="8 12"></path></g><g transform="translate(163.6260212186753 1839.3989262541672) rotate(270.2613886201089 159.91109535522173 17.60818802787844)"><text x="0" y="27.216376055756754" font-family="Helvetica, Segoe UI Emoji" font-size="31.117121292353858px" fill="#ffffff" text-anchor="start" style="white-space: pre;" direction="ltr">Ludificación (Criptopía)</text></g><g stroke-linecap="round" transform="translate(218.82208180753514 1266.7068634957268) rotate(0 30.640515500256697 382.936615288947)"><path d="M0 0 C20.78 0, 41.56 0, 61.28 0 M61.28 0 C61.28 294.18, 61.28 588.37, 61.28 765.87 M61.28 765.87 C37.97 765.87, 14.66 765.87, 0 765.87 M0 765.87 C0 606.8, 0 447.73, 0 0" stroke="#ffffff" stroke-width="4.5" fill="none" stroke-dasharray="8 12"></path></g><g transform="translate(153.1892854931575 1905.0833915697021) rotate(270.2613886201089 94.35714285714312 18.278608825729407)"><text x="0" y="28.557217651458515" font-family="Helvetica, Segoe UI Emoji" font-size="31.117121292353833px" fill="#ffffff" text-anchor="start" style="white-space: pre;" direction="ltr">Practicopedia</text></g><g transform="translate(395.32266913696367 758.0978933844253) rotate(0 51.159261918285665 11.264424642558424)"><text x="51.1592619182863" y="18.528849285116898" font-family="Helvetica, Segoe UI Emoji" font-size="19.729745928230383px" fill="#fff" text-anchor="middle" style="white-space: pre;" direction="ltr">Vínculación</text></g><g stroke-linecap="round"><g transform="translate(446.7712874396875 713.8379804861561) rotate(0 0 57.029938717606456)"><path d="M0 0 C22.76 11.37, 45.52 22.74, 57.09 28.51 M57.09 28.51 C57.09 41.7, 57.09 54.88, 57.09 85.54 M57.09 85.54 C38.08 95.04, 19.07 104.53, 0 114.06 M0 114.06 C-14.42 106.86, -28.84 99.65, -57.09 85.54 M-57.09 85.54 C-57.09 67.45, -57.09 49.36, -57.09 28.51 M-57.09 28.51 C-42.06 21.01, -27.03 13.5, 0 0" stroke="#fff" stroke-width="4.5" fill="none" stroke-dasharray="8 12"></path></g></g><g transform="translate(807.0999699593722 748.7108728489638) rotate(0 33.32392290090138 22.52884928511685)"><text x="33.32392290090209" y="17.528849285116898" font-family="Helvetica, Segoe UI Emoji" font-size="19.72974592823039px" fill="#fff" text-anchor="middle" style="white-space: pre;" direction="ltr">Plan de</text><text x="33.32392290090209" y="40.057698570233796" font-family="Helvetica, Segoe UI Emoji" font-size="19.72974592823039px" fill="#fff" text-anchor="middle" style="white-space: pre;" direction="ltr">Carrera</text></g><g stroke-linecap="round"><g transform="translate(839.1487458221291 713.8379804861561) rotate(0 0 57.029938717606456)"><path d="M0 0 C20.51 10.25, 41.02 20.49, 57.09 28.51 M57.09 28.51 C57.09 41.61, 57.09 54.7, 57.09 85.54 M57.09 85.54 C41 93.58, 24.92 101.61, 0 114.06 M0 114.06 C-19.86 104.14, -39.73 94.21, -57.09 85.54 M-57.09 85.54 C-57.09 71.52, -57.09 57.5, -57.09 28.51 M-57.09 28.51 C-38.66 19.31, -20.24 10.11, 0 0" stroke="#fff" stroke-width="4.5" fill="none" stroke-dasharray="8 12"></path></g></g><g stroke-linecap="round" transform="translate(58.653962010772375 851.8237155033603) rotate(0 718.707846455819 28.370046570624254)"><path d="M0 0 C529.93 0, 1059.86 0, 1437.42 0 M1437.42 0 C1437.42 12.47, 1437.42 24.94, 1437.42 56.74 M1437.42 56.74 C1034.05 56.74, 630.67 56.74, 0 56.74 M0 56.74 C0 41.87, 0 27, 0 0" stroke="#ffffff" stroke-width="2.5" fill="none" stroke-dasharray="8 10"></path></g><g transform="translate(70.63242611834721 865.6409789257214) rotate(0 151.77974915284085 15.60352561384343)"><text x="0" y="24.207051227686925" font-family="Helvetica, Segoe UI Emoji" font-size="26.701220301764216px" fill="#ffffff" text-anchor="start" style="white-space: pre;" direction="ltr">Asistente Virtual (Cripbot)</text></g><g stroke-linecap="round" transform="translate(58.52261920255114 926.1900135046926) rotate(0 718.707846455819 28.370046570624254)"><path d="M0 0 C370.48 0, 740.96 0, 1437.42 0 M1437.42 0 C1437.42 14.84, 1437.42 29.67, 1437.42 56.74 M1437.42 56.74 C1096.21 56.74, 755.01 56.74, 0 56.74 M0 56.74 C0 41.07, 0 25.39, 0 0" stroke="#ffffff" stroke-width="2.5" fill="none" stroke-dasharray="8 10"></path></g><g transform="translate(70.50108331015508 940.00727692705) rotate(0 157.92659257647665 15.60352561384343)"><text x="0" y="24.207051227686925" font-family="Helvetica, Segoe UI Emoji" font-size="26.701220301764213px" fill="#ffffff" text-anchor="start" style="white-space: pre;" direction="ltr">Ludificación (Conacytopía)</text></g><g stroke-linecap="round" transform="translate(57.38556574873655 1005.281241099623) rotate(0 718.707846455819 28.370046570624254)"><path d="M0 0 C401.34 0, 802.68 0, 1437.42 0 M1437.42 0 C1437.42 14.04, 1437.42 28.08, 1437.42 56.74 M1437.42 56.74 C910.75 56.74, 384.08 56.74, 0 56.74 M0 56.74 C0 38.03, 0 19.31, 0 0" stroke="#ffffff" stroke-width="2.5" fill="none" stroke-dasharray="8 10"></path></g><g transform="translate(70.94014355470426 1016.5767226045882) rotate(0 122.93686847270601 15.60352561384343)"><text x="0" y="24.207051227686925" font-family="Helvetica, Segoe UI Emoji" font-size="26.701220301764184px" fill="#ffffff" text-anchor="start" style="white-space: pre;" direction="ltr">Buscador Semántico</text></g><g transform="translate(1030.3386034511332 1617.1008685534307) rotate(0 29.88799551234115 10.868362004487608)"><text x="29.887995512341238" y="17.736724008975443" font-family="Helvetica, Segoe UI Emoji" font-size="18.61370539438352px" fill="#fff" text-anchor="middle" style="white-space: pre;" direction="ltr">Cripbot</text></g><g stroke-linecap="round" transform="translate(451.3700968880348 1981.4691636991683) rotate(0 408.0575916230373 24.700822737471753)"><path d="M0 0 C276.63 0, 553.25 0, 816.12 0 M0 0 C229.94 0, 459.88 0, 816.12 0 M816.12 0 C816.12 18.32, 816.12 36.64, 816.12 49.4 M816.12 0 C816.12 18.93, 816.12 37.85, 816.12 49.4 M816.12 49.4 C572.33 49.4, 328.54 49.4, 0 49.4 M816.12 49.4 C519.95 49.4, 223.79 49.4, 0 49.4 M0 49.4 C0 36.21, 0 23.02, 0 0 M0 49.4 C0 31.04, 0 12.67, 0 0" stroke="#ffffff" stroke-width="4" fill="none"></path></g><g transform="translate(478.3763297476744 1991.2906813114514) rotate(0 85.4648466716535 16.302543006731412)"><text x="0" y="25.605086013463" font-family="Helvetica, Segoe UI Emoji" font-size="27.897399797615407px" fill="#ffffff" text-anchor="start" style="white-space: pre;" direction="ltr">Portal SALSA</text></g><g stroke-linecap="round" transform="translate(138.34428678127733 1266.7068634957232) rotate(0 30.640515500256697 382.15793370678875)"><path d="M0 0 C15.83 0, 31.66 0, 61.28 0 M61.28 0 C61.28 178.07, 61.28 356.13, 61.28 764.32 M61.28 764.32 C48.72 764.32, 36.16 764.32, 0 764.32 M0 764.32 C0 560.45, 0 356.59, 0 0" stroke="#ffffff" stroke-width="4.5" fill="none" stroke-dasharray="8 12"></path></g><g transform="translate(-88.09491702004743 1741.9843287750537) rotate(270.2613886201089 255.90052356020988 18.278608825729407)"><text x="0" y="28.557217651458515" font-family="Helvetica, Segoe UI Emoji" font-size="31.11712129235383px" fill="#ffffff" text-anchor="start" style="white-space: pre;" direction="ltr">Administración de la Mejora contínua</text></g><g stroke-linecap="round" transform="translate(59.81257339208969 1268.043699725842) rotate(0 30.640515500256697 382.15793370678875)"><path d="M0 0 C13.47 0, 26.94 0, 61.28 0 M61.28 0 C61.28 214.48, 61.28 428.97, 61.28 764.32 M61.28 764.32 C45.22 764.32, 29.16 764.32, 0 764.32 M0 764.32 C0 470.08, 0 175.85, 0 0" stroke="#ffffff" stroke-width="4.5" fill="none" stroke-dasharray="8 12"></path></g><g transform="translate(-130.730200885042 1780.3697649444057) rotate(270.2613886201089 219.34330590875106 17.78459237097968)"><text x="0" y="27.56918474195964" font-family="Helvetica, Segoe UI Emoji" font-size="31.117121292353833px" fill="#ffffff" text-anchor="start" style="white-space: pre;" direction="ltr">Administracion de la Innovación</text></g><g transform="translate(134.0505975664928 746.9228962202196) rotate(0 48.343155757646855 22.52884928511685)"><text x="48.34315575764669" y="17.528849285116898" font-family="Helvetica, Segoe UI Emoji" font-size="19.72974592823039px" fill="#fff" text-anchor="middle" style="white-space: pre;" direction="ltr">Portal </text><text x="48.34315575764669" y="40.057698570233796" font-family="Helvetica, Segoe UI Emoji" font-size="19.72974592823039px" fill="#fff" text-anchor="middle" style="white-space: pre;" direction="ltr">CONACYT</text></g><g stroke-linecap="round"><g transform="translate(181.11860628600698 713.8379804861561) rotate(0 0 57.029938717606456)"><path d="M0 0 C15.07 7.53, 30.15 15.06, 57.09 28.51 M0 0 C16 7.99, 32 15.99, 57.09 28.51 M57.09 28.51 C57.09 49.73, 57.09 70.94, 57.09 85.54 M57.09 28.51 C57.09 45.04, 57.09 61.56, 57.09 85.54 M57.09 85.54 C42.94 92.61, 28.8 99.67, 0 114.06 M57.09 85.54 C39.47 94.34, 21.85 103.14, 0 114.06 M0 114.06 C-14.73 106.7, -29.46 99.35, -57.09 85.54 M0 114.06 C-13.7 107.22, -27.4 100.37, -57.09 85.54 M-57.09 85.54 C-57.09 69.18, -57.09 52.82, -57.09 28.51 M-57.09 85.54 C-57.09 68.84, -57.09 52.13, -57.09 28.51 M-57.09 28.51 C-44.84 22.4, -32.6 16.29, 0 0 M-57.09 28.51 C-42.59 21.27, -28.09 14.03, 0 0" stroke="#fff" stroke-width="4" fill="none"></path></g></g><g transform="translate(1204.133827747295 749.9723392579745) rotate(0 33.32392290090138 22.52884928511685)"><text x="33.32392290090209" y="17.528849285116898" font-family="Helvetica, Segoe UI Emoji" font-size="19.72974592823039px" fill="#fff" text-anchor="middle" style="white-space: pre;" direction="ltr">Rizoma</text><text x="33.32392290090209" y="40.057698570233796" font-family="Helvetica, Segoe UI Emoji" font-size="19.72974592823039px" fill="#fff" text-anchor="middle" style="white-space: pre;" direction="ltr">Mobile</text></g><g stroke-linecap="round"><g transform="translate(1233.8278739524012 714.5957849972019) rotate(0 0 57.029938717606456)"><path d="M0 0 C21.71 10.85, 43.43 21.69, 57.09 28.51 M57.09 28.51 C57.09 40.36, 57.09 52.2, 57.09 85.54 M57.09 85.54 C38.83 94.66, 20.58 103.78, 0 114.06 M0 114.06 C-14.8 106.66, -29.61 99.27, -57.09 85.54 M-57.09 85.54 C-57.09 63.29, -57.09 41.04, -57.09 28.51 M-57.09 28.51 C-38.68 19.32, -20.27 10.12, 0 0" stroke="#fff" stroke-width="4.5" fill="none" stroke-dasharray="8 12"></path></g></g><g transform="translate(1471.2181069087364 792.880271090904) rotate(269.8977346988359 61.48498450729858 28.161061606396288)"><text x="61.48498450729821" y="44.32212321279225" font-family="Helvetica, Segoe UI Emoji" font-size="49.16758044415873px" fill="#ffffff" text-anchor="middle" style="white-space: pre;" direction="ltr">Salsa</text></g><g transform="translate(588.58649454019 657.3593949948972) rotate(0 51.69386225810376 10.005263662858852)"><text x="51.69386225810303" y="16.010527325717312" font-family="Helvetica, Segoe UI Emoji" font-size="17.46861012856446px" fill="#fff" text-anchor="middle" style="white-space: pre;" direction="ltr">Convocatoria</text></g><g stroke-linecap="round"><g transform="translate(642.0213145773723 609.6420525424928) rotate(0 0 57.029938717606456)"><path d="M0 0 C19.01 9.49, 38.01 18.99, 57.09 28.51 M0 0 C14.42 7.2, 28.84 14.41, 57.09 28.51 M57.09 28.51 C57.09 46.61, 57.09 64.7, 57.09 85.54 M57.09 28.51 C57.09 43.53, 57.09 58.54, 57.09 85.54 M57.09 85.54 C36.56 95.8, 16.04 106.05, 0 114.06 M57.09 85.54 C44.15 92.01, 31.21 98.47, 0 114.06 M0 114.06 C-14.55 106.79, -29.1 99.52, -57.09 85.54 M0 114.06 C-18.33 104.91, -36.65 95.75, -57.09 85.54 M-57.09 85.54 C-57.09 70.87, -57.09 56.19, -57.09 28.51 M-57.09 85.54 C-57.09 67.45, -57.09 49.35, -57.09 28.51 M-57.09 28.51 C-42.73 21.34, -28.37 14.17, 0 0 M-57.09 28.51 C-42.4 21.18, -27.71 13.84, 0 0" stroke="#fff" stroke-width="4" fill="none"></path></g></g><g transform="translate(342.6910977477819 644.0009006014243) rotate(0 36.14002906154201 11.264424642558424)"><text x="36.14002906154169" y="18.528849285116898" font-family="Helvetica, Segoe UI Emoji" font-size="19.667032177663398px" fill="#fff" text-anchor="middle" style="white-space: pre;" direction="ltr">Registro</text></g><g stroke-linecap="round"><g transform="translate(379.18473958433606 607.3176542782203) rotate(0 0 57.029938717606456)"><path d="M0 0 C16.08 8.03, 32.17 16.07, 57.09 28.51 M0 0 C19.86 9.92, 39.73 19.85, 57.09 28.51 M57.09 28.51 C57.09 42.54, 57.09 56.56, 57.09 85.54 M57.09 28.51 C57.09 46.92, 57.09 65.32, 57.09 85.54 M57.09 85.54 C43.77 92.2, 30.45 98.85, 0 114.06 M57.09 85.54 C37.19 95.48, 17.29 105.42, 0 114.06 M0 114.06 C-13.03 107.55, -26.05 101.05, -57.09 85.54 M0 114.06 C-21.08 103.53, -42.16 93, -57.09 85.54 M-57.09 85.54 C-57.09 63.34, -57.09 41.13, -57.09 28.51 M-57.09 85.54 C-57.09 65.26, -57.09 44.98, -57.09 28.51 M-57.09 28.51 C-38.7 19.33, -20.32 10.15, 0 0 M-57.09 28.51 C-40.89 20.42, -24.69 12.33, 0 0" stroke="#fff" stroke-width="4" fill="none"></path></g></g><g transform="translate(856.6947284550752 659.7688532754328) rotate(0 49.75120883796626 11.264424642558424)"><text x="49.75120883796649" y="18.528849285116898" font-family="Helvetica, Segoe UI Emoji" font-size="19.729745928230383px" fill="#fff" text-anchor="middle" style="white-space: pre;" direction="ltr">RENIECYT</text></g><g stroke-linecap="round"><g transform="translate(904.8578895703959 607.7646484354063) rotate(0 0 57.029938717606456)"><path d="M0 0 C17.39 8.68, 34.77 17.37, 57.09 28.51 M57.09 28.51 C57.09 49.08, 57.09 69.65, 57.09 85.54 M57.09 85.54 C43.69 92.23, 30.3 98.92, 0 114.06 M0 114.06 C-19.15 104.49, -38.31 94.92, -57.09 85.54 M-57.09 85.54 C-57.09 65.12, -57.09 44.69, -57.09 28.51 M-57.09 28.51 C-38.88 19.42, -20.67 10.32, 0 0" stroke="#fff" stroke-width="4.5" fill="none" stroke-dasharray="8 12"></path></g></g><g transform="translate(1267.3768768816863 649.4431306864117) rotate(0 33.32392290090138 11.264424642558424)"><text x="33.32392290090209" y="18.528849285116898" font-family="Helvetica, Segoe UI Emoji" font-size="19.72974592823039px" fill="#fff" text-anchor="middle" style="white-space: pre;" direction="ltr">SNI 2.0</text></g><g stroke-linecap="round"><g transform="translate(1299.1127520599457 605.887244328309) rotate(0 0 57.029938717606456)"><path d="M0 0 C16 7.99, 32 15.99, 57.09 28.51 M57.09 28.51 C57.09 49.73, 57.09 70.94, 57.09 85.54 M57.09 85.54 C40.55 93.81, 24.01 102.07, 0 114.06 M0 114.06 C-14.14 107, -28.29 99.93, -57.09 85.54 M-57.09 85.54 C-57.09 67.95, -57.09 50.35, -57.09 28.51 M-57.09 28.51 C-42.36 21.16, -27.63 13.8, 0 0" stroke="#fff" stroke-width="4.5" fill="none" stroke-dasharray="8 12"></path></g></g><g transform="translate(1119.061952421338 650.381832739964) rotate(0 50.2205598647397 11.264424642558424)"><text x="50.22055986473976" y="18.528849285116898" font-family="Helvetica, Segoe UI Emoji" font-size="19.729745928230386px" fill="#fff" text-anchor="middle" style="white-space: pre;" direction="ltr">BECAS 2.0</text></g><g stroke-linecap="round"><g transform="translate(1167.6944645634194 606.8259463818558) rotate(0 0 57.029938717606456)"><path d="M0 0 C11.86 5.92, 23.71 11.84, 57.09 28.51 M0 0 C18.25 9.12, 36.5 18.23, 57.09 28.51 M57.09 28.51 C57.09 43.31, 57.09 58.1, 57.09 85.54 M57.09 28.51 C57.09 50.77, 57.09 73.02, 57.09 85.54 M57.09 85.54 C38.68 94.74, 20.27 103.94, 0 114.06 M57.09 85.54 C40.03 94.07, 22.97 102.59, 0 114.06 M0 114.06 C-13.13 107.5, -26.27 100.94, -57.09 85.54 M0 114.06 C-17.39 105.37, -34.79 96.68, -57.09 85.54 M-57.09 85.54 C-57.09 66.35, -57.09 47.16, -57.09 28.51 M-57.09 85.54 C-57.09 62.9, -57.09 40.25, -57.09 28.51 M-57.09 28.51 C-40.57 20.27, -24.05 12.02, 0 0 M-57.09 28.51 C-35.76 17.86, -14.44 7.21, 0 0" stroke="#fff" stroke-width="4" fill="none"></path></g></g><g stroke-linecap="round"><g transform="translate(773.4396020738841 150.61674835824124) rotate(0 0 57.029938717606456)"><path d="M0 0 C20.88 10.43, 41.76 20.86, 57.09 28.51 M0 0 C18.18 9.08, 36.36 18.16, 57.09 28.51 M57.09 28.51 C57.09 40.59, 57.09 52.66, 57.09 85.54 M57.09 28.51 C57.09 49.07, 57.09 69.63, 57.09 85.54 M57.09 85.54 C36.43 95.86, 15.78 106.18, 0 114.06 M57.09 85.54 C44.96 91.6, 32.84 97.66, 0 114.06 M0 114.06 C-13.24 107.45, -26.47 100.84, -57.09 85.54 M0 114.06 C-21.13 103.5, -42.27 92.95, -57.09 85.54 M-57.09 85.54 C-57.09 68.66, -57.09 51.78, -57.09 28.51 M-57.09 85.54 C-57.09 71.56, -57.09 57.58, -57.09 28.51 M-57.09 28.51 C-41.97 20.96, -26.85 13.41, 0 0 M-57.09 28.51 C-37.94 18.95, -18.79 9.39, 0 0" stroke="#fff" stroke-width="4" fill="none"></path></g></g><g transform="translate(741.5472765533832 195.21563699806575) rotate(0 36.04442051905062 14.914932628572842)"><text x="36.044420519051414" y="22.829865257145997" font-family="Helvetica, Segoe UI Emoji" font-size="26.123645071638794px" fill="#fff" text-anchor="middle" style="white-space: pre;" direction="ltr">PNPC</text></g><g transform="translate(856.6947284550824 194.17263471634578) rotate(0 49.75120883796626 11.264424642558424)"><text x="49.75120883796649" y="18.528849285116898" font-family="Helvetica, Segoe UI Emoji" font-size="19.729745928230383px" fill="#fff" text-anchor="middle" style="white-space: pre;" direction="ltr">RENIECYT</text></g><g stroke-linecap="round"><g transform="translate(904.8578895703959 150.61674835824124) rotate(0 0 57.029938717606456)"><path d="M0 0 C11.7 5.85, 23.4 11.69, 57.09 28.51 M0 0 C15.23 7.61, 30.45 15.21, 57.09 28.51 M57.09 28.51 C57.09 41.98, 57.09 55.45, 57.09 85.54 M57.09 28.51 C57.09 41.04, 57.09 53.56, 57.09 85.54 M57.09 85.54 C39.72 94.22, 22.36 102.89, 0 114.06 M57.09 85.54 C40.58 93.79, 24.08 102.03, 0 114.06 M0 114.06 C-19.54 104.3, -39.08 94.54, -57.09 85.54 M0 114.06 C-22.46 102.84, -44.92 91.62, -57.09 85.54 M-57.09 85.54 C-57.09 66.38, -57.09 47.21, -57.09 28.51 M-57.09 85.54 C-57.09 65.59, -57.09 45.64, -57.09 28.51 M-57.09 28.51 C-40.18 20.07, -23.28 11.63, 0 0 M-57.09 28.51 C-36.96 18.46, -16.83 8.4, 0 0" stroke="#fff" stroke-width="4" fill="none"></path></g></g><g stroke-linecap="round"><g transform="translate(1036.2761770669076 150.61674835824124) rotate(0 0 57.029938717606456)"><path d="M0 0 C19.86 9.92, 39.73 19.85, 57.09 28.51 M0 0 C14.03 7.01, 28.07 14.02, 57.09 28.51 M57.09 28.51 C57.09 46.92, 57.09 65.32, 57.09 85.54 M57.09 28.51 C57.09 41.82, 57.09 55.12, 57.09 85.54 M57.09 85.54 C37.19 95.48, 17.29 105.42, 0 114.06 M57.09 85.54 C44.06 92.05, 31.03 98.56, 0 114.06 M0 114.06 C-21.08 103.53, -42.16 93, -57.09 85.54 M0 114.06 C-22.23 102.96, -44.46 91.85, -57.09 85.54 M-57.09 85.54 C-57.09 65.26, -57.09 44.98, -57.09 28.51 M-57.09 85.54 C-57.09 67.18, -57.09 48.82, -57.09 28.51 M-57.09 28.51 C-40.89 20.42, -24.69 12.33, 0 0 M-57.09 28.51 C-42.85 21.4, -28.62 14.29, 0 0" stroke="#ffff" stroke-width="4" fill="none"></path></g></g><g transform="translate(1010.6418652367265 194.17263471634578) rotate(0 27.22235955285032 11.264424642558424)"><text x="27.222359552849582" y="18.528849285116898" font-family="Helvetica, Segoe UI Emoji" font-size="19.729745928230383px" fill="#ffff" text-anchor="middle" style="white-space: pre;" direction="ltr">RCEA</text></g><g transform="translate(1135.95858938516 194.17263471634578) rotate(0 33.32392290090138 11.264424642558424)"><text x="33.32392290090209" y="18.528849285116898" font-family="Helvetica, Segoe UI Emoji" font-size="19.72974592823039px" fill="#fff" text-anchor="middle" style="white-space: pre;" direction="ltr">BECAS</text></g><g stroke-linecap="round"><g transform="translate(1167.6944645634194 150.61674835824124) rotate(0 0 57.029938717606456)"><path d="M0 0 C15.77 7.88, 31.54 15.75, 57.09 28.51 M0 0 C19.78 9.88, 39.56 19.76, 57.09 28.51 M57.09 28.51 C57.09 50.01, 57.09 71.5, 57.09 85.54 M57.09 28.51 C57.09 44.15, 57.09 59.78, 57.09 85.54 M57.09 85.54 C41.55 93.3, 26.01 101.07, 0 114.06 M57.09 85.54 C38.78 94.69, 20.48 103.83, 0 114.06 M0 114.06 C-21.86 103.14, -43.72 92.22, -57.09 85.54 M0 114.06 C-15.75 106.19, -31.5 98.32, -57.09 85.54 M-57.09 85.54 C-57.09 67.64, -57.09 49.73, -57.09 28.51 M-57.09 85.54 C-57.09 62.87, -57.09 40.19, -57.09 28.51 M-57.09 28.51 C-44.2 22.08, -31.31 15.64, 0 0 M-57.09 28.51 C-40.57 20.27, -24.06 12.02, 0 0" stroke="#fff" stroke-width="4" fill="none"></path></g></g><g transform="translate(1135.95858938516 344.36496328380053) rotate(0 33.32392290090138 11.264424642558424)"><text x="33.32392290090209" y="18.528849285116898" font-family="Helvetica, Segoe UI Emoji" font-size="19.72974592823039px" fill="#fff" text-anchor="middle" style="white-space: pre;" direction="ltr">BECAS</text></g><g stroke-linecap="round"><g transform="translate(1167.6944645634194 300.80907692568326) rotate(0 0 57.029938717606456)"><path d="M0 0 C18.83 9.4, 37.65 18.81, 57.09 28.51 M0 0 C19.33 9.66, 38.67 19.31, 57.09 28.51 M57.09 28.51 C57.09 45.17, 57.09 61.83, 57.09 85.54 M57.09 28.51 C57.09 46.01, 57.09 63.5, 57.09 85.54 M57.09 85.54 C34.73 96.71, 12.37 107.88, 0 114.06 M57.09 85.54 C44.11 92.02, 31.14 98.5, 0 114.06 M0 114.06 C-12.19 107.97, -24.37 101.88, -57.09 85.54 M0 114.06 C-16.02 106.06, -32.03 98.06, -57.09 85.54 M-57.09 85.54 C-57.09 71.74, -57.09 57.93, -57.09 28.51 M-57.09 85.54 C-57.09 65.63, -57.09 45.71, -57.09 28.51 M-57.09 28.51 C-38.05 19, -19.01 9.49, 0 0 M-57.09 28.51 C-34.48 17.22, -11.87 5.93, 0 0" stroke="#fff" stroke-width="4" fill="none"></path></g></g><g transform="translate(1284.2735138455373 194.17263471634578) rotate(0 16.42728593706488 11.264424642558424)"><text x="16.4272859370644" y="18.528849285116898" font-family="Helvetica, Segoe UI Emoji" font-size="19.72974592823038px" fill="#fff" text-anchor="middle" style="white-space: pre;" direction="ltr">SNI</text></g><g stroke-linecap="round"><g transform="translate(1299.1127520599457 150.61674835824124) rotate(0 0 57.029938717606456)"><path d="M0 0 C18.18 9.08, 36.36 18.16, 57.09 28.51 M0 0 C12.08 6.04, 24.17 12.07, 57.09 28.51 M57.09 28.51 C57.09 49.07, 57.09 69.63, 57.09 85.54 M57.09 28.51 C57.09 49.15, 57.09 69.78, 57.09 85.54 M57.09 85.54 C44.96 91.6, 32.84 97.66, 0 114.06 M57.09 85.54 C43.85 92.16, 30.61 98.77, 0 114.06 M0 114.06 C-21.13 103.5, -42.27 92.95, -57.09 85.54 M0 114.06 C-16.9 105.62, -33.8 97.18, -57.09 85.54 M-57.09 85.54 C-57.09 71.56, -57.09 57.58, -57.09 28.51 M-57.09 85.54 C-57.09 70.44, -57.09 55.34, -57.09 28.51 M-57.09 28.51 C-37.94 18.95, -18.79 9.39, 0 0 M-57.09 28.51 C-36.34 18.15, -15.6 7.79, 0 0" stroke="#fff" stroke-width="4" fill="none"></path></g></g><g stroke-linecap="round"><g transform="translate(510.603027080846 150.61674835824124) rotate(0 0 57.029938717606456)"><path d="M0 0 C21.87 10.92, 43.74 21.85, 57.09 28.51 M0 0 C17.05 8.52, 34.1 17.04, 57.09 28.51 M57.09 28.51 C57.09 49.21, 57.09 69.91, 57.09 85.54 M57.09 28.51 C57.09 43.74, 57.09 58.97, 57.09 85.54 M57.09 85.54 C35.86 96.15, 14.64 106.75, 0 114.06 M57.09 85.54 C40.79 93.68, 24.5 101.82, 0 114.06 M0 114.06 C-14.09 107.02, -28.18 99.98, -57.09 85.54 M0 114.06 C-11.44 108.34, -22.89 102.63, -57.09 85.54 M-57.09 85.54 C-57.09 63.31, -57.09 41.08, -57.09 28.51 M-57.09 85.54 C-57.09 64.57, -57.09 43.6, -57.09 28.51 M-57.09 28.51 C-37.39 18.68, -17.7 8.84, 0 0 M-57.09 28.51 C-44.32 22.14, -31.56 15.77, 0 0" stroke="#ffff" stroke-width="4" fill="none"></path></g></g><g transform="translate(483.7648985152173 193.37984190869065) rotate(0 26.387957727474713 14.393431487713315)"><text x="26.387957727474596" y="21.786862975426835" font-family="Helvetica, Segoe UI Emoji" font-size="25.130096671458514px" fill="#ffff" text-anchor="middle" style="white-space: pre;" direction="ltr">CVU</text></g><g stroke-linecap="round"><g transform="translate(116.34816459129433 451.00140549313255) rotate(0 0 57.029938717606456)"><path d="M0 0 C15.23 7.61, 30.45 15.21, 57.09 28.51 M0 0 C13.48 6.73, 26.96 13.47, 57.09 28.51 M57.09 28.51 C57.09 41.04, 57.09 53.56, 57.09 85.54 M57.09 28.51 C57.09 45.86, 57.09 63.21, 57.09 85.54 M57.09 85.54 C40.58 93.79, 24.08 102.03, 0 114.06 M57.09 85.54 C37.55 95.3, 18.01 105.06, 0 114.06 M0 114.06 C-22.46 102.84, -44.92 91.62, -57.09 85.54 M0 114.06 C-19.19 104.48, -38.38 94.89, -57.09 85.54 M-57.09 85.54 C-57.09 65.59, -57.09 45.64, -57.09 28.51 M-57.09 85.54 C-57.09 68.66, -57.09 51.77, -57.09 28.51 M-57.09 28.51 C-36.96 18.46, -16.83 8.4, 0 0 M-57.09 28.51 C-38.31 19.14, -19.53 9.76, 0 0" stroke="#ffff" stroke-width="4" fill="none"></path></g></g><g transform="translate(86.32887906643373 493.7644990435929) rotate(0 29.569114686715693 14.549881829971127)"><text x="29.56911468671594" y="22.09976365994266" font-family="Helvetica, Segoe UI Emoji" font-size="25.130096671458514px" fill="#ffff" text-anchor="middle" style="white-space: pre;" direction="ltr">SACI</text></g><g stroke-linecap="round"><g transform="translate(116.34816459131252 606.8259463818558) rotate(0 0 57.029938717606456)"><path d="M0 0 C21.98 10.98, 43.95 21.95, 57.09 28.51 M57.09 28.51 C57.09 42.12, 57.09 55.72, 57.09 85.54 M57.09 85.54 C36.99 95.58, 16.9 105.62, 0 114.06 M0 114.06 C-14.64 106.75, -29.27 99.44, -57.09 85.54 M-57.09 85.54 C-57.09 66.77, -57.09 48, -57.09 28.51 M-57.09 28.51 C-44.57 22.26, -32.05 16.01, 0 0" stroke="#ffff" stroke-width="4.5" fill="none" stroke-dasharray="8 12"></path></g></g><g transform="translate(86.32887906643009 649.5890399323125) rotate(0 29.569114686715693 14.549881829971127)"><text x="29.56911468671594" y="22.09976365994266" font-family="Helvetica, Segoe UI Emoji" font-size="25.130096671458514px" fill="#ffff" text-anchor="middle" style="white-space: pre;" direction="ltr">SACI</text></g><g transform="translate(601.4153698624559 343.2547349990964) rotate(0 42.70267596093254 14.234225320310543)"><text x="42.702675960932005" y="21.468450640621345" font-family="Helvetica, Segoe UI Emoji" font-size="25.384677620222323px" fill="#fff" text-anchor="middle" style="white-space: pre;" direction="ltr">Fondos</text></g><g stroke-linecap="round"><g transform="translate(642.0213145773723 300.80907692568326) rotate(0 0 57.029938717606456)"><path d="M0 0 C16.54 8.26, 33.08 16.52, 57.09 28.51 M0 0 C14.14 7.06, 28.29 14.13, 57.09 28.51 M57.09 28.51 C57.09 46.11, 57.09 63.71, 57.09 85.54 M57.09 28.51 C57.09 43.23, 57.09 57.94, 57.09 85.54 M57.09 85.54 C43.38 92.39, 29.68 99.23, 0 114.06 M57.09 85.54 C40.71 93.73, 24.33 101.91, 0 114.06 M0 114.06 C-16.72 105.71, -33.45 97.35, -57.09 85.54 M0 114.06 C-12.24 107.95, -24.48 101.83, -57.09 85.54 M-57.09 85.54 C-57.09 71.06, -57.09 56.58, -57.09 28.51 M-57.09 85.54 C-57.09 68.75, -57.09 51.96, -57.09 28.51 M-57.09 28.51 C-42.29 21.12, -27.5 13.73, 0 0 M-57.09 28.51 C-43.79 21.87, -30.49 15.23, 0 0" stroke="#fff" stroke-width="4" fill="none"></path></g></g><g transform="translate(601.9595117521512 193.06240643165438) rotate(0 42.70267596093254 14.234225320310543)"><text x="42.702675960932005" y="21.468450640621345" font-family="Helvetica, Segoe UI Emoji" font-size="25.384677620222323px" fill="#fff" text-anchor="middle" style="white-space: pre;" direction="ltr">Fondos</text></g><g stroke-linecap="round"><g transform="translate(642.0213145773723 150.61674835824124) rotate(0 0 57.029938717606456)"><path d="M0 0 C14.8 7.4, 29.61 14.79, 57.09 28.51 M0 0 C22.27 11.13, 44.55 22.25, 57.09 28.51 M57.09 28.51 C57.09 46.91, 57.09 65.3, 57.09 85.54 M57.09 28.51 C57.09 45.56, 57.09 62.6, 57.09 85.54 M57.09 85.54 C43.95 92.11, 30.82 98.67, 0 114.06 M57.09 85.54 C39.69 94.23, 22.3 102.92, 0 114.06 M0 114.06 C-19.21 104.46, -38.42 94.87, -57.09 85.54 M0 114.06 C-22.67 102.74, -45.33 91.41, -57.09 85.54 M-57.09 85.54 C-57.09 69.05, -57.09 52.55, -57.09 28.51 M-57.09 85.54 C-57.09 64.24, -57.09 42.94, -57.09 28.51 M-57.09 28.51 C-39.89 19.92, -22.69 11.33, 0 0 M-57.09 28.51 C-44.64 22.3, -32.19 16.08, 0 0" stroke="#fff" stroke-width="4" fill="none"></path></g></g><g stroke-linecap="round"><g transform="translate(51.33517081277387 277.2181044413428) rotate(0 717.3774602169005 2.4084657067096487)"><path d="M0 0 C303.74 1.02, 607.47 2.04, 1434.75 4.82 M0 0 C517.22 1.74, 1034.44 3.47, 1434.75 4.82" stroke="#ffff" stroke-width="4" fill="none"></path></g></g><g stroke-linecap="round"><g transform="translate(51.33517081277387 437.2181044413428) rotate(0 717.3774602169005 -2.495370009569342)"><path d="M0 0 C428.58 -1.49, 857.17 -2.98, 1434.75 -4.99 M0 0 C520.67 -1.81, 1041.33 -3.62, 1434.75 -4.99" stroke="#ffff" stroke-width="4" fill="none"></path></g></g><g stroke-linecap="round"><g transform="translate(59.26296985584486 582.4196929896443) rotate(0 713.4135606953687 0)"><path d="M0 0 C375.61 0, 751.22 0, 1426.83 0 M0 0 C512.97 0, 1025.95 0, 1426.83 0" stroke="#ffff" stroke-width="4" fill="none"></path></g></g><g stroke-linecap="round"><g transform="translate(509.8399555581618 263.26099478382275) rotate(0 0 93.87020535465354)"><path d="M0 0 C0 44.34, 0 88.67, 0 187.74" stroke="#ffff" stroke-width="4.5" fill="none" stroke-dasharray="8 12"></path></g><g transform="translate(509.8399555581618 263.26099478382275) rotate(0 0 93.87020535465354)"><path d="M6.11 180.46 C7.67 181.77, 9 184.09, 9.36 186.09 C9.71 188.1, 9.24 190.73, 8.23 192.49 C7.21 194.25, 5.16 195.97, 3.25 196.67 C1.34 197.36, -1.34 197.36, -3.25 196.67 C-5.16 195.97, -7.21 194.25, -8.23 192.49 C-9.24 190.73, -9.71 188.1, -9.36 186.09 C-9 184.09, -7.67 181.77, -6.11 180.46 C-4.55 179.15, -2.04 178.24, 0 178.24 C2.04 178.24, 4.55 179.15, 6.11 180.46" stroke="none" stroke-width="0" fill="#ffff"></path></g></g><g stroke-linecap="round"><g transform="translate(641.2582430546881 263.2609947838264) rotate(0 0 18.774041070930707)"><path d="M0 0 C0 12.12, 0 24.23, 0 37.55" stroke="#ffff" stroke-width="4.5" fill="none" stroke-dasharray="8 12"></path></g><g transform="translate(641.2582430546881 263.2609947838264) rotate(0 0 18.774041070930707)"><path d="M6.11 30.27 C7.67 31.58, 9 33.89, 9.36 35.9 C9.71 37.9, 9.24 40.54, 8.23 42.3 C7.21 44.06, 5.16 45.78, 3.25 46.48 C1.34 47.17, -1.34 47.17, -3.25 46.48 C-5.16 45.78, -7.21 44.06, -8.23 42.3 C-9.24 40.54, -9.71 37.9, -9.36 35.9 C-9 33.89, -7.67 31.58, -6.11 30.27 C-4.55 28.96, -2.04 28.05, 0 28.05 C2.04 28.05, 4.55 28.96, 6.11 30.27" stroke="none" stroke-width="0" fill="#ffff"></path></g></g><g stroke-linecap="round"><g transform="translate(772.6765305511926 263.2609947838264) rotate(0 0 18.774041070930707)"><path d="M0 0 C0 8.96, 0 17.91, 0 37.55" stroke="#ffff" stroke-width="4.5" fill="none" stroke-dasharray="8 12"></path></g><g transform="translate(772.6765305511926 263.2609947838264) rotate(0 0 18.774041070930707)"><path d="M6.11 30.27 C7.67 31.58, 9 33.89, 9.36 35.9 C9.71 37.9, 9.24 40.54, 8.23 42.3 C7.21 44.06, 5.16 45.78, 3.25 46.48 C1.34 47.17, -1.34 47.17, -3.25 46.48 C-5.16 45.78, -7.21 44.06, -8.23 42.3 C-9.24 40.54, -9.71 37.9, -9.36 35.9 C-9 33.89, -7.67 31.58, -6.11 30.27 C-4.55 28.96, -2.04 28.05, 0 28.05 C2.04 28.05, 4.55 28.96, 6.11 30.27" stroke="none" stroke-width="0" fill="#ffff"></path></g></g><g stroke-linecap="round"><g transform="translate(641.2582430546881 413.4533233512684) rotate(0 0 18.774041070930707)"><path d="M0 0 C0 12.6, 0 25.2, 0 37.55" stroke="#ffff" stroke-width="4.5" fill="none" stroke-dasharray="8 12"></path></g><g transform="translate(641.2582430546881 413.4533233512684) rotate(0 0 18.774041070930707)"><path d="M6.11 30.27 C7.67 31.58, 9 33.89, 9.36 35.9 C9.71 37.9, 9.24 40.54, 8.23 42.3 C7.21 44.06, 5.16 45.78, 3.25 46.48 C1.34 47.17, -1.34 47.17, -3.25 46.48 C-5.16 45.78, -7.21 44.06, -8.23 42.3 C-9.24 40.54, -9.71 37.9, -9.36 35.9 C-9 33.89, -7.67 31.58, -6.11 30.27 C-4.55 28.96, -2.04 28.05, 0 28.05 C2.04 28.05, 4.55 28.96, 6.11 30.27" stroke="none" stroke-width="0" fill="#ffff"></path></g></g><g stroke-linecap="round"><g transform="translate(904.094818047719 263.26099478382275) rotate(0 0 93.87020535465354)"><path d="M0 0 C0 70.75, 0 141.5, 0 187.74" stroke="#ffff" stroke-width="4.5" fill="none" stroke-dasharray="8 12"></path></g><g transform="translate(904.094818047719 263.26099478382275) rotate(0 0 93.87020535465354)"><path d="M6.11 180.46 C7.67 181.77, 9 184.09, 9.36 186.09 C9.71 188.1, 9.24 190.73, 8.23 192.49 C7.21 194.25, 5.16 195.97, 3.25 196.67 C1.34 197.36, -1.34 197.36, -3.25 196.67 C-5.16 195.97, -7.21 194.25, -8.23 192.49 C-9.24 190.73, -9.71 188.1, -9.36 186.09 C-9 184.09, -7.67 181.77, -6.11 180.46 C-4.55 179.15, -2.04 178.24, 0 178.24 C2.04 178.24, 4.55 179.15, 6.11 180.46" stroke="none" stroke-width="0" fill="#ffff"></path></g></g><g stroke-linecap="round"><g transform="translate(772.6765305511926 413.45332335127387) rotate(0 0 93.87020535465354)"><path d="M0 0 C0 46.51, 0 93.02, 0 187.74" stroke="#ffff" stroke-width="4.5" fill="none" stroke-dasharray="8 12"></path></g><g transform="translate(772.6765305511926 413.45332335127387) rotate(0 0 93.87020535465354)"><path d="M6.11 180.46 C7.67 181.77, 9 184.09, 9.36 186.09 C9.71 188.1, 9.24 190.73, 8.23 192.49 C7.21 194.25, 5.16 195.97, 3.25 196.67 C1.34 197.36, -1.34 197.36, -3.25 196.67 C-5.16 195.97, -7.21 194.25, -8.23 192.49 C-9.24 190.73, -9.71 188.1, -9.36 186.09 C-9 184.09, -7.67 181.77, -6.11 180.46 C-4.55 179.15, -2.04 178.24, 0 178.24 C2.04 178.24, 4.55 179.15, 6.11 180.46" stroke="none" stroke-width="0" fill="#ffff"></path></g></g><g stroke-linecap="round"><g transform="translate(1035.513105544238 263.26099478382275) rotate(0 0 93.87020535465354)"><path d="M0 0 C0 54.83, 0 109.67, 0 187.74" stroke="#ffff" stroke-width="4.5" fill="none" stroke-dasharray="8 12"></path></g><g transform="translate(1035.513105544238 263.26099478382275) rotate(0 0 93.87020535465354)"><path d="M6.11 180.46 C7.67 181.77, 9 184.09, 9.36 186.09 C9.71 188.1, 9.24 190.73, 8.23 192.49 C7.21 194.25, 5.16 195.97, 3.25 196.67 C1.34 197.36, -1.34 197.36, -3.25 196.67 C-5.16 195.97, -7.21 194.25, -8.23 192.49 C-9.24 190.73, -9.71 188.1, -9.36 186.09 C-9 184.09, -7.67 181.77, -6.11 180.46 C-4.55 179.15, -2.04 178.24, 0 178.24 C2.04 178.24, 4.55 179.15, 6.11 180.46" stroke="none" stroke-width="0" fill="#ffff"></path></g></g><g stroke-linecap="round"><g transform="translate(1166.9313930407425 263.2609947838264) rotate(0 0 18.774041070930707)"><path d="M0 0 C0 14.65, 0 29.3, 0 37.55" stroke="#ffff" stroke-width="4.5" fill="none" stroke-dasharray="8 12"></path></g><g transform="translate(1166.9313930407425 263.2609947838264) rotate(0 0 18.774041070930707)"><path d="M6.11 30.27 C7.67 31.58, 9 33.89, 9.36 35.9 C9.71 37.9, 9.24 40.54, 8.23 42.3 C7.21 44.06, 5.16 45.78, 3.25 46.48 C1.34 47.17, -1.34 47.17, -3.25 46.48 C-5.16 45.78, -7.21 44.06, -8.23 42.3 C-9.24 40.54, -9.71 37.9, -9.36 35.9 C-9 33.89, -7.67 31.58, -6.11 30.27 C-4.55 28.96, -2.04 28.05, 0 28.05 C2.04 28.05, 4.55 28.96, 6.11 30.27" stroke="none" stroke-width="0" fill="#ffff"></path></g></g><g stroke-linecap="round"><g transform="translate(1166.9313930407425 413.4533233512684) rotate(0 0 18.774041070930707)"><path d="M0 0 C0 13.54, 0 27.07, 0 37.55" stroke="#ffff" stroke-width="4.5" fill="none" stroke-dasharray="8 12"></path></g><g transform="translate(1166.9313930407425 413.4533233512684) rotate(0 0 18.774041070930707)"><path d="M6.11 30.27 C7.67 31.58, 9 33.89, 9.36 35.9 C9.71 37.9, 9.24 40.54, 8.23 42.3 C7.21 44.06, 5.16 45.78, 3.25 46.48 C1.34 47.17, -1.34 47.17, -3.25 46.48 C-5.16 45.78, -7.21 44.06, -8.23 42.3 C-9.24 40.54, -9.71 37.9, -9.36 35.9 C-9 33.89, -7.67 31.58, -6.11 30.27 C-4.55 28.96, -2.04 28.05, 0 28.05 C2.04 28.05, 4.55 28.96, 6.11 30.27" stroke="none" stroke-width="0" fill="#ffff"></path></g></g><g stroke-linecap="round"><g transform="translate(1298.3496805372542 263.26099478382275) rotate(0 0 93.87020535465354)"><path d="M0 0 C0 68.13, 0 136.26, 0 187.74" stroke="#ffff" stroke-width="4.5" fill="none" stroke-dasharray="8 12"></path></g><g transform="translate(1298.3496805372542 263.26099478382275) rotate(0 0 93.87020535465354)"><path d="M6.11 180.46 C7.67 181.77, 9 184.09, 9.36 186.09 C9.71 188.1, 9.24 190.73, 8.23 192.49 C7.21 194.25, 5.16 195.97, 3.25 196.67 C1.34 197.36, -1.34 197.36, -3.25 196.67 C-5.16 195.97, -7.21 194.25, -8.23 192.49 C-9.24 190.73, -9.71 188.1, -9.36 186.09 C-9 184.09, -7.67 181.77, -6.11 180.46 C-4.55 179.15, -2.04 178.24, 0 178.24 C2.04 178.24, 4.55 179.15, 6.11 180.46" stroke="none" stroke-width="0" fill="#ffff"></path></g></g><g stroke-linecap="round"><g transform="translate(1298.3496805372542 563.6456519187195) rotate(0 0 18.774041070930707)"><path d="M0 0 C0 13.5, 0 27, 0 37.55" stroke="#ffff" stroke-width="4.5" fill="none" stroke-dasharray="8 12"></path></g><g transform="translate(1298.3496805372542 563.6456519187195) rotate(0 0 18.774041070930707)"><path d="M6.11 30.27 C7.67 31.58, 9 33.89, 9.36 35.9 C9.71 37.9, 9.24 40.54, 8.23 42.3 C7.21 44.06, 5.16 45.78, 3.25 46.48 C1.34 47.17, -1.34 47.17, -3.25 46.48 C-5.16 45.78, -7.21 44.06, -8.23 42.3 C-9.24 40.54, -9.71 37.9, -9.36 35.9 C-9 33.89, -7.67 31.58, -6.11 30.27 C-4.55 28.96, -2.04 28.05, 0 28.05 C2.04 28.05, 4.55 28.96, 6.11 30.27" stroke="none" stroke-width="0" fill="#ffff"></path></g></g><g stroke-linecap="round"><g transform="translate(1166.9313930407425 563.6456519187195) rotate(0 0 18.774041070930707)"><path d="M0 0 C0 8.25, 0 16.49, 0 37.55" stroke="#ffff" stroke-width="4.5" fill="none" stroke-dasharray="8 12"></path></g><g transform="translate(1166.9313930407425 563.6456519187195) rotate(0 0 18.774041070930707)"><path d="M6.11 30.27 C7.67 31.58, 9 33.89, 9.36 35.9 C9.71 37.9, 9.24 40.54, 8.23 42.3 C7.21 44.06, 5.16 45.78, 3.25 46.48 C1.34 47.17, -1.34 47.17, -3.25 46.48 C-5.16 45.78, -7.21 44.06, -8.23 42.3 C-9.24 40.54, -9.71 37.9, -9.36 35.9 C-9 33.89, -7.67 31.58, -6.11 30.27 C-4.55 28.96, -2.04 28.05, 0 28.05 C2.04 28.05, 4.55 28.96, 6.11 30.27" stroke="none" stroke-width="0" fill="#ffff"></path></g></g><g stroke-linecap="round"><g transform="translate(1035.513105544238 563.6456519187195) rotate(0 0 18.774041070930707)"><path d="M0 0 C0 8.76, 0 17.52, 0 37.55" stroke="#ffff" stroke-width="4.5" fill="none" stroke-dasharray="8 12"></path></g><g transform="translate(1035.513105544238 563.6456519187195) rotate(0 0 18.774041070930707)"><path d="M6.11 30.27 C7.67 31.58, 9 33.89, 9.36 35.9 C9.71 37.9, 9.24 40.54, 8.23 42.3 C7.21 44.06, 5.16 45.78, 3.25 46.48 C1.34 47.17, -1.34 47.17, -3.25 46.48 C-5.16 45.78, -7.21 44.06, -8.23 42.3 C-9.24 40.54, -9.71 37.9, -9.36 35.9 C-9 33.89, -7.67 31.58, -6.11 30.27 C-4.55 28.96, -2.04 28.05, 0 28.05 C2.04 28.05, 4.55 28.96, 6.11 30.27" stroke="none" stroke-width="0" fill="#ffff"></path></g></g><g stroke-linecap="round"><g transform="translate(904.094818047719 563.6456519187195) rotate(0 0 18.774041070930707)"><path d="M0 0 C0 13.22, 0 26.43, 0 37.55" stroke="#ffff" stroke-width="4.5" fill="none" stroke-dasharray="8 12"></path></g><g transform="translate(904.094818047719 563.6456519187195) rotate(0 0 18.774041070930707)"><path d="M6.11 30.27 C7.67 31.58, 9 33.89, 9.36 35.9 C9.71 37.9, 9.24 40.54, 8.23 42.3 C7.21 44.06, 5.16 45.78, 3.25 46.48 C1.34 47.17, -1.34 47.17, -3.25 46.48 C-5.16 45.78, -7.21 44.06, -8.23 42.3 C-9.24 40.54, -9.71 37.9, -9.36 35.9 C-9 33.89, -7.67 31.58, -6.11 30.27 C-4.55 28.96, -2.04 28.05, 0 28.05 C2.04 28.05, 4.55 28.96, 6.11 30.27" stroke="none" stroke-width="0" fill="#ffff"></path></g></g><g stroke-linecap="round"><g transform="translate(641.2582430546881 563.6456519187195) rotate(0 0 18.774041070930707)"><path d="M0 0 C0 13.45, 0 26.9, 0 37.55" stroke="#ffff" stroke-width="4.5" fill="none" stroke-dasharray="8 12"></path></g><g transform="translate(641.2582430546881 563.6456519187195) rotate(0 0 18.774041070930707)"><path d="M6.11 30.27 C7.67 31.58, 9 33.89, 9.36 35.9 C9.71 37.9, 9.24 40.54, 8.23 42.3 C7.21 44.06, 5.16 45.78, 3.25 46.48 C1.34 47.17, -1.34 47.17, -3.25 46.48 C-5.16 45.78, -7.21 44.06, -8.23 42.3 C-9.24 40.54, -9.71 37.9, -9.36 35.9 C-9 33.89, -7.67 31.58, -6.11 30.27 C-4.55 28.96, -2.04 28.05, 0 28.05 C2.04 28.05, 4.55 28.96, 6.11 30.27" stroke="none" stroke-width="0" fill="#ffff"></path></g></g><g stroke-linecap="round"><g transform="translate(509.8399555581618 563.6456519187195) rotate(0 0 18.774041070930707)"><path d="M0 0 C0 10.29, 0 20.59, 0 37.55" stroke="#ffff" stroke-width="4.5" fill="none" stroke-dasharray="8 12"></path></g><g transform="translate(509.8399555581618 563.6456519187195) rotate(0 0 18.774041070930707)"><path d="M6.11 30.27 C7.67 31.58, 9 33.89, 9.36 35.9 C9.71 37.9, 9.24 40.54, 8.23 42.3 C7.21 44.06, 5.16 45.78, 3.25 46.48 C1.34 47.17, -1.34 47.17, -3.25 46.48 C-5.16 45.78, -7.21 44.06, -8.23 42.3 C-9.24 40.54, -9.71 37.9, -9.36 35.9 C-9 33.89, -7.67 31.58, -6.11 30.27 C-4.55 28.96, -2.04 28.05, 0 28.05 C2.04 28.05, 4.55 28.96, 6.11 30.27" stroke="none" stroke-width="0" fill="#ffff"></path></g></g><g stroke-linecap="round"><g transform="translate(247.0033805651401 563.6456519187195) rotate(0 0 18.774041070930707)"><path d="M0 0 C0 11.59, 0 23.17, 0 37.55" stroke="#ffff" stroke-width="4.5" fill="none" stroke-dasharray="8 12"></path></g><g transform="translate(247.0033805651401 563.6456519187195) rotate(0 0 18.774041070930707)"><path d="M6.11 30.27 C7.67 31.58, 9 33.89, 9.36 35.9 C9.71 37.9, 9.24 40.54, 8.23 42.3 C7.21 44.06, 5.16 45.78, 3.25 46.48 C1.34 47.17, -1.34 47.17, -3.25 46.48 C-5.16 45.78, -7.21 44.06, -8.23 42.3 C-9.24 40.54, -9.71 37.9, -9.36 35.9 C-9 33.89, -7.67 31.58, -6.11 30.27 C-4.55 28.96, -2.04 28.05, 0 28.05 C2.04 28.05, 4.55 28.96, 6.11 30.27" stroke="none" stroke-width="0" fill="#ffff"></path></g></g><g stroke-linecap="round"><g transform="translate(378.42166806165915 563.6456519187195) rotate(0 0 18.774041070930707)"><path d="M0 0 C0 11.52, 0 23.04, 0 37.55" stroke="#ffff" stroke-width="4.5" fill="none" stroke-dasharray="8 12"></path></g><g transform="translate(378.42166806165915 563.6456519187195) rotate(0 0 18.774041070930707)"><path d="M6.11 30.27 C7.67 31.58, 9 33.89, 9.36 35.9 C9.71 37.9, 9.24 40.54, 8.23 42.3 C7.21 44.06, 5.16 45.78, 3.25 46.48 C1.34 47.17, -1.34 47.17, -3.25 46.48 C-5.16 45.78, -7.21 44.06, -8.23 42.3 C-9.24 40.54, -9.71 37.9, -9.36 35.9 C-9 33.89, -7.67 31.58, -6.11 30.27 C-4.55 28.96, -2.04 28.05, 0 28.05 C2.04 28.05, 4.55 28.96, 6.11 30.27" stroke="none" stroke-width="0" fill="#ffff"></path></g></g><g stroke-linecap="round"><g transform="translate(116.6102884501015 565.0640970053119) rotate(0 0.32936411582159053 19.43278437989602)"><path d="M0 0 C0.21 12.53, 0.42 25.07, 0.66 38.87" stroke="#ffff" stroke-width="4.5" fill="none" stroke-dasharray="8 12"></path></g><g transform="translate(116.6102884501015 565.0640970053119) rotate(0 0.32936411582159053 19.43278437989602)"><path d="M6.77 31.59 C8.32 32.9, 9.66 35.21, 10.01 37.22 C10.37 39.22, 9.9 41.85, 8.89 43.62 C7.87 45.38, 5.82 47.1, 3.91 47.79 C2 48.49, -0.68 48.49, -2.59 47.79 C-4.5 47.1, -6.55 45.38, -7.57 43.62 C-8.59 41.85, -9.05 39.22, -8.7 37.22 C-8.34 35.21, -7.01 32.9, -5.45 31.59 C-3.89 30.28, -1.38 29.37, 0.66 29.37 C2.69 29.37, 5.21 30.28, 6.77 31.59" stroke="none" stroke-width="0" fill="#ffff"></path></g></g><g stroke-linecap="round"><g transform="translate(1432.4084436635585 606.8259463818558) rotate(0 0 57.029938717606456)"><path d="M0 0 C20.65 10.32, 41.31 20.63, 57.09 28.51 M57.09 28.51 C57.09 40.63, 57.09 52.74, 57.09 85.54 M57.09 85.54 C43.85 92.16, 30.61 98.77, 0 114.06 M0 114.06 C-21.13 103.5, -42.27 92.95, -57.09 85.54 M-57.09 85.54 C-57.09 68.66, -57.09 51.78, -57.09 28.51 M-57.09 28.51 C-43.09 21.52, -29.09 14.53, 0 0" stroke="#fff" stroke-width="4.5" fill="none" stroke-dasharray="8 12"></path></g></g><g transform="translate(1404.6503940230596 682.2270919791281) rotate(0 27.765818636482436 6.64815375803073)"><text x="27.76581863648157" y="10.296307516061596" font-family="Helvetica, Segoe UI Emoji" font-size="11.83488486039057px" fill="#fff" text-anchor="middle" style="white-space: pre;" direction="ltr">(Cátedras)</text></g><g transform="translate(1377.9509947539682 639.1974013542149) rotate(0 51.95442323035968 7.640356357405835)"><text x="51.95442323036011" y="12.280712714811793" font-family="Helvetica, Segoe UI Emoji" font-size="13.485059511149183px" fill="#fff" text-anchor="middle" style="white-space: pre;" direction="ltr">Investigadora(e)s</text></g><g transform="translate(1397.0010390470106 656.0175608223199) rotate(0 33.36728020562077 7.851124754263765)"><text x="33.36728020562092" y="12.702249508527489" font-family="Helvetica, Segoe UI Emoji" font-size="13.699547589045412px" fill="#fff" text-anchor="middle" style="white-space: pre;" direction="ltr">por México</text></g><g stroke-linecap="round"><g transform="translate(1430.233797307139 414.85191332945215) rotate(0 0.6953560744132119 94.91320763637214)"><path d="M0 0 C0.48 66.16, 0.97 132.32, 1.39 189.83" stroke="#ffff" stroke-width="4.5" fill="none" stroke-dasharray="8 12"></path></g><g transform="translate(1430.233797307139 414.85191332945215) rotate(0 0.6953560744132119 94.91320763637214)"><path d="M7.5 182.55 C9.06 183.86, 10.39 186.17, 10.75 188.18 C11.1 190.18, 10.64 192.81, 9.62 194.58 C8.6 196.34, 6.55 198.06, 4.64 198.75 C2.73 199.45, 0.05 199.45, -1.86 198.75 C-3.77 198.06, -5.82 196.34, -6.84 194.58 C-7.85 192.81, -8.32 190.18, -7.96 188.18 C-7.61 186.17, -6.28 183.86, -4.72 182.55 C-3.16 181.24, -0.64 180.33, 1.39 180.33 C3.43 180.33, 5.94 181.24, 7.5 182.55" stroke="none" stroke-width="0" fill="#ffff"></path></g></g><g transform="translate(1480.5883728772733 477.6747915245087) rotate(269.8977346988359 52.09796397183345 28.161061606396288)"><text x="52.09796397183284" y="44.32212321279225" font-family="Helvetica, Segoe UI Emoji" font-size="49.16758044415872px" fill="#ffffff" text-anchor="middle" style="white-space: pre;" direction="ltr">MIIC</text></g><g transform="translate(1476.8402664898658 323.8518886009133) rotate(269.8977346988359 55.85277218601914 28.161061606396288)"><text x="55.85277218601898" y="44.32212321279225" font-family="Helvetica, Segoe UI Emoji" font-size="49.16758044415874px" fill="#ffffff" text-anchor="middle" style="white-space: pre;" direction="ltr">Semi</text></g><g transform="translate(1500.2659314112007 177.741697401887) rotate(269.8977346988359 32.38522084735632 28.161061606396288)"><text x="32.38522084735554" y="44.32212321279225" font-family="Helvetica, Segoe UI Emoji" font-size="49.16758044415873px" fill="#ffffff" text-anchor="middle" style="white-space: pre;" direction="ltr">PS</text></g><g stroke-linecap="round"><g transform="translate(241.8386530447533 149.5163447014147) rotate(0 0 57.029938717606456)" fill-rule="evenodd"><path d="M0 0 L57.09 28.51 L57.09 85.54 L0 114.06 L-57.09 85.54 L-57.09 28.51 L0 0" stroke="none" stroke-width="0" fill="#fff" fill-rule="evenodd"></path><path d="M0 0 C14.73 7.36, 29.46 14.71, 57.09 28.51 M0 0 C13.7 6.84, 27.4 13.69, 57.09 28.51 M57.09 28.51 C57.09 44.88, 57.09 61.24, 57.09 85.54 M57.09 28.51 C57.09 45.22, 57.09 61.93, 57.09 85.54 M57.09 85.54 C44.84 91.66, 32.6 97.77, 0 114.06 M57.09 85.54 C42.59 92.79, 28.09 100.03, 0 114.06 M0 114.06 C-16.81 105.66, -33.62 97.27, -57.09 85.54 M0 114.06 C-14.79 106.67, -29.59 99.28, -57.09 85.54 M-57.09 85.54 C-57.09 72.26, -57.09 58.97, -57.09 28.51 M-57.09 85.54 C-57.09 70.38, -57.09 55.21, -57.09 28.51 M-57.09 28.51 C-36.18 18.07, -15.28 7.63, 0 0 M-57.09 28.51 C-44.23 22.09, -31.38 15.67, 0 0 M0 0 C0 0, 0 0, 0 0 M0 0 C0 0, 0 0, 0 0" stroke="#ffff" stroke-width="4" fill="none"></path></g></g><g transform="translate(227.4267007674207 194.07224712140487) rotate(0 14 10.5)"><text x="14" y="17" font-family="Helvetica, Segoe UI Emoji" font-size="19.729745928230383px" fill="#0aa8a7" text-anchor="middle" style="white-space: pre;" direction="ltr">RH</text></g><g transform="translate(341.5210653630056 193.77399079944917) rotate(0 33.32392290090229 11.264424642558424)"><text x="33.32392290090209" y="18.528849285116898" font-family="Helvetica, Segoe UI Emoji" font-size="19.72974592823039px" fill="#fff" text-anchor="middle" style="white-space: pre;" direction="ltr">BECAS</text></g><g stroke-linecap="round"><g transform="translate(373.95865209554177 148.11284128344596) rotate(0 0 57.029938717606456)" fill-rule="evenodd"><path d="M0 0 L57.09 28.51 L57.09 85.54 L0 114.06 L-57.09 85.54 L-57.09 28.51 L0 0" stroke="none" stroke-width="0" fill="#fff" fill-rule="evenodd"></path><path d="M0 0 C12.12 6.06, 24.25 12.11, 57.09 28.51 M0 0 C13.24 6.61, 26.47 13.22, 57.09 28.51 M57.09 28.51 C57.09 49.63, 57.09 70.74, 57.09 85.54 M57.09 28.51 C57.09 45.4, 57.09 62.28, 57.09 85.54 M57.09 85.54 C43.09 92.54, 29.09 99.53, 0 114.06 M57.09 85.54 C41.97 93.1, 26.85 100.65, 0 114.06 M0 114.06 C-19.15 104.5, -38.29 94.93, -57.09 85.54 M0 114.06 C-20.74 103.7, -41.48 93.34, -57.09 85.54 M-57.09 85.54 C-57.09 68.55, -57.09 51.55, -57.09 28.51 M-57.09 85.54 C-57.09 67.9, -57.09 50.25, -57.09 28.51 M-57.09 28.51 C-38.77 19.37, -20.46 10.22, 0 0 M-57.09 28.51 C-34.73 17.35, -12.38 6.19, 0 0 M0 0 C0 0, 0 0, 0 0 M0 0 C0 0, 0 0, 0 0" stroke="#fff" stroke-width="4" fill="none"></path></g></g><g transform="translate(332.59655610419577 193.06018551342368) rotate(0 40 10.5)"><text x="40" y="17" font-family="Helvetica, Segoe UI Emoji" font-size="19.729745928230383px" fill="#0aa8a7" text-anchor="middle" style="white-space: pre;" direction="ltr">Finanzas</text></g><g stroke-linecap="round"><g transform="translate(1368.4203655482397 714.9882123683365) rotate(0 0 57.029938717606456)"><path d="M0 0 C14.55 7.27, 29.1 14.54, 57.09 28.51 M57.09 28.51 C57.09 46.82, 57.09 65.13, 57.09 85.54 M57.09 85.54 C42.4 92.88, 27.71 100.22, 0 114.06 M0 114.06 C-18.12 105.01, -36.23 95.96, -57.09 85.54 M-57.09 85.54 C-57.09 71.2, -57.09 56.86, -57.09 28.51 M-57.09 28.51 C-42.4 21.18, -27.71 13.84, 0 0" stroke="#fff" stroke-width="4.5" fill="none" stroke-dasharray="8 12"></path></g></g><g transform="translate(1341.6590780636307 760.3130144331062) rotate(0 27.516483516483277 12.038461538461434)"><text x="27.516483516482985" y="17.07692307692261" font-family="Helvetica, Segoe UI Emoji" font-size="22.620551192439535px" fill="#fff" text-anchor="middle" style="white-space: pre;" direction="ltr">SGDI</text></g></svg>