<svg version="1.1" xmlns="http://www.w3.org/2000/svg" viewBox="0 0 1604.4001804353356 1388.558622724524" width="1604.4001804353356" height="1388.558622724524">
  <!-- svg-source:excalidraw -->
  
  <defs>
    <style>
      @font-face {
        font-family: "Virgil";
        src: url("https://excalidraw.com/Virgil.woff2");
      }
      @font-face {
        font-family: "Cascadia";
        src: url("https://excalidraw.com/Cascadia.woff2");
      }
    </style>
  </defs>
  <g stroke-linecap="round" transform="translate(24.110531212061687 223.95509686228343) rotate(0 781.2087726668697 577.3017629311203)"><path d="M0 0 L1562.42 0 L1562.42 1154.6 L0 1154.6" stroke="none" stroke-width="0" fill="#edf6f5"></path><path d="M0 0 C475.53 0, 951.06 0, 1562.42 0 M0 0 C327.18 0, 654.36 0, 1562.42 0 M1562.42 0 C1562.42 393.14, 1562.42 786.29, 1562.42 1154.6 M1562.42 0 C1562.42 323.96, 1562.42 647.92, 1562.42 1154.6 M1562.42 1154.6 C1220.26 1154.6, 878.09 1154.6, 0 1154.6 M1562.42 1154.6 C1244.22 1154.6, 926.02 1154.6, 0 1154.6 M0 1154.6 C0 856.14, 0 557.69, 0 0 M0 1154.6 C0 828.1, 0 501.6, 0 0" stroke="#edf6f5" stroke-width="1" fill="none"></path></g><g transform="translate(658.9447275242237 265.3376281313185) rotate(0 244.06253392210056 26.186967159023425)"><text x="244.06253392209982" y="41.37393431804716" font-family="Helvetica, Segoe UI Emoji" font-size="46.49109787086448px" fill="#0aa8a7" text-anchor="middle" style="white-space: pre;" direction="ltr">Modelo de Aplicaciones</text></g><g stroke-linecap="round"><g transform="translate(522.1107734117359 664.956502355416) rotate(0 0 57.029938717606456)"><path d="M0 0 C16.16 8.07, 32.32 16.14, 57.09 28.51 M0 0 C19.2 9.59, 38.39 19.18, 57.09 28.51 M57.09 28.51 C57.09 45.43, 57.09 62.34, 57.09 85.54 M57.09 28.51 C57.09 48.02, 57.09 67.52, 57.09 85.54 M57.09 85.54 C34.42 96.87, 11.76 108.19, 0 114.06 M57.09 85.54 C35.42 96.37, 13.75 107.19, 0 114.06 M0 114.06 C-21.4 103.37, -42.8 92.68, -57.09 85.54 M0 114.06 C-14.37 106.88, -28.75 99.7, -57.09 85.54 M-57.09 85.54 C-57.09 73.2, -57.09 60.86, -57.09 28.51 M-57.09 85.54 C-57.09 66.21, -57.09 46.88, -57.09 28.51 M-57.09 28.51 C-41 20.48, -24.92 12.45, 0 0 M-57.09 28.51 C-35.92 17.94, -14.75 7.37, 0 0" stroke="#0aa8a7" stroke-width="4" fill="none"></path></g></g><g transform="translate(495.27264484610714 707.7195959058727) rotate(0 26.387957727474713 14.393431487713315)"><text x="26.387957727474596" y="21.786862975426835" font-family="Helvetica, Segoe UI Emoji" font-size="25.130096671458514px" fill="#0aa8a7" text-anchor="middle" style="white-space: pre;" direction="ltr">CVU</text></g><g transform="translate(615.6439751039616 706.3138268287212) rotate(0 42.70267596093254 14.234225320310543)"><text x="42.702675960932005" y="21.468450640621345" font-family="Helvetica, Segoe UI Emoji" font-size="25.384677620222323px" fill="#0aa8a7" text-anchor="middle" style="white-space: pre;" direction="ltr">Fondos</text></g><g stroke-linecap="round"><g transform="translate(653.5290609082404 664.956502355416) rotate(0 0 57.029938717606456)"><path d="M0 0 C18.4 9.19, 36.8 18.38, 57.09 28.51 M0 0 C14.83 7.41, 29.66 14.82, 57.09 28.51 M57.09 28.51 C57.09 43.15, 57.09 57.79, 57.09 85.54 M57.09 28.51 C57.09 43.18, 57.09 57.85, 57.09 85.54 M57.09 85.54 C34.52 96.81, 11.96 108.08, 0 114.06 M57.09 85.54 C36.64 95.76, 16.18 105.98, 0 114.06 M0 114.06 C-13 107.56, -26.01 101.07, -57.09 85.54 M0 114.06 C-19.61 104.27, -39.21 94.47, -57.09 85.54 M-57.09 85.54 C-57.09 65.05, -57.09 44.56, -57.09 28.51 M-57.09 85.54 C-57.09 72.45, -57.09 59.36, -57.09 28.51 M-57.09 28.51 C-41 20.48, -24.92 12.45, 0 0 M-57.09 28.51 C-37.22 18.59, -17.36 8.67, 0 0" stroke="#0aa8a7" stroke-width="4" fill="none"></path></g></g><g stroke-linecap="round"><g transform="translate(787.5501332859458 514.7641737879667) rotate(0 0 57.029938717606456)"><path d="M0 0 C20.56 10.27, 41.12 20.54, 57.09 28.51 M0 0 C17.02 8.5, 34.05 17.01, 57.09 28.51 M57.09 28.51 C57.09 45.57, 57.09 62.63, 57.09 85.54 M57.09 28.51 C57.09 49.23, 57.09 69.94, 57.09 85.54 M57.09 85.54 C42.4 92.88, 27.72 100.21, 0 114.06 M57.09 85.54 C36.53 95.81, 15.98 106.08, 0 114.06 M0 114.06 C-21.56 103.29, -43.12 92.52, -57.09 85.54 M0 114.06 C-18.79 104.67, -37.58 95.29, -57.09 85.54 M-57.09 85.54 C-57.09 64.52, -57.09 43.49, -57.09 28.51 M-57.09 85.54 C-57.09 73.01, -57.09 60.47, -57.09 28.51 M-57.09 28.51 C-41.07 20.51, -25.05 12.51, 0 0 M-57.09 28.51 C-42.13 21.04, -27.17 13.57, 0 0" stroke="#0aa8a7" stroke-width="4" fill="none"></path></g></g><g transform="translate(755.6578077654449 559.3630624277948) rotate(0 36.04442051905062 14.914932628572842)"><text x="36.044420519051414" y="22.829865257145997" font-family="Helvetica, Segoe UI Emoji" font-size="26.123645071638794px" fill="#0aa8a7" text-anchor="middle" style="white-space: pre;" direction="ltr">PNPC</text></g><g transform="translate(868.2024747859505 708.5123887135242) rotate(0 49.75120883796626 11.264424642558424)"><text x="49.75120883796649" y="18.528849285116898" font-family="Helvetica, Segoe UI Emoji" font-size="19.729745928230383px" fill="#0aa8a7" text-anchor="middle" style="white-space: pre;" direction="ltr">RENIECYT</text></g><g stroke-linecap="round"><g transform="translate(916.3656359012639 664.956502355416) rotate(0 0 57.029938717606456)"><path d="M0 0 C17.72 8.85, 35.45 17.71, 57.09 28.51 M0 0 C18.58 9.28, 37.16 18.56, 57.09 28.51 M57.09 28.51 C57.09 48.48, 57.09 68.44, 57.09 85.54 M57.09 28.51 C57.09 40.35, 57.09 52.18, 57.09 85.54 M57.09 85.54 C36.88 95.64, 16.68 105.73, 0 114.06 M57.09 85.54 C39.63 94.26, 22.18 102.98, 0 114.06 M0 114.06 C-15.67 106.23, -31.35 98.4, -57.09 85.54 M0 114.06 C-16.96 105.59, -33.93 97.11, -57.09 85.54 M-57.09 85.54 C-57.09 67.81, -57.09 50.07, -57.09 28.51 M-57.09 85.54 C-57.09 70.49, -57.09 55.43, -57.09 28.51 M-57.09 28.51 C-41.08 20.52, -25.08 12.53, 0 0 M-57.09 28.51 C-35.85 17.91, -14.62 7.3, 0 0" stroke="#0aa8a7" stroke-width="4" fill="none"></path></g></g><g stroke-linecap="round"><g transform="translate(1047.783923397783 664.956502355416) rotate(0 0 57.029938717606456)"><path d="M0 0 C22.52 11.25, 45.03 22.49, 57.09 28.51 M0 0 C12.11 6.05, 24.22 12.1, 57.09 28.51 M57.09 28.51 C57.09 49.45, 57.09 70.38, 57.09 85.54 M57.09 28.51 C57.09 40.57, 57.09 52.63, 57.09 85.54 M57.09 85.54 C35.54 96.31, 14 107.07, 0 114.06 M57.09 85.54 C34.25 96.95, 11.42 108.35, 0 114.06 M0 114.06 C-19.07 104.53, -38.14 95.01, -57.09 85.54 M0 114.06 C-13.9 107.12, -27.79 100.18, -57.09 85.54 M-57.09 85.54 C-57.09 69.62, -57.09 53.7, -57.09 28.51 M-57.09 85.54 C-57.09 71.43, -57.09 57.32, -57.09 28.51 M-57.09 28.51 C-36.17 18.07, -15.25 7.62, 0 0 M-57.09 28.51 C-38.26 19.11, -19.43 9.71, 0 0" stroke="#0aa8a7" stroke-width="4" fill="none"></path></g></g><g transform="translate(1022.1496115675945 708.5123887135242) rotate(0 27.22235955285032 11.264424642558424)"><text x="27.222359552849582" y="18.528849285116898" font-family="Helvetica, Segoe UI Emoji" font-size="19.729745928230383px" fill="#0aa8a7" text-anchor="middle" style="white-space: pre;" direction="ltr">RCEA</text></g><g transform="translate(1150.0691205972216 708.5123887135242) rotate(0 33.32392290090138 11.264424642558424)"><text x="33.32392290090209" y="18.528849285116898" font-family="Helvetica, Segoe UI Emoji" font-size="19.72974592823039px" fill="#0aa8a7" text-anchor="middle" style="white-space: pre;" direction="ltr">BECAS</text></g><g stroke-linecap="round"><g transform="translate(1181.804995775481 664.956502355416) rotate(0 0 57.029938717606456)"><path d="M0 0 C19.2 9.59, 38.39 19.18, 57.09 28.51 M0 0 C16.93 8.46, 33.85 16.91, 57.09 28.51 M57.09 28.51 C57.09 48.02, 57.09 67.52, 57.09 85.54 M57.09 28.51 C57.09 51.16, 57.09 73.8, 57.09 85.54 M57.09 85.54 C35.42 96.37, 13.75 107.19, 0 114.06 M57.09 85.54 C35.69 96.23, 14.29 106.92, 0 114.06 M0 114.06 C-14.37 106.88, -28.75 99.7, -57.09 85.54 M0 114.06 C-12.35 107.89, -24.71 101.72, -57.09 85.54 M-57.09 85.54 C-57.09 66.21, -57.09 46.88, -57.09 28.51 M-57.09 85.54 C-57.09 69.48, -57.09 53.41, -57.09 28.51 M-57.09 28.51 C-35.92 17.94, -14.75 7.37, 0 0 M-57.09 28.51 C-35.21 17.59, -13.34 6.67, 0 0" stroke="#0aa8a7" stroke-width="4" fill="none"></path></g></g><g transform="translate(1298.384045057599 708.5123887135242) rotate(0 16.42728593706488 11.264424642558424)"><text x="16.4272859370644" y="18.528849285116898" font-family="Helvetica, Segoe UI Emoji" font-size="19.72974592823038px" fill="#0aa8a7" text-anchor="middle" style="white-space: pre;" direction="ltr">SNI</text></g><g stroke-linecap="round"><g transform="translate(1313.2232832720074 664.956502355416) rotate(0 0 57.029938717606456)"><path d="M0 0 C21.14 10.56, 42.28 21.12, 57.09 28.51 M0 0 C22.44 11.21, 44.88 22.42, 57.09 28.51 M57.09 28.51 C57.09 40.11, 57.09 51.71, 57.09 85.54 M57.09 28.51 C57.09 48.09, 57.09 67.67, 57.09 85.54 M57.09 85.54 C35.31 96.42, 13.54 107.3, 0 114.06 M57.09 85.54 C36.06 96.05, 15.04 106.55, 0 114.06 M0 114.06 C-14.42 106.86, -28.84 99.65, -57.09 85.54 M0 114.06 C-20.75 103.69, -41.51 93.33, -57.09 85.54 M-57.09 85.54 C-57.09 70.81, -57.09 56.08, -57.09 28.51 M-57.09 85.54 C-57.09 72.26, -57.09 58.97, -57.09 28.51 M-57.09 28.51 C-45.38 22.67, -33.68 16.82, 0 0 M-57.09 28.51 C-41.86 20.91, -26.63 13.3, 0 0" stroke="#0aa8a7" stroke-width="4" fill="none"></path></g></g><g stroke-linecap="round"><g transform="translate(1444.6415707685192 514.7641737879667) rotate(0 0 57.029938717606456)"><path d="M0 0 C14.83 7.41, 29.66 14.82, 57.09 28.51 M0 0 C14.65 7.32, 29.3 14.64, 57.09 28.51 M57.09 28.51 C57.09 43.18, 57.09 57.85, 57.09 85.54 M57.09 28.51 C57.09 51.05, 57.09 73.59, 57.09 85.54 M57.09 85.54 C36.64 95.76, 16.18 105.98, 0 114.06 M57.09 85.54 C44.08 92.04, 31.08 98.54, 0 114.06 M0 114.06 C-19.61 104.27, -39.21 94.47, -57.09 85.54 M0 114.06 C-20.51 103.81, -41.02 93.57, -57.09 85.54 M-57.09 85.54 C-57.09 72.45, -57.09 59.36, -57.09 28.51 M-57.09 85.54 C-57.09 69.48, -57.09 53.41, -57.09 28.51 M-57.09 28.51 C-37.22 18.59, -17.36 8.67, 0 0 M-57.09 28.51 C-43.05 21.5, -29.02 14.49, 0 0" stroke="#0aa8a7" stroke-width="4" fill="none"></path></g></g><g transform="translate(1416.8835211280348 590.1653193852353) rotate(0 27.765818636482436 6.64815375803073)"><text x="27.76581863648157" y="10.296307516061596" font-family="Helvetica, Segoe UI Emoji" font-size="11.83488486039057px" fill="#0aa8a7" text-anchor="middle" style="white-space: pre;" direction="ltr">(Cátedras)</text></g><g transform="translate(1390.1841218589434 547.1356287603239) rotate(0 51.95442323035968 7.640356357405835)"><text x="51.95442323036011" y="12.280712714811793" font-family="Helvetica, Segoe UI Emoji" font-size="13.485059511149183px" fill="#0aa8a7" text-anchor="middle" style="white-space: pre;" direction="ltr">Investigadora(e)s</text></g><g transform="translate(1409.234166151964 563.955788228438) rotate(0 33.36728020562077 7.851124754263765)"><text x="33.36728020562092" y="12.702249508527489" font-family="Helvetica, Segoe UI Emoji" font-size="13.699547589045412px" fill="#0aa8a7" text-anchor="middle" style="white-space: pre;" direction="ltr">por México</text></g><g stroke-linecap="round"><g transform="translate(390.69248591521136 664.956502355416) rotate(0 0 57.029938717606456)"><path d="M0 0 C18.58 9.28, 37.16 18.56, 57.09 28.51 M0 0 C19.98 9.98, 39.96 19.96, 57.09 28.51 M57.09 28.51 C57.09 40.35, 57.09 52.18, 57.09 85.54 M57.09 28.51 C57.09 48.7, 57.09 68.88, 57.09 85.54 M57.09 85.54 C39.63 94.26, 22.18 102.98, 0 114.06 M57.09 85.54 C41.41 93.37, 25.74 101.2, 0 114.06 M0 114.06 C-16.96 105.59, -33.93 97.11, -57.09 85.54 M0 114.06 C-17.75 105.19, -35.51 96.32, -57.09 85.54 M-57.09 85.54 C-57.09 70.49, -57.09 55.43, -57.09 28.51 M-57.09 85.54 C-57.09 69.56, -57.09 53.57, -57.09 28.51 M-57.09 28.51 C-35.85 17.91, -14.62 7.3, 0 0 M-57.09 28.51 C-40.55 20.25, -24.01 11.99, 0 0" stroke="#0aa8a7" stroke-width="4" fill="none"></path></g></g><g transform="translate(352.3813322506703 702.5045844972765) rotate(0 38.95613522218173 22.52884928511685)"><text x="38.956135222181295" y="17.528849285116898" font-family="Helvetica, Segoe UI Emoji" font-size="19.667032177663398px" fill="#0aa8a7" text-anchor="middle" style="white-space: pre;" direction="ltr">Registro</text><text x="38.956135222181295" y="40.057698570233796" font-family="Helvetica, Segoe UI Emoji" font-size="19.667032177663398px" fill="#0aa8a7" text-anchor="middle" style="white-space: pre;" direction="ltr">Usuarios</text></g><g transform="translate(942.5517103728816 965.4150257252068) rotate(0 40.83353932927457 22.52884928511685)"><text x="40.83353932927439" y="17.528849285116898" font-family="Helvetica, Segoe UI Emoji" font-size="19.667032177663398px" fill="#0aa8a7" text-anchor="middle" style="white-space: pre;" direction="ltr">Foro de</text><text x="40.83353932927439" y="40.057698570233796" font-family="Helvetica, Segoe UI Emoji" font-size="19.667032177663398px" fill="#0aa8a7" text-anchor="middle" style="white-space: pre;" direction="ltr">discusión</text></g><g stroke-linecap="round"><g transform="translate(983.7388624771738 928.7317794019937) rotate(0 0 57.029938717606456)"><path d="M0 0 C17.04 8.51, 34.09 17.03, 57.09 28.51 M57.09 28.51 C57.09 49.75, 57.09 70.98, 57.09 85.54 M57.09 85.54 C38.06 95.05, 19.04 104.55, 0 114.06 M0 114.06 C-13.03 107.55, -26.06 101.04, -57.09 85.54 M-57.09 85.54 C-57.09 73.63, -57.09 61.71, -57.09 28.51 M-57.09 28.51 C-43.06 21.51, -29.04 14.51, 0 0" stroke="#0aa8a7" stroke-width="4.5" fill="none" stroke-dasharray="8 12"></path></g></g><g transform="translate(278.8753897349143 972.6899666401869) rotate(0 51.711136202513444 9.885952509303934)"><text x="51.71113620251364" y="14.771905018608159" font-family="Helvetica, Segoe UI Emoji" font-size="16.790631752519673px" fill="#0aa8a7" text-anchor="middle" style="white-space: pre;" direction="ltr">Publicaciones</text></g><g stroke-linecap="round"><g transform="translate(331.34093526231845 927.7930773484395) rotate(0 0 57.029938717606456)"><path d="M0 0 C17.75 8.86, 35.49 17.73, 57.09 28.51 M57.09 28.51 C57.09 48.02, 57.09 67.53, 57.09 85.54 M57.09 85.54 C42.72 92.72, 28.36 99.89, 0 114.06 M0 114.06 C-11.69 108.22, -23.37 102.39, -57.09 85.54 M-57.09 85.54 C-57.09 67.21, -57.09 48.88, -57.09 28.51 M-57.09 28.51 C-35.88 17.92, -14.68 7.33, 0 0" stroke="#0aa8a7" stroke-width="4.5" fill="none" stroke-dasharray="8 12"></path></g></g><g transform="translate(1076.126731099288 960.9158498093011) rotate(0 41.30289035604801 22.52884928511685)"><text x="41.30289035604765" y="17.528849285116898" font-family="Helvetica, Segoe UI Emoji" font-size="19.729745928230383px" fill="#0aa8a7" text-anchor="middle" style="white-space: pre;" direction="ltr">Atlas</text><text x="41.30289035604765" y="40.057698570233796" font-family="Helvetica, Segoe UI Emoji" font-size="19.729745928230383px" fill="#0aa8a7" text-anchor="middle" style="white-space: pre;" direction="ltr">Científico</text></g><g stroke-linecap="round"><g transform="translate(1115.157149973671 928.7317794019937) rotate(0 0 57.029938717606456)"><path d="M0 0 C14.65 7.32, 29.3 14.64, 57.09 28.51 M57.09 28.51 C57.09 43.18, 57.09 57.85, 57.09 85.54 M57.09 85.54 C34.52 96.81, 11.96 108.08, 0 114.06 M0 114.06 C-20.45 103.84, -40.9 93.63, -57.09 85.54 M-57.09 85.54 C-57.09 72.55, -57.09 59.56, -57.09 28.51 M-57.09 28.51 C-37.48 18.72, -17.87 8.93, 0 0" stroke="#0aa8a7" stroke-width="4.5" fill="none" stroke-dasharray="8 12"></path></g></g><g transform="translate(683.0648489578198 964.7780493317287) rotate(0 38.48678419540738 22.52884928511685)"><text x="38.48678419540805" y="17.528849285116898" font-family="Helvetica, Segoe UI Emoji" font-size="19.72974592823039px" fill="#0aa8a7" text-anchor="middle" style="white-space: pre;" direction="ltr">Bolsa de</text><text x="38.48678419540805" y="40.057698570233796" font-family="Helvetica, Segoe UI Emoji" font-size="19.72974592823039px" fill="#0aa8a7" text-anchor="middle" style="white-space: pre;" direction="ltr">Trabajo</text></g><g stroke-linecap="round"><g transform="translate(721.8409895376717 928.7317794019937) rotate(0 0 57.029938717606456)"><path d="M0 0 C19.67 9.83, 39.34 19.65, 57.09 28.51 M57.09 28.51 C57.09 49.82, 57.09 71.13, 57.09 85.54 M57.09 85.54 C39.05 94.55, 21.02 103.56, 0 114.06 M0 114.06 C-19.65 104.25, -39.29 94.43, -57.09 85.54 M-57.09 85.54 C-57.09 64.81, -57.09 44.08, -57.09 28.51 M-57.09 28.51 C-44.22 22.09, -31.35 15.66, 0 0" stroke="#0aa8a7" stroke-width="4.5" fill="none" stroke-dasharray="8 12"></path></g></g><g stroke-linecap="round"><g transform="translate(592.3001061482682 928.2847647827248) rotate(0 0 57.029938717606456)"><path d="M0 0 C19.24 9.61, 38.47 19.22, 57.09 28.51 M57.09 28.51 C57.09 40.76, 57.09 53, 57.09 85.54 M57.09 85.54 C44.56 91.8, 32.03 98.06, 0 114.06 M0 114.06 C-16.15 105.99, -32.3 97.93, -57.09 85.54 M-57.09 85.54 C-57.09 65.47, -57.09 45.4, -57.09 28.51 M-57.09 28.51 C-36.32 18.14, -15.55 7.76, 0 0" stroke="#0aa8a7" stroke-width="4.5" fill="none" stroke-dasharray="8 12"></path></g></g><g transform="translate(574.7241339410721 972.0908606148942) rotate(0 16.5 10.5)"><text x="16.5" y="17" font-family="Helvetica, Segoe UI Emoji" font-size="19.66703217766339px" fill="#0aa8a7" text-anchor="middle" style="white-space: pre;" direction="ltr">CIC</text></g><g transform="translate(485.6171315751817 858.4029916208992) rotate(0 36.14002906154201 22.52884928511685)"><text x="36.14002906154169" y="17.528849285116898" font-family="Helvetica, Segoe UI Emoji" font-size="19.667032177663398px" fill="#0aa8a7" text-anchor="middle" style="white-space: pre;" direction="ltr">Perfil de</text><text x="36.14002906154169" y="40.057698570233796" font-family="Helvetica, Segoe UI Emoji" font-size="19.667032177663398px" fill="#0aa8a7" text-anchor="middle" style="white-space: pre;" direction="ltr">Usuario</text></g><g stroke-linecap="round"><g transform="translate(522.1107734117359 821.7197452976898) rotate(0 0 57.029938717606456)"><path d="M0 0 C16.02 8, 32.03 16, 57.09 28.51 M57.09 28.51 C57.09 41, 57.09 53.49, 57.09 85.54 M57.09 85.54 C45.46 91.35, 33.83 97.16, 0 114.06 M0 114.06 C-14.76 106.69, -29.51 99.32, -57.09 85.54 M-57.09 85.54 C-57.09 69.42, -57.09 53.29, -57.09 28.51 M-57.09 28.51 C-37.73 18.85, -18.37 9.18, 0 0" stroke="#0aa8a7" stroke-width="4.5" fill="none" stroke-dasharray="8 12"></path></g></g><g transform="translate(758.1092198391234 866.5688434115718) rotate(0 26.604123207220255 15.099637495990464)"><text x="26.604123207220955" y="23.199274991980545" font-family="Helvetica, Segoe UI Emoji" font-size="25.722696348323037px" fill="#0aa8a7" text-anchor="middle" style="white-space: pre;" direction="ltr">SNP</text></g><g stroke-linecap="round"><g transform="translate(784.9473484047594 821.7197452976898) rotate(0 0 57.029938717606456)"><path d="M0 0 C19.52 9.75, 39.04 19.5, 57.09 28.51 M57.09 28.51 C57.09 51.16, 57.09 73.8, 57.09 85.54 M57.09 85.54 C35.42 96.37, 13.75 107.19, 0 114.06 M0 114.06 C-21.4 103.37, -42.8 92.68, -57.09 85.54 M-57.09 85.54 C-57.09 71.18, -57.09 56.82, -57.09 28.51 M-57.09 28.51 C-44.73 22.34, -32.38 16.17, 0 0" stroke="#0aa8a7" stroke-width="4.5" fill="none" stroke-dasharray="8 12"></path></g></g><g stroke-linecap="round"><g transform="translate(262.0903045793402 664.956502355416) rotate(0 0 57.029938717606456)"><path d="M0 0 C19.53 9.75, 39.06 19.51, 57.09 28.51 M0 0 C14.36 7.17, 28.72 14.35, 57.09 28.51 M57.09 28.51 C57.09 40.19, 57.09 51.86, 57.09 85.54 M57.09 28.51 C57.09 46.85, 57.09 65.18, 57.09 85.54 M57.09 85.54 C35.88 96.14, 14.68 106.73, 0 114.06 M57.09 85.54 C34.33 96.91, 11.57 108.28, 0 114.06 M0 114.06 C-13.19 107.47, -26.39 100.88, -57.09 85.54 M0 114.06 C-19.01 104.57, -38.01 95.07, -57.09 85.54 M-57.09 85.54 C-57.09 71.14, -57.09 56.73, -57.09 28.51 M-57.09 85.54 C-57.09 67.45, -57.09 49.36, -57.09 28.51 M-57.09 28.51 C-42.06 21.01, -27.03 13.5, 0 0 M-57.09 28.51 C-36.56 18.26, -16.04 8.01, 0 0" stroke="#0aa8a7" stroke-width="4" fill="none"></path></g></g><g transform="translate(221.27594543868145 707.7195959058763) rotate(0 40.364188302501134 14.549881829971127)"><text x="40.36418830250112" y="22.09976365994266" font-family="Helvetica, Segoe UI Emoji" font-size="25.130096671458514px" fill="#0aa8a7" text-anchor="middle" style="white-space: pre;" direction="ltr">SIICYT</text></g><g transform="translate(230.29017301050953 858.4029916208992) rotate(0 31.446518793809446 22.52884928511685)"><text x="31.44651879380901" y="17.528849285116898" font-family="Helvetica, Segoe UI Emoji" font-size="19.6670321776634px" fill="#0aa8a7" text-anchor="middle" style="white-space: pre;" direction="ltr">SIICYT</text><text x="31.44651879380901" y="40.057698570233796" font-family="Helvetica, Segoe UI Emoji" font-size="19.6670321776634px" fill="#0aa8a7" text-anchor="middle" style="white-space: pre;" direction="ltr">2.0</text></g><g stroke-linecap="round"><g transform="translate(262.0903045793402 821.7197452976898) rotate(0 0 57.029938717606456)"><path d="M0 0 C20.73 10.36, 41.46 20.71, 57.09 28.51 M57.09 28.51 C57.09 43.18, 57.09 57.85, 57.09 85.54 M57.09 85.54 C36.53 95.81, 15.98 106.08, 0 114.06 M0 114.06 C-21.56 103.29, -43.12 92.52, -57.09 85.54 M-57.09 85.54 C-57.09 66.77, -57.09 48, -57.09 28.51 M-57.09 28.51 C-36.04 18, -14.99 7.49, 0 0" stroke="#0aa8a7" stroke-width="4.5" fill="none" stroke-dasharray="8 12"></path></g></g><g transform="translate(1008.5340676797023 867.7161459214722) rotate(0 41.30289035604801 11.264424642558424)"><text x="41.30289035604765" y="18.528849285116898" font-family="Helvetica, Segoe UI Emoji" font-size="19.729745928230383px" fill="#0aa8a7" text-anchor="middle" style="white-space: pre;" direction="ltr">SINECyT</text></g><g stroke-linecap="round"><g transform="translate(1050.6000295584272 821.7197452976898) rotate(0 0 57.029938717606456)"><path d="M0 0 C12.25 6.12, 24.5 12.24, 57.09 28.51 M57.09 28.51 C57.09 41.03, 57.09 53.55, 57.09 85.54 M57.09 85.54 C40.94 93.61, 24.79 101.68, 0 114.06 M0 114.06 C-20.09 104.02, -40.18 93.99, -57.09 85.54 M-57.09 85.54 C-57.09 64.79, -57.09 44.04, -57.09 28.51 M-57.09 28.51 C-42.37 21.17, -27.66 13.82, 0 0" stroke="#0aa8a7" stroke-width="4.5" fill="none" stroke-dasharray="8 12"></path></g></g><g stroke-linecap="round" transform="translate(71.71100131055027 1300.308023264689) rotate(0 718.707846455819 28.370046570624254)"><path d="M0 0 C298.25 0, 596.5 0, 1437.42 0 M1437.42 0 C1437.42 20.08, 1437.42 40.16, 1437.42 56.74 M1437.42 56.74 C997.99 56.74, 558.56 56.74, 0 56.74 M0 56.74 C0 41.16, 0 25.58, 0 0" stroke="#0aa8a7" stroke-width="2.5" fill="none" stroke-dasharray="8 10"></path></g><g transform="translate(91.29984299028183 1309.0892281555998) rotate(0 174.4757864093408 15.60352561384343)"><text x="0" y="24.207051227686925" font-family="Helvetica, Segoe UI Emoji" font-size="26.701220301764206px" fill="#0aa8a7" text-anchor="start" style="white-space: pre;" direction="ltr">Recomendador de Contenido</text></g><g transform="translate(409.43320034902536 972.0529902467088) rotate(0 51.159261918285665 11.264424642558424)"><text x="51.1592619182863" y="18.528849285116898" font-family="Helvetica, Segoe UI Emoji" font-size="19.729745928230383px" fill="#0aa8a7" text-anchor="middle" style="white-space: pre;" direction="ltr">Vínculación</text></g><g stroke-linecap="round"><g transform="translate(460.8818186517492 927.7930773484395) rotate(0 0 57.029938717606456)"><path d="M0 0 C22.76 11.37, 45.52 22.74, 57.09 28.51 M57.09 28.51 C57.09 41.7, 57.09 54.88, 57.09 85.54 M57.09 85.54 C38.08 95.04, 19.07 104.53, 0 114.06 M0 114.06 C-14.42 106.86, -28.84 99.65, -57.09 85.54 M-57.09 85.54 C-57.09 67.45, -57.09 49.36, -57.09 28.51 M-57.09 28.51 C-42.06 21.01, -27.03 13.5, 0 0" stroke="#0aa8a7" stroke-width="4.5" fill="none" stroke-dasharray="8 12"></path></g></g><g transform="translate(821.2105011714339 962.6659697112473) rotate(0 33.32392290090138 22.52884928511685)"><text x="33.32392290090209" y="17.528849285116898" font-family="Helvetica, Segoe UI Emoji" font-size="19.72974592823039px" fill="#0aa8a7" text-anchor="middle" style="white-space: pre;" direction="ltr">Plan de</text><text x="33.32392290090209" y="40.057698570233796" font-family="Helvetica, Segoe UI Emoji" font-size="19.72974592823039px" fill="#0aa8a7" text-anchor="middle" style="white-space: pre;" direction="ltr">Carrera</text></g><g stroke-linecap="round"><g transform="translate(853.2592770341907 927.7930773484395) rotate(0 0 57.029938717606456)"><path d="M0 0 C20.51 10.25, 41.02 20.49, 57.09 28.51 M57.09 28.51 C57.09 41.61, 57.09 54.7, 57.09 85.54 M57.09 85.54 C41 93.58, 24.92 101.61, 0 114.06 M0 114.06 C-19.86 104.14, -39.73 94.21, -57.09 85.54 M-57.09 85.54 C-57.09 71.52, -57.09 57.5, -57.09 28.51 M-57.09 28.51 C-38.66 19.31, -20.24 10.11, 0 0" stroke="#0aa8a7" stroke-width="4.5" fill="none" stroke-dasharray="8 12"></path></g></g><g stroke-linecap="round" transform="translate(72.76449322283406 1065.7788123656437) rotate(0 718.707846455819 28.370046570624254)"><path d="M0 0 C529.93 0, 1059.86 0, 1437.42 0 M1437.42 0 C1437.42 12.47, 1437.42 24.94, 1437.42 56.74 M1437.42 56.74 C1034.05 56.74, 630.67 56.74, 0 56.74 M0 56.74 C0 41.87, 0 27, 0 0" stroke="#0aa8a7" stroke-width="2.5" fill="none" stroke-dasharray="8 10"></path></g><g transform="translate(84.7429573304089 1079.5960757880048) rotate(0 151.77974915284085 15.60352561384343)"><text x="0" y="24.207051227686925" font-family="Helvetica, Segoe UI Emoji" font-size="26.701220301764216px" fill="#0aa8a7" text-anchor="start" style="white-space: pre;" direction="ltr">Asistente Virtual (Cripbot)</text></g><g stroke-linecap="round" transform="translate(72.63315041461283 1140.145110366976) rotate(0 718.707846455819 28.370046570624254)"><path d="M0 0 C370.48 0, 740.96 0, 1437.42 0 M1437.42 0 C1437.42 14.84, 1437.42 29.67, 1437.42 56.74 M1437.42 56.74 C1096.21 56.74, 755.01 56.74, 0 56.74 M0 56.74 C0 41.07, 0 25.39, 0 0" stroke="#0aa8a7" stroke-width="2.5" fill="none" stroke-dasharray="8 10"></path></g><g transform="translate(84.61161452221677 1153.9623737893335) rotate(0 157.92659257647665 15.60352561384343)"><text x="0" y="24.207051227686925" font-family="Helvetica, Segoe UI Emoji" font-size="26.701220301764213px" fill="#0aa8a7" text-anchor="start" style="white-space: pre;" direction="ltr">Ludificación (Conacytopía)</text></g><g stroke-linecap="round" transform="translate(71.49609696079824 1219.2363379619064) rotate(0 718.707846455819 28.370046570624254)"><path d="M0 0 C401.34 0, 802.68 0, 1437.42 0 M1437.42 0 C1437.42 14.04, 1437.42 28.08, 1437.42 56.74 M1437.42 56.74 C910.75 56.74, 384.08 56.74, 0 56.74 M0 56.74 C0 38.03, 0 19.31, 0 0" stroke="#0aa8a7" stroke-width="2.5" fill="none" stroke-dasharray="8 10"></path></g><g transform="translate(85.05067476676595 1230.5318194668716) rotate(0 122.93686847270601 15.60352561384343)"><text x="0" y="24.207051227686925" font-family="Helvetica, Segoe UI Emoji" font-size="26.701220301764184px" fill="#0aa8a7" text-anchor="start" style="white-space: pre;" direction="ltr">Buscador Semántico</text></g><g transform="translate(148.16112877855448 960.877993082503) rotate(0 48.343155757646855 22.52884928511685)"><text x="48.34315575764669" y="17.528849285116898" font-family="Helvetica, Segoe UI Emoji" font-size="19.72974592823039px" fill="#0aa8a7" text-anchor="middle" style="white-space: pre;" direction="ltr">Portal </text><text x="48.34315575764669" y="40.057698570233796" font-family="Helvetica, Segoe UI Emoji" font-size="19.72974592823039px" fill="#0aa8a7" text-anchor="middle" style="white-space: pre;" direction="ltr">CONACYT</text></g><g stroke-linecap="round"><g transform="translate(195.22913749806867 927.7930773484395) rotate(0 0 57.029938717606456)"><path d="M0 0 C15.07 7.53, 30.15 15.06, 57.09 28.51 M0 0 C16 7.99, 32 15.99, 57.09 28.51 M57.09 28.51 C57.09 49.73, 57.09 70.94, 57.09 85.54 M57.09 28.51 C57.09 45.04, 57.09 61.56, 57.09 85.54 M57.09 85.54 C42.94 92.61, 28.8 99.67, 0 114.06 M57.09 85.54 C39.47 94.34, 21.85 103.14, 0 114.06 M0 114.06 C-14.73 106.7, -29.46 99.35, -57.09 85.54 M0 114.06 C-13.7 107.22, -27.4 100.37, -57.09 85.54 M-57.09 85.54 C-57.09 69.18, -57.09 52.82, -57.09 28.51 M-57.09 85.54 C-57.09 68.84, -57.09 52.13, -57.09 28.51 M-57.09 28.51 C-44.84 22.4, -32.6 16.29, 0 0 M-57.09 28.51 C-42.59 21.27, -28.09 14.03, 0 0" stroke="#0aa8a7" stroke-width="4" fill="none"></path></g></g><g transform="translate(1218.2443589593568 963.9274361202579) rotate(0 33.32392290090138 22.52884928511685)"><text x="33.32392290090209" y="17.528849285116898" font-family="Helvetica, Segoe UI Emoji" font-size="19.72974592823039px" fill="#0aa8a7" text-anchor="middle" style="white-space: pre;" direction="ltr">Rizoma</text><text x="33.32392290090209" y="40.057698570233796" font-family="Helvetica, Segoe UI Emoji" font-size="19.72974592823039px" fill="#0aa8a7" text-anchor="middle" style="white-space: pre;" direction="ltr">Mobile</text></g><g stroke-linecap="round"><g transform="translate(1247.938405164463 928.5508818594853) rotate(0 0 57.029938717606456)"><path d="M0 0 C21.71 10.85, 43.43 21.69, 57.09 28.51 M57.09 28.51 C57.09 40.36, 57.09 52.2, 57.09 85.54 M57.09 85.54 C38.83 94.66, 20.58 103.78, 0 114.06 M0 114.06 C-14.8 106.66, -29.61 99.27, -57.09 85.54 M-57.09 85.54 C-57.09 63.29, -57.09 41.04, -57.09 28.51 M-57.09 28.51 C-38.68 19.32, -20.27 10.12, 0 0" stroke="#0aa8a7" stroke-width="4.5" fill="none" stroke-dasharray="8 12"></path></g></g><g transform="translate(1485.3286381207981 849.8353679531874) rotate(269.8977346988359 61.48498450729858 28.161061606396288)"><text x="61.48498450729821" y="44.32212321279225" font-family="Helvetica, Segoe UI Emoji" font-size="49.16758044415873px" fill="#0aa8a7" text-anchor="middle" style="white-space: pre;" direction="ltr">Salsa</text></g><g transform="translate(602.6970257522516 871.3144918571807) rotate(0 51.69386225810376 10.005263662858852)"><text x="51.69386225810303" y="16.010527325717312" font-family="Helvetica, Segoe UI Emoji" font-size="17.46861012856446px" fill="#0aa8a7" text-anchor="middle" style="white-space: pre;" direction="ltr">Convocatoria</text></g><g stroke-linecap="round"><g transform="translate(656.131845789434 823.5971494047762) rotate(0 0 57.029938717606456)"><path d="M0 0 C19.01 9.49, 38.01 18.99, 57.09 28.51 M0 0 C14.42 7.2, 28.84 14.41, 57.09 28.51 M57.09 28.51 C57.09 46.61, 57.09 64.7, 57.09 85.54 M57.09 28.51 C57.09 43.53, 57.09 58.54, 57.09 85.54 M57.09 85.54 C36.56 95.8, 16.04 106.05, 0 114.06 M57.09 85.54 C44.15 92.01, 31.21 98.47, 0 114.06 M0 114.06 C-14.55 106.79, -29.1 99.52, -57.09 85.54 M0 114.06 C-18.33 104.91, -36.65 95.75, -57.09 85.54 M-57.09 85.54 C-57.09 70.87, -57.09 56.19, -57.09 28.51 M-57.09 85.54 C-57.09 67.45, -57.09 49.35, -57.09 28.51 M-57.09 28.51 C-42.73 21.34, -28.37 14.17, 0 0 M-57.09 28.51 C-42.4 21.18, -27.71 13.84, 0 0" stroke="#0aa8a7" stroke-width="4" fill="none"></path></g></g><g transform="translate(356.8016289598436 857.9559974637077) rotate(0 36.14002906154201 11.264424642558424)"><text x="36.14002906154169" y="18.528849285116898" font-family="Helvetica, Segoe UI Emoji" font-size="19.667032177663398px" fill="#0aa8a7" text-anchor="middle" style="white-space: pre;" direction="ltr">Registro</text></g><g stroke-linecap="round"><g transform="translate(393.29527079639774 821.2727511405037) rotate(0 0 57.029938717606456)"><path d="M0 0 C16.08 8.03, 32.17 16.07, 57.09 28.51 M0 0 C19.86 9.92, 39.73 19.85, 57.09 28.51 M57.09 28.51 C57.09 42.54, 57.09 56.56, 57.09 85.54 M57.09 28.51 C57.09 46.92, 57.09 65.32, 57.09 85.54 M57.09 85.54 C43.77 92.2, 30.45 98.85, 0 114.06 M57.09 85.54 C37.19 95.48, 17.29 105.42, 0 114.06 M0 114.06 C-13.03 107.55, -26.05 101.05, -57.09 85.54 M0 114.06 C-21.08 103.53, -42.16 93, -57.09 85.54 M-57.09 85.54 C-57.09 63.34, -57.09 41.13, -57.09 28.51 M-57.09 85.54 C-57.09 65.26, -57.09 44.98, -57.09 28.51 M-57.09 28.51 C-38.7 19.33, -20.32 10.15, 0 0 M-57.09 28.51 C-40.89 20.42, -24.69 12.33, 0 0" stroke="#0aa8a7" stroke-width="4" fill="none"></path></g></g><g transform="translate(870.8052596671369 873.7239501377162) rotate(0 49.75120883796626 11.264424642558424)"><text x="49.75120883796649" y="18.528849285116898" font-family="Helvetica, Segoe UI Emoji" font-size="19.729745928230383px" fill="#0aa8a7" text-anchor="middle" style="white-space: pre;" direction="ltr">RENIECYT</text></g><g stroke-linecap="round"><g transform="translate(918.9684207824575 821.7197452976898) rotate(0 0 57.029938717606456)"><path d="M0 0 C17.39 8.68, 34.77 17.37, 57.09 28.51 M57.09 28.51 C57.09 49.08, 57.09 69.65, 57.09 85.54 M57.09 85.54 C43.69 92.23, 30.3 98.92, 0 114.06 M0 114.06 C-19.15 104.49, -38.31 94.92, -57.09 85.54 M-57.09 85.54 C-57.09 65.12, -57.09 44.69, -57.09 28.51 M-57.09 28.51 C-38.88 19.42, -20.67 10.32, 0 0" stroke="#0aa8a7" stroke-width="4.5" fill="none" stroke-dasharray="8 12"></path></g></g><g transform="translate(1281.487408093748 863.3982275486951) rotate(0 33.32392290090138 11.264424642558424)"><text x="33.32392290090209" y="18.528849285116898" font-family="Helvetica, Segoe UI Emoji" font-size="19.72974592823039px" fill="#0aa8a7" text-anchor="middle" style="white-space: pre;" direction="ltr">SNI 2.0</text></g><g stroke-linecap="round"><g transform="translate(1313.2232832720074 819.8423411905924) rotate(0 0 57.029938717606456)"><path d="M0 0 C16 7.99, 32 15.99, 57.09 28.51 M57.09 28.51 C57.09 49.73, 57.09 70.94, 57.09 85.54 M57.09 85.54 C40.55 93.81, 24.01 102.07, 0 114.06 M0 114.06 C-14.14 107, -28.29 99.93, -57.09 85.54 M-57.09 85.54 C-57.09 67.95, -57.09 50.35, -57.09 28.51 M-57.09 28.51 C-42.36 21.16, -27.63 13.8, 0 0" stroke="#0aa8a7" stroke-width="4.5" fill="none" stroke-dasharray="8 12"></path></g></g><g transform="translate(1133.1724836333997 864.3369296022474) rotate(0 50.2205598647397 11.264424642558424)"><text x="50.22055986473976" y="18.528849285116898" font-family="Helvetica, Segoe UI Emoji" font-size="19.729745928230386px" fill="#0aa8a7" text-anchor="middle" style="white-space: pre;" direction="ltr">BECAS 2.0</text></g><g stroke-linecap="round"><g transform="translate(1181.804995775481 820.7810432441393) rotate(0 0 57.029938717606456)"><path d="M0 0 C11.86 5.92, 23.71 11.84, 57.09 28.51 M0 0 C18.25 9.12, 36.5 18.23, 57.09 28.51 M57.09 28.51 C57.09 43.31, 57.09 58.1, 57.09 85.54 M57.09 28.51 C57.09 50.77, 57.09 73.02, 57.09 85.54 M57.09 85.54 C38.68 94.74, 20.27 103.94, 0 114.06 M57.09 85.54 C40.03 94.07, 22.97 102.59, 0 114.06 M0 114.06 C-13.13 107.5, -26.27 100.94, -57.09 85.54 M0 114.06 C-17.39 105.37, -34.79 96.68, -57.09 85.54 M-57.09 85.54 C-57.09 66.35, -57.09 47.16, -57.09 28.51 M-57.09 85.54 C-57.09 62.9, -57.09 40.25, -57.09 28.51 M-57.09 28.51 C-40.57 20.27, -24.05 12.02, 0 0 M-57.09 28.51 C-35.76 17.86, -14.44 7.21, 0 0" stroke="#0aa8a7" stroke-width="4" fill="none"></path></g></g><g stroke-linecap="round"><g transform="translate(787.5501332859458 364.57184522052466) rotate(0 0 57.029938717606456)"><path d="M0 0 C20.88 10.43, 41.76 20.86, 57.09 28.51 M0 0 C18.18 9.08, 36.36 18.16, 57.09 28.51 M57.09 28.51 C57.09 40.59, 57.09 52.66, 57.09 85.54 M57.09 28.51 C57.09 49.07, 57.09 69.63, 57.09 85.54 M57.09 85.54 C36.43 95.86, 15.78 106.18, 0 114.06 M57.09 85.54 C44.96 91.6, 32.84 97.66, 0 114.06 M0 114.06 C-13.24 107.45, -26.47 100.84, -57.09 85.54 M0 114.06 C-21.13 103.5, -42.27 92.95, -57.09 85.54 M-57.09 85.54 C-57.09 68.66, -57.09 51.78, -57.09 28.51 M-57.09 85.54 C-57.09 71.56, -57.09 57.58, -57.09 28.51 M-57.09 28.51 C-41.97 20.96, -26.85 13.41, 0 0 M-57.09 28.51 C-37.94 18.95, -18.79 9.39, 0 0" stroke="#0aa8a7" stroke-width="4" fill="none"></path></g></g><g transform="translate(755.6578077654449 409.1707338603492) rotate(0 36.04442051905062 14.914932628572842)"><text x="36.044420519051414" y="22.829865257145997" font-family="Helvetica, Segoe UI Emoji" font-size="26.123645071638794px" fill="#0aa8a7" text-anchor="middle" style="white-space: pre;" direction="ltr">PNPC</text></g><g transform="translate(870.8052596671441 408.1277315786292) rotate(0 49.75120883796626 11.264424642558424)"><text x="49.75120883796649" y="18.528849285116898" font-family="Helvetica, Segoe UI Emoji" font-size="19.729745928230383px" fill="#0aa8a7" text-anchor="middle" style="white-space: pre;" direction="ltr">RENIECYT</text></g><g stroke-linecap="round"><g transform="translate(918.9684207824575 364.57184522052466) rotate(0 0 57.029938717606456)"><path d="M0 0 C11.7 5.85, 23.4 11.69, 57.09 28.51 M0 0 C15.23 7.61, 30.45 15.21, 57.09 28.51 M57.09 28.51 C57.09 41.98, 57.09 55.45, 57.09 85.54 M57.09 28.51 C57.09 41.04, 57.09 53.56, 57.09 85.54 M57.09 85.54 C39.72 94.22, 22.36 102.89, 0 114.06 M57.09 85.54 C40.58 93.79, 24.08 102.03, 0 114.06 M0 114.06 C-19.54 104.3, -39.08 94.54, -57.09 85.54 M0 114.06 C-22.46 102.84, -44.92 91.62, -57.09 85.54 M-57.09 85.54 C-57.09 66.38, -57.09 47.21, -57.09 28.51 M-57.09 85.54 C-57.09 65.59, -57.09 45.64, -57.09 28.51 M-57.09 28.51 C-40.18 20.07, -23.28 11.63, 0 0 M-57.09 28.51 C-36.96 18.46, -16.83 8.4, 0 0" stroke="#0aa8a7" stroke-width="4" fill="none"></path></g></g><g stroke-linecap="round"><g transform="translate(1050.3867082789693 364.57184522052466) rotate(0 0 57.029938717606456)"><path d="M0 0 C19.86 9.92, 39.73 19.85, 57.09 28.51 M0 0 C14.03 7.01, 28.07 14.02, 57.09 28.51 M57.09 28.51 C57.09 46.92, 57.09 65.32, 57.09 85.54 M57.09 28.51 C57.09 41.82, 57.09 55.12, 57.09 85.54 M57.09 85.54 C37.19 95.48, 17.29 105.42, 0 114.06 M57.09 85.54 C44.06 92.05, 31.03 98.56, 0 114.06 M0 114.06 C-21.08 103.53, -42.16 93, -57.09 85.54 M0 114.06 C-22.23 102.96, -44.46 91.85, -57.09 85.54 M-57.09 85.54 C-57.09 65.26, -57.09 44.98, -57.09 28.51 M-57.09 85.54 C-57.09 67.18, -57.09 48.82, -57.09 28.51 M-57.09 28.51 C-40.89 20.42, -24.69 12.33, 0 0 M-57.09 28.51 C-42.85 21.4, -28.62 14.29, 0 0" stroke="#0aa8a7" stroke-width="4" fill="none"></path></g></g><g transform="translate(1024.7523964487882 408.1277315786292) rotate(0 27.22235955285032 11.264424642558424)"><text x="27.222359552849582" y="18.528849285116898" font-family="Helvetica, Segoe UI Emoji" font-size="19.729745928230383px" fill="#0aa8a7" text-anchor="middle" style="white-space: pre;" direction="ltr">RCEA</text></g><g transform="translate(1150.0691205972216 408.1277315786292) rotate(0 33.32392290090138 11.264424642558424)"><text x="33.32392290090209" y="18.528849285116898" font-family="Helvetica, Segoe UI Emoji" font-size="19.72974592823039px" fill="#0aa8a7" text-anchor="middle" style="white-space: pre;" direction="ltr">BECAS</text></g><g stroke-linecap="round"><g transform="translate(1181.804995775481 364.57184522052466) rotate(0 0 57.029938717606456)"><path d="M0 0 C15.77 7.88, 31.54 15.75, 57.09 28.51 M0 0 C19.78 9.88, 39.56 19.76, 57.09 28.51 M57.09 28.51 C57.09 50.01, 57.09 71.5, 57.09 85.54 M57.09 28.51 C57.09 44.15, 57.09 59.78, 57.09 85.54 M57.09 85.54 C41.55 93.3, 26.01 101.07, 0 114.06 M57.09 85.54 C38.78 94.69, 20.48 103.83, 0 114.06 M0 114.06 C-21.86 103.14, -43.72 92.22, -57.09 85.54 M0 114.06 C-15.75 106.19, -31.5 98.32, -57.09 85.54 M-57.09 85.54 C-57.09 67.64, -57.09 49.73, -57.09 28.51 M-57.09 85.54 C-57.09 62.87, -57.09 40.19, -57.09 28.51 M-57.09 28.51 C-44.2 22.08, -31.31 15.64, 0 0 M-57.09 28.51 C-40.57 20.27, -24.06 12.02, 0 0" stroke="#0aa8a7" stroke-width="4" fill="none"></path></g></g><g transform="translate(1150.0691205972216 558.320060146084) rotate(0 33.32392290090138 11.264424642558424)"><text x="33.32392290090209" y="18.528849285116898" font-family="Helvetica, Segoe UI Emoji" font-size="19.72974592823039px" fill="#0aa8a7" text-anchor="middle" style="white-space: pre;" direction="ltr">BECAS</text></g><g stroke-linecap="round"><g transform="translate(1181.804995775481 514.7641737879667) rotate(0 0 57.029938717606456)"><path d="M0 0 C18.83 9.4, 37.65 18.81, 57.09 28.51 M0 0 C19.33 9.66, 38.67 19.31, 57.09 28.51 M57.09 28.51 C57.09 45.17, 57.09 61.83, 57.09 85.54 M57.09 28.51 C57.09 46.01, 57.09 63.5, 57.09 85.54 M57.09 85.54 C34.73 96.71, 12.37 107.88, 0 114.06 M57.09 85.54 C44.11 92.02, 31.14 98.5, 0 114.06 M0 114.06 C-12.19 107.97, -24.37 101.88, -57.09 85.54 M0 114.06 C-16.02 106.06, -32.03 98.06, -57.09 85.54 M-57.09 85.54 C-57.09 71.74, -57.09 57.93, -57.09 28.51 M-57.09 85.54 C-57.09 65.63, -57.09 45.71, -57.09 28.51 M-57.09 28.51 C-38.05 19, -19.01 9.49, 0 0 M-57.09 28.51 C-34.48 17.22, -11.87 5.93, 0 0" stroke="#0aa8a7" stroke-width="4" fill="none"></path></g></g><g transform="translate(1298.384045057599 408.1277315786292) rotate(0 16.42728593706488 11.264424642558424)"><text x="16.4272859370644" y="18.528849285116898" font-family="Helvetica, Segoe UI Emoji" font-size="19.72974592823038px" fill="#0aa8a7" text-anchor="middle" style="white-space: pre;" direction="ltr">SNI</text></g><g stroke-linecap="round"><g transform="translate(1313.2232832720074 364.57184522052466) rotate(0 0 57.029938717606456)"><path d="M0 0 C18.18 9.08, 36.36 18.16, 57.09 28.51 M0 0 C12.08 6.04, 24.17 12.07, 57.09 28.51 M57.09 28.51 C57.09 49.07, 57.09 69.63, 57.09 85.54 M57.09 28.51 C57.09 49.15, 57.09 69.78, 57.09 85.54 M57.09 85.54 C44.96 91.6, 32.84 97.66, 0 114.06 M57.09 85.54 C43.85 92.16, 30.61 98.77, 0 114.06 M0 114.06 C-21.13 103.5, -42.27 92.95, -57.09 85.54 M0 114.06 C-16.9 105.62, -33.8 97.18, -57.09 85.54 M-57.09 85.54 C-57.09 71.56, -57.09 57.58, -57.09 28.51 M-57.09 85.54 C-57.09 70.44, -57.09 55.34, -57.09 28.51 M-57.09 28.51 C-37.94 18.95, -18.79 9.39, 0 0 M-57.09 28.51 C-36.34 18.15, -15.6 7.79, 0 0" stroke="#0aa8a7" stroke-width="4" fill="none"></path></g></g><g stroke-linecap="round"><g transform="translate(524.7135582929077 364.57184522052466) rotate(0 0 57.029938717606456)"><path d="M0 0 C21.87 10.92, 43.74 21.85, 57.09 28.51 M0 0 C17.05 8.52, 34.1 17.04, 57.09 28.51 M57.09 28.51 C57.09 49.21, 57.09 69.91, 57.09 85.54 M57.09 28.51 C57.09 43.74, 57.09 58.97, 57.09 85.54 M57.09 85.54 C35.86 96.15, 14.64 106.75, 0 114.06 M57.09 85.54 C40.79 93.68, 24.5 101.82, 0 114.06 M0 114.06 C-14.09 107.02, -28.18 99.98, -57.09 85.54 M0 114.06 C-11.44 108.34, -22.89 102.63, -57.09 85.54 M-57.09 85.54 C-57.09 63.31, -57.09 41.08, -57.09 28.51 M-57.09 85.54 C-57.09 64.57, -57.09 43.6, -57.09 28.51 M-57.09 28.51 C-37.39 18.68, -17.7 8.84, 0 0 M-57.09 28.51 C-44.32 22.14, -31.56 15.77, 0 0" stroke="#0aa8a7" stroke-width="4" fill="none"></path></g></g><g transform="translate(497.87542972727897 407.3349387709741) rotate(0 26.387957727474713 14.393431487713315)"><text x="26.387957727474596" y="21.786862975426835" font-family="Helvetica, Segoe UI Emoji" font-size="25.130096671458514px" fill="#0aa8a7" text-anchor="middle" style="white-space: pre;" direction="ltr">CVU</text></g><g stroke-linecap="round"><g transform="translate(130.45869580335602 664.956502355416) rotate(0 0 57.029938717606456)"><path d="M0 0 C15.23 7.61, 30.45 15.21, 57.09 28.51 M0 0 C13.48 6.73, 26.96 13.47, 57.09 28.51 M57.09 28.51 C57.09 41.04, 57.09 53.56, 57.09 85.54 M57.09 28.51 C57.09 45.86, 57.09 63.21, 57.09 85.54 M57.09 85.54 C40.58 93.79, 24.08 102.03, 0 114.06 M57.09 85.54 C37.55 95.3, 18.01 105.06, 0 114.06 M0 114.06 C-22.46 102.84, -44.92 91.62, -57.09 85.54 M0 114.06 C-19.19 104.48, -38.38 94.89, -57.09 85.54 M-57.09 85.54 C-57.09 65.59, -57.09 45.64, -57.09 28.51 M-57.09 85.54 C-57.09 68.66, -57.09 51.77, -57.09 28.51 M-57.09 28.51 C-36.96 18.46, -16.83 8.4, 0 0 M-57.09 28.51 C-38.31 19.14, -19.53 9.76, 0 0" stroke="#0aa8a7" stroke-width="4" fill="none"></path></g></g><g transform="translate(100.43941027849542 707.7195959058763) rotate(0 29.569114686715693 14.549881829971127)"><text x="29.56911468671594" y="22.09976365994266" font-family="Helvetica, Segoe UI Emoji" font-size="25.130096671458514px" fill="#0aa8a7" text-anchor="middle" style="white-space: pre;" direction="ltr">SACI</text></g><g stroke-linecap="round"><g transform="translate(130.4586958033742 820.7810432441393) rotate(0 0 57.029938717606456)"><path d="M0 0 C21.98 10.98, 43.95 21.95, 57.09 28.51 M57.09 28.51 C57.09 42.12, 57.09 55.72, 57.09 85.54 M57.09 85.54 C36.99 95.58, 16.9 105.62, 0 114.06 M0 114.06 C-14.64 106.75, -29.27 99.44, -57.09 85.54 M-57.09 85.54 C-57.09 66.77, -57.09 48, -57.09 28.51 M-57.09 28.51 C-44.57 22.26, -32.05 16.01, 0 0" stroke="#0aa8a7" stroke-width="4.5" fill="none" stroke-dasharray="8 12"></path></g></g><g transform="translate(100.43941027849178 863.5441367945959) rotate(0 29.569114686715693 14.549881829971127)"><text x="29.56911468671594" y="22.09976365994266" font-family="Helvetica, Segoe UI Emoji" font-size="25.130096671458514px" fill="#0aa8a7" text-anchor="middle" style="white-space: pre;" direction="ltr">SACI</text></g><g transform="translate(615.5259010745176 557.2098318613798) rotate(0 42.70267596093254 14.234225320310543)"><text x="42.702675960932005" y="21.468450640621345" font-family="Helvetica, Segoe UI Emoji" font-size="25.384677620222323px" fill="#0aa8a7" text-anchor="middle" style="white-space: pre;" direction="ltr">Fondos</text></g><g stroke-linecap="round"><g transform="translate(656.131845789434 514.7641737879667) rotate(0 0 57.029938717606456)"><path d="M0 0 C16.54 8.26, 33.08 16.52, 57.09 28.51 M0 0 C14.14 7.06, 28.29 14.13, 57.09 28.51 M57.09 28.51 C57.09 46.11, 57.09 63.71, 57.09 85.54 M57.09 28.51 C57.09 43.23, 57.09 57.94, 57.09 85.54 M57.09 85.54 C43.38 92.39, 29.68 99.23, 0 114.06 M57.09 85.54 C40.71 93.73, 24.33 101.91, 0 114.06 M0 114.06 C-16.72 105.71, -33.45 97.35, -57.09 85.54 M0 114.06 C-12.24 107.95, -24.48 101.83, -57.09 85.54 M-57.09 85.54 C-57.09 71.06, -57.09 56.58, -57.09 28.51 M-57.09 85.54 C-57.09 68.75, -57.09 51.96, -57.09 28.51 M-57.09 28.51 C-42.29 21.12, -27.5 13.73, 0 0 M-57.09 28.51 C-43.79 21.87, -30.49 15.23, 0 0" stroke="#0aa8a7" stroke-width="4" fill="none"></path></g></g><g transform="translate(616.0700429642129 407.0175032939378) rotate(0 42.70267596093254 14.234225320310543)"><text x="42.702675960932005" y="21.468450640621345" font-family="Helvetica, Segoe UI Emoji" font-size="25.384677620222323px" fill="#0aa8a7" text-anchor="middle" style="white-space: pre;" direction="ltr">Fondos</text></g><g stroke-linecap="round"><g transform="translate(656.131845789434 364.57184522052466) rotate(0 0 57.029938717606456)"><path d="M0 0 C14.8 7.4, 29.61 14.79, 57.09 28.51 M0 0 C22.27 11.13, 44.55 22.25, 57.09 28.51 M57.09 28.51 C57.09 46.91, 57.09 65.3, 57.09 85.54 M57.09 28.51 C57.09 45.56, 57.09 62.6, 57.09 85.54 M57.09 85.54 C43.95 92.11, 30.82 98.67, 0 114.06 M57.09 85.54 C39.69 94.23, 22.3 102.92, 0 114.06 M0 114.06 C-19.21 104.46, -38.42 94.87, -57.09 85.54 M0 114.06 C-22.67 102.74, -45.33 91.41, -57.09 85.54 M-57.09 85.54 C-57.09 69.05, -57.09 52.55, -57.09 28.51 M-57.09 85.54 C-57.09 64.24, -57.09 42.94, -57.09 28.51 M-57.09 28.51 C-39.89 19.92, -22.69 11.33, 0 0 M-57.09 28.51 C-44.64 22.3, -32.19 16.08, 0 0" stroke="#0aa8a7" stroke-width="4" fill="none"></path></g></g><g stroke-linecap="round"><g transform="translate(65.44570202483555 491.17320130362623) rotate(0 717.3774602169005 2.4084657067096487)"><path d="M0 0 C303.74 1.02, 607.47 2.04, 1434.75 4.82 M0 0 C517.22 1.74, 1034.44 3.47, 1434.75 4.82" stroke="#0aa8a7" stroke-width="4" fill="none"></path></g></g><g stroke-linecap="round"><g transform="translate(65.44570202483555 651.1732013036262) rotate(0 717.3774602169005 -2.495370009569342)"><path d="M0 0 C428.58 -1.49, 857.17 -2.98, 1434.75 -4.99 M0 0 C520.67 -1.81, 1041.33 -3.62, 1434.75 -4.99" stroke="#0aa8a7" stroke-width="4" fill="none"></path></g></g><g stroke-linecap="round"><g transform="translate(73.37350106790655 796.3747898519277) rotate(0 713.4135606953687 0)"><path d="M0 0 C375.61 0, 751.22 0, 1426.83 0 M0 0 C512.97 0, 1025.95 0, 1426.83 0" stroke="#0aa8a7" stroke-width="4" fill="none"></path></g></g><g stroke-linecap="round"><g transform="translate(523.9504867702235 477.2160916461062) rotate(0 0 93.87020535465354)"><path d="M0 0 C0 44.34, 0 88.67, 0 187.74" stroke="#0aa8a7" stroke-width="4.5" fill="none" stroke-dasharray="8 12"></path></g><g transform="translate(523.9504867702235 477.2160916461062) rotate(0 0 93.87020535465354)"><path d="M6.11 180.46 C7.67 181.77, 9 184.09, 9.36 186.09 C9.71 188.1, 9.24 190.73, 8.23 192.49 C7.21 194.25, 5.16 195.97, 3.25 196.67 C1.34 197.36, -1.34 197.36, -3.25 196.67 C-5.16 195.97, -7.21 194.25, -8.23 192.49 C-9.24 190.73, -9.71 188.1, -9.36 186.09 C-9 184.09, -7.67 181.77, -6.11 180.46 C-4.55 179.15, -2.04 178.24, 0 178.24 C2.04 178.24, 4.55 179.15, 6.11 180.46" stroke="none" stroke-width="0" fill="#0aa8a7"></path></g></g><g stroke-linecap="round"><g transform="translate(655.3687742667498 477.2160916461098) rotate(0 0 18.774041070930707)"><path d="M0 0 C0 12.12, 0 24.23, 0 37.55" stroke="#0aa8a7" stroke-width="4.5" fill="none" stroke-dasharray="8 12"></path></g><g transform="translate(655.3687742667498 477.2160916461098) rotate(0 0 18.774041070930707)"><path d="M6.11 30.27 C7.67 31.58, 9 33.89, 9.36 35.9 C9.71 37.9, 9.24 40.54, 8.23 42.3 C7.21 44.06, 5.16 45.78, 3.25 46.48 C1.34 47.17, -1.34 47.17, -3.25 46.48 C-5.16 45.78, -7.21 44.06, -8.23 42.3 C-9.24 40.54, -9.71 37.9, -9.36 35.9 C-9 33.89, -7.67 31.58, -6.11 30.27 C-4.55 28.96, -2.04 28.05, 0 28.05 C2.04 28.05, 4.55 28.96, 6.11 30.27" stroke="none" stroke-width="0" fill="#0aa8a7"></path></g></g><g stroke-linecap="round"><g transform="translate(786.7870617632543 477.2160916461098) rotate(0 0 18.774041070930707)"><path d="M0 0 C0 8.96, 0 17.91, 0 37.55" stroke="#0aa8a7" stroke-width="4.5" fill="none" stroke-dasharray="8 12"></path></g><g transform="translate(786.7870617632543 477.2160916461098) rotate(0 0 18.774041070930707)"><path d="M6.11 30.27 C7.67 31.58, 9 33.89, 9.36 35.9 C9.71 37.9, 9.24 40.54, 8.23 42.3 C7.21 44.06, 5.16 45.78, 3.25 46.48 C1.34 47.17, -1.34 47.17, -3.25 46.48 C-5.16 45.78, -7.21 44.06, -8.23 42.3 C-9.24 40.54, -9.71 37.9, -9.36 35.9 C-9 33.89, -7.67 31.58, -6.11 30.27 C-4.55 28.96, -2.04 28.05, 0 28.05 C2.04 28.05, 4.55 28.96, 6.11 30.27" stroke="none" stroke-width="0" fill="#0aa8a7"></path></g></g><g stroke-linecap="round"><g transform="translate(655.3687742667498 627.4084202135518) rotate(0 0 18.774041070930707)"><path d="M0 0 C0 12.6, 0 25.2, 0 37.55" stroke="#0aa8a7" stroke-width="4.5" fill="none" stroke-dasharray="8 12"></path></g><g transform="translate(655.3687742667498 627.4084202135518) rotate(0 0 18.774041070930707)"><path d="M6.11 30.27 C7.67 31.58, 9 33.89, 9.36 35.9 C9.71 37.9, 9.24 40.54, 8.23 42.3 C7.21 44.06, 5.16 45.78, 3.25 46.48 C1.34 47.17, -1.34 47.17, -3.25 46.48 C-5.16 45.78, -7.21 44.06, -8.23 42.3 C-9.24 40.54, -9.71 37.9, -9.36 35.9 C-9 33.89, -7.67 31.58, -6.11 30.27 C-4.55 28.96, -2.04 28.05, 0 28.05 C2.04 28.05, 4.55 28.96, 6.11 30.27" stroke="none" stroke-width="0" fill="#0aa8a7"></path></g></g><g stroke-linecap="round"><g transform="translate(918.2053492597806 477.2160916461062) rotate(0 0 93.87020535465354)"><path d="M0 0 C0 70.75, 0 141.5, 0 187.74" stroke="#0aa8a7" stroke-width="4.5" fill="none" stroke-dasharray="8 12"></path></g><g transform="translate(918.2053492597806 477.2160916461062) rotate(0 0 93.87020535465354)"><path d="M6.11 180.46 C7.67 181.77, 9 184.09, 9.36 186.09 C9.71 188.1, 9.24 190.73, 8.23 192.49 C7.21 194.25, 5.16 195.97, 3.25 196.67 C1.34 197.36, -1.34 197.36, -3.25 196.67 C-5.16 195.97, -7.21 194.25, -8.23 192.49 C-9.24 190.73, -9.71 188.1, -9.36 186.09 C-9 184.09, -7.67 181.77, -6.11 180.46 C-4.55 179.15, -2.04 178.24, 0 178.24 C2.04 178.24, 4.55 179.15, 6.11 180.46" stroke="none" stroke-width="0" fill="#0aa8a7"></path></g></g><g stroke-linecap="round"><g transform="translate(786.7870617632543 627.4084202135573) rotate(0 0 93.87020535465354)"><path d="M0 0 C0 46.51, 0 93.02, 0 187.74" stroke="#0aa8a7" stroke-width="4.5" fill="none" stroke-dasharray="8 12"></path></g><g transform="translate(786.7870617632543 627.4084202135573) rotate(0 0 93.87020535465354)"><path d="M6.11 180.46 C7.67 181.77, 9 184.09, 9.36 186.09 C9.71 188.1, 9.24 190.73, 8.23 192.49 C7.21 194.25, 5.16 195.97, 3.25 196.67 C1.34 197.36, -1.34 197.36, -3.25 196.67 C-5.16 195.97, -7.21 194.25, -8.23 192.49 C-9.24 190.73, -9.71 188.1, -9.36 186.09 C-9 184.09, -7.67 181.77, -6.11 180.46 C-4.55 179.15, -2.04 178.24, 0 178.24 C2.04 178.24, 4.55 179.15, 6.11 180.46" stroke="none" stroke-width="0" fill="#0aa8a7"></path></g></g><g stroke-linecap="round"><g transform="translate(1049.6236367562997 477.2160916461062) rotate(0 0 93.87020535465354)"><path d="M0 0 C0 54.83, 0 109.67, 0 187.74" stroke="#0aa8a7" stroke-width="4.5" fill="none" stroke-dasharray="8 12"></path></g><g transform="translate(1049.6236367562997 477.2160916461062) rotate(0 0 93.87020535465354)"><path d="M6.11 180.46 C7.67 181.77, 9 184.09, 9.36 186.09 C9.71 188.1, 9.24 190.73, 8.23 192.49 C7.21 194.25, 5.16 195.97, 3.25 196.67 C1.34 197.36, -1.34 197.36, -3.25 196.67 C-5.16 195.97, -7.21 194.25, -8.23 192.49 C-9.24 190.73, -9.71 188.1, -9.36 186.09 C-9 184.09, -7.67 181.77, -6.11 180.46 C-4.55 179.15, -2.04 178.24, 0 178.24 C2.04 178.24, 4.55 179.15, 6.11 180.46" stroke="none" stroke-width="0" fill="#0aa8a7"></path></g></g><g stroke-linecap="round"><g transform="translate(1181.0419242528042 477.2160916461098) rotate(0 0 18.774041070930707)"><path d="M0 0 C0 14.65, 0 29.3, 0 37.55" stroke="#0aa8a7" stroke-width="4.5" fill="none" stroke-dasharray="8 12"></path></g><g transform="translate(1181.0419242528042 477.2160916461098) rotate(0 0 18.774041070930707)"><path d="M6.11 30.27 C7.67 31.58, 9 33.89, 9.36 35.9 C9.71 37.9, 9.24 40.54, 8.23 42.3 C7.21 44.06, 5.16 45.78, 3.25 46.48 C1.34 47.17, -1.34 47.17, -3.25 46.48 C-5.16 45.78, -7.21 44.06, -8.23 42.3 C-9.24 40.54, -9.71 37.9, -9.36 35.9 C-9 33.89, -7.67 31.58, -6.11 30.27 C-4.55 28.96, -2.04 28.05, 0 28.05 C2.04 28.05, 4.55 28.96, 6.11 30.27" stroke="none" stroke-width="0" fill="#0aa8a7"></path></g></g><g stroke-linecap="round"><g transform="translate(1181.0419242528042 627.4084202135518) rotate(0 0 18.774041070930707)"><path d="M0 0 C0 13.54, 0 27.07, 0 37.55" stroke="#0aa8a7" stroke-width="4.5" fill="none" stroke-dasharray="8 12"></path></g><g transform="translate(1181.0419242528042 627.4084202135518) rotate(0 0 18.774041070930707)"><path d="M6.11 30.27 C7.67 31.58, 9 33.89, 9.36 35.9 C9.71 37.9, 9.24 40.54, 8.23 42.3 C7.21 44.06, 5.16 45.78, 3.25 46.48 C1.34 47.17, -1.34 47.17, -3.25 46.48 C-5.16 45.78, -7.21 44.06, -8.23 42.3 C-9.24 40.54, -9.71 37.9, -9.36 35.9 C-9 33.89, -7.67 31.58, -6.11 30.27 C-4.55 28.96, -2.04 28.05, 0 28.05 C2.04 28.05, 4.55 28.96, 6.11 30.27" stroke="none" stroke-width="0" fill="#0aa8a7"></path></g></g><g stroke-linecap="round"><g transform="translate(1312.460211749316 477.2160916461062) rotate(0 0 93.87020535465354)"><path d="M0 0 C0 68.13, 0 136.26, 0 187.74" stroke="#0aa8a7" stroke-width="4.5" fill="none" stroke-dasharray="8 12"></path></g><g transform="translate(1312.460211749316 477.2160916461062) rotate(0 0 93.87020535465354)"><path d="M6.11 180.46 C7.67 181.77, 9 184.09, 9.36 186.09 C9.71 188.1, 9.24 190.73, 8.23 192.49 C7.21 194.25, 5.16 195.97, 3.25 196.67 C1.34 197.36, -1.34 197.36, -3.25 196.67 C-5.16 195.97, -7.21 194.25, -8.23 192.49 C-9.24 190.73, -9.71 188.1, -9.36 186.09 C-9 184.09, -7.67 181.77, -6.11 180.46 C-4.55 179.15, -2.04 178.24, 0 178.24 C2.04 178.24, 4.55 179.15, 6.11 180.46" stroke="none" stroke-width="0" fill="#0aa8a7"></path></g></g><g stroke-linecap="round"><g transform="translate(1312.460211749316 777.600748781003) rotate(0 0 18.774041070930707)"><path d="M0 0 C0 13.5, 0 27, 0 37.55" stroke="#0aa8a7" stroke-width="4.5" fill="none" stroke-dasharray="8 12"></path></g><g transform="translate(1312.460211749316 777.600748781003) rotate(0 0 18.774041070930707)"><path d="M6.11 30.27 C7.67 31.58, 9 33.89, 9.36 35.9 C9.71 37.9, 9.24 40.54, 8.23 42.3 C7.21 44.06, 5.16 45.78, 3.25 46.48 C1.34 47.17, -1.34 47.17, -3.25 46.48 C-5.16 45.78, -7.21 44.06, -8.23 42.3 C-9.24 40.54, -9.71 37.9, -9.36 35.9 C-9 33.89, -7.67 31.58, -6.11 30.27 C-4.55 28.96, -2.04 28.05, 0 28.05 C2.04 28.05, 4.55 28.96, 6.11 30.27" stroke="none" stroke-width="0" fill="#0aa8a7"></path></g></g><g stroke-linecap="round"><g transform="translate(1181.0419242528042 777.600748781003) rotate(0 0 18.774041070930707)"><path d="M0 0 C0 8.25, 0 16.49, 0 37.55" stroke="#0aa8a7" stroke-width="4.5" fill="none" stroke-dasharray="8 12"></path></g><g transform="translate(1181.0419242528042 777.600748781003) rotate(0 0 18.774041070930707)"><path d="M6.11 30.27 C7.67 31.58, 9 33.89, 9.36 35.9 C9.71 37.9, 9.24 40.54, 8.23 42.3 C7.21 44.06, 5.16 45.78, 3.25 46.48 C1.34 47.17, -1.34 47.17, -3.25 46.48 C-5.16 45.78, -7.21 44.06, -8.23 42.3 C-9.24 40.54, -9.71 37.9, -9.36 35.9 C-9 33.89, -7.67 31.58, -6.11 30.27 C-4.55 28.96, -2.04 28.05, 0 28.05 C2.04 28.05, 4.55 28.96, 6.11 30.27" stroke="none" stroke-width="0" fill="#0aa8a7"></path></g></g><g stroke-linecap="round"><g transform="translate(1049.6236367562997 777.600748781003) rotate(0 0 18.774041070930707)"><path d="M0 0 C0 8.76, 0 17.52, 0 37.55" stroke="#0aa8a7" stroke-width="4.5" fill="none" stroke-dasharray="8 12"></path></g><g transform="translate(1049.6236367562997 777.600748781003) rotate(0 0 18.774041070930707)"><path d="M6.11 30.27 C7.67 31.58, 9 33.89, 9.36 35.9 C9.71 37.9, 9.24 40.54, 8.23 42.3 C7.21 44.06, 5.16 45.78, 3.25 46.48 C1.34 47.17, -1.34 47.17, -3.25 46.48 C-5.16 45.78, -7.21 44.06, -8.23 42.3 C-9.24 40.54, -9.71 37.9, -9.36 35.9 C-9 33.89, -7.67 31.58, -6.11 30.27 C-4.55 28.96, -2.04 28.05, 0 28.05 C2.04 28.05, 4.55 28.96, 6.11 30.27" stroke="none" stroke-width="0" fill="#0aa8a7"></path></g></g><g stroke-linecap="round"><g transform="translate(918.2053492597806 777.600748781003) rotate(0 0 18.774041070930707)"><path d="M0 0 C0 13.22, 0 26.43, 0 37.55" stroke="#0aa8a7" stroke-width="4.5" fill="none" stroke-dasharray="8 12"></path></g><g transform="translate(918.2053492597806 777.600748781003) rotate(0 0 18.774041070930707)"><path d="M6.11 30.27 C7.67 31.58, 9 33.89, 9.36 35.9 C9.71 37.9, 9.24 40.54, 8.23 42.3 C7.21 44.06, 5.16 45.78, 3.25 46.48 C1.34 47.17, -1.34 47.17, -3.25 46.48 C-5.16 45.78, -7.21 44.06, -8.23 42.3 C-9.24 40.54, -9.71 37.9, -9.36 35.9 C-9 33.89, -7.67 31.58, -6.11 30.27 C-4.55 28.96, -2.04 28.05, 0 28.05 C2.04 28.05, 4.55 28.96, 6.11 30.27" stroke="none" stroke-width="0" fill="#0aa8a7"></path></g></g><g stroke-linecap="round"><g transform="translate(655.3687742667498 777.600748781003) rotate(0 0 18.774041070930707)"><path d="M0 0 C0 13.45, 0 26.9, 0 37.55" stroke="#0aa8a7" stroke-width="4.5" fill="none" stroke-dasharray="8 12"></path></g><g transform="translate(655.3687742667498 777.600748781003) rotate(0 0 18.774041070930707)"><path d="M6.11 30.27 C7.67 31.58, 9 33.89, 9.36 35.9 C9.71 37.9, 9.24 40.54, 8.23 42.3 C7.21 44.06, 5.16 45.78, 3.25 46.48 C1.34 47.17, -1.34 47.17, -3.25 46.48 C-5.16 45.78, -7.21 44.06, -8.23 42.3 C-9.24 40.54, -9.71 37.9, -9.36 35.9 C-9 33.89, -7.67 31.58, -6.11 30.27 C-4.55 28.96, -2.04 28.05, 0 28.05 C2.04 28.05, 4.55 28.96, 6.11 30.27" stroke="none" stroke-width="0" fill="#0aa8a7"></path></g></g><g stroke-linecap="round"><g transform="translate(523.9504867702235 777.600748781003) rotate(0 0 18.774041070930707)"><path d="M0 0 C0 10.29, 0 20.59, 0 37.55" stroke="#0aa8a7" stroke-width="4.5" fill="none" stroke-dasharray="8 12"></path></g><g transform="translate(523.9504867702235 777.600748781003) rotate(0 0 18.774041070930707)"><path d="M6.11 30.27 C7.67 31.58, 9 33.89, 9.36 35.9 C9.71 37.9, 9.24 40.54, 8.23 42.3 C7.21 44.06, 5.16 45.78, 3.25 46.48 C1.34 47.17, -1.34 47.17, -3.25 46.48 C-5.16 45.78, -7.21 44.06, -8.23 42.3 C-9.24 40.54, -9.71 37.9, -9.36 35.9 C-9 33.89, -7.67 31.58, -6.11 30.27 C-4.55 28.96, -2.04 28.05, 0 28.05 C2.04 28.05, 4.55 28.96, 6.11 30.27" stroke="none" stroke-width="0" fill="#0aa8a7"></path></g></g><g stroke-linecap="round"><g transform="translate(261.1139117772018 777.600748781003) rotate(0 0 18.774041070930707)"><path d="M0 0 C0 11.59, 0 23.17, 0 37.55" stroke="#0aa8a7" stroke-width="4.5" fill="none" stroke-dasharray="8 12"></path></g><g transform="translate(261.1139117772018 777.600748781003) rotate(0 0 18.774041070930707)"><path d="M6.11 30.27 C7.67 31.58, 9 33.89, 9.36 35.9 C9.71 37.9, 9.24 40.54, 8.23 42.3 C7.21 44.06, 5.16 45.78, 3.25 46.48 C1.34 47.17, -1.34 47.17, -3.25 46.48 C-5.16 45.78, -7.21 44.06, -8.23 42.3 C-9.24 40.54, -9.71 37.9, -9.36 35.9 C-9 33.89, -7.67 31.58, -6.11 30.27 C-4.55 28.96, -2.04 28.05, 0 28.05 C2.04 28.05, 4.55 28.96, 6.11 30.27" stroke="none" stroke-width="0" fill="#0aa8a7"></path></g></g><g stroke-linecap="round"><g transform="translate(392.53219927372083 777.600748781003) rotate(0 0 18.774041070930707)"><path d="M0 0 C0 11.52, 0 23.04, 0 37.55" stroke="#0aa8a7" stroke-width="4.5" fill="none" stroke-dasharray="8 12"></path></g><g transform="translate(392.53219927372083 777.600748781003) rotate(0 0 18.774041070930707)"><path d="M6.11 30.27 C7.67 31.58, 9 33.89, 9.36 35.9 C9.71 37.9, 9.24 40.54, 8.23 42.3 C7.21 44.06, 5.16 45.78, 3.25 46.48 C1.34 47.17, -1.34 47.17, -3.25 46.48 C-5.16 45.78, -7.21 44.06, -8.23 42.3 C-9.24 40.54, -9.71 37.9, -9.36 35.9 C-9 33.89, -7.67 31.58, -6.11 30.27 C-4.55 28.96, -2.04 28.05, 0 28.05 C2.04 28.05, 4.55 28.96, 6.11 30.27" stroke="none" stroke-width="0" fill="#0aa8a7"></path></g></g><g stroke-linecap="round"><g transform="translate(130.7208196621632 779.0191938675953) rotate(0 0.32936411582159053 19.43278437989602)"><path d="M0 0 C0.21 12.53, 0.42 25.07, 0.66 38.87" stroke="#0aa8a7" stroke-width="4.5" fill="none" stroke-dasharray="8 12"></path></g><g transform="translate(130.7208196621632 779.0191938675953) rotate(0 0.32936411582159053 19.43278437989602)"><path d="M6.77 31.59 C8.32 32.9, 9.66 35.21, 10.01 37.22 C10.37 39.22, 9.9 41.85, 8.89 43.62 C7.87 45.38, 5.82 47.1, 3.91 47.79 C2 48.49, -0.68 48.49, -2.59 47.79 C-4.5 47.1, -6.55 45.38, -7.57 43.62 C-8.59 41.85, -9.05 39.22, -8.7 37.22 C-8.34 35.21, -7.01 32.9, -5.45 31.59 C-3.89 30.28, -1.38 29.37, 0.66 29.37 C2.69 29.37, 5.21 30.28, 6.77 31.59" stroke="none" stroke-width="0" fill="#0aa8a7"></path></g></g><g stroke-linecap="round"><g transform="translate(1446.5189748756202 820.7810432441393) rotate(0 0 57.029938717606456)"><path d="M0 0 C20.65 10.32, 41.31 20.63, 57.09 28.51 M57.09 28.51 C57.09 40.63, 57.09 52.74, 57.09 85.54 M57.09 85.54 C43.85 92.16, 30.61 98.77, 0 114.06 M0 114.06 C-21.13 103.5, -42.27 92.95, -57.09 85.54 M-57.09 85.54 C-57.09 68.66, -57.09 51.78, -57.09 28.51 M-57.09 28.51 C-43.09 21.52, -29.09 14.53, 0 0" stroke="#0aa8a7" stroke-width="4.5" fill="none" stroke-dasharray="8 12"></path></g></g><g transform="translate(1418.7609252351212 896.1821888414115) rotate(0 27.765818636482436 6.64815375803073)"><text x="27.76581863648157" y="10.296307516061596" font-family="Helvetica, Segoe UI Emoji" font-size="11.83488486039057px" fill="#0aa8a7" text-anchor="middle" style="white-space: pre;" direction="ltr">(Cátedras)</text></g><g transform="translate(1392.0615259660299 853.1524982164983) rotate(0 51.95442323035968 7.640356357405835)"><text x="51.95442323036011" y="12.280712714811793" font-family="Helvetica, Segoe UI Emoji" font-size="13.485059511149183px" fill="#0aa8a7" text-anchor="middle" style="white-space: pre;" direction="ltr">Investigadora(e)s</text></g><g transform="translate(1411.1115702590723 869.9726576846033) rotate(0 33.36728020562077 7.851124754263765)"><text x="33.36728020562092" y="12.702249508527489" font-family="Helvetica, Segoe UI Emoji" font-size="13.699547589045412px" fill="#0aa8a7" text-anchor="middle" style="white-space: pre;" direction="ltr">por México</text></g><g stroke-linecap="round"><g transform="translate(1444.3443285192006 628.8070101917356) rotate(0 0.6953560744132119 94.91320763637214)"><path d="M0 0 C0.48 66.16, 0.97 132.32, 1.39 189.83" stroke="#0aa8a7" stroke-width="4.5" fill="none" stroke-dasharray="8 12"></path></g><g transform="translate(1444.3443285192006 628.8070101917356) rotate(0 0.6953560744132119 94.91320763637214)"><path d="M7.5 182.55 C9.06 183.86, 10.39 186.17, 10.75 188.18 C11.1 190.18, 10.64 192.81, 9.62 194.58 C8.6 196.34, 6.55 198.06, 4.64 198.75 C2.73 199.45, 0.05 199.45, -1.86 198.75 C-3.77 198.06, -5.82 196.34, -6.84 194.58 C-7.85 192.81, -8.32 190.18, -7.96 188.18 C-7.61 186.17, -6.28 183.86, -4.72 182.55 C-3.16 181.24, -0.64 180.33, 1.39 180.33 C3.43 180.33, 5.94 181.24, 7.5 182.55" stroke="none" stroke-width="0" fill="#0aa8a7"></path></g></g><g transform="translate(1494.698904089335 691.6298883867921) rotate(269.8977346988359 52.09796397183345 28.161061606396288)"><text x="52.09796397183284" y="44.32212321279225" font-family="Helvetica, Segoe UI Emoji" font-size="49.16758044415872px" fill="#0aa8a7" text-anchor="middle" style="white-space: pre;" direction="ltr">MIIC</text></g><g transform="translate(1490.9507977019275 537.8069854631967) rotate(269.8977346988359 55.85277218601914 28.161061606396288)"><text x="55.85277218601898" y="44.32212321279225" font-family="Helvetica, Segoe UI Emoji" font-size="49.16758044415874px" fill="#0aa8a7" text-anchor="middle" style="white-space: pre;" direction="ltr">Semi</text></g><g transform="translate(1514.3764626232623 391.6967942641704) rotate(269.8977346988359 32.38522084735632 28.161061606396288)"><text x="32.38522084735554" y="44.32212321279225" font-family="Helvetica, Segoe UI Emoji" font-size="49.16758044415873px" fill="#0aa8a7" text-anchor="middle" style="white-space: pre;" direction="ltr">PS</text></g><g stroke-linecap="round"><g transform="translate(255.949184256815 362.1381285754169) rotate(0 0 57.029938717606456)" fill-rule="evenodd"><path d="M0 0 L57.09 28.51 L57.09 85.54 L0 114.06 L-57.09 85.54 L-57.09 28.51 L0 0" stroke="none" stroke-width="0" fill="#0aa8a7" fill-rule="evenodd"></path><path d="M0 0 C14.73 7.36, 29.46 14.71, 57.09 28.51 M0 0 C13.7 6.84, 27.4 13.69, 57.09 28.51 M57.09 28.51 C57.09 44.88, 57.09 61.24, 57.09 85.54 M57.09 28.51 C57.09 45.22, 57.09 61.93, 57.09 85.54 M57.09 85.54 C44.84 91.66, 32.6 97.77, 0 114.06 M57.09 85.54 C42.59 92.79, 28.09 100.03, 0 114.06 M0 114.06 C-16.81 105.66, -33.62 97.27, -57.09 85.54 M0 114.06 C-14.79 106.67, -29.59 99.28, -57.09 85.54 M-57.09 85.54 C-57.09 72.26, -57.09 58.97, -57.09 28.51 M-57.09 85.54 C-57.09 70.38, -57.09 55.21, -57.09 28.51 M-57.09 28.51 C-36.18 18.07, -15.28 7.63, 0 0 M-57.09 28.51 C-44.23 22.09, -31.38 15.67, 0 0 M0 0 C0 0, 0 0, 0 0 M0 0 C0 0, 0 0, 0 0" stroke="#0aa8a7" stroke-width="4" fill="none"></path></g></g><g transform="translate(241.53723197948239 408.0273439836883) rotate(0 14 10.5)"><text x="14" y="17" font-family="Helvetica, Segoe UI Emoji" font-size="19.729745928230383px" fill="#fff" text-anchor="middle" style="white-space: pre;" direction="ltr">RH</text></g><g transform="translate(355.6315965750673 407.7290876617326) rotate(0 33.32392290090229 11.264424642558424)"><text x="33.32392290090209" y="18.528849285116898" font-family="Helvetica, Segoe UI Emoji" font-size="19.72974592823039px" fill="#fff" text-anchor="middle" style="white-space: pre;" direction="ltr">BECAS</text></g><g stroke-linecap="round"><g transform="translate(388.06918330760345 360.73462515744814) rotate(0 0 57.029938717606456)" fill-rule="evenodd"><path d="M0 0 L57.09 28.51 L57.09 85.54 L0 114.06 L-57.09 85.54 L-57.09 28.51 L0 0" stroke="none" stroke-width="0" fill="#0aa8a7" fill-rule="evenodd"></path><path d="M0 0 C12.12 6.06, 24.25 12.11, 57.09 28.51 M0 0 C13.24 6.61, 26.47 13.22, 57.09 28.51 M57.09 28.51 C57.09 49.63, 57.09 70.74, 57.09 85.54 M57.09 28.51 C57.09 45.4, 57.09 62.28, 57.09 85.54 M57.09 85.54 C43.09 92.54, 29.09 99.53, 0 114.06 M57.09 85.54 C41.97 93.1, 26.85 100.65, 0 114.06 M0 114.06 C-19.15 104.5, -38.29 94.93, -57.09 85.54 M0 114.06 C-20.74 103.7, -41.48 93.34, -57.09 85.54 M-57.09 85.54 C-57.09 68.55, -57.09 51.55, -57.09 28.51 M-57.09 85.54 C-57.09 67.9, -57.09 50.25, -57.09 28.51 M-57.09 28.51 C-38.77 19.37, -20.46 10.22, 0 0 M-57.09 28.51 C-34.73 17.35, -12.38 6.19, 0 0 M0 0 C0 0, 0 0, 0 0 M0 0 C0 0, 0 0, 0 0" stroke="#0aa8a7" stroke-width="4" fill="none"></path></g></g><g transform="translate(346.70708731625746 407.0152823757071) rotate(0 40 10.5)"><text x="40" y="17" font-family="Helvetica, Segoe UI Emoji" font-size="19.729745928230383px" fill="#fff" text-anchor="middle" style="white-space: pre;" direction="ltr">Finanzas</text></g><g stroke-linecap="round"><g transform="translate(1382.5308967603014 928.9433092306199) rotate(0 0 57.029938717606456)"><path d="M0 0 C14.55 7.27, 29.1 14.54, 57.09 28.51 M57.09 28.51 C57.09 46.82, 57.09 65.13, 57.09 85.54 M57.09 85.54 C42.4 92.88, 27.71 100.22, 0 114.06 M0 114.06 C-18.12 105.01, -36.23 95.96, -57.09 85.54 M-57.09 85.54 C-57.09 71.2, -57.09 56.86, -57.09 28.51 M-57.09 28.51 C-42.4 21.18, -27.71 13.84, 0 0" stroke="#0aa8a7" stroke-width="4.5" fill="none" stroke-dasharray="8 12"></path></g></g><g transform="translate(1355.7696092756923 974.2681112953896) rotate(0 27.516483516483277 12.038461538461434)"><text x="27.516483516482985" y="17.07692307692261" font-family="Helvetica, Segoe UI Emoji" font-size="22.620551192439535px" fill="#0aa8a7" text-anchor="middle" style="white-space: pre;" direction="ltr">SGDI</text></g><g stroke-opacity="0.2" fill-opacity="0.2" stroke-linecap="round" transform="translate(10 10) rotate(0 792.2000902176678 91.40770271742304)"><path d="M45.7 0 L1544.23 0.18 L1558.69 2.86 L1569.94 8.75 L1575.65 14.46 L1581.54 25.71 L1583.69 34.99 L1584.4 45.7 L1584.22 142.65 L1582.79 152.64 L1579.94 161.21 L1575.65 168.35 L1569.94 174.07 L1562.8 178.35 L1554.23 181.21 L1538.7 182.82 L40.17 182.64 L25.71 179.96 L14.46 174.07 L11.43 171.39 L6.43 164.96 L2.86 157.11 L0.71 147.82 L0 137.11 L0 45.7 L0.71 34.99 L2.86 25.71 L6.43 17.85 L11.43 11.43 L17.85 6.43 L25.71 2.86 L34.99 0.71 L45.7 0" stroke="none" stroke-width="0" fill="#edf6f5"></path><path d="M45.7 0 M45.7 0 C599.59 0, 1153.47 0, 1538.7 0 M45.7 0 C613.17 0, 1180.64 0, 1538.7 0 M1538.7 0 C1569.17 0, 1584.4 15.23, 1584.4 45.7 M1538.7 0 C1569.17 0, 1584.4 15.23, 1584.4 45.7 M1584.4 45.7 C1584.4 75.31, 1584.4 104.91, 1584.4 137.11 M1584.4 45.7 C1584.4 66.75, 1584.4 87.79, 1584.4 137.11 M1584.4 137.11 C1584.4 167.58, 1569.17 182.82, 1538.7 182.82 M1584.4 137.11 C1584.4 167.58, 1569.17 182.82, 1538.7 182.82 M1538.7 182.82 C1035.92 182.82, 533.15 182.82, 45.7 182.82 M1538.7 182.82 C1011.11 182.82, 483.52 182.82, 45.7 182.82 M45.7 182.82 C15.23 182.82, 0 167.58, 0 137.11 M45.7 182.82 C15.23 182.82, 0 167.58, 0 137.11 M0 137.11 C0 107.9, 0 78.69, 0 45.7 M0 137.11 C0 117.36, 0 97.61, 0 45.7 M0 45.7 C0 15.23, 15.23 0, 45.7 0 M0 45.7 C0 15.23, 15.23 0, 45.7 0" stroke="#edf6f5" stroke-width="1" fill="none"></path></g><g stroke-linecap="round" transform="translate(298.5537059779017 31.070151582383005) rotate(0 116.84423321066606 68.51988137122726)"><path d="M34.26 0 L199.43 0 L207.46 0.54 L214.42 2.14 L220.31 4.82 L225.12 8.56 L228.87 13.38 L231.55 19.27 L233.15 26.23 L233.69 102.78 L233.15 110.81 L231.55 117.77 L228.87 123.66 L225.12 128.47 L220.31 132.22 L214.42 134.9 L207.46 136.5 L199.43 137.04 L34.26 137.04 L26.23 136.5 L19.27 134.9 L13.38 132.22 L8.56 128.47 L4.82 123.66 L2.14 117.77 L0.54 110.81 L0 102.78 L0.54 26.23 L2.14 19.27 L4.82 13.38 L8.56 8.56 L13.38 4.82 L19.27 2.14 L26.23 0.54 L34.26 0" stroke="none" stroke-width="0" fill="#0aa8a7"></path><path d="M34.26 0 M34.26 0 C98.33 0, 162.39 0, 199.43 0 M34.26 0 C78.28 0, 122.3 0, 199.43 0 M199.43 0 C222.27 0, 233.69 11.42, 233.69 34.26 M199.43 0 C222.27 0, 233.69 11.42, 233.69 34.26 M233.69 34.26 C233.69 55.33, 233.69 76.4, 233.69 102.78 M233.69 34.26 C233.69 49.79, 233.69 65.33, 233.69 102.78 M233.69 102.78 C233.69 125.62, 222.27 137.04, 199.43 137.04 M233.69 102.78 C233.69 125.62, 222.27 137.04, 199.43 137.04 M199.43 137.04 C142.09 137.04, 84.74 137.04, 34.26 137.04 M199.43 137.04 C161.1 137.04, 122.77 137.04, 34.26 137.04 M34.26 137.04 C11.42 137.04, 0 125.62, 0 102.78 M34.26 137.04 C11.42 137.04, 0 125.62, 0 102.78 M0 102.78 C0 84.72, 0 66.65, 0 34.26 M0 102.78 C0 86.75, 0 70.72, 0 34.26 M0 34.26 C0 11.42, 11.42 0, 34.26 0 M0 34.26 C0 11.42, 11.42 0, 34.26 0" stroke="#fff" stroke-width="1" fill="none"></path></g><g stroke-linecap="round" transform="translate(568.559931424963 33.59798417613729) rotate(0 116.84423321066606 68.51988137122726)"><path d="M34.26 0 L199.43 0 L207.46 0.54 L214.42 2.14 L220.31 4.82 L225.12 8.56 L228.87 13.38 L231.55 19.27 L233.15 26.23 L233.69 102.78 L233.15 110.81 L231.55 117.77 L228.87 123.66 L225.12 128.47 L220.31 132.22 L214.42 134.9 L207.46 136.5 L199.43 137.04 L34.26 137.04 L26.23 136.5 L19.27 134.9 L13.38 132.22 L8.56 128.47 L4.82 123.66 L2.14 117.77 L0.54 110.81 L0 102.78 L0.54 26.23 L2.14 19.27 L4.82 13.38 L8.56 8.56 L13.38 4.82 L19.27 2.14 L26.23 0.54 L34.26 0" stroke="none" stroke-width="0" fill="#0aa8a7"></path><path d="M34.26 0 M34.26 0 C97.04 0, 159.82 0, 199.43 0 M34.26 0 C97.5 0, 160.74 0, 199.43 0 M199.43 0 C222.27 0, 233.69 11.42, 233.69 34.26 M199.43 0 C222.27 0, 233.69 11.42, 233.69 34.26 M233.69 34.26 C233.69 50.03, 233.69 65.81, 233.69 102.78 M233.69 34.26 C233.69 49.34, 233.69 64.42, 233.69 102.78 M233.69 102.78 C233.69 125.62, 222.27 137.04, 199.43 137.04 M233.69 102.78 C233.69 125.62, 222.27 137.04, 199.43 137.04 M199.43 137.04 C141.06 137.04, 82.69 137.04, 34.26 137.04 M199.43 137.04 C141.87 137.04, 84.31 137.04, 34.26 137.04 M34.26 137.04 C11.42 137.04, 0 125.62, 0 102.78 M34.26 137.04 C11.42 137.04, 0 125.62, 0 102.78 M0 102.78 C0 87.97, 0 73.17, 0 34.26 M0 102.78 C0 78.56, 0 54.35, 0 34.26 M0 34.26 C0 11.42, 11.42 0, 34.26 0 M0 34.26 C0 11.42, 11.42 0, 34.26 0" stroke="#fff" stroke-width="1" fill="none"></path></g><g stroke-linecap="round" transform="translate(830.9152502215802 35.45172807821382) rotate(0 116.84423321066606 68.51988137122726)"><path d="M34.26 0 L199.43 0 L207.46 0.54 L214.42 2.14 L220.31 4.82 L225.12 8.56 L228.87 13.38 L231.55 19.27 L233.15 26.23 L233.69 102.78 L233.15 110.81 L231.55 117.77 L228.87 123.66 L225.12 128.47 L220.31 132.22 L214.42 134.9 L207.46 136.5 L199.43 137.04 L34.26 137.04 L26.23 136.5 L19.27 134.9 L13.38 132.22 L8.56 128.47 L4.82 123.66 L2.14 117.77 L0.54 110.81 L0 102.78 L0.54 26.23 L2.14 19.27 L4.82 13.38 L8.56 8.56 L13.38 4.82 L19.27 2.14 L26.23 0.54 L34.26 0" stroke="none" stroke-width="0" fill="#0aa8a7"></path><path d="M34.26 0 M34.26 0 C82.76 0, 131.26 0, 199.43 0 M34.26 0 C73.17 0, 112.08 0, 199.43 0 M199.43 0 C222.27 0, 233.69 11.42, 233.69 34.26 M199.43 0 C222.27 0, 233.69 11.42, 233.69 34.26 M233.69 34.26 C233.69 60.41, 233.69 86.57, 233.69 102.78 M233.69 34.26 C233.69 52.38, 233.69 70.5, 233.69 102.78 M233.69 102.78 C233.69 125.62, 222.27 137.04, 199.43 137.04 M233.69 102.78 C233.69 125.62, 222.27 137.04, 199.43 137.04 M199.43 137.04 C137.48 137.04, 75.54 137.04, 34.26 137.04 M199.43 137.04 C136.25 137.04, 73.07 137.04, 34.26 137.04 M34.26 137.04 C11.42 137.04, 0 125.62, 0 102.78 M34.26 137.04 C11.42 137.04, 0 125.62, 0 102.78 M0 102.78 C0 79.65, 0 56.53, 0 34.26 M0 102.78 C0 80.75, 0 58.71, 0 34.26 M0 34.26 C0 11.42, 11.42 0, 34.26 0 M0 34.26 C0 11.42, 11.42 0, 34.26 0" stroke="#fff" stroke-width="1" fill="none"></path></g><g stroke-linecap="round" transform="translate(1094.028918796299 37.55916036190138) rotate(0 116.84423321066606 68.51988137122726)"><path d="M34.26 0 L199.43 0 L207.46 0.54 L214.42 2.14 L220.31 4.82 L225.12 8.56 L228.87 13.38 L231.55 19.27 L233.15 26.23 L233.69 102.78 L233.15 110.81 L231.55 117.77 L228.87 123.66 L225.12 128.47 L220.31 132.22 L214.42 134.9 L207.46 136.5 L199.43 137.04 L34.26 137.04 L26.23 136.5 L19.27 134.9 L13.38 132.22 L8.56 128.47 L4.82 123.66 L2.14 117.77 L0.54 110.81 L0 102.78 L0.54 26.23 L2.14 19.27 L4.82 13.38 L8.56 8.56 L13.38 4.82 L19.27 2.14 L26.23 0.54 L34.26 0" stroke="none" stroke-width="0" fill="#0aa8a7"></path><path d="M34.26 0 M34.26 0 C99.68 0, 165.1 0, 199.43 0 M34.26 0 C83.53 0, 132.8 0, 199.43 0 M199.43 0 C222.27 0, 233.69 11.42, 233.69 34.26 M199.43 0 C222.27 0, 233.69 11.42, 233.69 34.26 M233.69 34.26 C233.69 56, 233.69 77.75, 233.69 102.78 M233.69 34.26 C233.69 50.66, 233.69 67.06, 233.69 102.78 M233.69 102.78 C233.69 125.62, 222.27 137.04, 199.43 137.04 M233.69 102.78 C233.69 125.62, 222.27 137.04, 199.43 137.04 M199.43 137.04 C146.9 137.04, 94.38 137.04, 34.26 137.04 M199.43 137.04 C140.46 137.04, 81.49 137.04, 34.26 137.04 M34.26 137.04 C11.42 137.04, 0 125.62, 0 102.78 M34.26 137.04 C11.42 137.04, 0 125.62, 0 102.78 M0 102.78 C0 79.03, 0 55.28, 0 34.26 M0 102.78 C0 86.19, 0 69.6, 0 34.26 M0 34.26 C0 11.42, 11.42 0, 34.26 0 M0 34.26 C0 11.42, 11.42 0, 34.26 0" stroke="#fff" stroke-width="1" fill="none"></path></g><g stroke-linecap="round"><g transform="translate(27.551400214768364 191.84977558607807) rotate(0 771.9872555270122 0.17092973758008156)"><path d="M0 0 C257.33 0.06, 1286.65 0.28, 1543.97 0.34" stroke="#0aa8a7" stroke-width="4.5" fill="none" stroke-dasharray="8 12"></path></g></g><g stroke-linecap="round" transform="translate(27.99135736025346 31.07015158237573) rotate(0 116.84423321066606 68.51988137122726)"><path d="M34.26 0 L199.43 0 L207.46 0.54 L214.42 2.14 L220.31 4.82 L225.12 8.56 L228.87 13.38 L231.55 19.27 L233.15 26.23 L233.69 102.78 L233.15 110.81 L231.55 117.77 L228.87 123.66 L225.12 128.47 L220.31 132.22 L214.42 134.9 L207.46 136.5 L199.43 137.04 L34.26 137.04 L26.23 136.5 L19.27 134.9 L13.38 132.22 L8.56 128.47 L4.82 123.66 L2.14 117.77 L0.54 110.81 L0 102.78 L0.54 26.23 L2.14 19.27 L4.82 13.38 L8.56 8.56 L13.38 4.82 L19.27 2.14 L26.23 0.54 L34.26 0" stroke="none" stroke-width="0" fill="#0aa8a7"></path><path d="M34.26 0 M34.26 0 C97.5 0, 160.74 0, 199.43 0 M34.26 0 C94.17 0, 154.07 0, 199.43 0 M199.43 0 C222.27 0, 233.69 11.42, 233.69 34.26 M199.43 0 C222.27 0, 233.69 11.42, 233.69 34.26 M233.69 34.26 C233.69 49.34, 233.69 64.42, 233.69 102.78 M233.69 34.26 C233.69 60.35, 233.69 86.43, 233.69 102.78 M233.69 102.78 C233.69 125.62, 222.27 137.04, 199.43 137.04 M233.69 102.78 C233.69 125.62, 222.27 137.04, 199.43 137.04 M199.43 137.04 C141.87 137.04, 84.31 137.04, 34.26 137.04 M199.43 137.04 C155.99 137.04, 112.55 137.04, 34.26 137.04 M34.26 137.04 C11.42 137.04, 0 125.62, 0 102.78 M34.26 137.04 C11.42 137.04, 0 125.62, 0 102.78 M0 102.78 C0 78.56, 0 54.35, 0 34.26 M0 102.78 C0 82.6, 0 62.43, 0 34.26 M0 34.26 C0 11.42, 11.42 0, 34.26 0 M0 34.26 C0 11.42, 11.42 0, 34.26 0" stroke="#fff" stroke-width="1" fill="none"></path></g><g stroke-linecap="round" transform="translate(1349.1712050082278 37.365438966854526) rotate(0 116.84423321066606 68.51988137122726)"><path d="M34.26 0 L199.43 0 L207.46 0.54 L214.42 2.14 L220.31 4.82 L225.12 8.56 L228.87 13.38 L231.55 19.27 L233.15 26.23 L233.69 102.78 L233.15 110.81 L231.55 117.77 L228.87 123.66 L225.12 128.47 L220.31 132.22 L214.42 134.9 L207.46 136.5 L199.43 137.04 L34.26 137.04 L26.23 136.5 L19.27 134.9 L13.38 132.22 L8.56 128.47 L4.82 123.66 L2.14 117.77 L0.54 110.81 L0 102.78 L0.54 26.23 L2.14 19.27 L4.82 13.38 L8.56 8.56 L13.38 4.82 L19.27 2.14 L26.23 0.54 L34.26 0" stroke="none" stroke-width="0" fill="#0aa8a7"></path><path d="M34.26 0 M34.26 0 C73.17 0, 112.08 0, 199.43 0 M34.26 0 C93.31 0, 152.36 0, 199.43 0 M199.43 0 C222.27 0, 233.69 11.42, 233.69 34.26 M199.43 0 C222.27 0, 233.69 11.42, 233.69 34.26 M233.69 34.26 C233.69 52.38, 233.69 70.5, 233.69 102.78 M233.69 34.26 C233.69 56.61, 233.69 78.97, 233.69 102.78 M233.69 102.78 C233.69 125.62, 222.27 137.04, 199.43 137.04 M233.69 102.78 C233.69 125.62, 222.27 137.04, 199.43 137.04 M199.43 137.04 C136.25 137.04, 73.07 137.04, 34.26 137.04 M199.43 137.04 C150.44 137.04, 101.45 137.04, 34.26 137.04 M34.26 137.04 C11.42 137.04, 0 125.62, 0 102.78 M34.26 137.04 C11.42 137.04, 0 125.62, 0 102.78 M0 102.78 C0 80.75, 0 58.71, 0 34.26 M0 102.78 C0 77.89, 0 53, 0 34.26 M0 34.26 C0 11.42, 11.42 0, 34.26 0 M0 34.26 C0 11.42, 11.42 0, 34.26 0" stroke="#fff" stroke-width="1" fill="none"></path></g><g stroke-linecap="round"><g transform="translate(26.00574342623804 12.250729422279619) rotate(0 774.0408070915091 -0.9064356486005636)"><path d="M0 0 C258.01 -0.3, 1290.07 -1.51, 1548.08 -1.81" stroke="#0aa8a7" stroke-width="4.5" fill="none" stroke-dasharray="8 12"></path></g></g><g transform="translate(350.53489834779975 82.52654698840433) rotate(0 65.33789260116464 19.773309602984227)"><text x="65.33789260116548" y="30.546619205968696" font-family="Helvetica, Segoe UI Emoji" font-size="34.388364526929266px" fill="#fff" text-anchor="middle" style="white-space: pre;" direction="ltr">Solicitud</text></g><g transform="translate(606.816151598694 82.52654698840433) rotate(0 84.25149309097651 19.773309602984227)"><text x="0" y="30.546619205968696" font-family="Helvetica, Segoe UI Emoji" font-size="34.388364526929244px" fill="#fff" text-anchor="start" style="white-space: pre;" direction="ltr">Evaluación</text></g><g transform="translate(842.8170087825456 82.52654698840433) rotate(0 106.60393003348145 19.773309602984227)"><text x="0" y="30.546619205968696" font-family="Helvetica, Segoe UI Emoji" font-size="34.38836452692923px" fill="#fff" text-anchor="start" style="white-space: pre;" direction="ltr">Formalización</text></g><g transform="translate(1120.9949507998608 82.52654698840433) rotate(0 95.42771156222807 19.773309602984227)"><text x="0" y="30.546619205968696" font-family="Helvetica, Segoe UI Emoji" font-size="34.388364526929315px" fill="#fff" text-anchor="start" style="white-space: pre;" direction="ltr">Seguimiento</text></g><g transform="translate(44.39646503820586 82.52654698840433) rotate(0 101.44567535444094 19.773309602984227)"><text x="101.44567535444126" y="30.546619205968696" font-family="Helvetica, Segoe UI Emoji" font-size="34.3883645269292px" fill="#fff" text-anchor="middle" style="white-space: pre;" direction="ltr">Convocatoria</text></g><g transform="translate(1420.192647950982 83.03622516710584) rotate(0 46.49842067930513 19.263631424283176)"><text x="0" y="29.52726284856645" font-family="Helvetica, Segoe UI Emoji" font-size="34.388364526929195px" fill="#fff" text-anchor="start" style="white-space: pre;" direction="ltr">Cierre</text></g></svg>